solid OpenSCAD_Model
  facet normal 0 0 1
    outer loop
      vertex 2 0 7.5
      vertex 2.5 0 7.5
      vertex 2.44537 0.519779 7.5
    endloop
  endfacet
  facet normal -0 0 1
    outer loop
      vertex 1.82709 0.813473 7.5
      vertex 2.44537 0.519779 7.5
      vertex 2.28386 1.01684 7.5
    endloop
  endfacet
  facet normal 0 0 1
    outer loop
      vertex 2.5 0 7.5
      vertex 2 0 7.5
      vertex 2.44537 -0.519779 7.5
    endloop
  endfacet
  facet normal 0 0 1
    outer loop
      vertex 1.82709 0.813473 7.5
      vertex 2.28386 1.01684 7.5
      vertex 2.02254 1.46946 7.5
    endloop
  endfacet
  facet normal 0 0 1
    outer loop
      vertex 1.82709 -0.813473 7.5
      vertex 2.44537 -0.519779 7.5
      vertex 2 0 7.5
    endloop
  endfacet
  facet normal 0 0 1
    outer loop
      vertex 2.44537 -0.519779 7.5
      vertex 1.82709 -0.813473 7.5
      vertex 2.28386 -1.01684 7.5
    endloop
  endfacet
  facet normal 0 0 1
    outer loop
      vertex 2.44537 0.519779 7.5
      vertex 1.82709 0.813473 7.5
      vertex 2 0 7.5
    endloop
  endfacet
  facet normal -0 0 1
    outer loop
      vertex 1.33826 1.48629 7.5
      vertex 2.02254 1.46946 7.5
      vertex 1.67283 1.85786 7.5
    endloop
  endfacet
  facet normal 0 0 1
    outer loop
      vertex 2.02254 1.46946 7.5
      vertex 1.33826 1.48629 7.5
      vertex 1.82709 0.813473 7.5
    endloop
  endfacet
  facet normal 0 0 1
    outer loop
      vertex 1.25 2.16506 7.5
      vertex 1.33826 1.48629 7.5
      vertex 1.67283 1.85786 7.5
    endloop
  endfacet
  facet normal 0 0 1
    outer loop
      vertex 0.618033 1.90211 7.5
      vertex 1.25 2.16506 7.5
      vertex 0.772542 2.37764 7.5
    endloop
  endfacet
  facet normal 0 0 1
    outer loop
      vertex 1.25 2.16506 7.5
      vertex 0.618033 1.90211 7.5
      vertex 1.33826 1.48629 7.5
    endloop
  endfacet
  facet normal 0 0 1
    outer loop
      vertex 0.261321 2.4863 7.5
      vertex 0.618033 1.90211 7.5
      vertex 0.772542 2.37764 7.5
    endloop
  endfacet
  facet normal 0 0 1
    outer loop
      vertex 0.261321 2.4863 7.5
      vertex -0.209057 1.98904 7.5
      vertex 0.618033 1.90211 7.5
    endloop
  endfacet
  facet normal -0 0 1
    outer loop
      vertex -0.261321 2.4863 7.5
      vertex -0.209057 1.98904 7.5
      vertex 0.261321 2.4863 7.5
    endloop
  endfacet
  facet normal -0 0 1
    outer loop
      vertex -0.772542 2.37764 7.5
      vertex -0.209057 1.98904 7.5
      vertex -0.261321 2.4863 7.5
    endloop
  endfacet
  facet normal 0 0 1
    outer loop
      vertex -0.772542 2.37764 7.5
      vertex -0.999999 1.73205 7.5
      vertex -0.209057 1.98904 7.5
    endloop
  endfacet
  facet normal -0 0 1
    outer loop
      vertex -1.25 2.16506 7.5
      vertex -0.999999 1.73205 7.5
      vertex -0.772542 2.37764 7.5
    endloop
  endfacet
  facet normal -0 0 1
    outer loop
      vertex -1.67283 1.85786 7.5
      vertex -0.999999 1.73205 7.5
      vertex -1.25 2.16506 7.5
    endloop
  endfacet
  facet normal 0 0 1
    outer loop
      vertex -0.999999 1.73205 7.5
      vertex -1.67283 1.85786 7.5
      vertex -1.61803 1.17557 7.5
    endloop
  endfacet
  facet normal -0 0 1
    outer loop
      vertex -2.02254 1.46946 7.5
      vertex -1.61803 1.17557 7.5
      vertex -1.67283 1.85786 7.5
    endloop
  endfacet
  facet normal 0 0 1
    outer loop
      vertex -1.61803 1.17557 7.5
      vertex -2.28386 1.01684 7.5
      vertex -1.9563 0.415823 7.5
    endloop
  endfacet
  facet normal 0 0 1
    outer loop
      vertex -2.28386 1.01684 7.5
      vertex -1.61803 1.17557 7.5
      vertex -2.02254 1.46946 7.5
    endloop
  endfacet
  facet normal 0 0 1
    outer loop
      vertex 2.28386 -1.01684 7.5
      vertex 1.82709 -0.813473 7.5
      vertex 2.02254 -1.46946 7.5
    endloop
  endfacet
  facet normal 0 0 1
    outer loop
      vertex 1.33826 -1.48629 7.5
      vertex 2.02254 -1.46946 7.5
      vertex 1.82709 -0.813473 7.5
    endloop
  endfacet
  facet normal 0 0 1
    outer loop
      vertex 2.02254 -1.46946 7.5
      vertex 1.33826 -1.48629 7.5
      vertex 1.67283 -1.85786 7.5
    endloop
  endfacet
  facet normal 0 0 1
    outer loop
      vertex 1.33826 -1.48629 7.5
      vertex 1.25 -2.16506 7.5
      vertex 1.67283 -1.85786 7.5
    endloop
  endfacet
  facet normal -0 0 1
    outer loop
      vertex 0.618033 -1.90211 7.5
      vertex 1.25 -2.16506 7.5
      vertex 1.33826 -1.48629 7.5
    endloop
  endfacet
  facet normal 0 0 1
    outer loop
      vertex 1.25 -2.16506 7.5
      vertex 0.618033 -1.90211 7.5
      vertex 0.772542 -2.37764 7.5
    endloop
  endfacet
  facet normal 0 0 1
    outer loop
      vertex 0.618033 -1.90211 7.5
      vertex 0.261321 -2.4863 7.5
      vertex 0.772542 -2.37764 7.5
    endloop
  endfacet
  facet normal -0 0 1
    outer loop
      vertex -0.209057 -1.98904 7.5
      vertex 0.261321 -2.4863 7.5
      vertex 0.618033 -1.90211 7.5
    endloop
  endfacet
  facet normal 0 0 1
    outer loop
      vertex -0.209057 -1.98904 7.5
      vertex -0.261321 -2.4863 7.5
      vertex 0.261321 -2.4863 7.5
    endloop
  endfacet
  facet normal 0 0 1
    outer loop
      vertex -0.209057 -1.98904 7.5
      vertex -0.772542 -2.37764 7.5
      vertex -0.261321 -2.4863 7.5
    endloop
  endfacet
  facet normal 0 0 1
    outer loop
      vertex -1 -1.73205 7.5
      vertex -0.772542 -2.37764 7.5
      vertex -0.209057 -1.98904 7.5
    endloop
  endfacet
  facet normal 0 0 1
    outer loop
      vertex -1 -1.73205 7.5
      vertex -1.25 -2.16506 7.5
      vertex -0.772542 -2.37764 7.5
    endloop
  endfacet
  facet normal 0 0 1
    outer loop
      vertex -1.67283 -1.85786 7.5
      vertex -1 -1.73205 7.5
      vertex -1.61803 -1.17557 7.5
    endloop
  endfacet
  facet normal 0 0 1
    outer loop
      vertex -1 -1.73205 7.5
      vertex -1.67283 -1.85786 7.5
      vertex -1.25 -2.16506 7.5
    endloop
  endfacet
  facet normal -0 0 1
    outer loop
      vertex -2.28386 -1.01684 7.5
      vertex -1.61803 -1.17557 7.5
      vertex -1.9563 -0.415823 7.5
    endloop
  endfacet
  facet normal 0 0 1
    outer loop
      vertex -1.61803 -1.17557 7.5
      vertex -2.02254 -1.46946 7.5
      vertex -1.67283 -1.85786 7.5
    endloop
  endfacet
  facet normal -0 0 1
    outer loop
      vertex -2.44537 0.519779 7.5
      vertex -1.9563 0.415823 7.5
      vertex -2.28386 1.01684 7.5
    endloop
  endfacet
  facet normal 0 0 1
    outer loop
      vertex -2.5 0 7.5
      vertex -1.9563 0.415823 7.5
      vertex -2.44537 0.519779 7.5
    endloop
  endfacet
  facet normal 0 0 1
    outer loop
      vertex -1.61803 -1.17557 7.5
      vertex -2.28386 -1.01684 7.5
      vertex -2.02254 -1.46946 7.5
    endloop
  endfacet
  facet normal 0 0 1
    outer loop
      vertex -1.9563 0.415823 7.5
      vertex -2.5 0 7.5
      vertex -1.9563 -0.415823 7.5
    endloop
  endfacet
  facet normal 0 0 1
    outer loop
      vertex -1.9563 -0.415823 7.5
      vertex -2.44537 -0.519779 7.5
      vertex -2.28386 -1.01684 7.5
    endloop
  endfacet
  facet normal 0 0 1
    outer loop
      vertex -1.9563 -0.415823 7.5
      vertex -2.5 0 7.5
      vertex -2.44537 -0.519779 7.5
    endloop
  endfacet
  facet normal 0 0 -1
    outer loop
      vertex 2 0 8.5
      vertex 2.5 0 8.5
      vertex 2.44537 -0.519779 8.5
    endloop
  endfacet
  facet normal 0 0 -1
    outer loop
      vertex 1.82709 -0.813473 8.5
      vertex 2.44537 -0.519779 8.5
      vertex 2.28386 -1.01684 8.5
    endloop
  endfacet
  facet normal 0 0 -1
    outer loop
      vertex 2.5 0 8.5
      vertex 2 0 8.5
      vertex 2.44537 0.519779 8.5
    endloop
  endfacet
  facet normal 0 0 -1
    outer loop
      vertex 1.82709 -0.813473 8.5
      vertex 2.28386 -1.01684 8.5
      vertex 2.02254 -1.46946 8.5
    endloop
  endfacet
  facet normal 0 0 -1
    outer loop
      vertex 1.82709 0.813473 8.5
      vertex 2.44537 0.519779 8.5
      vertex 2 0 8.5
    endloop
  endfacet
  facet normal 0 0 -1
    outer loop
      vertex 2.44537 0.519779 8.5
      vertex 1.82709 0.813473 8.5
      vertex 2.28386 1.01684 8.5
    endloop
  endfacet
  facet normal -0 0 -1
    outer loop
      vertex 2.44537 -0.519779 8.5
      vertex 1.82709 -0.813473 8.5
      vertex 2 0 8.5
    endloop
  endfacet
  facet normal 0 0 -1
    outer loop
      vertex 1.33826 -1.48629 8.5
      vertex 2.02254 -1.46946 8.5
      vertex 1.67283 -1.85786 8.5
    endloop
  endfacet
  facet normal -0 0 -1
    outer loop
      vertex 2.02254 -1.46946 8.5
      vertex 1.33826 -1.48629 8.5
      vertex 1.82709 -0.813473 8.5
    endloop
  endfacet
  facet normal 0 0 -1
    outer loop
      vertex 1.25 -2.16506 8.5
      vertex 1.33826 -1.48629 8.5
      vertex 1.67283 -1.85786 8.5
    endloop
  endfacet
  facet normal 0 0 -1
    outer loop
      vertex 0.618033 -1.90211 8.5
      vertex 1.25 -2.16506 8.5
      vertex 0.772542 -2.37764 8.5
    endloop
  endfacet
  facet normal 0 0 -1
    outer loop
      vertex 1.25 -2.16506 8.5
      vertex 0.618033 -1.90211 8.5
      vertex 1.33826 -1.48629 8.5
    endloop
  endfacet
  facet normal 0 0 -1
    outer loop
      vertex 0.261321 -2.4863 8.5
      vertex 0.618033 -1.90211 8.5
      vertex 0.772542 -2.37764 8.5
    endloop
  endfacet
  facet normal 0 0 -1
    outer loop
      vertex 0.261321 -2.4863 8.5
      vertex -0.209057 -1.98904 8.5
      vertex 0.618033 -1.90211 8.5
    endloop
  endfacet
  facet normal 0 0 -1
    outer loop
      vertex -0.261321 -2.4863 8.5
      vertex -0.209057 -1.98904 8.5
      vertex 0.261321 -2.4863 8.5
    endloop
  endfacet
  facet normal 0 0 -1
    outer loop
      vertex -0.772542 -2.37764 8.5
      vertex -0.209057 -1.98904 8.5
      vertex -0.261321 -2.4863 8.5
    endloop
  endfacet
  facet normal 0 0 -1
    outer loop
      vertex -0.772542 -2.37764 8.5
      vertex -1 -1.73205 8.5
      vertex -0.209057 -1.98904 8.5
    endloop
  endfacet
  facet normal 0 0 -1
    outer loop
      vertex -1.25 -2.16506 8.5
      vertex -1 -1.73205 8.5
      vertex -0.772542 -2.37764 8.5
    endloop
  endfacet
  facet normal 0 0 -1
    outer loop
      vertex -1.67283 -1.85786 8.5
      vertex -1 -1.73205 8.5
      vertex -1.25 -2.16506 8.5
    endloop
  endfacet
  facet normal -0 0 -1
    outer loop
      vertex -1 -1.73205 8.5
      vertex -1.67283 -1.85786 8.5
      vertex -1.61803 -1.17557 8.5
    endloop
  endfacet
  facet normal 0 0 -1
    outer loop
      vertex -2.02254 -1.46946 8.5
      vertex -1.61803 -1.17557 8.5
      vertex -1.67283 -1.85786 8.5
    endloop
  endfacet
  facet normal 0 0 -1
    outer loop
      vertex -1.61803 -1.17557 8.5
      vertex -2.28386 -1.01684 8.5
      vertex -1.9563 -0.415823 8.5
    endloop
  endfacet
  facet normal 0 0 -1
    outer loop
      vertex -2.28386 -1.01684 8.5
      vertex -1.61803 -1.17557 8.5
      vertex -2.02254 -1.46946 8.5
    endloop
  endfacet
  facet normal -0 0 -1
    outer loop
      vertex 2.28386 1.01684 8.5
      vertex 1.82709 0.813473 8.5
      vertex 2.02254 1.46946 8.5
    endloop
  endfacet
  facet normal 0 0 -1
    outer loop
      vertex 1.33826 1.48629 8.5
      vertex 2.02254 1.46946 8.5
      vertex 1.82709 0.813473 8.5
    endloop
  endfacet
  facet normal 0 0 -1
    outer loop
      vertex 2.02254 1.46946 8.5
      vertex 1.33826 1.48629 8.5
      vertex 1.67283 1.85786 8.5
    endloop
  endfacet
  facet normal 0 0 -1
    outer loop
      vertex 1.33826 1.48629 8.5
      vertex 1.25 2.16506 8.5
      vertex 1.67283 1.85786 8.5
    endloop
  endfacet
  facet normal 0 0 -1
    outer loop
      vertex 0.618033 1.90211 8.5
      vertex 1.25 2.16506 8.5
      vertex 1.33826 1.48629 8.5
    endloop
  endfacet
  facet normal -0 0 -1
    outer loop
      vertex 1.25 2.16506 8.5
      vertex 0.618033 1.90211 8.5
      vertex 0.772542 2.37764 8.5
    endloop
  endfacet
  facet normal 0 0 -1
    outer loop
      vertex 0.618033 1.90211 8.5
      vertex 0.261321 2.4863 8.5
      vertex 0.772542 2.37764 8.5
    endloop
  endfacet
  facet normal 0 0 -1
    outer loop
      vertex -0.209057 1.98904 8.5
      vertex 0.261321 2.4863 8.5
      vertex 0.618033 1.90211 8.5
    endloop
  endfacet
  facet normal 0 0 -1
    outer loop
      vertex -0.209057 1.98904 8.5
      vertex -0.261321 2.4863 8.5
      vertex 0.261321 2.4863 8.5
    endloop
  endfacet
  facet normal 0 0 -1
    outer loop
      vertex -0.209057 1.98904 8.5
      vertex -0.772542 2.37764 8.5
      vertex -0.261321 2.4863 8.5
    endloop
  endfacet
  facet normal 0 0 -1
    outer loop
      vertex -0.999999 1.73205 8.5
      vertex -0.772542 2.37764 8.5
      vertex -0.209057 1.98904 8.5
    endloop
  endfacet
  facet normal 0 0 -1
    outer loop
      vertex -0.999999 1.73205 8.5
      vertex -1.25 2.16506 8.5
      vertex -0.772542 2.37764 8.5
    endloop
  endfacet
  facet normal 0 0 -1
    outer loop
      vertex -1.67283 1.85786 8.5
      vertex -0.999999 1.73205 8.5
      vertex -1.61803 1.17557 8.5
    endloop
  endfacet
  facet normal 0 0 -1
    outer loop
      vertex -0.999999 1.73205 8.5
      vertex -1.67283 1.85786 8.5
      vertex -1.25 2.16506 8.5
    endloop
  endfacet
  facet normal 0 0 -1
    outer loop
      vertex -2.28386 1.01684 8.5
      vertex -1.61803 1.17557 8.5
      vertex -1.9563 0.415823 8.5
    endloop
  endfacet
  facet normal 0 0 -1
    outer loop
      vertex -1.61803 1.17557 8.5
      vertex -2.02254 1.46946 8.5
      vertex -1.67283 1.85786 8.5
    endloop
  endfacet
  facet normal 0 0 -1
    outer loop
      vertex -2.44537 -0.519779 8.5
      vertex -1.9563 -0.415823 8.5
      vertex -2.28386 -1.01684 8.5
    endloop
  endfacet
  facet normal 0 0 -1
    outer loop
      vertex -2.5 0 8.5
      vertex -1.9563 -0.415823 8.5
      vertex -2.44537 -0.519779 8.5
    endloop
  endfacet
  facet normal -0 0 -1
    outer loop
      vertex -1.61803 1.17557 8.5
      vertex -2.28386 1.01684 8.5
      vertex -2.02254 1.46946 8.5
    endloop
  endfacet
  facet normal 0 0 -1
    outer loop
      vertex -1.9563 -0.415823 8.5
      vertex -2.5 0 8.5
      vertex -1.9563 0.415823 8.5
    endloop
  endfacet
  facet normal 0 0 -1
    outer loop
      vertex -1.9563 0.415823 8.5
      vertex -2.44537 0.519779 8.5
      vertex -2.28386 1.01684 8.5
    endloop
  endfacet
  facet normal -0 0 -1
    outer loop
      vertex -1.9563 0.415823 8.5
      vertex -2.5 0 8.5
      vertex -2.44537 0.519779 8.5
    endloop
  endfacet
  facet normal 0.978147 0.207913 0
    outer loop
      vertex 2 0 8.5
      vertex 1.82709 0.813473 7.5
      vertex 1.82709 0.813473 8.5
    endloop
  endfacet
  facet normal 0.978147 0.207913 0
    outer loop
      vertex 1.82709 0.813473 7.5
      vertex 2 0 8.5
      vertex 2 0 7.5
    endloop
  endfacet
  facet normal -1 0 0
    outer loop
      vertex -1.9563 -0.415823 7.5
      vertex -1.9563 0.415823 8.5
      vertex -1.9563 0.415823 7.5
    endloop
  endfacet
  facet normal -1 -0 0
    outer loop
      vertex -1.9563 0.415823 8.5
      vertex -1.9563 -0.415823 7.5
      vertex -1.9563 -0.415823 8.5
    endloop
  endfacet
  facet normal 0.104528 0.994522 -0
    outer loop
      vertex 0.618033 1.90211 7.5
      vertex -0.209057 1.98904 8.5
      vertex 0.618033 1.90211 8.5
    endloop
  endfacet
  facet normal 0.104528 0.994522 0
    outer loop
      vertex -0.209057 1.98904 8.5
      vertex 0.618033 1.90211 7.5
      vertex -0.209057 1.98904 7.5
    endloop
  endfacet
  facet normal 0.5 -0.866025 0
    outer loop
      vertex 0.618033 -1.90211 7.5
      vertex 1.33826 -1.48629 8.5
      vertex 0.618033 -1.90211 8.5
    endloop
  endfacet
  facet normal 0.5 -0.866025 0
    outer loop
      vertex 1.33826 -1.48629 8.5
      vertex 0.618033 -1.90211 7.5
      vertex 1.33826 -1.48629 7.5
    endloop
  endfacet
  facet normal 0.104528 -0.994522 0
    outer loop
      vertex -0.209057 -1.98904 7.5
      vertex 0.618033 -1.90211 8.5
      vertex -0.209057 -1.98904 8.5
    endloop
  endfacet
  facet normal 0.104528 -0.994522 0
    outer loop
      vertex 0.618033 -1.90211 8.5
      vertex -0.209057 -1.98904 7.5
      vertex 0.618033 -1.90211 7.5
    endloop
  endfacet
  facet normal 0.5 0.866025 -0
    outer loop
      vertex 1.33826 1.48629 7.5
      vertex 0.618033 1.90211 8.5
      vertex 1.33826 1.48629 8.5
    endloop
  endfacet
  facet normal 0.5 0.866025 0
    outer loop
      vertex 0.618033 1.90211 8.5
      vertex 1.33826 1.48629 7.5
      vertex 0.618033 1.90211 7.5
    endloop
  endfacet
  facet normal 0.809017 0.587785 0
    outer loop
      vertex 1.82709 0.813473 8.5
      vertex 1.33826 1.48629 7.5
      vertex 1.33826 1.48629 8.5
    endloop
  endfacet
  facet normal 0.809017 0.587785 0
    outer loop
      vertex 1.33826 1.48629 7.5
      vertex 1.82709 0.813473 8.5
      vertex 1.82709 0.813473 7.5
    endloop
  endfacet
  facet normal -0.309018 0.951056 0
    outer loop
      vertex -0.209057 1.98904 7.5
      vertex -0.999999 1.73205 8.5
      vertex -0.209057 1.98904 8.5
    endloop
  endfacet
  facet normal -0.309018 0.951056 0
    outer loop
      vertex -0.999999 1.73205 8.5
      vertex -0.209057 1.98904 7.5
      vertex -0.999999 1.73205 7.5
    endloop
  endfacet
  facet normal -0.913545 0.406737 0
    outer loop
      vertex -1.9563 0.415823 7.5
      vertex -1.61803 1.17557 8.5
      vertex -1.61803 1.17557 7.5
    endloop
  endfacet
  facet normal -0.913545 0.406737 0
    outer loop
      vertex -1.61803 1.17557 8.5
      vertex -1.9563 0.415823 7.5
      vertex -1.9563 0.415823 8.5
    endloop
  endfacet
  facet normal -0.66913 0.743146 0
    outer loop
      vertex -0.999999 1.73205 7.5
      vertex -1.61803 1.17557 8.5
      vertex -0.999999 1.73205 8.5
    endloop
  endfacet
  facet normal -0.66913 0.743146 0
    outer loop
      vertex -1.61803 1.17557 8.5
      vertex -0.999999 1.73205 7.5
      vertex -1.61803 1.17557 7.5
    endloop
  endfacet
  facet normal -0.913545 -0.406737 0
    outer loop
      vertex -1.61803 -1.17557 7.5
      vertex -1.9563 -0.415823 8.5
      vertex -1.9563 -0.415823 7.5
    endloop
  endfacet
  facet normal -0.913545 -0.406737 0
    outer loop
      vertex -1.9563 -0.415823 8.5
      vertex -1.61803 -1.17557 7.5
      vertex -1.61803 -1.17557 8.5
    endloop
  endfacet
  facet normal -0.309017 -0.951056 0
    outer loop
      vertex -1 -1.73205 7.5
      vertex -0.209057 -1.98904 8.5
      vertex -1 -1.73205 8.5
    endloop
  endfacet
  facet normal -0.309017 -0.951056 -0
    outer loop
      vertex -0.209057 -1.98904 8.5
      vertex -1 -1.73205 7.5
      vertex -0.209057 -1.98904 7.5
    endloop
  endfacet
  facet normal -0.66913 -0.743145 0
    outer loop
      vertex -1.61803 -1.17557 7.5
      vertex -1 -1.73205 8.5
      vertex -1.61803 -1.17557 8.5
    endloop
  endfacet
  facet normal -0.66913 -0.743145 -0
    outer loop
      vertex -1 -1.73205 8.5
      vertex -1.61803 -1.17557 7.5
      vertex -1 -1.73205 7.5
    endloop
  endfacet
  facet normal 0.809017 -0.587785 0
    outer loop
      vertex 1.33826 -1.48629 8.5
      vertex 1.82709 -0.813473 7.5
      vertex 1.82709 -0.813473 8.5
    endloop
  endfacet
  facet normal 0.809017 -0.587785 0
    outer loop
      vertex 1.82709 -0.813473 7.5
      vertex 1.33826 -1.48629 8.5
      vertex 1.33826 -1.48629 7.5
    endloop
  endfacet
  facet normal 0.978147 -0.207913 0
    outer loop
      vertex 1.82709 -0.813473 8.5
      vertex 2 0 7.5
      vertex 2 0 8.5
    endloop
  endfacet
  facet normal 0.978147 -0.207913 0
    outer loop
      vertex 2 0 7.5
      vertex 1.82709 -0.813473 8.5
      vertex 1.82709 -0.813473 7.5
    endloop
  endfacet
  facet normal 0.994522 0.104529 0
    outer loop
      vertex 2.5 0 7.5
      vertex 2.44537 0.519779 0
      vertex 2.44537 0.519779 7.5
    endloop
  endfacet
  facet normal 0.994522 0.104529 0
    outer loop
      vertex 2.44537 0.519779 0
      vertex 2.5 0 7.5
      vertex 2.5 0 0
    endloop
  endfacet
  facet normal 0.994522 0.104529 0
    outer loop
      vertex 2.5 0 10
      vertex 2.44537 0.519779 8.5
      vertex 2.44537 0.519779 10
    endloop
  endfacet
  facet normal 0.994522 0.104529 0
    outer loop
      vertex 2.44537 0.519779 8.5
      vertex 2.5 0 10
      vertex 2.5 0 8.5
    endloop
  endfacet
  facet normal -0.994522 0.104529 0
    outer loop
      vertex -2.5 0 0
      vertex -2.44537 0.519779 7.5
      vertex -2.44537 0.519779 0
    endloop
  endfacet
  facet normal -0.994522 0.104529 0
    outer loop
      vertex -2.44537 0.519779 7.5
      vertex -2.5 0 0
      vertex -2.5 0 7.5
    endloop
  endfacet
  facet normal -0.994522 0.104529 0
    outer loop
      vertex -2.5 0 8.5
      vertex -2.44537 0.519779 10
      vertex -2.44537 0.519779 8.5
    endloop
  endfacet
  facet normal -0.994522 0.104529 0
    outer loop
      vertex -2.44537 0.519779 10
      vertex -2.5 0 8.5
      vertex -2.5 0 10
    endloop
  endfacet
  facet normal 0 1 -0
    outer loop
      vertex 0.261321 2.4863 0
      vertex -0.261321 2.4863 7.5
      vertex 0.261321 2.4863 7.5
    endloop
  endfacet
  facet normal 0 1 0
    outer loop
      vertex -0.261321 2.4863 7.5
      vertex 0.261321 2.4863 0
      vertex -0.261321 2.4863 0
    endloop
  endfacet
  facet normal 0 1 -0
    outer loop
      vertex 0.261321 2.4863 8.5
      vertex -0.261321 2.4863 10
      vertex 0.261321 2.4863 10
    endloop
  endfacet
  facet normal 0 1 0
    outer loop
      vertex -0.261321 2.4863 10
      vertex 0.261321 2.4863 8.5
      vertex -0.261321 2.4863 8.5
    endloop
  endfacet
  facet normal 0 -1 0
    outer loop
      vertex -0.261321 -2.4863 8.5
      vertex 0.261321 -2.4863 10
      vertex -0.261321 -2.4863 10
    endloop
  endfacet
  facet normal 0 -1 -0
    outer loop
      vertex 0.261321 -2.4863 10
      vertex -0.261321 -2.4863 8.5
      vertex 0.261321 -2.4863 8.5
    endloop
  endfacet
  facet normal 0 -1 0
    outer loop
      vertex -0.261321 -2.4863 0
      vertex 0.261321 -2.4863 7.5
      vertex -0.261321 -2.4863 7.5
    endloop
  endfacet
  facet normal 0 -1 -0
    outer loop
      vertex 0.261321 -2.4863 7.5
      vertex -0.261321 -2.4863 0
      vertex 0.261321 -2.4863 0
    endloop
  endfacet
  facet normal 0.587786 0.809017 -0
    outer loop
      vertex 1.67283 1.85786 0
      vertex 1.25 2.16506 7.5
      vertex 1.67283 1.85786 7.5
    endloop
  endfacet
  facet normal 0.587786 0.809017 0
    outer loop
      vertex 1.25 2.16506 7.5
      vertex 1.67283 1.85786 0
      vertex 1.25 2.16506 0
    endloop
  endfacet
  facet normal 0.587786 0.809017 -0
    outer loop
      vertex 1.67283 1.85786 8.5
      vertex 1.25 2.16506 10
      vertex 1.67283 1.85786 10
    endloop
  endfacet
  facet normal 0.587786 0.809017 0
    outer loop
      vertex 1.25 2.16506 10
      vertex 1.67283 1.85786 8.5
      vertex 1.25 2.16506 8.5
    endloop
  endfacet
  facet normal -0.587785 0.809017 0
    outer loop
      vertex -1.25 2.16506 8.5
      vertex -1.67283 1.85786 10
      vertex -1.25 2.16506 10
    endloop
  endfacet
  facet normal -0.587785 0.809017 0
    outer loop
      vertex -1.67283 1.85786 10
      vertex -1.25 2.16506 8.5
      vertex -1.67283 1.85786 8.5
    endloop
  endfacet
  facet normal -0.587785 0.809017 0
    outer loop
      vertex -1.25 2.16506 0
      vertex -1.67283 1.85786 7.5
      vertex -1.25 2.16506 7.5
    endloop
  endfacet
  facet normal -0.587785 0.809017 0
    outer loop
      vertex -1.67283 1.85786 7.5
      vertex -1.25 2.16506 0
      vertex -1.67283 1.85786 0
    endloop
  endfacet
  facet normal -0.207912 0.978148 0
    outer loop
      vertex -0.261321 2.4863 0
      vertex -0.772542 2.37764 7.5
      vertex -0.261321 2.4863 7.5
    endloop
  endfacet
  facet normal -0.207912 0.978148 0
    outer loop
      vertex -0.772542 2.37764 7.5
      vertex -0.261321 2.4863 0
      vertex -0.772542 2.37764 0
    endloop
  endfacet
  facet normal -0.207912 0.978148 0
    outer loop
      vertex -0.261321 2.4863 8.5
      vertex -0.772542 2.37764 10
      vertex -0.261321 2.4863 10
    endloop
  endfacet
  facet normal -0.207912 0.978148 0
    outer loop
      vertex -0.772542 2.37764 10
      vertex -0.261321 2.4863 8.5
      vertex -0.772542 2.37764 8.5
    endloop
  endfacet
  facet normal 0.866025 0.5 0
    outer loop
      vertex 2.28386 1.01684 7.5
      vertex 2.02254 1.46946 0
      vertex 2.02254 1.46946 7.5
    endloop
  endfacet
  facet normal 0.866025 0.5 0
    outer loop
      vertex 2.02254 1.46946 0
      vertex 2.28386 1.01684 7.5
      vertex 2.28386 1.01684 0
    endloop
  endfacet
  facet normal 0.866025 0.5 0
    outer loop
      vertex 2.28386 1.01684 10
      vertex 2.02254 1.46946 8.5
      vertex 2.02254 1.46946 10
    endloop
  endfacet
  facet normal 0.866025 0.5 0
    outer loop
      vertex 2.02254 1.46946 8.5
      vertex 2.28386 1.01684 10
      vertex 2.28386 1.01684 8.5
    endloop
  endfacet
  facet normal 0.951056 0.309018 0
    outer loop
      vertex 2.44537 0.519779 7.5
      vertex 2.28386 1.01684 0
      vertex 2.28386 1.01684 7.5
    endloop
  endfacet
  facet normal 0.951056 0.309018 0
    outer loop
      vertex 2.28386 1.01684 0
      vertex 2.44537 0.519779 7.5
      vertex 2.44537 0.519779 0
    endloop
  endfacet
  facet normal 0.951056 0.309018 0
    outer loop
      vertex 2.44537 0.519779 10
      vertex 2.28386 1.01684 8.5
      vertex 2.28386 1.01684 10
    endloop
  endfacet
  facet normal 0.951056 0.309018 0
    outer loop
      vertex 2.28386 1.01684 8.5
      vertex 2.44537 0.519779 10
      vertex 2.44537 0.519779 8.5
    endloop
  endfacet
  facet normal 0.743145 0.669131 0
    outer loop
      vertex 2.02254 1.46946 7.5
      vertex 1.67283 1.85786 0
      vertex 1.67283 1.85786 7.5
    endloop
  endfacet
  facet normal 0.743145 0.669131 0
    outer loop
      vertex 1.67283 1.85786 0
      vertex 2.02254 1.46946 7.5
      vertex 2.02254 1.46946 0
    endloop
  endfacet
  facet normal 0.743145 0.669131 0
    outer loop
      vertex 2.02254 1.46946 10
      vertex 1.67283 1.85786 8.5
      vertex 1.67283 1.85786 10
    endloop
  endfacet
  facet normal 0.743145 0.669131 0
    outer loop
      vertex 1.67283 1.85786 8.5
      vertex 2.02254 1.46946 10
      vertex 2.02254 1.46946 8.5
    endloop
  endfacet
  facet normal 0.207912 0.978148 -0
    outer loop
      vertex 0.772542 2.37764 0
      vertex 0.261321 2.4863 7.5
      vertex 0.772542 2.37764 7.5
    endloop
  endfacet
  facet normal 0.207912 0.978148 0
    outer loop
      vertex 0.261321 2.4863 7.5
      vertex 0.772542 2.37764 0
      vertex 0.261321 2.4863 0
    endloop
  endfacet
  facet normal 0.207912 0.978148 -0
    outer loop
      vertex 0.772542 2.37764 8.5
      vertex 0.261321 2.4863 10
      vertex 0.772542 2.37764 10
    endloop
  endfacet
  facet normal 0.207912 0.978148 0
    outer loop
      vertex 0.261321 2.4863 10
      vertex 0.772542 2.37764 8.5
      vertex 0.261321 2.4863 8.5
    endloop
  endfacet
  facet normal 0.406736 0.913546 -0
    outer loop
      vertex 1.25 2.16506 0
      vertex 0.772542 2.37764 7.5
      vertex 1.25 2.16506 7.5
    endloop
  endfacet
  facet normal 0.406736 0.913546 0
    outer loop
      vertex 0.772542 2.37764 7.5
      vertex 1.25 2.16506 0
      vertex 0.772542 2.37764 0
    endloop
  endfacet
  facet normal 0.406736 0.913546 -0
    outer loop
      vertex 1.25 2.16506 8.5
      vertex 0.772542 2.37764 10
      vertex 1.25 2.16506 10
    endloop
  endfacet
  facet normal 0.406736 0.913546 0
    outer loop
      vertex 0.772542 2.37764 10
      vertex 1.25 2.16506 8.5
      vertex 0.772542 2.37764 8.5
    endloop
  endfacet
  facet normal -0.866025 0.5 0
    outer loop
      vertex -2.28386 1.01684 0
      vertex -2.02254 1.46946 7.5
      vertex -2.02254 1.46946 0
    endloop
  endfacet
  facet normal -0.866025 0.5 0
    outer loop
      vertex -2.02254 1.46946 7.5
      vertex -2.28386 1.01684 0
      vertex -2.28386 1.01684 7.5
    endloop
  endfacet
  facet normal -0.866025 0.5 0
    outer loop
      vertex -2.28386 1.01684 8.5
      vertex -2.02254 1.46946 10
      vertex -2.02254 1.46946 8.5
    endloop
  endfacet
  facet normal -0.866025 0.5 0
    outer loop
      vertex -2.02254 1.46946 10
      vertex -2.28386 1.01684 8.5
      vertex -2.28386 1.01684 10
    endloop
  endfacet
  facet normal -0.743145 0.669131 0
    outer loop
      vertex -2.02254 1.46946 8.5
      vertex -1.67283 1.85786 10
      vertex -1.67283 1.85786 8.5
    endloop
  endfacet
  facet normal -0.743145 0.669131 0
    outer loop
      vertex -1.67283 1.85786 10
      vertex -2.02254 1.46946 8.5
      vertex -2.02254 1.46946 10
    endloop
  endfacet
  facet normal -0.743145 0.669131 0
    outer loop
      vertex -2.02254 1.46946 0
      vertex -1.67283 1.85786 7.5
      vertex -1.67283 1.85786 0
    endloop
  endfacet
  facet normal -0.743145 0.669131 0
    outer loop
      vertex -1.67283 1.85786 7.5
      vertex -2.02254 1.46946 0
      vertex -2.02254 1.46946 7.5
    endloop
  endfacet
  facet normal -0.951056 0.309018 0
    outer loop
      vertex -2.44537 0.519779 0
      vertex -2.28386 1.01684 7.5
      vertex -2.28386 1.01684 0
    endloop
  endfacet
  facet normal -0.951056 0.309018 0
    outer loop
      vertex -2.28386 1.01684 7.5
      vertex -2.44537 0.519779 0
      vertex -2.44537 0.519779 7.5
    endloop
  endfacet
  facet normal -0.951056 0.309018 0
    outer loop
      vertex -2.44537 0.519779 8.5
      vertex -2.28386 1.01684 10
      vertex -2.28386 1.01684 8.5
    endloop
  endfacet
  facet normal -0.951056 0.309018 0
    outer loop
      vertex -2.28386 1.01684 10
      vertex -2.44537 0.519779 8.5
      vertex -2.44537 0.519779 10
    endloop
  endfacet
  facet normal 0 0 1
    outer loop
      vertex 2.44537 0.519779 10
      vertex 2.44537 -0.519779 10
      vertex 2.5 0 10
    endloop
  endfacet
  facet normal 0 0 1
    outer loop
      vertex 2.28386 1.01684 10
      vertex 2.44537 -0.519779 10
      vertex 2.44537 0.519779 10
    endloop
  endfacet
  facet normal 0 0 1
    outer loop
      vertex 2.28386 1.01684 10
      vertex 2.28386 -1.01684 10
      vertex 2.44537 -0.519779 10
    endloop
  endfacet
  facet normal 0 0 1
    outer loop
      vertex 2.02254 1.46946 10
      vertex 2.28386 -1.01684 10
      vertex 2.28386 1.01684 10
    endloop
  endfacet
  facet normal 0 0 1
    outer loop
      vertex 2.02254 1.46946 10
      vertex 2.02254 -1.46946 10
      vertex 2.28386 -1.01684 10
    endloop
  endfacet
  facet normal 0 0 1
    outer loop
      vertex 1.67283 1.85786 10
      vertex 2.02254 -1.46946 10
      vertex 2.02254 1.46946 10
    endloop
  endfacet
  facet normal 0 0 1
    outer loop
      vertex 1.67283 1.85786 10
      vertex 1.67283 -1.85786 10
      vertex 2.02254 -1.46946 10
    endloop
  endfacet
  facet normal 0 0 1
    outer loop
      vertex 1.25 2.16506 10
      vertex 1.67283 -1.85786 10
      vertex 1.67283 1.85786 10
    endloop
  endfacet
  facet normal 0 0 1
    outer loop
      vertex 1.25 2.16506 10
      vertex 1.25 -2.16506 10
      vertex 1.67283 -1.85786 10
    endloop
  endfacet
  facet normal 0 0 1
    outer loop
      vertex 0.772542 2.37764 10
      vertex 1.25 -2.16506 10
      vertex 1.25 2.16506 10
    endloop
  endfacet
  facet normal 0 0 1
    outer loop
      vertex 0.772542 2.37764 10
      vertex 0.772542 -2.37764 10
      vertex 1.25 -2.16506 10
    endloop
  endfacet
  facet normal 0 0 1
    outer loop
      vertex 0.261321 2.4863 10
      vertex 0.772542 -2.37764 10
      vertex 0.772542 2.37764 10
    endloop
  endfacet
  facet normal 0 0 1
    outer loop
      vertex 0.261321 2.4863 10
      vertex 0.261321 -2.4863 10
      vertex 0.772542 -2.37764 10
    endloop
  endfacet
  facet normal -0 0 1
    outer loop
      vertex -0.261321 2.4863 10
      vertex 0.261321 -2.4863 10
      vertex 0.261321 2.4863 10
    endloop
  endfacet
  facet normal 0 0 1
    outer loop
      vertex -0.261321 2.4863 10
      vertex -0.261321 -2.4863 10
      vertex 0.261321 -2.4863 10
    endloop
  endfacet
  facet normal -0 0 1
    outer loop
      vertex -0.772542 2.37764 10
      vertex -0.261321 -2.4863 10
      vertex -0.261321 2.4863 10
    endloop
  endfacet
  facet normal 0 0 1
    outer loop
      vertex -0.772542 2.37764 10
      vertex -0.772542 -2.37764 10
      vertex -0.261321 -2.4863 10
    endloop
  endfacet
  facet normal -0 0 1
    outer loop
      vertex -1.25 2.16506 10
      vertex -0.772542 -2.37764 10
      vertex -0.772542 2.37764 10
    endloop
  endfacet
  facet normal 0 0 1
    outer loop
      vertex -1.25 2.16506 10
      vertex -1.25 -2.16506 10
      vertex -0.772542 -2.37764 10
    endloop
  endfacet
  facet normal -0 0 1
    outer loop
      vertex -1.67283 1.85786 10
      vertex -1.25 -2.16506 10
      vertex -1.25 2.16506 10
    endloop
  endfacet
  facet normal 0 0 1
    outer loop
      vertex -1.67283 1.85786 10
      vertex -1.67283 -1.85786 10
      vertex -1.25 -2.16506 10
    endloop
  endfacet
  facet normal -0 0 1
    outer loop
      vertex -2.02254 1.46946 10
      vertex -1.67283 -1.85786 10
      vertex -1.67283 1.85786 10
    endloop
  endfacet
  facet normal 0 0 1
    outer loop
      vertex -2.02254 1.46946 10
      vertex -2.02254 -1.46946 10
      vertex -1.67283 -1.85786 10
    endloop
  endfacet
  facet normal -0 0 1
    outer loop
      vertex -2.28386 1.01684 10
      vertex -2.02254 -1.46946 10
      vertex -2.02254 1.46946 10
    endloop
  endfacet
  facet normal 0 0 1
    outer loop
      vertex -2.28386 1.01684 10
      vertex -2.28386 -1.01684 10
      vertex -2.02254 -1.46946 10
    endloop
  endfacet
  facet normal -0 0 1
    outer loop
      vertex -2.44537 0.519779 10
      vertex -2.28386 -1.01684 10
      vertex -2.28386 1.01684 10
    endloop
  endfacet
  facet normal 0 0 1
    outer loop
      vertex -2.44537 0.519779 10
      vertex -2.44537 -0.519779 10
      vertex -2.28386 -1.01684 10
    endloop
  endfacet
  facet normal 0 -0 1
    outer loop
      vertex -2.44537 -0.519779 10
      vertex -2.44537 0.519779 10
      vertex -2.5 0 10
    endloop
  endfacet
  facet normal -0.406737 0.913545 0
    outer loop
      vertex -0.772542 2.37764 0
      vertex -1.25 2.16506 7.5
      vertex -0.772542 2.37764 7.5
    endloop
  endfacet
  facet normal -0.406737 0.913545 0
    outer loop
      vertex -1.25 2.16506 7.5
      vertex -0.772542 2.37764 0
      vertex -1.25 2.16506 0
    endloop
  endfacet
  facet normal -0.406737 0.913545 0
    outer loop
      vertex -0.772542 2.37764 8.5
      vertex -1.25 2.16506 10
      vertex -0.772542 2.37764 10
    endloop
  endfacet
  facet normal -0.406737 0.913545 0
    outer loop
      vertex -1.25 2.16506 10
      vertex -0.772542 2.37764 8.5
      vertex -1.25 2.16506 8.5
    endloop
  endfacet
  facet normal 0.994522 -0.104529 0
    outer loop
      vertex 2.44537 -0.519779 10
      vertex 2.5 0 8.5
      vertex 2.5 0 10
    endloop
  endfacet
  facet normal 0.994522 -0.104529 0
    outer loop
      vertex 2.5 0 8.5
      vertex 2.44537 -0.519779 10
      vertex 2.44537 -0.519779 8.5
    endloop
  endfacet
  facet normal 0.994522 -0.104529 0
    outer loop
      vertex 2.44537 -0.519779 7.5
      vertex 2.5 0 0
      vertex 2.5 0 7.5
    endloop
  endfacet
  facet normal 0.994522 -0.104529 0
    outer loop
      vertex 2.5 0 0
      vertex 2.44537 -0.519779 7.5
      vertex 2.44537 -0.519779 0
    endloop
  endfacet
  facet normal 0 0 -1
    outer loop
      vertex 2.44537 -0.519779 0
      vertex 2.44537 0.519779 0
      vertex 2.5 0 0
    endloop
  endfacet
  facet normal 0 0 -1
    outer loop
      vertex 2.28386 -1.01684 0
      vertex 2.44537 0.519779 0
      vertex 2.44537 -0.519779 0
    endloop
  endfacet
  facet normal 0 0 -1
    outer loop
      vertex 2.28386 -1.01684 0
      vertex 2.28386 1.01684 0
      vertex 2.44537 0.519779 0
    endloop
  endfacet
  facet normal 0 0 -1
    outer loop
      vertex 2.02254 -1.46946 0
      vertex 2.28386 1.01684 0
      vertex 2.28386 -1.01684 0
    endloop
  endfacet
  facet normal 0 0 -1
    outer loop
      vertex 2.02254 -1.46946 0
      vertex 2.02254 1.46946 0
      vertex 2.28386 1.01684 0
    endloop
  endfacet
  facet normal 0 0 -1
    outer loop
      vertex 1.67283 -1.85786 0
      vertex 2.02254 1.46946 0
      vertex 2.02254 -1.46946 0
    endloop
  endfacet
  facet normal 0 0 -1
    outer loop
      vertex 1.67283 -1.85786 0
      vertex 1.67283 1.85786 0
      vertex 2.02254 1.46946 0
    endloop
  endfacet
  facet normal 0 0 -1
    outer loop
      vertex 1.25 -2.16506 0
      vertex 1.67283 1.85786 0
      vertex 1.67283 -1.85786 0
    endloop
  endfacet
  facet normal 0 0 -1
    outer loop
      vertex 1.25 -2.16506 0
      vertex 1.25 2.16506 0
      vertex 1.67283 1.85786 0
    endloop
  endfacet
  facet normal 0 0 -1
    outer loop
      vertex 0.772542 -2.37764 0
      vertex 1.25 2.16506 0
      vertex 1.25 -2.16506 0
    endloop
  endfacet
  facet normal 0 0 -1
    outer loop
      vertex 0.772542 -2.37764 0
      vertex 0.772542 2.37764 0
      vertex 1.25 2.16506 0
    endloop
  endfacet
  facet normal 0 0 -1
    outer loop
      vertex 0.261321 -2.4863 0
      vertex 0.772542 2.37764 0
      vertex 0.772542 -2.37764 0
    endloop
  endfacet
  facet normal 0 0 -1
    outer loop
      vertex 0.261321 -2.4863 0
      vertex 0.261321 2.4863 0
      vertex 0.772542 2.37764 0
    endloop
  endfacet
  facet normal 0 0 -1
    outer loop
      vertex -0.261321 -2.4863 0
      vertex 0.261321 2.4863 0
      vertex 0.261321 -2.4863 0
    endloop
  endfacet
  facet normal 0 0 -1
    outer loop
      vertex -0.261321 -2.4863 0
      vertex -0.261321 2.4863 0
      vertex 0.261321 2.4863 0
    endloop
  endfacet
  facet normal 0 0 -1
    outer loop
      vertex -0.772542 -2.37764 0
      vertex -0.261321 2.4863 0
      vertex -0.261321 -2.4863 0
    endloop
  endfacet
  facet normal 0 0 -1
    outer loop
      vertex -0.772542 -2.37764 0
      vertex -0.772542 2.37764 0
      vertex -0.261321 2.4863 0
    endloop
  endfacet
  facet normal 0 0 -1
    outer loop
      vertex -0.772542 -2.37764 0
      vertex -1.25 2.16506 0
      vertex -0.772542 2.37764 0
    endloop
  endfacet
  facet normal 0 0 -1
    outer loop
      vertex -1.25 -2.16506 0
      vertex -1.25 2.16506 0
      vertex -0.772542 -2.37764 0
    endloop
  endfacet
  facet normal 0 0 -1
    outer loop
      vertex -1.67283 -1.85786 0
      vertex -1.25 2.16506 0
      vertex -1.25 -2.16506 0
    endloop
  endfacet
  facet normal 0 0 -1
    outer loop
      vertex -1.67283 -1.85786 0
      vertex -1.67283 1.85786 0
      vertex -1.25 2.16506 0
    endloop
  endfacet
  facet normal 0 0 -1
    outer loop
      vertex -2.02254 -1.46946 0
      vertex -1.67283 1.85786 0
      vertex -1.67283 -1.85786 0
    endloop
  endfacet
  facet normal 0 0 -1
    outer loop
      vertex -2.02254 -1.46946 0
      vertex -2.02254 1.46946 0
      vertex -1.67283 1.85786 0
    endloop
  endfacet
  facet normal 0 0 -1
    outer loop
      vertex -2.28386 -1.01684 0
      vertex -2.02254 1.46946 0
      vertex -2.02254 -1.46946 0
    endloop
  endfacet
  facet normal 0 0 -1
    outer loop
      vertex -2.28386 -1.01684 0
      vertex -2.28386 1.01684 0
      vertex -2.02254 1.46946 0
    endloop
  endfacet
  facet normal 0 0 -1
    outer loop
      vertex -2.44537 -0.519779 0
      vertex -2.28386 1.01684 0
      vertex -2.28386 -1.01684 0
    endloop
  endfacet
  facet normal 0 0 -1
    outer loop
      vertex -2.44537 -0.519779 0
      vertex -2.44537 0.519779 0
      vertex -2.28386 1.01684 0
    endloop
  endfacet
  facet normal 0 -0 -1
    outer loop
      vertex -2.44537 0.519779 0
      vertex -2.44537 -0.519779 0
      vertex -2.5 0 0
    endloop
  endfacet
  facet normal 0.743145 -0.669131 0
    outer loop
      vertex 1.67283 -1.85786 7.5
      vertex 2.02254 -1.46946 0
      vertex 2.02254 -1.46946 7.5
    endloop
  endfacet
  facet normal 0.743145 -0.669131 0
    outer loop
      vertex 2.02254 -1.46946 0
      vertex 1.67283 -1.85786 7.5
      vertex 1.67283 -1.85786 0
    endloop
  endfacet
  facet normal 0.743145 -0.669131 0
    outer loop
      vertex 1.67283 -1.85786 10
      vertex 2.02254 -1.46946 8.5
      vertex 2.02254 -1.46946 10
    endloop
  endfacet
  facet normal 0.743145 -0.669131 0
    outer loop
      vertex 2.02254 -1.46946 8.5
      vertex 1.67283 -1.85786 10
      vertex 1.67283 -1.85786 8.5
    endloop
  endfacet
  facet normal 0.951056 -0.309018 0
    outer loop
      vertex 2.28386 -1.01684 10
      vertex 2.44537 -0.519779 8.5
      vertex 2.44537 -0.519779 10
    endloop
  endfacet
  facet normal 0.951056 -0.309018 0
    outer loop
      vertex 2.44537 -0.519779 8.5
      vertex 2.28386 -1.01684 10
      vertex 2.28386 -1.01684 8.5
    endloop
  endfacet
  facet normal 0.951056 -0.309018 0
    outer loop
      vertex 2.28386 -1.01684 7.5
      vertex 2.44537 -0.519779 0
      vertex 2.44537 -0.519779 7.5
    endloop
  endfacet
  facet normal 0.951056 -0.309018 0
    outer loop
      vertex 2.44537 -0.519779 0
      vertex 2.28386 -1.01684 7.5
      vertex 2.28386 -1.01684 0
    endloop
  endfacet
  facet normal 0.866025 -0.5 0
    outer loop
      vertex 2.02254 -1.46946 7.5
      vertex 2.28386 -1.01684 0
      vertex 2.28386 -1.01684 7.5
    endloop
  endfacet
  facet normal 0.866025 -0.5 0
    outer loop
      vertex 2.28386 -1.01684 0
      vertex 2.02254 -1.46946 7.5
      vertex 2.02254 -1.46946 0
    endloop
  endfacet
  facet normal 0.866025 -0.5 0
    outer loop
      vertex 2.02254 -1.46946 10
      vertex 2.28386 -1.01684 8.5
      vertex 2.28386 -1.01684 10
    endloop
  endfacet
  facet normal 0.866025 -0.5 0
    outer loop
      vertex 2.28386 -1.01684 8.5
      vertex 2.02254 -1.46946 10
      vertex 2.02254 -1.46946 8.5
    endloop
  endfacet
  facet normal -0.587786 -0.809017 0
    outer loop
      vertex -1.67283 -1.85786 0
      vertex -1.25 -2.16506 7.5
      vertex -1.67283 -1.85786 7.5
    endloop
  endfacet
  facet normal -0.587786 -0.809017 -0
    outer loop
      vertex -1.25 -2.16506 7.5
      vertex -1.67283 -1.85786 0
      vertex -1.25 -2.16506 0
    endloop
  endfacet
  facet normal -0.587786 -0.809017 0
    outer loop
      vertex -1.67283 -1.85786 8.5
      vertex -1.25 -2.16506 10
      vertex -1.67283 -1.85786 10
    endloop
  endfacet
  facet normal -0.587786 -0.809017 -0
    outer loop
      vertex -1.25 -2.16506 10
      vertex -1.67283 -1.85786 8.5
      vertex -1.25 -2.16506 8.5
    endloop
  endfacet
  facet normal -0.866025 -0.5 0
    outer loop
      vertex -2.02254 -1.46946 0
      vertex -2.28386 -1.01684 7.5
      vertex -2.28386 -1.01684 0
    endloop
  endfacet
  facet normal -0.866025 -0.5 0
    outer loop
      vertex -2.28386 -1.01684 7.5
      vertex -2.02254 -1.46946 0
      vertex -2.02254 -1.46946 7.5
    endloop
  endfacet
  facet normal -0.866025 -0.5 0
    outer loop
      vertex -2.02254 -1.46946 8.5
      vertex -2.28386 -1.01684 10
      vertex -2.28386 -1.01684 8.5
    endloop
  endfacet
  facet normal -0.866025 -0.5 0
    outer loop
      vertex -2.28386 -1.01684 10
      vertex -2.02254 -1.46946 8.5
      vertex -2.02254 -1.46946 10
    endloop
  endfacet
  facet normal -0.994522 -0.104529 0
    outer loop
      vertex -2.44537 -0.519779 0
      vertex -2.5 0 7.5
      vertex -2.5 0 0
    endloop
  endfacet
  facet normal -0.994522 -0.104529 0
    outer loop
      vertex -2.5 0 7.5
      vertex -2.44537 -0.519779 0
      vertex -2.44537 -0.519779 7.5
    endloop
  endfacet
  facet normal -0.994522 -0.104529 0
    outer loop
      vertex -2.44537 -0.519779 8.5
      vertex -2.5 0 10
      vertex -2.5 0 8.5
    endloop
  endfacet
  facet normal -0.994522 -0.104529 0
    outer loop
      vertex -2.5 0 10
      vertex -2.44537 -0.519779 8.5
      vertex -2.44537 -0.519779 10
    endloop
  endfacet
  facet normal 0.207912 -0.978148 0
    outer loop
      vertex 0.261321 -2.4863 0
      vertex 0.772542 -2.37764 7.5
      vertex 0.261321 -2.4863 7.5
    endloop
  endfacet
  facet normal 0.207912 -0.978148 0
    outer loop
      vertex 0.772542 -2.37764 7.5
      vertex 0.261321 -2.4863 0
      vertex 0.772542 -2.37764 0
    endloop
  endfacet
  facet normal 0.207912 -0.978148 0
    outer loop
      vertex 0.261321 -2.4863 8.5
      vertex 0.772542 -2.37764 10
      vertex 0.261321 -2.4863 10
    endloop
  endfacet
  facet normal 0.207912 -0.978148 0
    outer loop
      vertex 0.772542 -2.37764 10
      vertex 0.261321 -2.4863 8.5
      vertex 0.772542 -2.37764 8.5
    endloop
  endfacet
  facet normal 0.587786 -0.809017 0
    outer loop
      vertex 1.25 -2.16506 8.5
      vertex 1.67283 -1.85786 10
      vertex 1.25 -2.16506 10
    endloop
  endfacet
  facet normal 0.587786 -0.809017 0
    outer loop
      vertex 1.67283 -1.85786 10
      vertex 1.25 -2.16506 8.5
      vertex 1.67283 -1.85786 8.5
    endloop
  endfacet
  facet normal 0.587786 -0.809017 0
    outer loop
      vertex 1.25 -2.16506 0
      vertex 1.67283 -1.85786 7.5
      vertex 1.25 -2.16506 7.5
    endloop
  endfacet
  facet normal 0.587786 -0.809017 0
    outer loop
      vertex 1.67283 -1.85786 7.5
      vertex 1.25 -2.16506 0
      vertex 1.67283 -1.85786 0
    endloop
  endfacet
  facet normal -0.406736 -0.913546 0
    outer loop
      vertex -1.25 -2.16506 8.5
      vertex -0.772542 -2.37764 10
      vertex -1.25 -2.16506 10
    endloop
  endfacet
  facet normal -0.406736 -0.913546 -0
    outer loop
      vertex -0.772542 -2.37764 10
      vertex -1.25 -2.16506 8.5
      vertex -0.772542 -2.37764 8.5
    endloop
  endfacet
  facet normal -0.406736 -0.913546 0
    outer loop
      vertex -1.25 -2.16506 0
      vertex -0.772542 -2.37764 7.5
      vertex -1.25 -2.16506 7.5
    endloop
  endfacet
  facet normal -0.406736 -0.913546 -0
    outer loop
      vertex -0.772542 -2.37764 7.5
      vertex -1.25 -2.16506 0
      vertex -0.772542 -2.37764 0
    endloop
  endfacet
  facet normal -0.743145 -0.669131 0
    outer loop
      vertex -1.67283 -1.85786 0
      vertex -2.02254 -1.46946 7.5
      vertex -2.02254 -1.46946 0
    endloop
  endfacet
  facet normal -0.743145 -0.669131 0
    outer loop
      vertex -2.02254 -1.46946 7.5
      vertex -1.67283 -1.85786 0
      vertex -1.67283 -1.85786 7.5
    endloop
  endfacet
  facet normal -0.743145 -0.669131 0
    outer loop
      vertex -1.67283 -1.85786 8.5
      vertex -2.02254 -1.46946 10
      vertex -2.02254 -1.46946 8.5
    endloop
  endfacet
  facet normal -0.743145 -0.669131 0
    outer loop
      vertex -2.02254 -1.46946 10
      vertex -1.67283 -1.85786 8.5
      vertex -1.67283 -1.85786 10
    endloop
  endfacet
  facet normal -0.951056 -0.309018 0
    outer loop
      vertex -2.28386 -1.01684 0
      vertex -2.44537 -0.519779 7.5
      vertex -2.44537 -0.519779 0
    endloop
  endfacet
  facet normal -0.951056 -0.309018 0
    outer loop
      vertex -2.44537 -0.519779 7.5
      vertex -2.28386 -1.01684 0
      vertex -2.28386 -1.01684 7.5
    endloop
  endfacet
  facet normal -0.951056 -0.309018 0
    outer loop
      vertex -2.28386 -1.01684 8.5
      vertex -2.44537 -0.519779 10
      vertex -2.44537 -0.519779 8.5
    endloop
  endfacet
  facet normal -0.951056 -0.309018 0
    outer loop
      vertex -2.44537 -0.519779 10
      vertex -2.28386 -1.01684 8.5
      vertex -2.28386 -1.01684 10
    endloop
  endfacet
  facet normal 0.406736 -0.913546 0
    outer loop
      vertex 0.772542 -2.37764 8.5
      vertex 1.25 -2.16506 10
      vertex 0.772542 -2.37764 10
    endloop
  endfacet
  facet normal 0.406736 -0.913546 0
    outer loop
      vertex 1.25 -2.16506 10
      vertex 0.772542 -2.37764 8.5
      vertex 1.25 -2.16506 8.5
    endloop
  endfacet
  facet normal 0.406736 -0.913546 0
    outer loop
      vertex 0.772542 -2.37764 0
      vertex 1.25 -2.16506 7.5
      vertex 0.772542 -2.37764 7.5
    endloop
  endfacet
  facet normal 0.406736 -0.913546 0
    outer loop
      vertex 1.25 -2.16506 7.5
      vertex 0.772542 -2.37764 0
      vertex 1.25 -2.16506 0
    endloop
  endfacet
  facet normal -0.207912 -0.978148 0
    outer loop
      vertex -0.772542 -2.37764 8.5
      vertex -0.261321 -2.4863 10
      vertex -0.772542 -2.37764 10
    endloop
  endfacet
  facet normal -0.207912 -0.978148 -0
    outer loop
      vertex -0.261321 -2.4863 10
      vertex -0.772542 -2.37764 8.5
      vertex -0.261321 -2.4863 8.5
    endloop
  endfacet
  facet normal -0.207912 -0.978148 0
    outer loop
      vertex -0.772542 -2.37764 0
      vertex -0.261321 -2.4863 7.5
      vertex -0.772542 -2.37764 7.5
    endloop
  endfacet
  facet normal -0.207912 -0.978148 -0
    outer loop
      vertex -0.261321 -2.4863 7.5
      vertex -0.772542 -2.37764 0
      vertex -0.261321 -2.4863 0
    endloop
  endfacet
endsolid OpenSCAD_Model
