solid OpenSCAD_Model
  facet normal 0.994522 -2.321e-17 -0.104528
    outer loop
      vertex 10.6 -5 1.11022e-15
      vertex 10.3684 5 -2.20386
      vertex 10.6 5 -1.11022e-15
    endloop
  endfacet
  facet normal 0.994522 0 -0.104528
    outer loop
      vertex 10.3684 5 -2.20386
      vertex 10.6 -5 1.11022e-15
      vertex 10.3684 -5 -2.20386
    endloop
  endfacet
  facet normal 0.951056 0 -0.309017
    outer loop
      vertex 10.3684 -5 -2.20386
      vertex 9.68358 5 -4.31141
      vertex 10.3684 5 -2.20386
    endloop
  endfacet
  facet normal 0.951056 0 -0.309017
    outer loop
      vertex 9.68358 5 -4.31141
      vertex 10.3684 -5 -2.20386
      vertex 9.68358 -5 -4.31141
    endloop
  endfacet
  facet normal -0.587785 0 -0.809017
    outer loop
      vertex -7.09278 -5 -7.87733
      vertex -5.3 5 -9.17987
      vertex -5.3 -5 -9.17987
    endloop
  endfacet
  facet normal -0.587785 0 -0.809017
    outer loop
      vertex -5.3 5 -9.17987
      vertex -7.09278 -5 -7.87733
      vertex -7.09278 5 -7.87733
    endloop
  endfacet
  facet normal -0.866025 0 -0.5
    outer loop
      vertex -8.57558 -5 -6.23052
      vertex -9.68358 5 -4.31141
      vertex -8.57558 5 -6.23052
    endloop
  endfacet
  facet normal -0.866025 -0 -0.5
    outer loop
      vertex -9.68358 5 -4.31141
      vertex -8.57558 -5 -6.23052
      vertex -9.68358 -5 -4.31141
    endloop
  endfacet
  facet normal 0 -1 0
    outer loop
      vertex -10.6 -5 20
      vertex -0.689887 -5 6.56384
      vertex 10.6 -5 20
    endloop
  endfacet
  facet normal 0 -1 0
    outer loop
      vertex -10.6 -5 20
      vertex -2.03951 -5 6.27697
      vertex -0.689887 -5 6.56384
    endloop
  endfacet
  facet normal 0 -1 0
    outer loop
      vertex -10.6 -5 20
      vertex -3.3 -5 5.71577
      vertex -2.03951 -5 6.27697
    endloop
  endfacet
  facet normal 0 -1 0
    outer loop
      vertex -10.6 -5 20
      vertex -4.41626 -5 4.90476
      vertex -3.3 -5 5.71577
    endloop
  endfacet
  facet normal 0 -1 0
    outer loop
      vertex -10.6 -5 20
      vertex -5.33951 -5 3.87938
      vertex -4.41626 -5 4.90476
    endloop
  endfacet
  facet normal 0 -1 0
    outer loop
      vertex -10.6 -5 1.11022e-15
      vertex -5.33951 -5 3.87938
      vertex -10.6 -5 20
    endloop
  endfacet
  facet normal 0 -1 0
    outer loop
      vertex -5.33951 -5 3.87938
      vertex -10.6 -5 1.11022e-15
      vertex -6.0294 -5 2.68446
    endloop
  endfacet
  facet normal 0 -1 0
    outer loop
      vertex -6.0294 -5 2.68446
      vertex -10.6 -5 1.11022e-15
      vertex -6.45577 -5 1.37222
    endloop
  endfacet
  facet normal 0 -1 0
    outer loop
      vertex -10.6 -5 1.11022e-15
      vertex -6.6 -5 1.11022e-15
      vertex -6.45577 -5 1.37222
    endloop
  endfacet
  facet normal 0 -1 0
    outer loop
      vertex -10.6 -5 1.11022e-15
      vertex -6.45577 -5 -1.37222
      vertex -6.6 -5 1.11022e-15
    endloop
  endfacet
  facet normal 0 -1 0
    outer loop
      vertex -10.3684 -5 -2.20386
      vertex -6.45577 -5 -1.37222
      vertex -10.6 -5 1.11022e-15
    endloop
  endfacet
  facet normal 0 -1 0
    outer loop
      vertex -10.3684 -5 -2.20386
      vertex -6.0294 -5 -2.68446
      vertex -6.45577 -5 -1.37222
    endloop
  endfacet
  facet normal 0 -1 0
    outer loop
      vertex -9.68358 -5 -4.31141
      vertex -6.0294 -5 -2.68446
      vertex -10.3684 -5 -2.20386
    endloop
  endfacet
  facet normal 0 -1 -0
    outer loop
      vertex -6.0294 -5 -2.68446
      vertex -9.68358 -5 -4.31141
      vertex -5.33951 -5 -3.87938
    endloop
  endfacet
  facet normal 0 -1 0
    outer loop
      vertex -8.57558 -5 -6.23052
      vertex -5.33951 -5 -3.87938
      vertex -9.68358 -5 -4.31141
    endloop
  endfacet
  facet normal 0 -1 -0
    outer loop
      vertex -5.33951 -5 -3.87938
      vertex -8.57558 -5 -6.23052
      vertex -4.41626 -5 -4.90476
    endloop
  endfacet
  facet normal 0 -1 0
    outer loop
      vertex -7.09278 -5 -7.87733
      vertex -4.41626 -5 -4.90476
      vertex -8.57558 -5 -6.23052
    endloop
  endfacet
  facet normal 0 -1 -0
    outer loop
      vertex -4.41626 -5 -4.90476
      vertex -7.09278 -5 -7.87733
      vertex -3.3 -5 -5.71577
    endloop
  endfacet
  facet normal 0 -1 0
    outer loop
      vertex -5.3 -5 -9.17987
      vertex -3.3 -5 -5.71577
      vertex -7.09278 -5 -7.87733
    endloop
  endfacet
  facet normal 0 -1 0
    outer loop
      vertex -3.27558 -5 -10.0812
      vertex -2.03951 -5 -6.27697
      vertex -5.3 -5 -9.17987
    endloop
  endfacet
  facet normal 0 -1 -0
    outer loop
      vertex -3.3 -5 -5.71577
      vertex -5.3 -5 -9.17987
      vertex -2.03951 -5 -6.27697
    endloop
  endfacet
  facet normal 0 -1 0
    outer loop
      vertex 0.689887 -5 6.56384
      vertex 10.6 -5 20
      vertex -0.689887 -5 6.56384
    endloop
  endfacet
  facet normal 0 -1 0
    outer loop
      vertex 2.03951 -5 6.27697
      vertex 10.6 -5 20
      vertex 0.689887 -5 6.56384
    endloop
  endfacet
  facet normal 0 -1 0
    outer loop
      vertex 3.3 -5 5.71577
      vertex 10.6 -5 20
      vertex 2.03951 -5 6.27697
    endloop
  endfacet
  facet normal 0 -1 0
    outer loop
      vertex 4.41626 -5 4.90476
      vertex 10.6 -5 20
      vertex 3.3 -5 5.71577
    endloop
  endfacet
  facet normal 0 -1 0
    outer loop
      vertex 5.33951 -5 3.87938
      vertex 10.6 -5 20
      vertex 4.41626 -5 4.90476
    endloop
  endfacet
  facet normal 0 -1 0
    outer loop
      vertex 10.6 -5 1.11022e-15
      vertex 5.33951 -5 3.87938
      vertex 6.0294 -5 2.68446
    endloop
  endfacet
  facet normal 0 -1 0
    outer loop
      vertex 10.6 -5 1.11022e-15
      vertex 6.0294 -5 2.68446
      vertex 6.45577 -5 1.37222
    endloop
  endfacet
  facet normal 0 -1 0
    outer loop
      vertex 10.6 -5 1.11022e-15
      vertex 6.45577 -5 1.37222
      vertex 6.6 -5 1.11022e-15
    endloop
  endfacet
  facet normal 0 -1 0
    outer loop
      vertex 5.33951 -5 3.87938
      vertex 10.6 -5 1.11022e-15
      vertex 10.6 -5 20
    endloop
  endfacet
  facet normal 0 -1 0
    outer loop
      vertex 6.45577 -5 -1.37222
      vertex 10.6 -5 1.11022e-15
      vertex 6.6 -5 1.11022e-15
    endloop
  endfacet
  facet normal 0 -1 0
    outer loop
      vertex 6.45577 -5 -1.37222
      vertex 10.3684 -5 -2.20386
      vertex 10.6 -5 1.11022e-15
    endloop
  endfacet
  facet normal 0 -1 0
    outer loop
      vertex 6.0294 -5 -2.68446
      vertex 10.3684 -5 -2.20386
      vertex 6.45577 -5 -1.37222
    endloop
  endfacet
  facet normal 0 -1 0
    outer loop
      vertex 9.68358 -5 -4.31141
      vertex 6.0294 -5 -2.68446
      vertex 5.33951 -5 -3.87938
    endloop
  endfacet
  facet normal 0 -1 0
    outer loop
      vertex 6.0294 -5 -2.68446
      vertex 9.68358 -5 -4.31141
      vertex 10.3684 -5 -2.20386
    endloop
  endfacet
  facet normal 0 -1 0
    outer loop
      vertex 8.57558 -5 -6.23052
      vertex 5.33951 -5 -3.87938
      vertex 4.41626 -5 -4.90476
    endloop
  endfacet
  facet normal 0 -1 0
    outer loop
      vertex 7.09278 -5 -7.87733
      vertex 4.41626 -5 -4.90476
      vertex 3.3 -5 -5.71577
    endloop
  endfacet
  facet normal 0 -1 0
    outer loop
      vertex 5.33951 -5 -3.87938
      vertex 8.57558 -5 -6.23052
      vertex 9.68358 -5 -4.31141
    endloop
  endfacet
  facet normal 0 -1 0
    outer loop
      vertex 5.3 -5 -9.17987
      vertex 3.3 -5 -5.71577
      vertex 2.03951 -5 -6.27697
    endloop
  endfacet
  facet normal 0 -1 0
    outer loop
      vertex 3.27558 -5 -10.0812
      vertex 2.03951 -5 -6.27697
      vertex 0.689887 -5 -6.56384
    endloop
  endfacet
  facet normal 0 -1 -0
    outer loop
      vertex -2.03951 -5 -6.27697
      vertex -3.27558 -5 -10.0812
      vertex -0.689887 -5 -6.56384
    endloop
  endfacet
  facet normal 0 -1 0
    outer loop
      vertex 4.41626 -5 -4.90476
      vertex 7.09278 -5 -7.87733
      vertex 8.57558 -5 -6.23052
    endloop
  endfacet
  facet normal 0 -1 0
    outer loop
      vertex -1.108 -5 -10.5419
      vertex -0.689887 -5 -6.56384
      vertex -3.27558 -5 -10.0812
    endloop
  endfacet
  facet normal 0 -1 0
    outer loop
      vertex 3.3 -5 -5.71577
      vertex 5.3 -5 -9.17987
      vertex 7.09278 -5 -7.87733
    endloop
  endfacet
  facet normal 0 -1 -0
    outer loop
      vertex -0.689887 -5 -6.56384
      vertex -1.108 -5 -10.5419
      vertex 0.689887 -5 -6.56384
    endloop
  endfacet
  facet normal 0 -1 0
    outer loop
      vertex 2.03951 -5 -6.27697
      vertex 3.27558 -5 -10.0812
      vertex 5.3 -5 -9.17987
    endloop
  endfacet
  facet normal 0 -1 0
    outer loop
      vertex 1.108 -5 -10.5419
      vertex 0.689887 -5 -6.56384
      vertex -1.108 -5 -10.5419
    endloop
  endfacet
  facet normal 0 -1 0
    outer loop
      vertex 0.689887 -5 -6.56384
      vertex 1.108 -5 -10.5419
      vertex 3.27558 -5 -10.0812
    endloop
  endfacet
  facet normal 0 0 -1
    outer loop
      vertex -1.108 -5 -10.5419
      vertex 1.108 5 -10.5419
      vertex 1.108 -5 -10.5419
    endloop
  endfacet
  facet normal -0 0 -1
    outer loop
      vertex 1.108 5 -10.5419
      vertex -1.108 -5 -10.5419
      vertex -1.108 5 -10.5419
    endloop
  endfacet
  facet normal 0 1 0
    outer loop
      vertex 10.6 5 20
      vertex 0.689887 5 6.56384
      vertex -10.6 5 20
    endloop
  endfacet
  facet normal 0 1 0
    outer loop
      vertex 10.6 5 20
      vertex 2.03951 5 6.27697
      vertex 0.689887 5 6.56384
    endloop
  endfacet
  facet normal 0 1 0
    outer loop
      vertex 10.6 5 20
      vertex 3.3 5 5.71577
      vertex 2.03951 5 6.27697
    endloop
  endfacet
  facet normal 0 1 0
    outer loop
      vertex 10.6 5 20
      vertex 4.41626 5 4.90476
      vertex 3.3 5 5.71577
    endloop
  endfacet
  facet normal 0 1 0
    outer loop
      vertex 10.6 5 20
      vertex 5.33951 5 3.87938
      vertex 4.41626 5 4.90476
    endloop
  endfacet
  facet normal 0 1 -0
    outer loop
      vertex 10.6 5 -1.11022e-15
      vertex 5.33951 5 3.87938
      vertex 10.6 5 20
    endloop
  endfacet
  facet normal 0 1 0
    outer loop
      vertex 5.33951 5 3.87938
      vertex 10.6 5 -1.11022e-15
      vertex 6.0294 5 2.68446
    endloop
  endfacet
  facet normal 0 1 0
    outer loop
      vertex 6.0294 5 2.68446
      vertex 10.6 5 -1.11022e-15
      vertex 6.45577 5 1.37222
    endloop
  endfacet
  facet normal 0 1 0
    outer loop
      vertex 10.6 5 -1.11022e-15
      vertex 6.6 5 -1.11022e-15
      vertex 6.45577 5 1.37222
    endloop
  endfacet
  facet normal 0 1 0
    outer loop
      vertex 10.6 5 -1.11022e-15
      vertex 6.45577 5 -1.37222
      vertex 6.6 5 -1.11022e-15
    endloop
  endfacet
  facet normal 0 1 -0
    outer loop
      vertex 10.3684 5 -2.20386
      vertex 6.45577 5 -1.37222
      vertex 10.6 5 -1.11022e-15
    endloop
  endfacet
  facet normal 0 1 0
    outer loop
      vertex 10.3684 5 -2.20386
      vertex 6.0294 5 -2.68446
      vertex 6.45577 5 -1.37222
    endloop
  endfacet
  facet normal 0 1 -0
    outer loop
      vertex 9.68358 5 -4.31141
      vertex 6.0294 5 -2.68446
      vertex 10.3684 5 -2.20386
    endloop
  endfacet
  facet normal 0 1 0
    outer loop
      vertex 6.0294 5 -2.68446
      vertex 9.68358 5 -4.31141
      vertex 5.33951 5 -3.87938
    endloop
  endfacet
  facet normal 0 1 -0
    outer loop
      vertex 8.57558 5 -6.23052
      vertex 5.33951 5 -3.87938
      vertex 9.68358 5 -4.31141
    endloop
  endfacet
  facet normal 0 1 0
    outer loop
      vertex 5.33951 5 -3.87938
      vertex 8.57558 5 -6.23052
      vertex 4.41626 5 -4.90476
    endloop
  endfacet
  facet normal 0 1 -0
    outer loop
      vertex 7.09278 5 -7.87733
      vertex 4.41626 5 -4.90476
      vertex 8.57558 5 -6.23052
    endloop
  endfacet
  facet normal 0 1 0
    outer loop
      vertex 4.41626 5 -4.90476
      vertex 7.09278 5 -7.87733
      vertex 3.3 5 -5.71577
    endloop
  endfacet
  facet normal 0 1 -0
    outer loop
      vertex 5.3 5 -9.17987
      vertex 3.3 5 -5.71577
      vertex 7.09278 5 -7.87733
    endloop
  endfacet
  facet normal 0 1 -0
    outer loop
      vertex 3.27558 5 -10.0812
      vertex 2.03951 5 -6.27697
      vertex 5.3 5 -9.17987
    endloop
  endfacet
  facet normal 0 1 0
    outer loop
      vertex 3.3 5 -5.71577
      vertex 5.3 5 -9.17987
      vertex 2.03951 5 -6.27697
    endloop
  endfacet
  facet normal 0 1 -0
    outer loop
      vertex -0.689887 5 6.56384
      vertex -10.6 5 20
      vertex 0.689887 5 6.56384
    endloop
  endfacet
  facet normal 0 1 -0
    outer loop
      vertex -2.03951 5 6.27697
      vertex -10.6 5 20
      vertex -0.689887 5 6.56384
    endloop
  endfacet
  facet normal 0 1 -0
    outer loop
      vertex -3.3 5 5.71577
      vertex -10.6 5 20
      vertex -2.03951 5 6.27697
    endloop
  endfacet
  facet normal 0 1 -0
    outer loop
      vertex -4.41626 5 4.90476
      vertex -10.6 5 20
      vertex -3.3 5 5.71577
    endloop
  endfacet
  facet normal 0 1 -0
    outer loop
      vertex -5.33951 5 3.87938
      vertex -10.6 5 20
      vertex -4.41626 5 4.90476
    endloop
  endfacet
  facet normal 0 1 0
    outer loop
      vertex -10.6 5 -1.11022e-15
      vertex -5.33951 5 3.87938
      vertex -6.0294 5 2.68446
    endloop
  endfacet
  facet normal 0 1 0
    outer loop
      vertex -10.6 5 -1.11022e-15
      vertex -6.0294 5 2.68446
      vertex -6.45577 5 1.37222
    endloop
  endfacet
  facet normal 0 1 0
    outer loop
      vertex -10.6 5 -1.11022e-15
      vertex -6.45577 5 1.37222
      vertex -6.6 5 -1.11022e-15
    endloop
  endfacet
  facet normal 0 1 0
    outer loop
      vertex -5.33951 5 3.87938
      vertex -10.6 5 -1.11022e-15
      vertex -10.6 5 20
    endloop
  endfacet
  facet normal 0 1 0
    outer loop
      vertex -6.45577 5 -1.37222
      vertex -10.6 5 -1.11022e-15
      vertex -6.6 5 -1.11022e-15
    endloop
  endfacet
  facet normal 0 1 0
    outer loop
      vertex -6.45577 5 -1.37222
      vertex -10.3684 5 -2.20386
      vertex -10.6 5 -1.11022e-15
    endloop
  endfacet
  facet normal 0 1 0
    outer loop
      vertex -6.0294 5 -2.68446
      vertex -10.3684 5 -2.20386
      vertex -6.45577 5 -1.37222
    endloop
  endfacet
  facet normal 0 1 0
    outer loop
      vertex -9.68358 5 -4.31141
      vertex -6.0294 5 -2.68446
      vertex -5.33951 5 -3.87938
    endloop
  endfacet
  facet normal 0 1 0
    outer loop
      vertex -6.0294 5 -2.68446
      vertex -9.68358 5 -4.31141
      vertex -10.3684 5 -2.20386
    endloop
  endfacet
  facet normal 0 1 0
    outer loop
      vertex -8.57558 5 -6.23052
      vertex -5.33951 5 -3.87938
      vertex -4.41626 5 -4.90476
    endloop
  endfacet
  facet normal 0 1 0
    outer loop
      vertex -7.09278 5 -7.87733
      vertex -4.41626 5 -4.90476
      vertex -3.3 5 -5.71577
    endloop
  endfacet
  facet normal 0 1 0
    outer loop
      vertex -5.33951 5 -3.87938
      vertex -8.57558 5 -6.23052
      vertex -9.68358 5 -4.31141
    endloop
  endfacet
  facet normal 0 1 0
    outer loop
      vertex -5.3 5 -9.17987
      vertex -3.3 5 -5.71577
      vertex -2.03951 5 -6.27697
    endloop
  endfacet
  facet normal 0 1 0
    outer loop
      vertex -3.27558 5 -10.0812
      vertex -2.03951 5 -6.27697
      vertex -0.689887 5 -6.56384
    endloop
  endfacet
  facet normal 0 1 0
    outer loop
      vertex 2.03951 5 -6.27697
      vertex 3.27558 5 -10.0812
      vertex 0.689887 5 -6.56384
    endloop
  endfacet
  facet normal 0 1 0
    outer loop
      vertex -4.41626 5 -4.90476
      vertex -7.09278 5 -7.87733
      vertex -8.57558 5 -6.23052
    endloop
  endfacet
  facet normal 0 1 -0
    outer loop
      vertex 1.108 5 -10.5419
      vertex 0.689887 5 -6.56384
      vertex 3.27558 5 -10.0812
    endloop
  endfacet
  facet normal 0 1 0
    outer loop
      vertex -3.3 5 -5.71577
      vertex -5.3 5 -9.17987
      vertex -7.09278 5 -7.87733
    endloop
  endfacet
  facet normal 0 1 0
    outer loop
      vertex 0.689887 5 -6.56384
      vertex 1.108 5 -10.5419
      vertex -0.689887 5 -6.56384
    endloop
  endfacet
  facet normal 0 1 0
    outer loop
      vertex -2.03951 5 -6.27697
      vertex -3.27558 5 -10.0812
      vertex -5.3 5 -9.17987
    endloop
  endfacet
  facet normal 0 1 0
    outer loop
      vertex -1.108 5 -10.5419
      vertex -0.689887 5 -6.56384
      vertex 1.108 5 -10.5419
    endloop
  endfacet
  facet normal 0 1 0
    outer loop
      vertex -0.689887 5 -6.56384
      vertex -1.108 5 -10.5419
      vertex -3.27558 5 -10.0812
    endloop
  endfacet
  facet normal -0.743145 0 -0.669131
    outer loop
      vertex -7.09278 -5 -7.87733
      vertex -8.57558 5 -6.23052
      vertex -7.09278 5 -7.87733
    endloop
  endfacet
  facet normal -0.743145 -0 -0.669131
    outer loop
      vertex -8.57558 5 -6.23052
      vertex -7.09278 -5 -7.87733
      vertex -8.57558 -5 -6.23052
    endloop
  endfacet
  facet normal 0.207912 0 -0.978148
    outer loop
      vertex 1.108 -5 -10.5419
      vertex 3.27558 5 -10.0812
      vertex 3.27558 -5 -10.0812
    endloop
  endfacet
  facet normal 0.207912 0 -0.978148
    outer loop
      vertex 3.27558 5 -10.0812
      vertex 1.108 -5 -10.5419
      vertex 1.108 5 -10.5419
    endloop
  endfacet
  facet normal 0.406737 0 -0.913545
    outer loop
      vertex 3.27558 -5 -10.0812
      vertex 5.3 5 -9.17987
      vertex 5.3 -5 -9.17987
    endloop
  endfacet
  facet normal 0.406737 0 -0.913545
    outer loop
      vertex 5.3 5 -9.17987
      vertex 3.27558 -5 -10.0812
      vertex 3.27558 5 -10.0812
    endloop
  endfacet
  facet normal 0.743145 0 -0.669131
    outer loop
      vertex 8.57558 -5 -6.23052
      vertex 7.09278 5 -7.87733
      vertex 8.57558 5 -6.23052
    endloop
  endfacet
  facet normal 0.743145 0 -0.669131
    outer loop
      vertex 7.09278 5 -7.87733
      vertex 8.57558 -5 -6.23052
      vertex 7.09278 -5 -7.87733
    endloop
  endfacet
  facet normal 0.587785 0 -0.809017
    outer loop
      vertex 5.3 -5 -9.17987
      vertex 7.09278 5 -7.87733
      vertex 7.09278 -5 -7.87733
    endloop
  endfacet
  facet normal 0.587785 0 -0.809017
    outer loop
      vertex 7.09278 5 -7.87733
      vertex 5.3 -5 -9.17987
      vertex 5.3 5 -9.17987
    endloop
  endfacet
  facet normal 0.866025 0 -0.5
    outer loop
      vertex 9.68358 -5 -4.31141
      vertex 8.57558 5 -6.23052
      vertex 9.68358 5 -4.31141
    endloop
  endfacet
  facet normal 0.866025 0 -0.5
    outer loop
      vertex 8.57558 5 -6.23052
      vertex 9.68358 -5 -4.31141
      vertex 8.57558 -5 -6.23052
    endloop
  endfacet
  facet normal -0.207912 0 -0.978148
    outer loop
      vertex -3.27558 -5 -10.0812
      vertex -1.108 5 -10.5419
      vertex -1.108 -5 -10.5419
    endloop
  endfacet
  facet normal -0.207912 0 -0.978148
    outer loop
      vertex -1.108 5 -10.5419
      vertex -3.27558 -5 -10.0812
      vertex -3.27558 5 -10.0812
    endloop
  endfacet
  facet normal -0.951056 0 -0.309017
    outer loop
      vertex -9.68358 -5 -4.31141
      vertex -10.3684 5 -2.20386
      vertex -9.68358 5 -4.31141
    endloop
  endfacet
  facet normal -0.951056 -0 -0.309017
    outer loop
      vertex -10.3684 5 -2.20386
      vertex -9.68358 -5 -4.31141
      vertex -10.3684 -5 -2.20386
    endloop
  endfacet
  facet normal -0.994522 0 -0.104528
    outer loop
      vertex -10.3684 -5 -2.20386
      vertex -10.6 5 -1.11022e-15
      vertex -10.3684 5 -2.20386
    endloop
  endfacet
  facet normal -0.994522 -2.321e-17 -0.104528
    outer loop
      vertex -10.6 5 -1.11022e-15
      vertex -10.3684 -5 -2.20386
      vertex -10.6 -5 1.11022e-15
    endloop
  endfacet
  facet normal -0.406737 0 -0.913545
    outer loop
      vertex -5.3 -5 -9.17987
      vertex -3.27558 5 -10.0812
      vertex -3.27558 -5 -10.0812
    endloop
  endfacet
  facet normal -0.406737 0 -0.913545
    outer loop
      vertex -3.27558 5 -10.0812
      vertex -5.3 -5 -9.17987
      vertex -5.3 5 -9.17987
    endloop
  endfacet
  facet normal -1 0 0
    outer loop
      vertex -10.6 -5 1.11022e-15
      vertex -10.6 5 20
      vertex -10.6 5 -1.11022e-15
    endloop
  endfacet
  facet normal -1 -0 0
    outer loop
      vertex -10.6 5 20
      vertex -10.6 -5 1.11022e-15
      vertex -10.6 -5 20
    endloop
  endfacet
  facet normal 1 -0 0
    outer loop
      vertex 10.6 -5 20
      vertex 10.6 5 -1.11022e-15
      vertex 10.6 5 20
    endloop
  endfacet
  facet normal 1 0 0
    outer loop
      vertex 10.6 5 -1.11022e-15
      vertex 10.6 -5 20
      vertex 10.6 -5 1.11022e-15
    endloop
  endfacet
  facet normal -0 0 1
    outer loop
      vertex -10.6 5 20
      vertex 10.6 -5 20
      vertex 10.6 5 20
    endloop
  endfacet
  facet normal 0 0 1
    outer loop
      vertex 10.6 -5 20
      vertex -10.6 5 20
      vertex -10.6 -5 20
    endloop
  endfacet
  facet normal -0.994522 -2.321e-17 -0.104529
    outer loop
      vertex 6.6 -5 1.11022e-15
      vertex 6.45577 5 1.37222
      vertex 6.6 5 -1.11022e-15
    endloop
  endfacet
  facet normal -0.994522 -0 -0.104529
    outer loop
      vertex 6.45577 5 1.37222
      vertex 6.6 -5 1.11022e-15
      vertex 6.45577 -5 1.37222
    endloop
  endfacet
  facet normal 0.994522 0 -0.104529
    outer loop
      vertex -6.45577 -5 1.37222
      vertex -6.6 5 -1.11022e-15
      vertex -6.45577 5 1.37222
    endloop
  endfacet
  facet normal 0.994522 -2.321e-17 -0.104529
    outer loop
      vertex -6.6 5 -1.11022e-15
      vertex -6.45577 -5 1.37222
      vertex -6.6 -5 1.11022e-15
    endloop
  endfacet
  facet normal 0 0 -1
    outer loop
      vertex -0.689887 -5 6.56384
      vertex 0.689887 5 6.56384
      vertex 0.689887 -5 6.56384
    endloop
  endfacet
  facet normal -0 0 -1
    outer loop
      vertex 0.689887 5 6.56384
      vertex -0.689887 -5 6.56384
      vertex -0.689887 5 6.56384
    endloop
  endfacet
  facet normal -0 0 1
    outer loop
      vertex -0.689887 5 -6.56384
      vertex 0.689887 -5 -6.56384
      vertex 0.689887 5 -6.56384
    endloop
  endfacet
  facet normal 0 0 1
    outer loop
      vertex 0.689887 -5 -6.56384
      vertex -0.689887 5 -6.56384
      vertex -0.689887 -5 -6.56384
    endloop
  endfacet
  facet normal -0.743145 0 -0.669131
    outer loop
      vertex 5.33951 -5 3.87938
      vertex 4.41626 5 4.90476
      vertex 5.33951 5 3.87938
    endloop
  endfacet
  facet normal -0.743145 -0 -0.669131
    outer loop
      vertex 4.41626 5 4.90476
      vertex 5.33951 -5 3.87938
      vertex 4.41626 -5 4.90476
    endloop
  endfacet
  facet normal -0.951057 0 -0.309016
    outer loop
      vertex 6.45577 -5 1.37222
      vertex 6.0294 5 2.68446
      vertex 6.45577 5 1.37222
    endloop
  endfacet
  facet normal -0.951057 -0 -0.309016
    outer loop
      vertex 6.0294 5 2.68446
      vertex 6.45577 -5 1.37222
      vertex 6.0294 -5 2.68446
    endloop
  endfacet
  facet normal 0.587785 0 -0.809017
    outer loop
      vertex -4.41626 -5 4.90476
      vertex -3.3 5 5.71577
      vertex -3.3 -5 5.71577
    endloop
  endfacet
  facet normal 0.587785 0 -0.809017
    outer loop
      vertex -3.3 5 5.71577
      vertex -4.41626 -5 4.90476
      vertex -4.41626 5 4.90476
    endloop
  endfacet
  facet normal 0.207911 0 -0.978148
    outer loop
      vertex -2.03951 -5 6.27697
      vertex -0.689887 5 6.56384
      vertex -0.689887 -5 6.56384
    endloop
  endfacet
  facet normal 0.207911 0 -0.978148
    outer loop
      vertex -0.689887 5 6.56384
      vertex -2.03951 -5 6.27697
      vertex -2.03951 5 6.27697
    endloop
  endfacet
  facet normal -0.866025 0 0.5
    outer loop
      vertex 5.33951 -5 -3.87938
      vertex 6.0294 5 -2.68446
      vertex 5.33951 5 -3.87938
    endloop
  endfacet
  facet normal -0.866025 0 0.5
    outer loop
      vertex 6.0294 5 -2.68446
      vertex 5.33951 -5 -3.87938
      vertex 6.0294 -5 -2.68446
    endloop
  endfacet
  facet normal -0.866025 0 -0.5
    outer loop
      vertex 6.0294 -5 2.68446
      vertex 5.33951 5 3.87938
      vertex 6.0294 5 2.68446
    endloop
  endfacet
  facet normal -0.866025 -0 -0.5
    outer loop
      vertex 5.33951 5 3.87938
      vertex 6.0294 -5 2.68446
      vertex 5.33951 -5 3.87938
    endloop
  endfacet
  facet normal -0.406737 0 -0.913545
    outer loop
      vertex 2.03951 -5 6.27697
      vertex 3.3 5 5.71577
      vertex 3.3 -5 5.71577
    endloop
  endfacet
  facet normal -0.406737 0 -0.913545
    outer loop
      vertex 3.3 5 5.71577
      vertex 2.03951 -5 6.27697
      vertex 2.03951 5 6.27697
    endloop
  endfacet
  facet normal -0.207911 0 -0.978148
    outer loop
      vertex 0.689887 -5 6.56384
      vertex 2.03951 5 6.27697
      vertex 2.03951 -5 6.27697
    endloop
  endfacet
  facet normal -0.207911 0 -0.978148
    outer loop
      vertex 2.03951 5 6.27697
      vertex 0.689887 -5 6.56384
      vertex 0.689887 5 6.56384
    endloop
  endfacet
  facet normal -0.587785 0 -0.809017
    outer loop
      vertex 3.3 -5 5.71577
      vertex 4.41626 5 4.90476
      vertex 4.41626 -5 4.90476
    endloop
  endfacet
  facet normal -0.587785 0 -0.809017
    outer loop
      vertex 4.41626 5 4.90476
      vertex 3.3 -5 5.71577
      vertex 3.3 5 5.71577
    endloop
  endfacet
  facet normal 0.866025 0 -0.5
    outer loop
      vertex -5.33951 -5 3.87938
      vertex -6.0294 5 2.68446
      vertex -5.33951 5 3.87938
    endloop
  endfacet
  facet normal 0.866025 0 -0.5
    outer loop
      vertex -6.0294 5 2.68446
      vertex -5.33951 -5 3.87938
      vertex -6.0294 -5 2.68446
    endloop
  endfacet
  facet normal 0.743145 0 -0.669131
    outer loop
      vertex -4.41626 -5 4.90476
      vertex -5.33951 5 3.87938
      vertex -4.41626 5 4.90476
    endloop
  endfacet
  facet normal 0.743145 0 -0.669131
    outer loop
      vertex -5.33951 5 3.87938
      vertex -4.41626 -5 4.90476
      vertex -5.33951 -5 3.87938
    endloop
  endfacet
  facet normal 0.951057 0 -0.309016
    outer loop
      vertex -6.0294 -5 2.68446
      vertex -6.45577 5 1.37222
      vertex -6.0294 5 2.68446
    endloop
  endfacet
  facet normal 0.951057 0 -0.309016
    outer loop
      vertex -6.45577 5 1.37222
      vertex -6.0294 -5 2.68446
      vertex -6.45577 -5 1.37222
    endloop
  endfacet
  facet normal 0.406737 0 -0.913545
    outer loop
      vertex -3.3 -5 5.71577
      vertex -2.03951 5 6.27697
      vertex -2.03951 -5 6.27697
    endloop
  endfacet
  facet normal 0.406737 0 -0.913545
    outer loop
      vertex -2.03951 5 6.27697
      vertex -3.3 -5 5.71577
      vertex -3.3 5 5.71577
    endloop
  endfacet
  facet normal -0.207911 0 0.978148
    outer loop
      vertex 0.689887 5 -6.56384
      vertex 2.03951 -5 -6.27697
      vertex 2.03951 5 -6.27697
    endloop
  endfacet
  facet normal -0.207911 0 0.978148
    outer loop
      vertex 2.03951 -5 -6.27697
      vertex 0.689887 5 -6.56384
      vertex 0.689887 -5 -6.56384
    endloop
  endfacet
  facet normal -0.587785 0 0.809017
    outer loop
      vertex 3.3 5 -5.71577
      vertex 4.41626 -5 -4.90476
      vertex 4.41626 5 -4.90476
    endloop
  endfacet
  facet normal -0.587785 0 0.809017
    outer loop
      vertex 4.41626 -5 -4.90476
      vertex 3.3 5 -5.71577
      vertex 3.3 -5 -5.71577
    endloop
  endfacet
  facet normal -0.743145 0 0.669131
    outer loop
      vertex 4.41626 -5 -4.90476
      vertex 5.33951 5 -3.87938
      vertex 4.41626 5 -4.90476
    endloop
  endfacet
  facet normal -0.743145 0 0.669131
    outer loop
      vertex 5.33951 5 -3.87938
      vertex 4.41626 -5 -4.90476
      vertex 5.33951 -5 -3.87938
    endloop
  endfacet
  facet normal -0.951057 0 0.309016
    outer loop
      vertex 6.0294 -5 -2.68446
      vertex 6.45577 5 -1.37222
      vertex 6.0294 5 -2.68446
    endloop
  endfacet
  facet normal -0.951057 0 0.309016
    outer loop
      vertex 6.45577 5 -1.37222
      vertex 6.0294 -5 -2.68446
      vertex 6.45577 -5 -1.37222
    endloop
  endfacet
  facet normal -0.994522 0 0.104529
    outer loop
      vertex 6.45577 -5 -1.37222
      vertex 6.6 5 -1.11022e-15
      vertex 6.45577 5 -1.37222
    endloop
  endfacet
  facet normal -0.994522 2.321e-17 0.104529
    outer loop
      vertex 6.6 5 -1.11022e-15
      vertex 6.45577 -5 -1.37222
      vertex 6.6 -5 1.11022e-15
    endloop
  endfacet
  facet normal 0.587785 0 0.809017
    outer loop
      vertex -4.41626 5 -4.90476
      vertex -3.3 -5 -5.71577
      vertex -3.3 5 -5.71577
    endloop
  endfacet
  facet normal 0.587785 0 0.809017
    outer loop
      vertex -3.3 -5 -5.71577
      vertex -4.41626 5 -4.90476
      vertex -4.41626 -5 -4.90476
    endloop
  endfacet
  facet normal 0.866025 -0 0.5
    outer loop
      vertex -6.0294 -5 -2.68446
      vertex -5.33951 5 -3.87938
      vertex -6.0294 5 -2.68446
    endloop
  endfacet
  facet normal 0.866025 0 0.5
    outer loop
      vertex -5.33951 5 -3.87938
      vertex -6.0294 -5 -2.68446
      vertex -5.33951 -5 -3.87938
    endloop
  endfacet
  facet normal 0.743145 -0 0.669131
    outer loop
      vertex -5.33951 -5 -3.87938
      vertex -4.41626 5 -4.90476
      vertex -5.33951 5 -3.87938
    endloop
  endfacet
  facet normal 0.743145 0 0.669131
    outer loop
      vertex -4.41626 5 -4.90476
      vertex -5.33951 -5 -3.87938
      vertex -4.41626 -5 -4.90476
    endloop
  endfacet
  facet normal -0.406737 0 0.913545
    outer loop
      vertex 2.03951 5 -6.27697
      vertex 3.3 -5 -5.71577
      vertex 3.3 5 -5.71577
    endloop
  endfacet
  facet normal -0.406737 0 0.913545
    outer loop
      vertex 3.3 -5 -5.71577
      vertex 2.03951 5 -6.27697
      vertex 2.03951 -5 -6.27697
    endloop
  endfacet
  facet normal 0.207911 0 0.978148
    outer loop
      vertex -2.03951 5 -6.27697
      vertex -0.689887 -5 -6.56384
      vertex -0.689887 5 -6.56384
    endloop
  endfacet
  facet normal 0.207911 0 0.978148
    outer loop
      vertex -0.689887 -5 -6.56384
      vertex -2.03951 5 -6.27697
      vertex -2.03951 -5 -6.27697
    endloop
  endfacet
  facet normal 0.951057 -0 0.309016
    outer loop
      vertex -6.45577 -5 -1.37222
      vertex -6.0294 5 -2.68446
      vertex -6.45577 5 -1.37222
    endloop
  endfacet
  facet normal 0.951057 0 0.309016
    outer loop
      vertex -6.0294 5 -2.68446
      vertex -6.45577 -5 -1.37222
      vertex -6.0294 -5 -2.68446
    endloop
  endfacet
  facet normal 0.994522 2.321e-17 0.104529
    outer loop
      vertex -6.6 -5 1.11022e-15
      vertex -6.45577 5 -1.37222
      vertex -6.6 5 -1.11022e-15
    endloop
  endfacet
  facet normal 0.994522 0 0.104529
    outer loop
      vertex -6.45577 5 -1.37222
      vertex -6.6 -5 1.11022e-15
      vertex -6.45577 -5 -1.37222
    endloop
  endfacet
  facet normal 0.406737 0 0.913545
    outer loop
      vertex -3.3 5 -5.71577
      vertex -2.03951 -5 -6.27697
      vertex -2.03951 5 -6.27697
    endloop
  endfacet
  facet normal 0.406737 0 0.913545
    outer loop
      vertex -2.03951 -5 -6.27697
      vertex -3.3 5 -5.71577
      vertex -3.3 -5 -5.71577
    endloop
  endfacet
endsolid OpenSCAD_Model
