solid OpenSCAD_Model
  facet normal 0.994522 0.104529 0
    outer loop
      vertex 36.5 0 4
      vertex 35.7024 7.58878 -4
      vertex 35.7024 7.58878 4
    endloop
  endfacet
  facet normal 0.994522 0.104529 0
    outer loop
      vertex 35.7024 7.58878 -4
      vertex 36.5 0 4
      vertex 36.5 0 -4
    endloop
  endfacet
  facet normal -0.994522 0.104529 0
    outer loop
      vertex -36.5 0 -4
      vertex -35.7024 7.58878 4
      vertex -35.7024 7.58878 -4
    endloop
  endfacet
  facet normal -0.994522 0.104529 0
    outer loop
      vertex -35.7024 7.58878 4
      vertex -36.5 0 -4
      vertex -36.5 0 4
    endloop
  endfacet
  facet normal 0 1 -0
    outer loop
      vertex 3.81529 36.3 -4
      vertex -3.81529 36.3 4
      vertex 3.81529 36.3 4
    endloop
  endfacet
  facet normal 0 1 0
    outer loop
      vertex -3.81529 36.3 4
      vertex 3.81529 36.3 -4
      vertex -3.81529 36.3 -4
    endloop
  endfacet
  facet normal 0 -1 0
    outer loop
      vertex -3.81529 -36.3 -4
      vertex 3.81529 -36.3 4
      vertex -3.81529 -36.3 4
    endloop
  endfacet
  facet normal 0 -1 -0
    outer loop
      vertex 3.81529 -36.3 4
      vertex -3.81529 -36.3 -4
      vertex 3.81529 -36.3 -4
    endloop
  endfacet
  facet normal 0.587785 0.809017 -0
    outer loop
      vertex 24.4233 27.1248 -4
      vertex 18.25 31.6099 4
      vertex 24.4233 27.1248 4
    endloop
  endfacet
  facet normal 0.587785 0.809017 0
    outer loop
      vertex 18.25 31.6099 4
      vertex 24.4233 27.1248 -4
      vertex 18.25 31.6099 -4
    endloop
  endfacet
  facet normal -0.743145 0.669131 0
    outer loop
      vertex -29.5291 21.4542 -4
      vertex -24.4233 27.1248 4
      vertex -24.4233 27.1248 -4
    endloop
  endfacet
  facet normal -0.743145 0.669131 0
    outer loop
      vertex -24.4233 27.1248 4
      vertex -29.5291 21.4542 -4
      vertex -29.5291 21.4542 4
    endloop
  endfacet
  facet normal -0.866025 0.5 0
    outer loop
      vertex -33.3444 14.8459 -4
      vertex -29.5291 21.4542 4
      vertex -29.5291 21.4542 -4
    endloop
  endfacet
  facet normal -0.866025 0.5 0
    outer loop
      vertex -29.5291 21.4542 4
      vertex -33.3444 14.8459 -4
      vertex -33.3444 14.8459 4
    endloop
  endfacet
  facet normal -0.406736 0.913546 0
    outer loop
      vertex -11.2791 34.7136 -4
      vertex -18.25 31.6099 4
      vertex -11.2791 34.7136 4
    endloop
  endfacet
  facet normal -0.406736 0.913546 0
    outer loop
      vertex -18.25 31.6099 4
      vertex -11.2791 34.7136 -4
      vertex -18.25 31.6099 -4
    endloop
  endfacet
  facet normal 0.866025 0.5 0
    outer loop
      vertex 33.3444 14.8459 4
      vertex 29.5291 21.4542 -4
      vertex 29.5291 21.4542 4
    endloop
  endfacet
  facet normal 0.866025 0.5 0
    outer loop
      vertex 29.5291 21.4542 -4
      vertex 33.3444 14.8459 4
      vertex 33.3444 14.8459 -4
    endloop
  endfacet
  facet normal 0.951057 0.309017 0
    outer loop
      vertex 35.7024 7.58878 4
      vertex 33.3444 14.8459 -4
      vertex 33.3444 14.8459 4
    endloop
  endfacet
  facet normal 0.951057 0.309017 0
    outer loop
      vertex 33.3444 14.8459 -4
      vertex 35.7024 7.58878 4
      vertex 35.7024 7.58878 -4
    endloop
  endfacet
  facet normal 0.743145 0.669131 0
    outer loop
      vertex 29.5291 21.4542 4
      vertex 24.4233 27.1248 -4
      vertex 24.4233 27.1248 4
    endloop
  endfacet
  facet normal 0.743145 0.669131 0
    outer loop
      vertex 24.4233 27.1248 -4
      vertex 29.5291 21.4542 4
      vertex 29.5291 21.4542 -4
    endloop
  endfacet
  facet normal 0.207912 0.978148 -0
    outer loop
      vertex 11.2791 34.7136 -4
      vertex 3.81529 36.3 4
      vertex 11.2791 34.7136 4
    endloop
  endfacet
  facet normal 0.207912 0.978148 0
    outer loop
      vertex 3.81529 36.3 4
      vertex 11.2791 34.7136 -4
      vertex 3.81529 36.3 -4
    endloop
  endfacet
  facet normal 0.406736 0.913546 -0
    outer loop
      vertex 18.25 31.6099 -4
      vertex 11.2791 34.7136 4
      vertex 18.25 31.6099 4
    endloop
  endfacet
  facet normal 0.406736 0.913546 0
    outer loop
      vertex 11.2791 34.7136 4
      vertex 18.25 31.6099 -4
      vertex 11.2791 34.7136 -4
    endloop
  endfacet
  facet normal -0.951057 0.309017 0
    outer loop
      vertex -35.7024 7.58878 -4
      vertex -33.3444 14.8459 4
      vertex -33.3444 14.8459 -4
    endloop
  endfacet
  facet normal -0.951057 0.309017 0
    outer loop
      vertex -33.3444 14.8459 4
      vertex -35.7024 7.58878 -4
      vertex -35.7024 7.58878 4
    endloop
  endfacet
  facet normal 0 0 1
    outer loop
      vertex 11 0 4
      vertex 36.5 0 4
      vertex 35.7024 7.58878 4
    endloop
  endfacet
  facet normal 0 0 1
    outer loop
      vertex 10.7596 2.28703 4
      vertex 35.7024 7.58878 4
      vertex 33.3444 14.8459 4
    endloop
  endfacet
  facet normal 0 0 1
    outer loop
      vertex 36.5 0 4
      vertex 11 0 4
      vertex 35.7024 -7.58878 4
    endloop
  endfacet
  facet normal 0 0 1
    outer loop
      vertex 10.049 4.4741 4
      vertex 33.3444 14.8459 4
      vertex 29.5291 21.4542 4
    endloop
  endfacet
  facet normal -0 0 1
    outer loop
      vertex 10.7596 -2.28703 4
      vertex 35.7024 -7.58878 4
      vertex 11 0 4
    endloop
  endfacet
  facet normal 0 0 1
    outer loop
      vertex 8.89919 6.46564 4
      vertex 29.5291 21.4542 4
      vertex 24.4233 27.1248 4
    endloop
  endfacet
  facet normal 0 0 1
    outer loop
      vertex 35.7024 -7.58878 4
      vertex 10.7596 -2.28703 4
      vertex 33.3444 -14.8459 4
    endloop
  endfacet
  facet normal 0 0 1
    outer loop
      vertex 7.36044 8.17459 4
      vertex 24.4233 27.1248 4
      vertex 18.25 31.6099 4
    endloop
  endfacet
  facet normal -0 0 1
    outer loop
      vertex 10.049 -4.4741 4
      vertex 33.3444 -14.8459 4
      vertex 10.7596 -2.28703 4
    endloop
  endfacet
  facet normal 0 0 1
    outer loop
      vertex 5.5 9.52628 4
      vertex 18.25 31.6099 4
      vertex 11.2791 34.7136 4
    endloop
  endfacet
  facet normal 0 0 1
    outer loop
      vertex 33.3444 -14.8459 4
      vertex 10.049 -4.4741 4
      vertex 29.5291 -21.4542 4
    endloop
  endfacet
  facet normal -0 0 1
    outer loop
      vertex 8.89919 -6.46564 4
      vertex 29.5291 -21.4542 4
      vertex 10.049 -4.4741 4
    endloop
  endfacet
  facet normal 0 0 1
    outer loop
      vertex 35.7024 7.58878 4
      vertex 10.7596 2.28703 4
      vertex 11 0 4
    endloop
  endfacet
  facet normal 0 0 1
    outer loop
      vertex 33.3444 14.8459 4
      vertex 10.049 4.4741 4
      vertex 10.7596 2.28703 4
    endloop
  endfacet
  facet normal 0 0 1
    outer loop
      vertex 29.5291 21.4542 4
      vertex 8.89919 6.46564 4
      vertex 10.049 4.4741 4
    endloop
  endfacet
  facet normal 0 0 1
    outer loop
      vertex 24.4233 27.1248 4
      vertex 7.36044 8.17459 4
      vertex 8.89919 6.46564 4
    endloop
  endfacet
  facet normal 0 0 1
    outer loop
      vertex 18.25 31.6099 4
      vertex 5.5 9.52628 4
      vertex 7.36044 8.17459 4
    endloop
  endfacet
  facet normal 0 0 1
    outer loop
      vertex 3.39919 10.4616 4
      vertex 11.2791 34.7136 4
      vertex 3.81529 36.3 4
    endloop
  endfacet
  facet normal 0 0 1
    outer loop
      vertex 11.2791 34.7136 4
      vertex 3.39919 10.4616 4
      vertex 5.5 9.52628 4
    endloop
  endfacet
  facet normal 0 0 1
    outer loop
      vertex 3.81529 36.3 4
      vertex 1.14981 10.9397 4
      vertex 3.39919 10.4616 4
    endloop
  endfacet
  facet normal 0 0 1
    outer loop
      vertex 3.81529 36.3 4
      vertex -1.14981 10.9397 4
      vertex 1.14981 10.9397 4
    endloop
  endfacet
  facet normal -0 0 1
    outer loop
      vertex -3.81529 36.3 4
      vertex -1.14981 10.9397 4
      vertex 3.81529 36.3 4
    endloop
  endfacet
  facet normal 0 0 1
    outer loop
      vertex -1.14981 10.9397 4
      vertex -3.81529 36.3 4
      vertex -3.39919 10.4616 4
    endloop
  endfacet
  facet normal -0 0 1
    outer loop
      vertex -11.2791 34.7136 4
      vertex -3.39919 10.4616 4
      vertex -3.81529 36.3 4
    endloop
  endfacet
  facet normal 0 0 1
    outer loop
      vertex -3.39919 10.4616 4
      vertex -11.2791 34.7136 4
      vertex -5.5 9.52628 4
    endloop
  endfacet
  facet normal -0 0 1
    outer loop
      vertex -18.25 31.6099 4
      vertex -5.5 9.52628 4
      vertex -11.2791 34.7136 4
    endloop
  endfacet
  facet normal 0 0 1
    outer loop
      vertex -5.5 9.52628 4
      vertex -18.25 31.6099 4
      vertex -7.36044 8.17459 4
    endloop
  endfacet
  facet normal -0 0 1
    outer loop
      vertex -24.4233 27.1248 4
      vertex -7.36044 8.17459 4
      vertex -18.25 31.6099 4
    endloop
  endfacet
  facet normal -0 0 1
    outer loop
      vertex -29.5291 21.4542 4
      vertex -8.89919 6.46564 4
      vertex -24.4233 27.1248 4
    endloop
  endfacet
  facet normal 0 0 1
    outer loop
      vertex -7.36044 8.17459 4
      vertex -24.4233 27.1248 4
      vertex -8.89919 6.46564 4
    endloop
  endfacet
  facet normal 0 0 1
    outer loop
      vertex 29.5291 -21.4542 4
      vertex 8.89919 -6.46564 4
      vertex 24.4233 -27.1248 4
    endloop
  endfacet
  facet normal -0 0 1
    outer loop
      vertex 7.36044 -8.17459 4
      vertex 24.4233 -27.1248 4
      vertex 8.89919 -6.46564 4
    endloop
  endfacet
  facet normal 0 0 1
    outer loop
      vertex 24.4233 -27.1248 4
      vertex 7.36044 -8.17459 4
      vertex 18.25 -31.6099 4
    endloop
  endfacet
  facet normal -0 0 1
    outer loop
      vertex 5.5 -9.52628 4
      vertex 18.25 -31.6099 4
      vertex 7.36044 -8.17459 4
    endloop
  endfacet
  facet normal 0 0 1
    outer loop
      vertex 18.25 -31.6099 4
      vertex 5.5 -9.52628 4
      vertex 11.2791 -34.7136 4
    endloop
  endfacet
  facet normal -0 0 1
    outer loop
      vertex 3.39919 -10.4616 4
      vertex 11.2791 -34.7136 4
      vertex 5.5 -9.52628 4
    endloop
  endfacet
  facet normal 0 0 1
    outer loop
      vertex 11.2791 -34.7136 4
      vertex 3.39919 -10.4616 4
      vertex 3.81529 -36.3 4
    endloop
  endfacet
  facet normal -0 0 1
    outer loop
      vertex 1.14981 -10.9397 4
      vertex 3.81529 -36.3 4
      vertex 3.39919 -10.4616 4
    endloop
  endfacet
  facet normal -0 0 1
    outer loop
      vertex -1.14981 -10.9397 4
      vertex 3.81529 -36.3 4
      vertex 1.14981 -10.9397 4
    endloop
  endfacet
  facet normal 0 0 1
    outer loop
      vertex -3.81529 -36.3 4
      vertex -1.14981 -10.9397 4
      vertex -3.39919 -10.4616 4
    endloop
  endfacet
  facet normal 0 0 1
    outer loop
      vertex -1.14981 -10.9397 4
      vertex -3.81529 -36.3 4
      vertex 3.81529 -36.3 4
    endloop
  endfacet
  facet normal 0 0 1
    outer loop
      vertex -11.2791 -34.7136 4
      vertex -3.39919 -10.4616 4
      vertex -5.5 -9.52628 4
    endloop
  endfacet
  facet normal 0 0 1
    outer loop
      vertex -18.25 -31.6099 4
      vertex -5.5 -9.52628 4
      vertex -7.36044 -8.17459 4
    endloop
  endfacet
  facet normal 0 0 1
    outer loop
      vertex -24.4233 -27.1248 4
      vertex -7.36044 -8.17459 4
      vertex -8.89919 -6.46564 4
    endloop
  endfacet
  facet normal 0 0 1
    outer loop
      vertex -29.5291 -21.4542 4
      vertex -8.89919 -6.46564 4
      vertex -10.049 -4.4741 4
    endloop
  endfacet
  facet normal 0 0 1
    outer loop
      vertex -33.3444 -14.8459 4
      vertex -10.049 -4.4741 4
      vertex -10.7596 -2.28703 4
    endloop
  endfacet
  facet normal 0 0 1
    outer loop
      vertex -3.39919 -10.4616 4
      vertex -11.2791 -34.7136 4
      vertex -3.81529 -36.3 4
    endloop
  endfacet
  facet normal 0 0 1
    outer loop
      vertex -35.7024 -7.58878 4
      vertex -10.7596 -2.28703 4
      vertex -11 0 4
    endloop
  endfacet
  facet normal 0 0 1
    outer loop
      vertex -8.89919 6.46564 4
      vertex -29.5291 21.4542 4
      vertex -10.049 4.4741 4
    endloop
  endfacet
  facet normal -0 0 1
    outer loop
      vertex -33.3444 14.8459 4
      vertex -10.049 4.4741 4
      vertex -29.5291 21.4542 4
    endloop
  endfacet
  facet normal 0 0 1
    outer loop
      vertex -5.5 -9.52628 4
      vertex -18.25 -31.6099 4
      vertex -11.2791 -34.7136 4
    endloop
  endfacet
  facet normal 0 0 1
    outer loop
      vertex -10.049 4.4741 4
      vertex -33.3444 14.8459 4
      vertex -10.7596 2.28703 4
    endloop
  endfacet
  facet normal 0 0 1
    outer loop
      vertex -7.36044 -8.17459 4
      vertex -24.4233 -27.1248 4
      vertex -18.25 -31.6099 4
    endloop
  endfacet
  facet normal -0 0 1
    outer loop
      vertex -35.7024 7.58878 4
      vertex -10.7596 2.28703 4
      vertex -33.3444 14.8459 4
    endloop
  endfacet
  facet normal 0 0 1
    outer loop
      vertex -8.89919 -6.46564 4
      vertex -29.5291 -21.4542 4
      vertex -24.4233 -27.1248 4
    endloop
  endfacet
  facet normal 0 0 1
    outer loop
      vertex -10.7596 2.28703 4
      vertex -35.7024 7.58878 4
      vertex -11 0 4
    endloop
  endfacet
  facet normal 0 0 1
    outer loop
      vertex -10.049 -4.4741 4
      vertex -33.3444 -14.8459 4
      vertex -29.5291 -21.4542 4
    endloop
  endfacet
  facet normal 0 0 1
    outer loop
      vertex -36.5 0 4
      vertex -11 0 4
      vertex -35.7024 7.58878 4
    endloop
  endfacet
  facet normal 0 0 1
    outer loop
      vertex -10.7596 -2.28703 4
      vertex -35.7024 -7.58878 4
      vertex -33.3444 -14.8459 4
    endloop
  endfacet
  facet normal 0 0 1
    outer loop
      vertex -11 0 4
      vertex -36.5 0 4
      vertex -35.7024 -7.58878 4
    endloop
  endfacet
  facet normal -0.587785 0.809017 0
    outer loop
      vertex -18.25 31.6099 -4
      vertex -24.4233 27.1248 4
      vertex -18.25 31.6099 4
    endloop
  endfacet
  facet normal -0.587785 0.809017 0
    outer loop
      vertex -24.4233 27.1248 4
      vertex -18.25 31.6099 -4
      vertex -24.4233 27.1248 -4
    endloop
  endfacet
  facet normal -0.207912 0.978148 0
    outer loop
      vertex -3.81529 36.3 -4
      vertex -11.2791 34.7136 4
      vertex -3.81529 36.3 4
    endloop
  endfacet
  facet normal -0.207912 0.978148 0
    outer loop
      vertex -11.2791 34.7136 4
      vertex -3.81529 36.3 -4
      vertex -11.2791 34.7136 -4
    endloop
  endfacet
  facet normal 0.994522 -0.104529 0
    outer loop
      vertex 35.7024 -7.58878 4
      vertex 36.5 0 -4
      vertex 36.5 0 4
    endloop
  endfacet
  facet normal 0.994522 -0.104529 0
    outer loop
      vertex 36.5 0 -4
      vertex 35.7024 -7.58878 4
      vertex 35.7024 -7.58878 -4
    endloop
  endfacet
  facet normal 0 0 -1
    outer loop
      vertex 11 0 -4
      vertex 36.5 0 -4
      vertex 35.7024 -7.58878 -4
    endloop
  endfacet
  facet normal 0 0 -1
    outer loop
      vertex 10.7596 -2.28703 -4
      vertex 35.7024 -7.58878 -4
      vertex 33.3444 -14.8459 -4
    endloop
  endfacet
  facet normal 0 0 -1
    outer loop
      vertex 36.5 0 -4
      vertex 11 0 -4
      vertex 35.7024 7.58878 -4
    endloop
  endfacet
  facet normal 0 0 -1
    outer loop
      vertex 10.049 -4.4741 -4
      vertex 33.3444 -14.8459 -4
      vertex 29.5291 -21.4542 -4
    endloop
  endfacet
  facet normal 0 0 -1
    outer loop
      vertex 10.7596 2.28703 -4
      vertex 35.7024 7.58878 -4
      vertex 11 0 -4
    endloop
  endfacet
  facet normal 0 0 -1
    outer loop
      vertex 8.89919 -6.46564 -4
      vertex 29.5291 -21.4542 -4
      vertex 24.4233 -27.1248 -4
    endloop
  endfacet
  facet normal -0 0 -1
    outer loop
      vertex 35.7024 7.58878 -4
      vertex 10.7596 2.28703 -4
      vertex 33.3444 14.8459 -4
    endloop
  endfacet
  facet normal 0 0 -1
    outer loop
      vertex 7.36044 -8.17459 -4
      vertex 24.4233 -27.1248 -4
      vertex 18.25 -31.6099 -4
    endloop
  endfacet
  facet normal 0 0 -1
    outer loop
      vertex 10.049 4.4741 -4
      vertex 33.3444 14.8459 -4
      vertex 10.7596 2.28703 -4
    endloop
  endfacet
  facet normal 0 0 -1
    outer loop
      vertex 5.5 -9.52628 -4
      vertex 18.25 -31.6099 -4
      vertex 11.2791 -34.7136 -4
    endloop
  endfacet
  facet normal -0 0 -1
    outer loop
      vertex 33.3444 14.8459 -4
      vertex 10.049 4.4741 -4
      vertex 29.5291 21.4542 -4
    endloop
  endfacet
  facet normal 0 0 -1
    outer loop
      vertex 8.89919 6.46564 -4
      vertex 29.5291 21.4542 -4
      vertex 10.049 4.4741 -4
    endloop
  endfacet
  facet normal 0 0 -1
    outer loop
      vertex 35.7024 -7.58878 -4
      vertex 10.7596 -2.28703 -4
      vertex 11 0 -4
    endloop
  endfacet
  facet normal 0 0 -1
    outer loop
      vertex 33.3444 -14.8459 -4
      vertex 10.049 -4.4741 -4
      vertex 10.7596 -2.28703 -4
    endloop
  endfacet
  facet normal 0 0 -1
    outer loop
      vertex 29.5291 -21.4542 -4
      vertex 8.89919 -6.46564 -4
      vertex 10.049 -4.4741 -4
    endloop
  endfacet
  facet normal 0 0 -1
    outer loop
      vertex 24.4233 -27.1248 -4
      vertex 7.36044 -8.17459 -4
      vertex 8.89919 -6.46564 -4
    endloop
  endfacet
  facet normal 0 0 -1
    outer loop
      vertex 18.25 -31.6099 -4
      vertex 5.5 -9.52628 -4
      vertex 7.36044 -8.17459 -4
    endloop
  endfacet
  facet normal 0 0 -1
    outer loop
      vertex 3.39919 -10.4616 -4
      vertex 11.2791 -34.7136 -4
      vertex 3.81529 -36.3 -4
    endloop
  endfacet
  facet normal 0 0 -1
    outer loop
      vertex 11.2791 -34.7136 -4
      vertex 3.39919 -10.4616 -4
      vertex 5.5 -9.52628 -4
    endloop
  endfacet
  facet normal 0 0 -1
    outer loop
      vertex 3.81529 -36.3 -4
      vertex 1.14981 -10.9397 -4
      vertex 3.39919 -10.4616 -4
    endloop
  endfacet
  facet normal 0 0 -1
    outer loop
      vertex 3.81529 -36.3 -4
      vertex -1.14981 -10.9397 -4
      vertex 1.14981 -10.9397 -4
    endloop
  endfacet
  facet normal 0 0 -1
    outer loop
      vertex -3.81529 -36.3 -4
      vertex -1.14981 -10.9397 -4
      vertex 3.81529 -36.3 -4
    endloop
  endfacet
  facet normal -0 0 -1
    outer loop
      vertex -1.14981 -10.9397 -4
      vertex -3.81529 -36.3 -4
      vertex -3.39919 -10.4616 -4
    endloop
  endfacet
  facet normal 0 0 -1
    outer loop
      vertex -11.2791 -34.7136 -4
      vertex -3.39919 -10.4616 -4
      vertex -3.81529 -36.3 -4
    endloop
  endfacet
  facet normal -0 0 -1
    outer loop
      vertex -3.39919 -10.4616 -4
      vertex -11.2791 -34.7136 -4
      vertex -5.5 -9.52628 -4
    endloop
  endfacet
  facet normal 0 0 -1
    outer loop
      vertex -18.25 -31.6099 -4
      vertex -5.5 -9.52628 -4
      vertex -11.2791 -34.7136 -4
    endloop
  endfacet
  facet normal -0 0 -1
    outer loop
      vertex -5.5 -9.52628 -4
      vertex -18.25 -31.6099 -4
      vertex -7.36044 -8.17459 -4
    endloop
  endfacet
  facet normal 0 0 -1
    outer loop
      vertex -24.4233 -27.1248 -4
      vertex -7.36044 -8.17459 -4
      vertex -18.25 -31.6099 -4
    endloop
  endfacet
  facet normal 0 0 -1
    outer loop
      vertex -29.5291 -21.4542 -4
      vertex -8.89919 -6.46564 -4
      vertex -24.4233 -27.1248 -4
    endloop
  endfacet
  facet normal -0 0 -1
    outer loop
      vertex -7.36044 -8.17459 -4
      vertex -24.4233 -27.1248 -4
      vertex -8.89919 -6.46564 -4
    endloop
  endfacet
  facet normal -0 0 -1
    outer loop
      vertex 29.5291 21.4542 -4
      vertex 8.89919 6.46564 -4
      vertex 24.4233 27.1248 -4
    endloop
  endfacet
  facet normal 0 0 -1
    outer loop
      vertex 7.36044 8.17459 -4
      vertex 24.4233 27.1248 -4
      vertex 8.89919 6.46564 -4
    endloop
  endfacet
  facet normal -0 0 -1
    outer loop
      vertex 24.4233 27.1248 -4
      vertex 7.36044 8.17459 -4
      vertex 18.25 31.6099 -4
    endloop
  endfacet
  facet normal 0 0 -1
    outer loop
      vertex 5.5 9.52628 -4
      vertex 18.25 31.6099 -4
      vertex 7.36044 8.17459 -4
    endloop
  endfacet
  facet normal -0 0 -1
    outer loop
      vertex 18.25 31.6099 -4
      vertex 5.5 9.52628 -4
      vertex 11.2791 34.7136 -4
    endloop
  endfacet
  facet normal 0 0 -1
    outer loop
      vertex 3.39919 10.4616 -4
      vertex 11.2791 34.7136 -4
      vertex 5.5 9.52628 -4
    endloop
  endfacet
  facet normal -0 0 -1
    outer loop
      vertex 11.2791 34.7136 -4
      vertex 3.39919 10.4616 -4
      vertex 3.81529 36.3 -4
    endloop
  endfacet
  facet normal 0 0 -1
    outer loop
      vertex 1.14981 10.9397 -4
      vertex 3.81529 36.3 -4
      vertex 3.39919 10.4616 -4
    endloop
  endfacet
  facet normal 0 0 -1
    outer loop
      vertex -1.14981 10.9397 -4
      vertex 3.81529 36.3 -4
      vertex 1.14981 10.9397 -4
    endloop
  endfacet
  facet normal 0 0 -1
    outer loop
      vertex -3.81529 36.3 -4
      vertex -1.14981 10.9397 -4
      vertex -3.39919 10.4616 -4
    endloop
  endfacet
  facet normal 0 0 -1
    outer loop
      vertex -1.14981 10.9397 -4
      vertex -3.81529 36.3 -4
      vertex 3.81529 36.3 -4
    endloop
  endfacet
  facet normal 0 0 -1
    outer loop
      vertex -11.2791 34.7136 -4
      vertex -3.39919 10.4616 -4
      vertex -5.5 9.52628 -4
    endloop
  endfacet
  facet normal 0 0 -1
    outer loop
      vertex -18.25 31.6099 -4
      vertex -5.5 9.52628 -4
      vertex -7.36044 8.17459 -4
    endloop
  endfacet
  facet normal 0 0 -1
    outer loop
      vertex -24.4233 27.1248 -4
      vertex -7.36044 8.17459 -4
      vertex -8.89919 6.46564 -4
    endloop
  endfacet
  facet normal 0 0 -1
    outer loop
      vertex -29.5291 21.4542 -4
      vertex -8.89919 6.46564 -4
      vertex -10.049 4.4741 -4
    endloop
  endfacet
  facet normal 0 0 -1
    outer loop
      vertex -33.3444 14.8459 -4
      vertex -10.049 4.4741 -4
      vertex -10.7596 2.28703 -4
    endloop
  endfacet
  facet normal 0 0 -1
    outer loop
      vertex -3.39919 10.4616 -4
      vertex -11.2791 34.7136 -4
      vertex -3.81529 36.3 -4
    endloop
  endfacet
  facet normal 0 0 -1
    outer loop
      vertex -35.7024 7.58878 -4
      vertex -10.7596 2.28703 -4
      vertex -11 0 -4
    endloop
  endfacet
  facet normal -0 0 -1
    outer loop
      vertex -8.89919 -6.46564 -4
      vertex -29.5291 -21.4542 -4
      vertex -10.049 -4.4741 -4
    endloop
  endfacet
  facet normal 0 0 -1
    outer loop
      vertex -33.3444 -14.8459 -4
      vertex -10.049 -4.4741 -4
      vertex -29.5291 -21.4542 -4
    endloop
  endfacet
  facet normal 0 0 -1
    outer loop
      vertex -5.5 9.52628 -4
      vertex -18.25 31.6099 -4
      vertex -11.2791 34.7136 -4
    endloop
  endfacet
  facet normal -0 0 -1
    outer loop
      vertex -10.049 -4.4741 -4
      vertex -33.3444 -14.8459 -4
      vertex -10.7596 -2.28703 -4
    endloop
  endfacet
  facet normal 0 0 -1
    outer loop
      vertex -7.36044 8.17459 -4
      vertex -24.4233 27.1248 -4
      vertex -18.25 31.6099 -4
    endloop
  endfacet
  facet normal 0 0 -1
    outer loop
      vertex -35.7024 -7.58878 -4
      vertex -10.7596 -2.28703 -4
      vertex -33.3444 -14.8459 -4
    endloop
  endfacet
  facet normal 0 0 -1
    outer loop
      vertex -8.89919 6.46564 -4
      vertex -29.5291 21.4542 -4
      vertex -24.4233 27.1248 -4
    endloop
  endfacet
  facet normal -0 0 -1
    outer loop
      vertex -10.7596 -2.28703 -4
      vertex -35.7024 -7.58878 -4
      vertex -11 0 -4
    endloop
  endfacet
  facet normal 0 0 -1
    outer loop
      vertex -10.049 4.4741 -4
      vertex -33.3444 14.8459 -4
      vertex -29.5291 21.4542 -4
    endloop
  endfacet
  facet normal 0 0 -1
    outer loop
      vertex -36.5 0 -4
      vertex -11 0 -4
      vertex -35.7024 -7.58878 -4
    endloop
  endfacet
  facet normal 0 0 -1
    outer loop
      vertex -10.7596 2.28703 -4
      vertex -35.7024 7.58878 -4
      vertex -33.3444 14.8459 -4
    endloop
  endfacet
  facet normal 0 0 -1
    outer loop
      vertex -11 0 -4
      vertex -36.5 0 -4
      vertex -35.7024 7.58878 -4
    endloop
  endfacet
  facet normal 0.743145 -0.669131 0
    outer loop
      vertex 24.4233 -27.1248 4
      vertex 29.5291 -21.4542 -4
      vertex 29.5291 -21.4542 4
    endloop
  endfacet
  facet normal 0.743145 -0.669131 0
    outer loop
      vertex 29.5291 -21.4542 -4
      vertex 24.4233 -27.1248 4
      vertex 24.4233 -27.1248 -4
    endloop
  endfacet
  facet normal 0.951057 -0.309017 0
    outer loop
      vertex 33.3444 -14.8459 4
      vertex 35.7024 -7.58878 -4
      vertex 35.7024 -7.58878 4
    endloop
  endfacet
  facet normal 0.951057 -0.309017 0
    outer loop
      vertex 35.7024 -7.58878 -4
      vertex 33.3444 -14.8459 4
      vertex 33.3444 -14.8459 -4
    endloop
  endfacet
  facet normal 0.866025 -0.5 0
    outer loop
      vertex 29.5291 -21.4542 4
      vertex 33.3444 -14.8459 -4
      vertex 33.3444 -14.8459 4
    endloop
  endfacet
  facet normal 0.866025 -0.5 0
    outer loop
      vertex 33.3444 -14.8459 -4
      vertex 29.5291 -21.4542 4
      vertex 29.5291 -21.4542 -4
    endloop
  endfacet
  facet normal -0.587785 -0.809017 0
    outer loop
      vertex -24.4233 -27.1248 -4
      vertex -18.25 -31.6099 4
      vertex -24.4233 -27.1248 4
    endloop
  endfacet
  facet normal -0.587785 -0.809017 -0
    outer loop
      vertex -18.25 -31.6099 4
      vertex -24.4233 -27.1248 -4
      vertex -18.25 -31.6099 -4
    endloop
  endfacet
  facet normal -0.866025 -0.5 0
    outer loop
      vertex -29.5291 -21.4542 -4
      vertex -33.3444 -14.8459 4
      vertex -33.3444 -14.8459 -4
    endloop
  endfacet
  facet normal -0.866025 -0.5 0
    outer loop
      vertex -33.3444 -14.8459 4
      vertex -29.5291 -21.4542 -4
      vertex -29.5291 -21.4542 4
    endloop
  endfacet
  facet normal 0.587785 -0.809017 0
    outer loop
      vertex 18.25 -31.6099 -4
      vertex 24.4233 -27.1248 4
      vertex 18.25 -31.6099 4
    endloop
  endfacet
  facet normal 0.587785 -0.809017 0
    outer loop
      vertex 24.4233 -27.1248 4
      vertex 18.25 -31.6099 -4
      vertex 24.4233 -27.1248 -4
    endloop
  endfacet
  facet normal -0.207912 -0.978148 0
    outer loop
      vertex -11.2791 -34.7136 -4
      vertex -3.81529 -36.3 4
      vertex -11.2791 -34.7136 4
    endloop
  endfacet
  facet normal -0.207912 -0.978148 -0
    outer loop
      vertex -3.81529 -36.3 4
      vertex -11.2791 -34.7136 -4
      vertex -3.81529 -36.3 -4
    endloop
  endfacet
  facet normal -0.406736 -0.913546 0
    outer loop
      vertex -18.25 -31.6099 -4
      vertex -11.2791 -34.7136 4
      vertex -18.25 -31.6099 4
    endloop
  endfacet
  facet normal -0.406736 -0.913546 -0
    outer loop
      vertex -11.2791 -34.7136 4
      vertex -18.25 -31.6099 -4
      vertex -11.2791 -34.7136 -4
    endloop
  endfacet
  facet normal -0.743145 -0.669131 0
    outer loop
      vertex -24.4233 -27.1248 -4
      vertex -29.5291 -21.4542 4
      vertex -29.5291 -21.4542 -4
    endloop
  endfacet
  facet normal -0.743145 -0.669131 0
    outer loop
      vertex -29.5291 -21.4542 4
      vertex -24.4233 -27.1248 -4
      vertex -24.4233 -27.1248 4
    endloop
  endfacet
  facet normal -0.951057 -0.309017 0
    outer loop
      vertex -33.3444 -14.8459 -4
      vertex -35.7024 -7.58878 4
      vertex -35.7024 -7.58878 -4
    endloop
  endfacet
  facet normal -0.951057 -0.309017 0
    outer loop
      vertex -35.7024 -7.58878 4
      vertex -33.3444 -14.8459 -4
      vertex -33.3444 -14.8459 4
    endloop
  endfacet
  facet normal -0.994522 -0.104529 0
    outer loop
      vertex -35.7024 -7.58878 -4
      vertex -36.5 0 4
      vertex -36.5 0 -4
    endloop
  endfacet
  facet normal -0.994522 -0.104529 0
    outer loop
      vertex -36.5 0 4
      vertex -35.7024 -7.58878 -4
      vertex -35.7024 -7.58878 4
    endloop
  endfacet
  facet normal 0.406736 -0.913546 0
    outer loop
      vertex 11.2791 -34.7136 -4
      vertex 18.25 -31.6099 4
      vertex 11.2791 -34.7136 4
    endloop
  endfacet
  facet normal 0.406736 -0.913546 0
    outer loop
      vertex 18.25 -31.6099 4
      vertex 11.2791 -34.7136 -4
      vertex 18.25 -31.6099 -4
    endloop
  endfacet
  facet normal 0.207912 -0.978148 0
    outer loop
      vertex 3.81529 -36.3 -4
      vertex 11.2791 -34.7136 4
      vertex 3.81529 -36.3 4
    endloop
  endfacet
  facet normal 0.207912 -0.978148 0
    outer loop
      vertex 11.2791 -34.7136 4
      vertex 3.81529 -36.3 -4
      vertex 11.2791 -34.7136 -4
    endloop
  endfacet
  facet normal -0.994522 -0.104529 0
    outer loop
      vertex 11 0 -4
      vertex 10.7596 2.28703 4
      vertex 10.7596 2.28703 -4
    endloop
  endfacet
  facet normal -0.994522 -0.104529 0
    outer loop
      vertex 10.7596 2.28703 4
      vertex 11 0 -4
      vertex 11 0 4
    endloop
  endfacet
  facet normal 0.994522 -0.104529 0
    outer loop
      vertex -11 0 4
      vertex -10.7596 2.28703 -4
      vertex -10.7596 2.28703 4
    endloop
  endfacet
  facet normal 0.994522 -0.104529 0
    outer loop
      vertex -10.7596 2.28703 -4
      vertex -11 0 4
      vertex -11 0 -4
    endloop
  endfacet
  facet normal 0 -1 0
    outer loop
      vertex -1.14981 10.9397 -4
      vertex 1.14981 10.9397 4
      vertex -1.14981 10.9397 4
    endloop
  endfacet
  facet normal 0 -1 -0
    outer loop
      vertex 1.14981 10.9397 4
      vertex -1.14981 10.9397 -4
      vertex 1.14981 10.9397 -4
    endloop
  endfacet
  facet normal 0 1 -0
    outer loop
      vertex 1.14981 -10.9397 -4
      vertex -1.14981 -10.9397 4
      vertex 1.14981 -10.9397 4
    endloop
  endfacet
  facet normal 0 1 0
    outer loop
      vertex -1.14981 -10.9397 4
      vertex 1.14981 -10.9397 -4
      vertex -1.14981 -10.9397 -4
    endloop
  endfacet
  facet normal -0.743145 -0.66913 0
    outer loop
      vertex 8.89919 6.46564 -4
      vertex 7.36044 8.17459 4
      vertex 7.36044 8.17459 -4
    endloop
  endfacet
  facet normal -0.743145 -0.66913 0
    outer loop
      vertex 7.36044 8.17459 4
      vertex 8.89919 6.46564 -4
      vertex 8.89919 6.46564 4
    endloop
  endfacet
  facet normal -0.951057 -0.309017 0
    outer loop
      vertex 10.7596 2.28703 -4
      vertex 10.049 4.4741 4
      vertex 10.049 4.4741 -4
    endloop
  endfacet
  facet normal -0.951057 -0.309017 0
    outer loop
      vertex 10.049 4.4741 4
      vertex 10.7596 2.28703 -4
      vertex 10.7596 2.28703 4
    endloop
  endfacet
  facet normal 0.587785 -0.809017 0
    outer loop
      vertex -7.36044 8.17459 -4
      vertex -5.5 9.52628 4
      vertex -7.36044 8.17459 4
    endloop
  endfacet
  facet normal 0.587785 -0.809017 0
    outer loop
      vertex -5.5 9.52628 4
      vertex -7.36044 8.17459 -4
      vertex -5.5 9.52628 -4
    endloop
  endfacet
  facet normal 0.207912 -0.978148 0
    outer loop
      vertex -3.39919 10.4616 -4
      vertex -1.14981 10.9397 4
      vertex -3.39919 10.4616 4
    endloop
  endfacet
  facet normal 0.207912 -0.978148 0
    outer loop
      vertex -1.14981 10.9397 4
      vertex -3.39919 10.4616 -4
      vertex -1.14981 10.9397 -4
    endloop
  endfacet
  facet normal -0.866025 0.5 0
    outer loop
      vertex 8.89919 -6.46564 -4
      vertex 10.049 -4.4741 4
      vertex 10.049 -4.4741 -4
    endloop
  endfacet
  facet normal -0.866025 0.5 0
    outer loop
      vertex 10.049 -4.4741 4
      vertex 8.89919 -6.46564 -4
      vertex 8.89919 -6.46564 4
    endloop
  endfacet
  facet normal -0.866025 -0.5 0
    outer loop
      vertex 10.049 4.4741 -4
      vertex 8.89919 6.46564 4
      vertex 8.89919 6.46564 -4
    endloop
  endfacet
  facet normal -0.866025 -0.5 0
    outer loop
      vertex 8.89919 6.46564 4
      vertex 10.049 4.4741 -4
      vertex 10.049 4.4741 4
    endloop
  endfacet
  facet normal -0.406737 -0.913545 0
    outer loop
      vertex 3.39919 10.4616 -4
      vertex 5.5 9.52628 4
      vertex 3.39919 10.4616 4
    endloop
  endfacet
  facet normal -0.406737 -0.913545 -0
    outer loop
      vertex 5.5 9.52628 4
      vertex 3.39919 10.4616 -4
      vertex 5.5 9.52628 -4
    endloop
  endfacet
  facet normal -0.207912 -0.978148 0
    outer loop
      vertex 1.14981 10.9397 -4
      vertex 3.39919 10.4616 4
      vertex 1.14981 10.9397 4
    endloop
  endfacet
  facet normal -0.207912 -0.978148 -0
    outer loop
      vertex 3.39919 10.4616 4
      vertex 1.14981 10.9397 -4
      vertex 3.39919 10.4616 -4
    endloop
  endfacet
  facet normal -0.587785 -0.809017 0
    outer loop
      vertex 5.5 9.52628 -4
      vertex 7.36044 8.17459 4
      vertex 5.5 9.52628 4
    endloop
  endfacet
  facet normal -0.587785 -0.809017 -0
    outer loop
      vertex 7.36044 8.17459 4
      vertex 5.5 9.52628 -4
      vertex 7.36044 8.17459 -4
    endloop
  endfacet
  facet normal 0.866025 -0.5 0
    outer loop
      vertex -10.049 4.4741 4
      vertex -8.89919 6.46564 -4
      vertex -8.89919 6.46564 4
    endloop
  endfacet
  facet normal 0.866025 -0.5 0
    outer loop
      vertex -8.89919 6.46564 -4
      vertex -10.049 4.4741 4
      vertex -10.049 4.4741 -4
    endloop
  endfacet
  facet normal 0.743145 -0.66913 0
    outer loop
      vertex -8.89919 6.46564 4
      vertex -7.36044 8.17459 -4
      vertex -7.36044 8.17459 4
    endloop
  endfacet
  facet normal 0.743145 -0.66913 0
    outer loop
      vertex -7.36044 8.17459 -4
      vertex -8.89919 6.46564 4
      vertex -8.89919 6.46564 -4
    endloop
  endfacet
  facet normal 0.951057 -0.309017 0
    outer loop
      vertex -10.7596 2.28703 4
      vertex -10.049 4.4741 -4
      vertex -10.049 4.4741 4
    endloop
  endfacet
  facet normal 0.951057 -0.309017 0
    outer loop
      vertex -10.049 4.4741 -4
      vertex -10.7596 2.28703 4
      vertex -10.7596 2.28703 -4
    endloop
  endfacet
  facet normal 0.406737 -0.913545 0
    outer loop
      vertex -5.5 9.52628 -4
      vertex -3.39919 10.4616 4
      vertex -5.5 9.52628 4
    endloop
  endfacet
  facet normal 0.406737 -0.913545 0
    outer loop
      vertex -3.39919 10.4616 4
      vertex -5.5 9.52628 -4
      vertex -3.39919 10.4616 -4
    endloop
  endfacet
  facet normal -0.994522 0.104529 0
    outer loop
      vertex 10.7596 -2.28703 -4
      vertex 11 0 4
      vertex 11 0 -4
    endloop
  endfacet
  facet normal -0.994522 0.104529 0
    outer loop
      vertex 11 0 4
      vertex 10.7596 -2.28703 -4
      vertex 10.7596 -2.28703 4
    endloop
  endfacet
  facet normal -0.207912 0.978148 0
    outer loop
      vertex 3.39919 -10.4616 -4
      vertex 1.14981 -10.9397 4
      vertex 3.39919 -10.4616 4
    endloop
  endfacet
  facet normal -0.207912 0.978148 0
    outer loop
      vertex 1.14981 -10.9397 4
      vertex 3.39919 -10.4616 -4
      vertex 1.14981 -10.9397 -4
    endloop
  endfacet
  facet normal -0.587785 0.809017 0
    outer loop
      vertex 7.36044 -8.17459 -4
      vertex 5.5 -9.52628 4
      vertex 7.36044 -8.17459 4
    endloop
  endfacet
  facet normal -0.587785 0.809017 0
    outer loop
      vertex 5.5 -9.52628 4
      vertex 7.36044 -8.17459 -4
      vertex 5.5 -9.52628 -4
    endloop
  endfacet
  facet normal -0.743145 0.66913 0
    outer loop
      vertex 7.36044 -8.17459 -4
      vertex 8.89919 -6.46564 4
      vertex 8.89919 -6.46564 -4
    endloop
  endfacet
  facet normal -0.743145 0.66913 0
    outer loop
      vertex 8.89919 -6.46564 4
      vertex 7.36044 -8.17459 -4
      vertex 7.36044 -8.17459 4
    endloop
  endfacet
  facet normal -0.951057 0.309017 0
    outer loop
      vertex 10.049 -4.4741 -4
      vertex 10.7596 -2.28703 4
      vertex 10.7596 -2.28703 -4
    endloop
  endfacet
  facet normal -0.951057 0.309017 0
    outer loop
      vertex 10.7596 -2.28703 4
      vertex 10.049 -4.4741 -4
      vertex 10.049 -4.4741 4
    endloop
  endfacet
  facet normal 0.587785 0.809017 -0
    outer loop
      vertex -5.5 -9.52628 -4
      vertex -7.36044 -8.17459 4
      vertex -5.5 -9.52628 4
    endloop
  endfacet
  facet normal 0.587785 0.809017 0
    outer loop
      vertex -7.36044 -8.17459 4
      vertex -5.5 -9.52628 -4
      vertex -7.36044 -8.17459 -4
    endloop
  endfacet
  facet normal 0.866025 0.5 0
    outer loop
      vertex -8.89919 -6.46564 4
      vertex -10.049 -4.4741 -4
      vertex -10.049 -4.4741 4
    endloop
  endfacet
  facet normal 0.866025 0.5 0
    outer loop
      vertex -10.049 -4.4741 -4
      vertex -8.89919 -6.46564 4
      vertex -8.89919 -6.46564 -4
    endloop
  endfacet
  facet normal 0.743145 0.66913 0
    outer loop
      vertex -7.36044 -8.17459 4
      vertex -8.89919 -6.46564 -4
      vertex -8.89919 -6.46564 4
    endloop
  endfacet
  facet normal 0.743145 0.66913 0
    outer loop
      vertex -8.89919 -6.46564 -4
      vertex -7.36044 -8.17459 4
      vertex -7.36044 -8.17459 -4
    endloop
  endfacet
  facet normal -0.406737 0.913545 0
    outer loop
      vertex 5.5 -9.52628 -4
      vertex 3.39919 -10.4616 4
      vertex 5.5 -9.52628 4
    endloop
  endfacet
  facet normal -0.406737 0.913545 0
    outer loop
      vertex 3.39919 -10.4616 4
      vertex 5.5 -9.52628 -4
      vertex 3.39919 -10.4616 -4
    endloop
  endfacet
  facet normal 0.207912 0.978148 -0
    outer loop
      vertex -1.14981 -10.9397 -4
      vertex -3.39919 -10.4616 4
      vertex -1.14981 -10.9397 4
    endloop
  endfacet
  facet normal 0.207912 0.978148 0
    outer loop
      vertex -3.39919 -10.4616 4
      vertex -1.14981 -10.9397 -4
      vertex -3.39919 -10.4616 -4
    endloop
  endfacet
  facet normal 0.951057 0.309017 0
    outer loop
      vertex -10.049 -4.4741 4
      vertex -10.7596 -2.28703 -4
      vertex -10.7596 -2.28703 4
    endloop
  endfacet
  facet normal 0.951057 0.309017 0
    outer loop
      vertex -10.7596 -2.28703 -4
      vertex -10.049 -4.4741 4
      vertex -10.049 -4.4741 -4
    endloop
  endfacet
  facet normal 0.994522 0.104529 0
    outer loop
      vertex -10.7596 -2.28703 4
      vertex -11 0 -4
      vertex -11 0 4
    endloop
  endfacet
  facet normal 0.994522 0.104529 0
    outer loop
      vertex -11 0 -4
      vertex -10.7596 -2.28703 4
      vertex -10.7596 -2.28703 -4
    endloop
  endfacet
  facet normal 0.406737 0.913545 -0
    outer loop
      vertex -3.39919 -10.4616 -4
      vertex -5.5 -9.52628 4
      vertex -3.39919 -10.4616 4
    endloop
  endfacet
  facet normal 0.406737 0.913545 0
    outer loop
      vertex -5.5 -9.52628 4
      vertex -3.39919 -10.4616 -4
      vertex -5.5 -9.52628 -4
    endloop
  endfacet
endsolid OpenSCAD_Model
