solid OpenSCAD_Model
  facet normal 0.866025 0.5 0
    outer loop
      vertex 42.4799 18.9133 5
      vertex 37.6193 27.332 -5
      vertex 37.6193 27.332 5
    endloop
  endfacet
  facet normal 0.866025 0.5 0
    outer loop
      vertex 37.6193 27.332 -5
      vertex 42.4799 18.9133 5
      vertex 42.4799 18.9133 -5
    endloop
  endfacet
  facet normal 0.951056 0.309017 0
    outer loop
      vertex 45.4839 9.66789 5
      vertex 42.4799 18.9133 -5
      vertex 42.4799 18.9133 5
    endloop
  endfacet
  facet normal 0.951056 0.309017 0
    outer loop
      vertex 42.4799 18.9133 -5
      vertex 45.4839 9.66789 5
      vertex 45.4839 9.66789 -5
    endloop
  endfacet
  facet normal 0.406737 0.913545 -0
    outer loop
      vertex 23.25 40.2702 -5
      vertex 14.3693 44.2241 5
      vertex 23.25 40.2702 5
    endloop
  endfacet
  facet normal 0.406737 0.913545 0
    outer loop
      vertex 14.3693 44.2241 5
      vertex 23.25 40.2702 -5
      vertex 14.3693 44.2241 -5
    endloop
  endfacet
  facet normal -0.207912 0.978148 0
    outer loop
      vertex -4.86057 46.2453 -5
      vertex -14.3693 44.2241 5
      vertex -4.86057 46.2453 5
    endloop
  endfacet
  facet normal -0.207912 0.978148 0
    outer loop
      vertex -14.3693 44.2241 5
      vertex -4.86057 46.2453 -5
      vertex -14.3693 44.2241 -5
    endloop
  endfacet
  facet normal -0.866025 0.5 0
    outer loop
      vertex -42.4799 18.9133 -5
      vertex -37.6193 27.332 5
      vertex -37.6193 27.332 -5
    endloop
  endfacet
  facet normal -0.866025 0.5 0
    outer loop
      vertex -37.6193 27.332 5
      vertex -42.4799 18.9133 -5
      vertex -42.4799 18.9133 5
    endloop
  endfacet
  facet normal 0.994522 -0.104528 0
    outer loop
      vertex 45.4839 -9.66789 5
      vertex 46.5 0 -5
      vertex 46.5 0 5
    endloop
  endfacet
  facet normal 0.994522 -0.104528 0
    outer loop
      vertex 46.5 0 -5
      vertex 45.4839 -9.66789 5
      vertex 45.4839 -9.66789 -5
    endloop
  endfacet
  facet normal 0.743145 0.66913 0
    outer loop
      vertex 37.6193 27.332 5
      vertex 31.1146 34.5562 -5
      vertex 31.1146 34.5562 5
    endloop
  endfacet
  facet normal 0.743145 0.66913 0
    outer loop
      vertex 31.1146 34.5562 -5
      vertex 37.6193 27.332 5
      vertex 37.6193 27.332 -5
    endloop
  endfacet
  facet normal 0 1 -0
    outer loop
      vertex 4.86057 46.2453 -5
      vertex -4.86057 46.2453 5
      vertex 4.86057 46.2453 5
    endloop
  endfacet
  facet normal 0 1 0
    outer loop
      vertex -4.86057 46.2453 5
      vertex 4.86057 46.2453 -5
      vertex -4.86057 46.2453 -5
    endloop
  endfacet
  facet normal 0.587785 0.809017 -0
    outer loop
      vertex 31.1146 34.5562 -5
      vertex 23.25 40.2702 5
      vertex 31.1146 34.5562 5
    endloop
  endfacet
  facet normal 0.587785 0.809017 0
    outer loop
      vertex 23.25 40.2702 5
      vertex 31.1146 34.5562 -5
      vertex 23.25 40.2702 -5
    endloop
  endfacet
  facet normal -0.994522 0.104528 0
    outer loop
      vertex -46.5 0 -5
      vertex -45.4839 9.66789 5
      vertex -45.4839 9.66789 -5
    endloop
  endfacet
  facet normal -0.994522 0.104528 0
    outer loop
      vertex -45.4839 9.66789 5
      vertex -46.5 0 -5
      vertex -46.5 0 5
    endloop
  endfacet
  facet normal -0.743145 0.66913 0
    outer loop
      vertex -37.6193 27.332 -5
      vertex -31.1146 34.5562 5
      vertex -31.1146 34.5562 -5
    endloop
  endfacet
  facet normal -0.743145 0.66913 0
    outer loop
      vertex -31.1146 34.5562 5
      vertex -37.6193 27.332 -5
      vertex -37.6193 27.332 5
    endloop
  endfacet
  facet normal -0.406737 0.913545 0
    outer loop
      vertex -14.3693 44.2241 -5
      vertex -23.25 40.2702 5
      vertex -14.3693 44.2241 5
    endloop
  endfacet
  facet normal -0.406737 0.913545 0
    outer loop
      vertex -23.25 40.2702 5
      vertex -14.3693 44.2241 -5
      vertex -23.25 40.2702 -5
    endloop
  endfacet
  facet normal -0.587785 0.809017 0
    outer loop
      vertex -23.25 40.2702 -5
      vertex -31.1146 34.5562 5
      vertex -23.25 40.2702 5
    endloop
  endfacet
  facet normal -0.587785 0.809017 0
    outer loop
      vertex -31.1146 34.5562 5
      vertex -23.25 40.2702 -5
      vertex -31.1146 34.5562 -5
    endloop
  endfacet
  facet normal 0.994522 0.104528 0
    outer loop
      vertex 46.5 0 5
      vertex 45.4839 9.66789 -5
      vertex 45.4839 9.66789 5
    endloop
  endfacet
  facet normal 0.994522 0.104528 0
    outer loop
      vertex 45.4839 9.66789 -5
      vertex 46.5 0 5
      vertex 46.5 0 -5
    endloop
  endfacet
  facet normal 0.951056 -0.309017 0
    outer loop
      vertex 42.4799 -18.9133 5
      vertex 45.4839 -9.66789 -5
      vertex 45.4839 -9.66789 5
    endloop
  endfacet
  facet normal 0.951056 -0.309017 0
    outer loop
      vertex 45.4839 -9.66789 -5
      vertex 42.4799 -18.9133 5
      vertex 42.4799 -18.9133 -5
    endloop
  endfacet
  facet normal -0.587785 -0.809017 0
    outer loop
      vertex -31.1146 -34.5562 -5
      vertex -23.25 -40.2702 5
      vertex -31.1146 -34.5562 5
    endloop
  endfacet
  facet normal -0.587785 -0.809017 -0
    outer loop
      vertex -23.25 -40.2702 5
      vertex -31.1146 -34.5562 -5
      vertex -23.25 -40.2702 -5
    endloop
  endfacet
  facet normal -0.866025 -0.5 0
    outer loop
      vertex -37.6193 -27.332 -5
      vertex -42.4799 -18.9133 5
      vertex -42.4799 -18.9133 -5
    endloop
  endfacet
  facet normal -0.866025 -0.5 0
    outer loop
      vertex -42.4799 -18.9133 5
      vertex -37.6193 -27.332 -5
      vertex -37.6193 -27.332 5
    endloop
  endfacet
  facet normal 0.587785 -0.809017 0
    outer loop
      vertex 23.25 -40.2702 -5
      vertex 31.1146 -34.5562 5
      vertex 23.25 -40.2702 5
    endloop
  endfacet
  facet normal 0.587785 -0.809017 0
    outer loop
      vertex 31.1146 -34.5562 5
      vertex 23.25 -40.2702 -5
      vertex 31.1146 -34.5562 -5
    endloop
  endfacet
  facet normal 0.207912 0.978148 -0
    outer loop
      vertex 14.3693 44.2241 -5
      vertex 4.86057 46.2453 5
      vertex 14.3693 44.2241 5
    endloop
  endfacet
  facet normal 0.207912 0.978148 0
    outer loop
      vertex 4.86057 46.2453 5
      vertex 14.3693 44.2241 -5
      vertex 4.86057 46.2453 -5
    endloop
  endfacet
  facet normal 0 0 1
    outer loop
      vertex 10.5 0 5
      vertex 46.5 0 5
      vertex 45.4839 9.66789 5
    endloop
  endfacet
  facet normal 0 0 1
    outer loop
      vertex 10.2705 2.18307 5
      vertex 45.4839 9.66789 5
      vertex 42.4799 18.9133 5
    endloop
  endfacet
  facet normal 0 0 1
    outer loop
      vertex 46.5 0 5
      vertex 10.5 0 5
      vertex 45.4839 -9.66789 5
    endloop
  endfacet
  facet normal 0 0 1
    outer loop
      vertex 9.59223 4.27073 5
      vertex 42.4799 18.9133 5
      vertex 37.6193 27.332 5
    endloop
  endfacet
  facet normal -0 0 1
    outer loop
      vertex 10.2705 -2.18307 5
      vertex 45.4839 -9.66789 5
      vertex 10.5 0 5
    endloop
  endfacet
  facet normal 0 0 1
    outer loop
      vertex 8.49468 6.17174 5
      vertex 37.6193 27.332 5
      vertex 31.1146 34.5562 5
    endloop
  endfacet
  facet normal 0 0 1
    outer loop
      vertex 45.4839 -9.66789 5
      vertex 10.2705 -2.18307 5
      vertex 42.4799 -18.9133 5
    endloop
  endfacet
  facet normal 0 0 1
    outer loop
      vertex 7.02587 7.80302 5
      vertex 31.1146 34.5562 5
      vertex 23.25 40.2702 5
    endloop
  endfacet
  facet normal -0 0 1
    outer loop
      vertex 9.59223 -4.27073 5
      vertex 42.4799 -18.9133 5
      vertex 10.2705 -2.18307 5
    endloop
  endfacet
  facet normal 0 0 1
    outer loop
      vertex 5.25 9.09327 5
      vertex 23.25 40.2702 5
      vertex 14.3693 44.2241 5
    endloop
  endfacet
  facet normal 0 0 1
    outer loop
      vertex 42.4799 -18.9133 5
      vertex 9.59223 -4.27073 5
      vertex 37.6193 -27.332 5
    endloop
  endfacet
  facet normal -0 0 1
    outer loop
      vertex 8.49468 -6.17174 5
      vertex 37.6193 -27.332 5
      vertex 9.59223 -4.27073 5
    endloop
  endfacet
  facet normal 0 0 1
    outer loop
      vertex 45.4839 9.66789 5
      vertex 10.2705 2.18307 5
      vertex 10.5 0 5
    endloop
  endfacet
  facet normal 0 0 1
    outer loop
      vertex 42.4799 18.9133 5
      vertex 9.59223 4.27073 5
      vertex 10.2705 2.18307 5
    endloop
  endfacet
  facet normal 0 0 1
    outer loop
      vertex 37.6193 27.332 5
      vertex 8.49468 6.17174 5
      vertex 9.59223 4.27073 5
    endloop
  endfacet
  facet normal 0 0 1
    outer loop
      vertex 31.1146 34.5562 5
      vertex 7.02587 7.80302 5
      vertex 8.49468 6.17174 5
    endloop
  endfacet
  facet normal 0 0 1
    outer loop
      vertex 23.25 40.2702 5
      vertex 5.25 9.09327 5
      vertex 7.02587 7.80302 5
    endloop
  endfacet
  facet normal 0 0 1
    outer loop
      vertex 3.24468 9.98609 5
      vertex 14.3693 44.2241 5
      vertex 4.86057 46.2453 5
    endloop
  endfacet
  facet normal 0 0 1
    outer loop
      vertex 14.3693 44.2241 5
      vertex 3.24468 9.98609 5
      vertex 5.25 9.09327 5
    endloop
  endfacet
  facet normal 0 0 1
    outer loop
      vertex 4.86057 46.2453 5
      vertex 1.09755 10.4425 5
      vertex 3.24468 9.98609 5
    endloop
  endfacet
  facet normal 0 0 1
    outer loop
      vertex 4.86057 46.2453 5
      vertex -1.09755 10.4425 5
      vertex 1.09755 10.4425 5
    endloop
  endfacet
  facet normal -0 0 1
    outer loop
      vertex -4.86057 46.2453 5
      vertex -1.09755 10.4425 5
      vertex 4.86057 46.2453 5
    endloop
  endfacet
  facet normal 0 0 1
    outer loop
      vertex -1.09755 10.4425 5
      vertex -4.86057 46.2453 5
      vertex -3.24468 9.98609 5
    endloop
  endfacet
  facet normal -0 0 1
    outer loop
      vertex -14.3693 44.2241 5
      vertex -3.24468 9.98609 5
      vertex -4.86057 46.2453 5
    endloop
  endfacet
  facet normal 0 0 1
    outer loop
      vertex -3.24468 9.98609 5
      vertex -14.3693 44.2241 5
      vertex -5.25 9.09327 5
    endloop
  endfacet
  facet normal -0 0 1
    outer loop
      vertex -23.25 40.2702 5
      vertex -5.25 9.09327 5
      vertex -14.3693 44.2241 5
    endloop
  endfacet
  facet normal 0 0 1
    outer loop
      vertex -5.25 9.09327 5
      vertex -23.25 40.2702 5
      vertex -7.02587 7.80302 5
    endloop
  endfacet
  facet normal -0 0 1
    outer loop
      vertex -31.1146 34.5562 5
      vertex -7.02587 7.80302 5
      vertex -23.25 40.2702 5
    endloop
  endfacet
  facet normal -0 0 1
    outer loop
      vertex -37.6193 27.332 5
      vertex -8.49468 6.17174 5
      vertex -31.1146 34.5562 5
    endloop
  endfacet
  facet normal 0 0 1
    outer loop
      vertex -7.02587 7.80302 5
      vertex -31.1146 34.5562 5
      vertex -8.49468 6.17174 5
    endloop
  endfacet
  facet normal 0 0 1
    outer loop
      vertex 37.6193 -27.332 5
      vertex 8.49468 -6.17174 5
      vertex 31.1146 -34.5562 5
    endloop
  endfacet
  facet normal -0 0 1
    outer loop
      vertex 7.02587 -7.80302 5
      vertex 31.1146 -34.5562 5
      vertex 8.49468 -6.17174 5
    endloop
  endfacet
  facet normal 0 0 1
    outer loop
      vertex 31.1146 -34.5562 5
      vertex 7.02587 -7.80302 5
      vertex 23.25 -40.2702 5
    endloop
  endfacet
  facet normal -0 0 1
    outer loop
      vertex 5.25 -9.09327 5
      vertex 23.25 -40.2702 5
      vertex 7.02587 -7.80302 5
    endloop
  endfacet
  facet normal 0 0 1
    outer loop
      vertex 23.25 -40.2702 5
      vertex 5.25 -9.09327 5
      vertex 14.3693 -44.2241 5
    endloop
  endfacet
  facet normal -0 0 1
    outer loop
      vertex 3.24468 -9.98609 5
      vertex 14.3693 -44.2241 5
      vertex 5.25 -9.09327 5
    endloop
  endfacet
  facet normal 0 0 1
    outer loop
      vertex 14.3693 -44.2241 5
      vertex 3.24468 -9.98609 5
      vertex 4.86057 -46.2453 5
    endloop
  endfacet
  facet normal -0 0 1
    outer loop
      vertex 1.09755 -10.4425 5
      vertex 4.86057 -46.2453 5
      vertex 3.24468 -9.98609 5
    endloop
  endfacet
  facet normal -0 0 1
    outer loop
      vertex -1.09755 -10.4425 5
      vertex 4.86057 -46.2453 5
      vertex 1.09755 -10.4425 5
    endloop
  endfacet
  facet normal 0 0 1
    outer loop
      vertex -4.86057 -46.2453 5
      vertex -1.09755 -10.4425 5
      vertex -3.24468 -9.98609 5
    endloop
  endfacet
  facet normal 0 0 1
    outer loop
      vertex -1.09755 -10.4425 5
      vertex -4.86057 -46.2453 5
      vertex 4.86057 -46.2453 5
    endloop
  endfacet
  facet normal 0 0 1
    outer loop
      vertex -14.3693 -44.2241 5
      vertex -3.24468 -9.98609 5
      vertex -5.25 -9.09327 5
    endloop
  endfacet
  facet normal 0 0 1
    outer loop
      vertex -23.25 -40.2702 5
      vertex -5.25 -9.09327 5
      vertex -7.02587 -7.80302 5
    endloop
  endfacet
  facet normal 0 0 1
    outer loop
      vertex -31.1146 -34.5562 5
      vertex -7.02587 -7.80302 5
      vertex -8.49468 -6.17174 5
    endloop
  endfacet
  facet normal 0 0 1
    outer loop
      vertex -37.6193 -27.332 5
      vertex -8.49468 -6.17174 5
      vertex -9.59223 -4.27073 5
    endloop
  endfacet
  facet normal 0 0 1
    outer loop
      vertex -42.4799 -18.9133 5
      vertex -9.59223 -4.27073 5
      vertex -10.2705 -2.18307 5
    endloop
  endfacet
  facet normal 0 0 1
    outer loop
      vertex -3.24468 -9.98609 5
      vertex -14.3693 -44.2241 5
      vertex -4.86057 -46.2453 5
    endloop
  endfacet
  facet normal 0 0 1
    outer loop
      vertex -45.4839 -9.66789 5
      vertex -10.2705 -2.18307 5
      vertex -10.5 0 5
    endloop
  endfacet
  facet normal 0 0 1
    outer loop
      vertex -8.49468 6.17174 5
      vertex -37.6193 27.332 5
      vertex -9.59223 4.27073 5
    endloop
  endfacet
  facet normal -0 0 1
    outer loop
      vertex -42.4799 18.9133 5
      vertex -9.59223 4.27073 5
      vertex -37.6193 27.332 5
    endloop
  endfacet
  facet normal 0 0 1
    outer loop
      vertex -5.25 -9.09327 5
      vertex -23.25 -40.2702 5
      vertex -14.3693 -44.2241 5
    endloop
  endfacet
  facet normal 0 0 1
    outer loop
      vertex -9.59223 4.27073 5
      vertex -42.4799 18.9133 5
      vertex -10.2705 2.18307 5
    endloop
  endfacet
  facet normal 0 0 1
    outer loop
      vertex -7.02587 -7.80302 5
      vertex -31.1146 -34.5562 5
      vertex -23.25 -40.2702 5
    endloop
  endfacet
  facet normal -0 0 1
    outer loop
      vertex -45.4839 9.66789 5
      vertex -10.2705 2.18307 5
      vertex -42.4799 18.9133 5
    endloop
  endfacet
  facet normal 0 0 1
    outer loop
      vertex -8.49468 -6.17174 5
      vertex -37.6193 -27.332 5
      vertex -31.1146 -34.5562 5
    endloop
  endfacet
  facet normal 0 0 1
    outer loop
      vertex -10.2705 2.18307 5
      vertex -45.4839 9.66789 5
      vertex -10.5 0 5
    endloop
  endfacet
  facet normal 0 0 1
    outer loop
      vertex -9.59223 -4.27073 5
      vertex -42.4799 -18.9133 5
      vertex -37.6193 -27.332 5
    endloop
  endfacet
  facet normal 0 0 1
    outer loop
      vertex -46.5 0 5
      vertex -10.5 0 5
      vertex -45.4839 9.66789 5
    endloop
  endfacet
  facet normal 0 0 1
    outer loop
      vertex -10.2705 -2.18307 5
      vertex -45.4839 -9.66789 5
      vertex -42.4799 -18.9133 5
    endloop
  endfacet
  facet normal 0 0 1
    outer loop
      vertex -10.5 0 5
      vertex -46.5 0 5
      vertex -45.4839 -9.66789 5
    endloop
  endfacet
  facet normal -0.951056 0.309017 0
    outer loop
      vertex -45.4839 9.66789 -5
      vertex -42.4799 18.9133 5
      vertex -42.4799 18.9133 -5
    endloop
  endfacet
  facet normal -0.951056 0.309017 0
    outer loop
      vertex -42.4799 18.9133 5
      vertex -45.4839 9.66789 -5
      vertex -45.4839 9.66789 5
    endloop
  endfacet
  facet normal 0.866025 -0.5 0
    outer loop
      vertex 37.6193 -27.332 5
      vertex 42.4799 -18.9133 -5
      vertex 42.4799 -18.9133 5
    endloop
  endfacet
  facet normal 0.866025 -0.5 0
    outer loop
      vertex 42.4799 -18.9133 -5
      vertex 37.6193 -27.332 5
      vertex 37.6193 -27.332 -5
    endloop
  endfacet
  facet normal -0.994522 -0.104528 0
    outer loop
      vertex -45.4839 -9.66789 -5
      vertex -46.5 0 5
      vertex -46.5 0 -5
    endloop
  endfacet
  facet normal -0.994522 -0.104528 0
    outer loop
      vertex -46.5 0 5
      vertex -45.4839 -9.66789 -5
      vertex -45.4839 -9.66789 5
    endloop
  endfacet
  facet normal -0.743145 -0.66913 0
    outer loop
      vertex -31.1146 -34.5562 -5
      vertex -37.6193 -27.332 5
      vertex -37.6193 -27.332 -5
    endloop
  endfacet
  facet normal -0.743145 -0.66913 0
    outer loop
      vertex -37.6193 -27.332 5
      vertex -31.1146 -34.5562 -5
      vertex -31.1146 -34.5562 5
    endloop
  endfacet
  facet normal 0.207912 -0.978148 0
    outer loop
      vertex 4.86057 -46.2453 -5
      vertex 14.3693 -44.2241 5
      vertex 4.86057 -46.2453 5
    endloop
  endfacet
  facet normal 0.207912 -0.978148 0
    outer loop
      vertex 14.3693 -44.2241 5
      vertex 4.86057 -46.2453 -5
      vertex 14.3693 -44.2241 -5
    endloop
  endfacet
  facet normal 0.406737 -0.913545 0
    outer loop
      vertex 14.3693 -44.2241 -5
      vertex 23.25 -40.2702 5
      vertex 14.3693 -44.2241 5
    endloop
  endfacet
  facet normal 0.406737 -0.913545 0
    outer loop
      vertex 23.25 -40.2702 5
      vertex 14.3693 -44.2241 -5
      vertex 23.25 -40.2702 -5
    endloop
  endfacet
  facet normal 0 -1 0
    outer loop
      vertex -4.86057 -46.2453 -5
      vertex 4.86057 -46.2453 5
      vertex -4.86057 -46.2453 5
    endloop
  endfacet
  facet normal 0 -1 -0
    outer loop
      vertex 4.86057 -46.2453 5
      vertex -4.86057 -46.2453 -5
      vertex 4.86057 -46.2453 -5
    endloop
  endfacet
  facet normal -0.207912 -0.978148 0
    outer loop
      vertex -14.3693 -44.2241 -5
      vertex -4.86057 -46.2453 5
      vertex -14.3693 -44.2241 5
    endloop
  endfacet
  facet normal -0.207912 -0.978148 -0
    outer loop
      vertex -4.86057 -46.2453 5
      vertex -14.3693 -44.2241 -5
      vertex -4.86057 -46.2453 -5
    endloop
  endfacet
  facet normal 0 0 -1
    outer loop
      vertex 10.5 0 -5
      vertex 46.5 0 -5
      vertex 45.4839 -9.66789 -5
    endloop
  endfacet
  facet normal 0 0 -1
    outer loop
      vertex 10.2705 -2.18307 -5
      vertex 45.4839 -9.66789 -5
      vertex 42.4799 -18.9133 -5
    endloop
  endfacet
  facet normal 0 0 -1
    outer loop
      vertex 46.5 0 -5
      vertex 10.5 0 -5
      vertex 45.4839 9.66789 -5
    endloop
  endfacet
  facet normal 0 0 -1
    outer loop
      vertex 9.59223 -4.27073 -5
      vertex 42.4799 -18.9133 -5
      vertex 37.6193 -27.332 -5
    endloop
  endfacet
  facet normal 0 0 -1
    outer loop
      vertex 10.2705 2.18307 -5
      vertex 45.4839 9.66789 -5
      vertex 10.5 0 -5
    endloop
  endfacet
  facet normal 0 0 -1
    outer loop
      vertex 8.49468 -6.17174 -5
      vertex 37.6193 -27.332 -5
      vertex 31.1146 -34.5562 -5
    endloop
  endfacet
  facet normal -0 0 -1
    outer loop
      vertex 45.4839 9.66789 -5
      vertex 10.2705 2.18307 -5
      vertex 42.4799 18.9133 -5
    endloop
  endfacet
  facet normal 0 0 -1
    outer loop
      vertex 7.02587 -7.80302 -5
      vertex 31.1146 -34.5562 -5
      vertex 23.25 -40.2702 -5
    endloop
  endfacet
  facet normal 0 0 -1
    outer loop
      vertex 9.59223 4.27073 -5
      vertex 42.4799 18.9133 -5
      vertex 10.2705 2.18307 -5
    endloop
  endfacet
  facet normal 0 0 -1
    outer loop
      vertex 5.25 -9.09327 -5
      vertex 23.25 -40.2702 -5
      vertex 14.3693 -44.2241 -5
    endloop
  endfacet
  facet normal -0 0 -1
    outer loop
      vertex 42.4799 18.9133 -5
      vertex 9.59223 4.27073 -5
      vertex 37.6193 27.332 -5
    endloop
  endfacet
  facet normal 0 0 -1
    outer loop
      vertex 8.49468 6.17174 -5
      vertex 37.6193 27.332 -5
      vertex 9.59223 4.27073 -5
    endloop
  endfacet
  facet normal 0 0 -1
    outer loop
      vertex 45.4839 -9.66789 -5
      vertex 10.2705 -2.18307 -5
      vertex 10.5 0 -5
    endloop
  endfacet
  facet normal 0 0 -1
    outer loop
      vertex 42.4799 -18.9133 -5
      vertex 9.59223 -4.27073 -5
      vertex 10.2705 -2.18307 -5
    endloop
  endfacet
  facet normal 0 0 -1
    outer loop
      vertex 37.6193 -27.332 -5
      vertex 8.49468 -6.17174 -5
      vertex 9.59223 -4.27073 -5
    endloop
  endfacet
  facet normal 0 0 -1
    outer loop
      vertex 31.1146 -34.5562 -5
      vertex 7.02587 -7.80302 -5
      vertex 8.49468 -6.17174 -5
    endloop
  endfacet
  facet normal 0 0 -1
    outer loop
      vertex 23.25 -40.2702 -5
      vertex 5.25 -9.09327 -5
      vertex 7.02587 -7.80302 -5
    endloop
  endfacet
  facet normal 0 0 -1
    outer loop
      vertex 3.24468 -9.98609 -5
      vertex 14.3693 -44.2241 -5
      vertex 4.86057 -46.2453 -5
    endloop
  endfacet
  facet normal 0 0 -1
    outer loop
      vertex 14.3693 -44.2241 -5
      vertex 3.24468 -9.98609 -5
      vertex 5.25 -9.09327 -5
    endloop
  endfacet
  facet normal 0 0 -1
    outer loop
      vertex 4.86057 -46.2453 -5
      vertex 1.09755 -10.4425 -5
      vertex 3.24468 -9.98609 -5
    endloop
  endfacet
  facet normal 0 0 -1
    outer loop
      vertex 4.86057 -46.2453 -5
      vertex -1.09755 -10.4425 -5
      vertex 1.09755 -10.4425 -5
    endloop
  endfacet
  facet normal 0 0 -1
    outer loop
      vertex -4.86057 -46.2453 -5
      vertex -1.09755 -10.4425 -5
      vertex 4.86057 -46.2453 -5
    endloop
  endfacet
  facet normal -0 0 -1
    outer loop
      vertex -1.09755 -10.4425 -5
      vertex -4.86057 -46.2453 -5
      vertex -3.24468 -9.98609 -5
    endloop
  endfacet
  facet normal 0 0 -1
    outer loop
      vertex -14.3693 -44.2241 -5
      vertex -3.24468 -9.98609 -5
      vertex -4.86057 -46.2453 -5
    endloop
  endfacet
  facet normal -0 0 -1
    outer loop
      vertex -3.24468 -9.98609 -5
      vertex -14.3693 -44.2241 -5
      vertex -5.25 -9.09327 -5
    endloop
  endfacet
  facet normal 0 0 -1
    outer loop
      vertex -23.25 -40.2702 -5
      vertex -5.25 -9.09327 -5
      vertex -14.3693 -44.2241 -5
    endloop
  endfacet
  facet normal -0 0 -1
    outer loop
      vertex -5.25 -9.09327 -5
      vertex -23.25 -40.2702 -5
      vertex -7.02587 -7.80302 -5
    endloop
  endfacet
  facet normal 0 0 -1
    outer loop
      vertex -31.1146 -34.5562 -5
      vertex -7.02587 -7.80302 -5
      vertex -23.25 -40.2702 -5
    endloop
  endfacet
  facet normal 0 0 -1
    outer loop
      vertex -37.6193 -27.332 -5
      vertex -8.49468 -6.17174 -5
      vertex -31.1146 -34.5562 -5
    endloop
  endfacet
  facet normal -0 0 -1
    outer loop
      vertex -7.02587 -7.80302 -5
      vertex -31.1146 -34.5562 -5
      vertex -8.49468 -6.17174 -5
    endloop
  endfacet
  facet normal -0 0 -1
    outer loop
      vertex 37.6193 27.332 -5
      vertex 8.49468 6.17174 -5
      vertex 31.1146 34.5562 -5
    endloop
  endfacet
  facet normal 0 0 -1
    outer loop
      vertex 7.02587 7.80302 -5
      vertex 31.1146 34.5562 -5
      vertex 8.49468 6.17174 -5
    endloop
  endfacet
  facet normal -0 0 -1
    outer loop
      vertex 31.1146 34.5562 -5
      vertex 7.02587 7.80302 -5
      vertex 23.25 40.2702 -5
    endloop
  endfacet
  facet normal 0 0 -1
    outer loop
      vertex 5.25 9.09327 -5
      vertex 23.25 40.2702 -5
      vertex 7.02587 7.80302 -5
    endloop
  endfacet
  facet normal -0 0 -1
    outer loop
      vertex 23.25 40.2702 -5
      vertex 5.25 9.09327 -5
      vertex 14.3693 44.2241 -5
    endloop
  endfacet
  facet normal 0 0 -1
    outer loop
      vertex 3.24468 9.98609 -5
      vertex 14.3693 44.2241 -5
      vertex 5.25 9.09327 -5
    endloop
  endfacet
  facet normal -0 0 -1
    outer loop
      vertex 14.3693 44.2241 -5
      vertex 3.24468 9.98609 -5
      vertex 4.86057 46.2453 -5
    endloop
  endfacet
  facet normal 0 0 -1
    outer loop
      vertex 1.09755 10.4425 -5
      vertex 4.86057 46.2453 -5
      vertex 3.24468 9.98609 -5
    endloop
  endfacet
  facet normal 0 0 -1
    outer loop
      vertex -1.09755 10.4425 -5
      vertex 4.86057 46.2453 -5
      vertex 1.09755 10.4425 -5
    endloop
  endfacet
  facet normal 0 0 -1
    outer loop
      vertex -4.86057 46.2453 -5
      vertex -1.09755 10.4425 -5
      vertex -3.24468 9.98609 -5
    endloop
  endfacet
  facet normal 0 0 -1
    outer loop
      vertex -1.09755 10.4425 -5
      vertex -4.86057 46.2453 -5
      vertex 4.86057 46.2453 -5
    endloop
  endfacet
  facet normal 0 0 -1
    outer loop
      vertex -14.3693 44.2241 -5
      vertex -3.24468 9.98609 -5
      vertex -5.25 9.09327 -5
    endloop
  endfacet
  facet normal 0 0 -1
    outer loop
      vertex -23.25 40.2702 -5
      vertex -5.25 9.09327 -5
      vertex -7.02587 7.80302 -5
    endloop
  endfacet
  facet normal 0 0 -1
    outer loop
      vertex -31.1146 34.5562 -5
      vertex -7.02587 7.80302 -5
      vertex -8.49468 6.17174 -5
    endloop
  endfacet
  facet normal 0 0 -1
    outer loop
      vertex -37.6193 27.332 -5
      vertex -8.49468 6.17174 -5
      vertex -9.59223 4.27073 -5
    endloop
  endfacet
  facet normal 0 0 -1
    outer loop
      vertex -42.4799 18.9133 -5
      vertex -9.59223 4.27073 -5
      vertex -10.2705 2.18307 -5
    endloop
  endfacet
  facet normal 0 0 -1
    outer loop
      vertex -3.24468 9.98609 -5
      vertex -14.3693 44.2241 -5
      vertex -4.86057 46.2453 -5
    endloop
  endfacet
  facet normal 0 0 -1
    outer loop
      vertex -45.4839 9.66789 -5
      vertex -10.2705 2.18307 -5
      vertex -10.5 0 -5
    endloop
  endfacet
  facet normal -0 0 -1
    outer loop
      vertex -8.49468 -6.17174 -5
      vertex -37.6193 -27.332 -5
      vertex -9.59223 -4.27073 -5
    endloop
  endfacet
  facet normal 0 0 -1
    outer loop
      vertex -42.4799 -18.9133 -5
      vertex -9.59223 -4.27073 -5
      vertex -37.6193 -27.332 -5
    endloop
  endfacet
  facet normal 0 0 -1
    outer loop
      vertex -5.25 9.09327 -5
      vertex -23.25 40.2702 -5
      vertex -14.3693 44.2241 -5
    endloop
  endfacet
  facet normal -0 0 -1
    outer loop
      vertex -9.59223 -4.27073 -5
      vertex -42.4799 -18.9133 -5
      vertex -10.2705 -2.18307 -5
    endloop
  endfacet
  facet normal 0 0 -1
    outer loop
      vertex -7.02587 7.80302 -5
      vertex -31.1146 34.5562 -5
      vertex -23.25 40.2702 -5
    endloop
  endfacet
  facet normal 0 0 -1
    outer loop
      vertex -45.4839 -9.66789 -5
      vertex -10.2705 -2.18307 -5
      vertex -42.4799 -18.9133 -5
    endloop
  endfacet
  facet normal 0 0 -1
    outer loop
      vertex -8.49468 6.17174 -5
      vertex -37.6193 27.332 -5
      vertex -31.1146 34.5562 -5
    endloop
  endfacet
  facet normal -0 0 -1
    outer loop
      vertex -10.2705 -2.18307 -5
      vertex -45.4839 -9.66789 -5
      vertex -10.5 0 -5
    endloop
  endfacet
  facet normal 0 0 -1
    outer loop
      vertex -9.59223 4.27073 -5
      vertex -42.4799 18.9133 -5
      vertex -37.6193 27.332 -5
    endloop
  endfacet
  facet normal 0 0 -1
    outer loop
      vertex -46.5 0 -5
      vertex -10.5 0 -5
      vertex -45.4839 -9.66789 -5
    endloop
  endfacet
  facet normal 0 0 -1
    outer loop
      vertex -10.2705 2.18307 -5
      vertex -45.4839 9.66789 -5
      vertex -42.4799 18.9133 -5
    endloop
  endfacet
  facet normal 0 0 -1
    outer loop
      vertex -10.5 0 -5
      vertex -46.5 0 -5
      vertex -45.4839 9.66789 -5
    endloop
  endfacet
  facet normal -0.951056 -0.309017 0
    outer loop
      vertex -42.4799 -18.9133 -5
      vertex -45.4839 -9.66789 5
      vertex -45.4839 -9.66789 -5
    endloop
  endfacet
  facet normal -0.951056 -0.309017 0
    outer loop
      vertex -45.4839 -9.66789 5
      vertex -42.4799 -18.9133 -5
      vertex -42.4799 -18.9133 5
    endloop
  endfacet
  facet normal 0.743145 -0.66913 0
    outer loop
      vertex 31.1146 -34.5562 5
      vertex 37.6193 -27.332 -5
      vertex 37.6193 -27.332 5
    endloop
  endfacet
  facet normal 0.743145 -0.66913 0
    outer loop
      vertex 37.6193 -27.332 -5
      vertex 31.1146 -34.5562 5
      vertex 31.1146 -34.5562 -5
    endloop
  endfacet
  facet normal -0.406737 -0.913545 0
    outer loop
      vertex -23.25 -40.2702 -5
      vertex -14.3693 -44.2241 5
      vertex -23.25 -40.2702 5
    endloop
  endfacet
  facet normal -0.406737 -0.913545 -0
    outer loop
      vertex -14.3693 -44.2241 5
      vertex -23.25 -40.2702 -5
      vertex -14.3693 -44.2241 -5
    endloop
  endfacet
  facet normal 0.951056 -0.309017 0
    outer loop
      vertex -10.2705 2.18307 5
      vertex -9.59223 4.27073 -5
      vertex -9.59223 4.27073 5
    endloop
  endfacet
  facet normal 0.951056 -0.309017 0
    outer loop
      vertex -9.59223 4.27073 -5
      vertex -10.2705 2.18307 5
      vertex -10.2705 2.18307 -5
    endloop
  endfacet
  facet normal -0.866025 -0.5 0
    outer loop
      vertex 9.59223 4.27073 -5
      vertex 8.49468 6.17174 5
      vertex 8.49468 6.17174 -5
    endloop
  endfacet
  facet normal -0.866025 -0.5 0
    outer loop
      vertex 8.49468 6.17174 5
      vertex 9.59223 4.27073 -5
      vertex 9.59223 4.27073 5
    endloop
  endfacet
  facet normal -0.951056 -0.309017 0
    outer loop
      vertex 10.2705 2.18307 -5
      vertex 9.59223 4.27073 5
      vertex 9.59223 4.27073 -5
    endloop
  endfacet
  facet normal -0.951056 -0.309017 0
    outer loop
      vertex 9.59223 4.27073 5
      vertex 10.2705 2.18307 -5
      vertex 10.2705 2.18307 5
    endloop
  endfacet
  facet normal -0.406736 -0.913546 0
    outer loop
      vertex 3.24468 9.98609 -5
      vertex 5.25 9.09327 5
      vertex 3.24468 9.98609 5
    endloop
  endfacet
  facet normal -0.406736 -0.913546 -0
    outer loop
      vertex 5.25 9.09327 5
      vertex 3.24468 9.98609 -5
      vertex 5.25 9.09327 -5
    endloop
  endfacet
  facet normal 0.406736 -0.913546 0
    outer loop
      vertex -5.25 9.09327 -5
      vertex -3.24468 9.98609 5
      vertex -5.25 9.09327 5
    endloop
  endfacet
  facet normal 0.406736 -0.913546 0
    outer loop
      vertex -3.24468 9.98609 5
      vertex -5.25 9.09327 -5
      vertex -3.24468 9.98609 -5
    endloop
  endfacet
  facet normal 0.866025 -0.5 0
    outer loop
      vertex -9.59223 4.27073 5
      vertex -8.49468 6.17174 -5
      vertex -8.49468 6.17174 5
    endloop
  endfacet
  facet normal 0.866025 -0.5 0
    outer loop
      vertex -8.49468 6.17174 -5
      vertex -9.59223 4.27073 5
      vertex -9.59223 4.27073 -5
    endloop
  endfacet
  facet normal 0.587785 -0.809017 0
    outer loop
      vertex -7.02587 7.80302 -5
      vertex -5.25 9.09327 5
      vertex -7.02587 7.80302 5
    endloop
  endfacet
  facet normal 0.587785 -0.809017 0
    outer loop
      vertex -5.25 9.09327 5
      vertex -7.02587 7.80302 -5
      vertex -5.25 9.09327 -5
    endloop
  endfacet
  facet normal -0.994522 0.104529 0
    outer loop
      vertex 10.2705 -2.18307 -5
      vertex 10.5 0 5
      vertex 10.5 0 -5
    endloop
  endfacet
  facet normal -0.994522 0.104529 0
    outer loop
      vertex 10.5 0 5
      vertex 10.2705 -2.18307 -5
      vertex 10.2705 -2.18307 5
    endloop
  endfacet
  facet normal -0.207912 0.978148 0
    outer loop
      vertex 3.24468 -9.98609 -5
      vertex 1.09755 -10.4425 5
      vertex 3.24468 -9.98609 5
    endloop
  endfacet
  facet normal -0.207912 0.978148 0
    outer loop
      vertex 1.09755 -10.4425 5
      vertex 3.24468 -9.98609 -5
      vertex 1.09755 -10.4425 -5
    endloop
  endfacet
  facet normal -0.743145 -0.66913 0
    outer loop
      vertex 8.49468 6.17174 -5
      vertex 7.02587 7.80302 5
      vertex 7.02587 7.80302 -5
    endloop
  endfacet
  facet normal -0.743145 -0.66913 0
    outer loop
      vertex 7.02587 7.80302 5
      vertex 8.49468 6.17174 -5
      vertex 8.49468 6.17174 5
    endloop
  endfacet
  facet normal 0 -1 0
    outer loop
      vertex -1.09755 10.4425 -5
      vertex 1.09755 10.4425 5
      vertex -1.09755 10.4425 5
    endloop
  endfacet
  facet normal 0 -1 -0
    outer loop
      vertex 1.09755 10.4425 5
      vertex -1.09755 10.4425 -5
      vertex 1.09755 10.4425 -5
    endloop
  endfacet
  facet normal -0.587785 -0.809017 0
    outer loop
      vertex 5.25 9.09327 -5
      vertex 7.02587 7.80302 5
      vertex 5.25 9.09327 5
    endloop
  endfacet
  facet normal -0.587785 -0.809017 -0
    outer loop
      vertex 7.02587 7.80302 5
      vertex 5.25 9.09327 -5
      vertex 7.02587 7.80302 -5
    endloop
  endfacet
  facet normal 0.994522 -0.104529 0
    outer loop
      vertex -10.5 0 5
      vertex -10.2705 2.18307 -5
      vertex -10.2705 2.18307 5
    endloop
  endfacet
  facet normal 0.994522 -0.104529 0
    outer loop
      vertex -10.2705 2.18307 -5
      vertex -10.5 0 5
      vertex -10.5 0 -5
    endloop
  endfacet
  facet normal 0.743145 -0.66913 0
    outer loop
      vertex -8.49468 6.17174 5
      vertex -7.02587 7.80302 -5
      vertex -7.02587 7.80302 5
    endloop
  endfacet
  facet normal 0.743145 -0.66913 0
    outer loop
      vertex -7.02587 7.80302 -5
      vertex -8.49468 6.17174 5
      vertex -8.49468 6.17174 -5
    endloop
  endfacet
  facet normal 0.207912 -0.978148 0
    outer loop
      vertex -3.24468 9.98609 -5
      vertex -1.09755 10.4425 5
      vertex -3.24468 9.98609 5
    endloop
  endfacet
  facet normal 0.207912 -0.978148 0
    outer loop
      vertex -1.09755 10.4425 5
      vertex -3.24468 9.98609 -5
      vertex -1.09755 10.4425 -5
    endloop
  endfacet
  facet normal -0.994522 -0.104529 0
    outer loop
      vertex 10.5 0 -5
      vertex 10.2705 2.18307 5
      vertex 10.2705 2.18307 -5
    endloop
  endfacet
  facet normal -0.994522 -0.104529 0
    outer loop
      vertex 10.2705 2.18307 5
      vertex 10.5 0 -5
      vertex 10.5 0 5
    endloop
  endfacet
  facet normal -0.587785 0.809017 0
    outer loop
      vertex 7.02587 -7.80302 -5
      vertex 5.25 -9.09327 5
      vertex 7.02587 -7.80302 5
    endloop
  endfacet
  facet normal -0.587785 0.809017 0
    outer loop
      vertex 5.25 -9.09327 5
      vertex 7.02587 -7.80302 -5
      vertex 5.25 -9.09327 -5
    endloop
  endfacet
  facet normal -0.951056 0.309017 0
    outer loop
      vertex 9.59223 -4.27073 -5
      vertex 10.2705 -2.18307 5
      vertex 10.2705 -2.18307 -5
    endloop
  endfacet
  facet normal -0.951056 0.309017 0
    outer loop
      vertex 10.2705 -2.18307 5
      vertex 9.59223 -4.27073 -5
      vertex 9.59223 -4.27073 5
    endloop
  endfacet
  facet normal 0.207912 0.978148 -0
    outer loop
      vertex -1.09755 -10.4425 -5
      vertex -3.24468 -9.98609 5
      vertex -1.09755 -10.4425 5
    endloop
  endfacet
  facet normal 0.207912 0.978148 0
    outer loop
      vertex -3.24468 -9.98609 5
      vertex -1.09755 -10.4425 -5
      vertex -3.24468 -9.98609 -5
    endloop
  endfacet
  facet normal -0.207912 -0.978148 0
    outer loop
      vertex 1.09755 10.4425 -5
      vertex 3.24468 9.98609 5
      vertex 1.09755 10.4425 5
    endloop
  endfacet
  facet normal -0.207912 -0.978148 -0
    outer loop
      vertex 3.24468 9.98609 5
      vertex 1.09755 10.4425 -5
      vertex 3.24468 9.98609 -5
    endloop
  endfacet
  facet normal 0.994522 0.104529 0
    outer loop
      vertex -10.2705 -2.18307 5
      vertex -10.5 0 -5
      vertex -10.5 0 5
    endloop
  endfacet
  facet normal 0.994522 0.104529 0
    outer loop
      vertex -10.5 0 -5
      vertex -10.2705 -2.18307 5
      vertex -10.2705 -2.18307 -5
    endloop
  endfacet
  facet normal -0.743145 0.66913 0
    outer loop
      vertex 7.02587 -7.80302 -5
      vertex 8.49468 -6.17174 5
      vertex 8.49468 -6.17174 -5
    endloop
  endfacet
  facet normal -0.743145 0.66913 0
    outer loop
      vertex 8.49468 -6.17174 5
      vertex 7.02587 -7.80302 -5
      vertex 7.02587 -7.80302 5
    endloop
  endfacet
  facet normal -0.866025 0.5 0
    outer loop
      vertex 8.49468 -6.17174 -5
      vertex 9.59223 -4.27073 5
      vertex 9.59223 -4.27073 -5
    endloop
  endfacet
  facet normal -0.866025 0.5 0
    outer loop
      vertex 9.59223 -4.27073 5
      vertex 8.49468 -6.17174 -5
      vertex 8.49468 -6.17174 5
    endloop
  endfacet
  facet normal 0.587785 0.809017 -0
    outer loop
      vertex -5.25 -9.09327 -5
      vertex -7.02587 -7.80302 5
      vertex -5.25 -9.09327 5
    endloop
  endfacet
  facet normal 0.587785 0.809017 0
    outer loop
      vertex -7.02587 -7.80302 5
      vertex -5.25 -9.09327 -5
      vertex -7.02587 -7.80302 -5
    endloop
  endfacet
  facet normal 0 1 -0
    outer loop
      vertex 1.09755 -10.4425 -5
      vertex -1.09755 -10.4425 5
      vertex 1.09755 -10.4425 5
    endloop
  endfacet
  facet normal 0 1 0
    outer loop
      vertex -1.09755 -10.4425 5
      vertex 1.09755 -10.4425 -5
      vertex -1.09755 -10.4425 -5
    endloop
  endfacet
  facet normal 0.951056 0.309017 0
    outer loop
      vertex -9.59223 -4.27073 5
      vertex -10.2705 -2.18307 -5
      vertex -10.2705 -2.18307 5
    endloop
  endfacet
  facet normal 0.951056 0.309017 0
    outer loop
      vertex -10.2705 -2.18307 -5
      vertex -9.59223 -4.27073 5
      vertex -9.59223 -4.27073 -5
    endloop
  endfacet
  facet normal 0.743145 0.66913 0
    outer loop
      vertex -7.02587 -7.80302 5
      vertex -8.49468 -6.17174 -5
      vertex -8.49468 -6.17174 5
    endloop
  endfacet
  facet normal 0.743145 0.66913 0
    outer loop
      vertex -8.49468 -6.17174 -5
      vertex -7.02587 -7.80302 5
      vertex -7.02587 -7.80302 -5
    endloop
  endfacet
  facet normal 0.866025 0.5 0
    outer loop
      vertex -8.49468 -6.17174 5
      vertex -9.59223 -4.27073 -5
      vertex -9.59223 -4.27073 5
    endloop
  endfacet
  facet normal 0.866025 0.5 0
    outer loop
      vertex -9.59223 -4.27073 -5
      vertex -8.49468 -6.17174 5
      vertex -8.49468 -6.17174 -5
    endloop
  endfacet
  facet normal -0.406736 0.913546 0
    outer loop
      vertex 5.25 -9.09327 -5
      vertex 3.24468 -9.98609 5
      vertex 5.25 -9.09327 5
    endloop
  endfacet
  facet normal -0.406736 0.913546 0
    outer loop
      vertex 3.24468 -9.98609 5
      vertex 5.25 -9.09327 -5
      vertex 3.24468 -9.98609 -5
    endloop
  endfacet
  facet normal 0.406736 0.913546 -0
    outer loop
      vertex -3.24468 -9.98609 -5
      vertex -5.25 -9.09327 5
      vertex -3.24468 -9.98609 5
    endloop
  endfacet
  facet normal 0.406736 0.913546 0
    outer loop
      vertex -5.25 -9.09327 5
      vertex -3.24468 -9.98609 -5
      vertex -5.25 -9.09327 -5
    endloop
  endfacet
endsolid OpenSCAD_Model
