solid OpenSCAD_Model
  facet normal -1 0 0
    outer loop
      vertex 0 -8.65289 110
      vertex 0 -19.8904 115
      vertex 0 -8.65289 115
    endloop
  endfacet
  facet normal -1 0 0
    outer loop
      vertex 0 -20 110
      vertex 0 -19.8904 115
      vertex 0 -8.65289 110
    endloop
  endfacet
  facet normal -1 0 0
    outer loop
      vertex 0 -20 125
      vertex 0 -19.8904 115
      vertex 0 -20 110
    endloop
  endfacet
  facet normal -1 0 0
    outer loop
      vertex 0 -19.8904 115
      vertex 0 -20 125
      vertex 0 -19.8904 125
    endloop
  endfacet
  facet normal -1 0 0
    outer loop
      vertex 0 20 110
      vertex 0 19.8904 115
      vertex 0 20 125
    endloop
  endfacet
  facet normal -1 0 0
    outer loop
      vertex 0 8.65289 110
      vertex 0 19.8904 115
      vertex 0 20 110
    endloop
  endfacet
  facet normal -1 -0 0
    outer loop
      vertex 0 19.8904 115
      vertex 0 8.65289 110
      vertex 0 8.65289 115
    endloop
  endfacet
  facet normal -1 -0 0
    outer loop
      vertex 0 20 125
      vertex 0 19.8904 115
      vertex 0 19.8904 125
    endloop
  endfacet
  facet normal -0 0 1
    outer loop
      vertex -0.544393 -8.65289 125
      vertex 0 -19.8904 125
      vertex 0.544393 -8.65289 125
    endloop
  endfacet
  facet normal 0 0 1
    outer loop
      vertex -2.09057 -19.8904 125
      vertex -0.544393 -8.65289 125
      vertex -1.6246 -8.51643 125
    endloop
  endfacet
  facet normal 0 0 1
    outer loop
      vertex -0.544393 -8.65289 125
      vertex -2.09057 -19.8904 125
      vertex 0 -19.8904 125
    endloop
  endfacet
  facet normal 0 0 1
    outer loop
      vertex -6.18034 -19.0211 125
      vertex -1.6246 -8.51643 125
      vertex -2.67918 -8.24566 125
    endloop
  endfacet
  facet normal 0 0 1
    outer loop
      vertex -6.18034 -19.0211 125
      vertex -2.67918 -8.24566 125
      vertex -3.69151 -7.84485 125
    endloop
  endfacet
  facet normal 0 0 1
    outer loop
      vertex -10 -17.3205 125
      vertex -3.69151 -7.84485 125
      vertex -4.64562 -7.32032 125
    endloop
  endfacet
  facet normal 0 0 1
    outer loop
      vertex -10 -17.3205 125
      vertex -4.64562 -7.32032 125
      vertex -5.52647 -6.68035 125
    endloop
  endfacet
  facet normal 0 0 1
    outer loop
      vertex -1.6246 -8.51643 125
      vertex -6.18034 -19.0211 125
      vertex -2.09057 -19.8904 125
    endloop
  endfacet
  facet normal 0 0 1
    outer loop
      vertex -13.3826 -14.8629 125
      vertex -5.52647 -6.68035 125
      vertex -6.32016 -5.93502 125
    endloop
  endfacet
  facet normal 0 0 1
    outer loop
      vertex -16.1803 -11.7557 125
      vertex -6.32016 -5.93502 125
      vertex -7.01418 -5.0961 125
    endloop
  endfacet
  facet normal 0 0 1
    outer loop
      vertex -16.1803 -11.7557 125
      vertex -7.01418 -5.0961 125
      vertex -7.59758 -4.1768 125
    endloop
  endfacet
  facet normal 0 0 1
    outer loop
      vertex -18.2709 -8.13473 125
      vertex -7.59758 -4.1768 125
      vertex -8.06116 -3.19164 125
    endloop
  endfacet
  facet normal 0 0 1
    outer loop
      vertex -18.2709 -8.13473 125
      vertex -8.06116 -3.19164 125
      vertex -8.39762 -2.15614 125
    endloop
  endfacet
  facet normal 0 0 1
    outer loop
      vertex -19.563 -4.15823 125
      vertex -8.39762 -2.15614 125
      vertex -8.4274 -2 125
    endloop
  endfacet
  facet normal 0 0 1
    outer loop
      vertex -3.69151 -7.84485 125
      vertex -10 -17.3205 125
      vertex -6.18034 -19.0211 125
    endloop
  endfacet
  facet normal 0 0 1
    outer loop
      vertex -5.52647 -6.68035 125
      vertex -13.3826 -14.8629 125
      vertex -10 -17.3205 125
    endloop
  endfacet
  facet normal 0 0 1
    outer loop
      vertex -6.32016 -5.93502 125
      vertex -16.1803 -11.7557 125
      vertex -13.3826 -14.8629 125
    endloop
  endfacet
  facet normal 0 0 1
    outer loop
      vertex -7.59758 -4.1768 125
      vertex -18.2709 -8.13473 125
      vertex -16.1803 -11.7557 125
    endloop
  endfacet
  facet normal 0 0 1
    outer loop
      vertex -8.39762 -2.15614 125
      vertex -19.563 -4.15823 125
      vertex -18.2709 -8.13473 125
    endloop
  endfacet
  facet normal 0 -0 1
    outer loop
      vertex -19.563 -4.15823 125
      vertex -8.4274 -2 125
      vertex -19.7898 -2 125
    endloop
  endfacet
  facet normal 0 0 1
    outer loop
      vertex 40 20 125
      vertex 5.02714 7.04313 125
      vertex 40 -20 125
    endloop
  endfacet
  facet normal -0 0 1
    outer loop
      vertex 0 20 125
      vertex 5.02714 7.04313 125
      vertex 40 20 125
    endloop
  endfacet
  facet normal 0 0 1
    outer loop
      vertex 5.02714 7.04313 125
      vertex 0 19.8904 125
      vertex 4.64562 7.32032 125
    endloop
  endfacet
  facet normal 0 0 1
    outer loop
      vertex 4.64562 7.32032 125
      vertex 0 19.8904 125
      vertex 3.69151 7.84485 125
    endloop
  endfacet
  facet normal 0 0 1
    outer loop
      vertex 3.69151 7.84485 125
      vertex 0 19.8904 125
      vertex 2.67918 8.24566 125
    endloop
  endfacet
  facet normal 0 0 1
    outer loop
      vertex 2.67918 8.24566 125
      vertex 0 19.8904 125
      vertex 1.6246 8.51643 125
    endloop
  endfacet
  facet normal 0 0 1
    outer loop
      vertex 5.02714 7.04313 125
      vertex 0 20 125
      vertex 0 19.8904 125
    endloop
  endfacet
  facet normal 0 0 1
    outer loop
      vertex 1.6246 8.51643 125
      vertex 0 19.8904 125
      vertex 0.544393 8.65289 125
    endloop
  endfacet
  facet normal 0 0 1
    outer loop
      vertex 0 19.8904 125
      vertex -0.544393 8.65289 125
      vertex 0.544393 8.65289 125
    endloop
  endfacet
  facet normal -0 0 1
    outer loop
      vertex -2.09057 19.8904 125
      vertex -0.544393 8.65289 125
      vertex 0 19.8904 125
    endloop
  endfacet
  facet normal 0 0 1
    outer loop
      vertex -0.544393 8.65289 125
      vertex -2.09057 19.8904 125
      vertex -1.6246 8.51643 125
    endloop
  endfacet
  facet normal -0 0 1
    outer loop
      vertex -6.18034 19.0211 125
      vertex -1.6246 8.51643 125
      vertex -2.09057 19.8904 125
    endloop
  endfacet
  facet normal 0 0 1
    outer loop
      vertex -1.6246 8.51643 125
      vertex -6.18034 19.0211 125
      vertex -2.67918 8.24566 125
    endloop
  endfacet
  facet normal 0 0 1
    outer loop
      vertex -2.67918 8.24566 125
      vertex -6.18034 19.0211 125
      vertex -3.69151 7.84485 125
    endloop
  endfacet
  facet normal -0 0 1
    outer loop
      vertex -10 17.3205 125
      vertex -3.69151 7.84485 125
      vertex -6.18034 19.0211 125
    endloop
  endfacet
  facet normal 0 0 1
    outer loop
      vertex -3.69151 7.84485 125
      vertex -10 17.3205 125
      vertex -4.64562 7.32032 125
    endloop
  endfacet
  facet normal 0 0 1
    outer loop
      vertex -4.64562 7.32032 125
      vertex -10 17.3205 125
      vertex -5.52647 6.68035 125
    endloop
  endfacet
  facet normal -0 0 1
    outer loop
      vertex -13.3826 14.8629 125
      vertex -5.52647 6.68035 125
      vertex -10 17.3205 125
    endloop
  endfacet
  facet normal 0 0 1
    outer loop
      vertex -5.52647 6.68035 125
      vertex -13.3826 14.8629 125
      vertex -6.32016 5.93502 125
    endloop
  endfacet
  facet normal -0 0 1
    outer loop
      vertex -16.1803 11.7557 125
      vertex -6.32016 5.93502 125
      vertex -13.3826 14.8629 125
    endloop
  endfacet
  facet normal 0 0 1
    outer loop
      vertex -6.32016 5.93502 125
      vertex -16.1803 11.7557 125
      vertex -7.01418 5.0961 125
    endloop
  endfacet
  facet normal 0 0 1
    outer loop
      vertex -7.01418 5.0961 125
      vertex -16.1803 11.7557 125
      vertex -7.59758 4.1768 125
    endloop
  endfacet
  facet normal -0 0 1
    outer loop
      vertex -18.2709 8.13473 125
      vertex -7.59758 4.1768 125
      vertex -16.1803 11.7557 125
    endloop
  endfacet
  facet normal 0 0 1
    outer loop
      vertex -7.59758 4.1768 125
      vertex -18.2709 8.13473 125
      vertex -8.06116 3.19164 125
    endloop
  endfacet
  facet normal 0 0 1
    outer loop
      vertex -8.06116 3.19164 125
      vertex -18.2709 8.13473 125
      vertex -8.39762 2.15614 125
    endloop
  endfacet
  facet normal -0 0 1
    outer loop
      vertex -19.563 4.15823 125
      vertex -8.39762 2.15614 125
      vertex -18.2709 8.13473 125
    endloop
  endfacet
  facet normal 0 0 1
    outer loop
      vertex -8.39762 2.15614 125
      vertex -19.563 4.15823 125
      vertex -8.4274 2 125
    endloop
  endfacet
  facet normal 0 0 1
    outer loop
      vertex -8.4274 2 125
      vertex -19.563 4.15823 125
      vertex -19.7898 2 125
    endloop
  endfacet
  facet normal -0 0 1
    outer loop
      vertex 5.02714 -7.04313 125
      vertex 40 -20 125
      vertex 5.02714 7.04313 125
    endloop
  endfacet
  facet normal 0 0 1
    outer loop
      vertex 0 -19.8904 125
      vertex 5.02714 -7.04313 125
      vertex 4.64562 -7.32032 125
    endloop
  endfacet
  facet normal 0 0 1
    outer loop
      vertex 0 -19.8904 125
      vertex 4.64562 -7.32032 125
      vertex 3.69151 -7.84485 125
    endloop
  endfacet
  facet normal 0 0 1
    outer loop
      vertex 0 -19.8904 125
      vertex 3.69151 -7.84485 125
      vertex 2.67918 -8.24566 125
    endloop
  endfacet
  facet normal 0 0 1
    outer loop
      vertex 0 -19.8904 125
      vertex 2.67918 -8.24566 125
      vertex 1.6246 -8.51643 125
    endloop
  endfacet
  facet normal 0 0 1
    outer loop
      vertex 0 -19.8904 125
      vertex 1.6246 -8.51643 125
      vertex 0.544393 -8.65289 125
    endloop
  endfacet
  facet normal 0 0 1
    outer loop
      vertex 0 -20 125
      vertex 5.02714 -7.04313 125
      vertex 0 -19.8904 125
    endloop
  endfacet
  facet normal 0 0 1
    outer loop
      vertex 5.02714 -7.04313 125
      vertex 0 -20 125
      vertex 40 -20 125
    endloop
  endfacet
  facet normal 1 -0 0
    outer loop
      vertex 40 -20 125
      vertex 40 20 110
      vertex 40 20 125
    endloop
  endfacet
  facet normal 1 0 0
    outer loop
      vertex 40 20 110
      vertex 40 -20 125
      vertex 40 -20 110
    endloop
  endfacet
  facet normal 0 1 -0
    outer loop
      vertex 40 20 110
      vertex 0 20 125
      vertex 40 20 125
    endloop
  endfacet
  facet normal 0 1 0
    outer loop
      vertex 0 20 125
      vertex 40 20 110
      vertex 0 20 110
    endloop
  endfacet
  facet normal 0 0 -1
    outer loop
      vertex 40 -20 110
      vertex 5.02714 -7.04313 110
      vertex 40 20 110
    endloop
  endfacet
  facet normal 0 0 -1
    outer loop
      vertex 0 -20 110
      vertex 5.02714 -7.04313 110
      vertex 40 -20 110
    endloop
  endfacet
  facet normal 0 0 -1
    outer loop
      vertex 5.02714 -7.04313 110
      vertex 0 -20 110
      vertex 4.64562 -7.32032 110
    endloop
  endfacet
  facet normal 0 0 -1
    outer loop
      vertex 4.64562 -7.32032 110
      vertex 0 -20 110
      vertex 3.69151 -7.84485 110
    endloop
  endfacet
  facet normal 0 0 -1
    outer loop
      vertex 3.69151 -7.84485 110
      vertex 0 -20 110
      vertex 2.67918 -8.24566 110
    endloop
  endfacet
  facet normal 0 0 -1
    outer loop
      vertex 2.67918 -8.24566 110
      vertex 0 -20 110
      vertex 1.6246 -8.51643 110
    endloop
  endfacet
  facet normal 0 0 -1
    outer loop
      vertex 1.6246 -8.51643 110
      vertex 0 -20 110
      vertex 0.544393 -8.65289 110
    endloop
  endfacet
  facet normal -0 0 -1
    outer loop
      vertex 0.544393 -8.65289 110
      vertex 0 -20 110
      vertex 0 -8.65289 110
    endloop
  endfacet
  facet normal 0 0 -1
    outer loop
      vertex 5.02714 7.04313 110
      vertex 40 20 110
      vertex 5.02714 -7.04313 110
    endloop
  endfacet
  facet normal 0 0 -1
    outer loop
      vertex 0 20 110
      vertex 5.02714 7.04313 110
      vertex 4.64562 7.32032 110
    endloop
  endfacet
  facet normal 0 0 -1
    outer loop
      vertex 0 20 110
      vertex 4.64562 7.32032 110
      vertex 3.69151 7.84485 110
    endloop
  endfacet
  facet normal 0 0 -1
    outer loop
      vertex 0 20 110
      vertex 3.69151 7.84485 110
      vertex 2.67918 8.24566 110
    endloop
  endfacet
  facet normal 0 0 -1
    outer loop
      vertex 0 20 110
      vertex 2.67918 8.24566 110
      vertex 1.6246 8.51643 110
    endloop
  endfacet
  facet normal 0 0 -1
    outer loop
      vertex 0 20 110
      vertex 1.6246 8.51643 110
      vertex 0.544393 8.65289 110
    endloop
  endfacet
  facet normal 0 0 -1
    outer loop
      vertex 0 20 110
      vertex 0.544393 8.65289 110
      vertex 0 8.65289 110
    endloop
  endfacet
  facet normal 0 0 -1
    outer loop
      vertex 5.02714 7.04313 110
      vertex 0 20 110
      vertex 40 20 110
    endloop
  endfacet
  facet normal 0 -1 0
    outer loop
      vertex 0 -20 110
      vertex 40 -20 125
      vertex 0 -20 125
    endloop
  endfacet
  facet normal 0 -1 -0
    outer loop
      vertex 40 -20 125
      vertex 0 -20 110
      vertex 40 -20 110
    endloop
  endfacet
  facet normal -0.994522 0.104529 0
    outer loop
      vertex -19.7898 2 115
      vertex -19.563 4.15823 125
      vertex -19.563 4.15823 115
    endloop
  endfacet
  facet normal -0.994522 0.104529 0
    outer loop
      vertex -19.563 4.15823 125
      vertex -19.7898 2 115
      vertex -19.7898 2 125
    endloop
  endfacet
  facet normal 0 1 -0
    outer loop
      vertex 0 19.8904 115
      vertex -2.09057 19.8904 125
      vertex 0 19.8904 125
    endloop
  endfacet
  facet normal 0 1 0
    outer loop
      vertex -2.09057 19.8904 125
      vertex 0 19.8904 115
      vertex -2.09057 19.8904 115
    endloop
  endfacet
  facet normal 0 -1 0
    outer loop
      vertex -2.09057 -19.8904 115
      vertex 0 -19.8904 125
      vertex -2.09057 -19.8904 125
    endloop
  endfacet
  facet normal 0 -1 -0
    outer loop
      vertex 0 -19.8904 125
      vertex -2.09057 -19.8904 115
      vertex 0 -19.8904 115
    endloop
  endfacet
  facet normal -0.743145 0.669131 0
    outer loop
      vertex -16.1803 11.7557 115
      vertex -13.3826 14.8629 125
      vertex -13.3826 14.8629 115
    endloop
  endfacet
  facet normal -0.743145 0.669131 0
    outer loop
      vertex -13.3826 14.8629 125
      vertex -16.1803 11.7557 115
      vertex -16.1803 11.7557 125
    endloop
  endfacet
  facet normal -0.866026 0.5 0
    outer loop
      vertex -18.2709 8.13473 115
      vertex -16.1803 11.7557 125
      vertex -16.1803 11.7557 115
    endloop
  endfacet
  facet normal -0.866026 0.5 0
    outer loop
      vertex -16.1803 11.7557 125
      vertex -18.2709 8.13473 115
      vertex -18.2709 8.13473 125
    endloop
  endfacet
  facet normal -0.406737 0.913545 0
    outer loop
      vertex -6.18034 19.0211 115
      vertex -10 17.3205 125
      vertex -6.18034 19.0211 125
    endloop
  endfacet
  facet normal -0.406737 0.913545 0
    outer loop
      vertex -10 17.3205 125
      vertex -6.18034 19.0211 115
      vertex -10 17.3205 115
    endloop
  endfacet
  facet normal -0.951057 0.309017 0
    outer loop
      vertex -19.563 4.15823 115
      vertex -18.2709 8.13473 125
      vertex -18.2709 8.13473 115
    endloop
  endfacet
  facet normal -0.951057 0.309017 0
    outer loop
      vertex -18.2709 8.13473 125
      vertex -19.563 4.15823 115
      vertex -19.563 4.15823 125
    endloop
  endfacet
  facet normal -0.587785 0.809017 0
    outer loop
      vertex -10 17.3205 115
      vertex -13.3826 14.8629 125
      vertex -10 17.3205 125
    endloop
  endfacet
  facet normal -0.587785 0.809017 0
    outer loop
      vertex -13.3826 14.8629 125
      vertex -10 17.3205 115
      vertex -13.3826 14.8629 115
    endloop
  endfacet
  facet normal -0.207912 0.978148 0
    outer loop
      vertex -2.09057 19.8904 115
      vertex -6.18034 19.0211 125
      vertex -2.09057 19.8904 125
    endloop
  endfacet
  facet normal -0.207912 0.978148 0
    outer loop
      vertex -6.18034 19.0211 125
      vertex -2.09057 19.8904 115
      vertex -6.18034 19.0211 115
    endloop
  endfacet
  facet normal 0 0 -1
    outer loop
      vertex -0.544393 8.65289 115
      vertex 0 19.8904 115
      vertex 0 8.65289 115
    endloop
  endfacet
  facet normal 0 0 -1
    outer loop
      vertex -2.09057 19.8904 115
      vertex -0.544393 8.65289 115
      vertex -1.6246 8.51643 115
    endloop
  endfacet
  facet normal 0 0 -1
    outer loop
      vertex -0.544393 8.65289 115
      vertex -2.09057 19.8904 115
      vertex 0 19.8904 115
    endloop
  endfacet
  facet normal 0 0 -1
    outer loop
      vertex -6.18034 19.0211 115
      vertex -1.6246 8.51643 115
      vertex -2.67918 8.24566 115
    endloop
  endfacet
  facet normal 0 0 -1
    outer loop
      vertex -6.18034 19.0211 115
      vertex -2.67918 8.24566 115
      vertex -3.69151 7.84485 115
    endloop
  endfacet
  facet normal 0 0 -1
    outer loop
      vertex -10 17.3205 115
      vertex -3.69151 7.84485 115
      vertex -4.64562 7.32032 115
    endloop
  endfacet
  facet normal 0 0 -1
    outer loop
      vertex -10 17.3205 115
      vertex -4.64562 7.32032 115
      vertex -5.52647 6.68035 115
    endloop
  endfacet
  facet normal 0 0 -1
    outer loop
      vertex -1.6246 8.51643 115
      vertex -6.18034 19.0211 115
      vertex -2.09057 19.8904 115
    endloop
  endfacet
  facet normal 0 0 -1
    outer loop
      vertex -13.3826 14.8629 115
      vertex -5.52647 6.68035 115
      vertex -6.32016 5.93502 115
    endloop
  endfacet
  facet normal 0 0 -1
    outer loop
      vertex -16.1803 11.7557 115
      vertex -6.32016 5.93502 115
      vertex -7.01418 5.0961 115
    endloop
  endfacet
  facet normal 0 0 -1
    outer loop
      vertex -16.1803 11.7557 115
      vertex -7.01418 5.0961 115
      vertex -7.59758 4.1768 115
    endloop
  endfacet
  facet normal 0 0 -1
    outer loop
      vertex -18.2709 8.13473 115
      vertex -7.59758 4.1768 115
      vertex -8.06116 3.19164 115
    endloop
  endfacet
  facet normal 0 0 -1
    outer loop
      vertex -18.2709 8.13473 115
      vertex -8.06116 3.19164 115
      vertex -8.39762 2.15614 115
    endloop
  endfacet
  facet normal 0 0 -1
    outer loop
      vertex -19.563 4.15823 115
      vertex -8.39762 2.15614 115
      vertex -8.4274 2 115
    endloop
  endfacet
  facet normal 0 0 -1
    outer loop
      vertex -3.69151 7.84485 115
      vertex -10 17.3205 115
      vertex -6.18034 19.0211 115
    endloop
  endfacet
  facet normal 0 0 -1
    outer loop
      vertex -5.52647 6.68035 115
      vertex -13.3826 14.8629 115
      vertex -10 17.3205 115
    endloop
  endfacet
  facet normal 0 0 -1
    outer loop
      vertex -6.32016 5.93502 115
      vertex -16.1803 11.7557 115
      vertex -13.3826 14.8629 115
    endloop
  endfacet
  facet normal 0 0 -1
    outer loop
      vertex -7.59758 4.1768 115
      vertex -18.2709 8.13473 115
      vertex -16.1803 11.7557 115
    endloop
  endfacet
  facet normal 0 0 -1
    outer loop
      vertex -8.39762 2.15614 115
      vertex -19.563 4.15823 115
      vertex -18.2709 8.13473 115
    endloop
  endfacet
  facet normal 0 -0 -1
    outer loop
      vertex -19.563 4.15823 115
      vertex -8.4274 2 115
      vertex -19.7898 2 115
    endloop
  endfacet
  facet normal 0 0 -1
    outer loop
      vertex 0 -19.8904 115
      vertex -0.544393 -8.65289 115
      vertex 0 -8.65289 115
    endloop
  endfacet
  facet normal 0 0 -1
    outer loop
      vertex -2.09057 -19.8904 115
      vertex -0.544393 -8.65289 115
      vertex 0 -19.8904 115
    endloop
  endfacet
  facet normal -0 0 -1
    outer loop
      vertex -0.544393 -8.65289 115
      vertex -2.09057 -19.8904 115
      vertex -1.6246 -8.51643 115
    endloop
  endfacet
  facet normal 0 0 -1
    outer loop
      vertex -6.18034 -19.0211 115
      vertex -1.6246 -8.51643 115
      vertex -2.09057 -19.8904 115
    endloop
  endfacet
  facet normal -0 0 -1
    outer loop
      vertex -1.6246 -8.51643 115
      vertex -6.18034 -19.0211 115
      vertex -2.67918 -8.24566 115
    endloop
  endfacet
  facet normal -0 0 -1
    outer loop
      vertex -2.67918 -8.24566 115
      vertex -6.18034 -19.0211 115
      vertex -3.69151 -7.84485 115
    endloop
  endfacet
  facet normal 0 0 -1
    outer loop
      vertex -10 -17.3205 115
      vertex -3.69151 -7.84485 115
      vertex -6.18034 -19.0211 115
    endloop
  endfacet
  facet normal -0 0 -1
    outer loop
      vertex -3.69151 -7.84485 115
      vertex -10 -17.3205 115
      vertex -4.64562 -7.32032 115
    endloop
  endfacet
  facet normal -0 0 -1
    outer loop
      vertex -4.64562 -7.32032 115
      vertex -10 -17.3205 115
      vertex -5.52647 -6.68035 115
    endloop
  endfacet
  facet normal 0 0 -1
    outer loop
      vertex -13.3826 -14.8629 115
      vertex -5.52647 -6.68035 115
      vertex -10 -17.3205 115
    endloop
  endfacet
  facet normal -0 0 -1
    outer loop
      vertex -5.52647 -6.68035 115
      vertex -13.3826 -14.8629 115
      vertex -6.32016 -5.93502 115
    endloop
  endfacet
  facet normal 0 0 -1
    outer loop
      vertex -16.1803 -11.7557 115
      vertex -6.32016 -5.93502 115
      vertex -13.3826 -14.8629 115
    endloop
  endfacet
  facet normal -0 0 -1
    outer loop
      vertex -6.32016 -5.93502 115
      vertex -16.1803 -11.7557 115
      vertex -7.01418 -5.0961 115
    endloop
  endfacet
  facet normal -0 0 -1
    outer loop
      vertex -7.01418 -5.0961 115
      vertex -16.1803 -11.7557 115
      vertex -7.59758 -4.1768 115
    endloop
  endfacet
  facet normal 0 0 -1
    outer loop
      vertex -18.2709 -8.13473 115
      vertex -7.59758 -4.1768 115
      vertex -16.1803 -11.7557 115
    endloop
  endfacet
  facet normal -0 0 -1
    outer loop
      vertex -7.59758 -4.1768 115
      vertex -18.2709 -8.13473 115
      vertex -8.06116 -3.19164 115
    endloop
  endfacet
  facet normal -0 0 -1
    outer loop
      vertex -8.06116 -3.19164 115
      vertex -18.2709 -8.13473 115
      vertex -8.39762 -2.15614 115
    endloop
  endfacet
  facet normal 0 0 -1
    outer loop
      vertex -19.563 -4.15823 115
      vertex -8.39762 -2.15614 115
      vertex -18.2709 -8.13473 115
    endloop
  endfacet
  facet normal -0 0 -1
    outer loop
      vertex -8.39762 -2.15614 115
      vertex -19.563 -4.15823 115
      vertex -8.4274 -2 115
    endloop
  endfacet
  facet normal -0 0 -1
    outer loop
      vertex -8.4274 -2 115
      vertex -19.563 -4.15823 115
      vertex -19.7898 -2 115
    endloop
  endfacet
  facet normal -0.866026 -0.5 0
    outer loop
      vertex -16.1803 -11.7557 115
      vertex -18.2709 -8.13473 125
      vertex -18.2709 -8.13473 115
    endloop
  endfacet
  facet normal -0.866026 -0.5 0
    outer loop
      vertex -18.2709 -8.13473 125
      vertex -16.1803 -11.7557 115
      vertex -16.1803 -11.7557 125
    endloop
  endfacet
  facet normal -0.743145 -0.669131 0
    outer loop
      vertex -13.3826 -14.8629 115
      vertex -16.1803 -11.7557 125
      vertex -16.1803 -11.7557 115
    endloop
  endfacet
  facet normal -0.743145 -0.669131 0
    outer loop
      vertex -16.1803 -11.7557 125
      vertex -13.3826 -14.8629 115
      vertex -13.3826 -14.8629 125
    endloop
  endfacet
  facet normal -0.951057 -0.309017 0
    outer loop
      vertex -18.2709 -8.13473 115
      vertex -19.563 -4.15823 125
      vertex -19.563 -4.15823 115
    endloop
  endfacet
  facet normal -0.951057 -0.309017 0
    outer loop
      vertex -19.563 -4.15823 125
      vertex -18.2709 -8.13473 115
      vertex -18.2709 -8.13473 125
    endloop
  endfacet
  facet normal -0.994522 -0.104529 0
    outer loop
      vertex -19.563 -4.15823 115
      vertex -19.7898 -2 125
      vertex -19.7898 -2 115
    endloop
  endfacet
  facet normal -0.994522 -0.104529 0
    outer loop
      vertex -19.7898 -2 125
      vertex -19.563 -4.15823 115
      vertex -19.563 -4.15823 125
    endloop
  endfacet
  facet normal -0.406737 -0.913545 0
    outer loop
      vertex -10 -17.3205 115
      vertex -6.18034 -19.0211 125
      vertex -10 -17.3205 125
    endloop
  endfacet
  facet normal -0.406737 -0.913545 -0
    outer loop
      vertex -6.18034 -19.0211 125
      vertex -10 -17.3205 115
      vertex -6.18034 -19.0211 115
    endloop
  endfacet
  facet normal -0.587785 -0.809017 0
    outer loop
      vertex -13.3826 -14.8629 115
      vertex -10 -17.3205 125
      vertex -13.3826 -14.8629 125
    endloop
  endfacet
  facet normal -0.587785 -0.809017 -0
    outer loop
      vertex -10 -17.3205 125
      vertex -13.3826 -14.8629 115
      vertex -10 -17.3205 115
    endloop
  endfacet
  facet normal -0.207912 -0.978148 0
    outer loop
      vertex -6.18034 -19.0211 115
      vertex -2.09057 -19.8904 125
      vertex -6.18034 -19.0211 125
    endloop
  endfacet
  facet normal -0.207912 -0.978148 -0
    outer loop
      vertex -2.09057 -19.8904 125
      vertex -6.18034 -19.0211 115
      vertex -2.09057 -19.8904 115
    endloop
  endfacet
  facet normal 0 -1 0
    outer loop
      vertex 0 8.65289 115
      vertex -0.544393 8.65289 125
      vertex -0.544393 8.65289 115
    endloop
  endfacet
  facet normal 0 -1 0
    outer loop
      vertex -0.544393 8.65289 125
      vertex 0 8.65289 115
      vertex 0.544393 8.65289 125
    endloop
  endfacet
  facet normal 0 -1 0
    outer loop
      vertex 0.544393 8.65289 110
      vertex 0 8.65289 115
      vertex 0 8.65289 110
    endloop
  endfacet
  facet normal 0 -1 0
    outer loop
      vertex 0 8.65289 115
      vertex 0.544393 8.65289 110
      vertex 0.544393 8.65289 125
    endloop
  endfacet
  facet normal 0.684547 -0.728969 0
    outer loop
      vertex -6.32016 5.93502 115
      vertex -5.52647 6.68035 125
      vertex -6.32016 5.93502 125
    endloop
  endfacet
  facet normal 0.684547 -0.728969 0
    outer loop
      vertex -5.52647 6.68035 125
      vertex -6.32016 5.93502 115
      vertex -5.52647 6.68035 115
    endloop
  endfacet
  facet normal 0.368124 -0.929777 0
    outer loop
      vertex -3.69151 7.84485 115
      vertex -2.67918 8.24566 125
      vertex -3.69151 7.84485 125
    endloop
  endfacet
  facet normal 0.368124 -0.929777 0
    outer loop
      vertex -2.67918 8.24566 125
      vertex -3.69151 7.84485 115
      vertex -2.67918 8.24566 115
    endloop
  endfacet
  facet normal -0.368124 -0.929777 0
    outer loop
      vertex 2.67918 8.24566 110
      vertex 3.69151 7.84485 125
      vertex 2.67918 8.24566 125
    endloop
  endfacet
  facet normal -0.368124 -0.929777 -0
    outer loop
      vertex 3.69151 7.84485 125
      vertex 2.67918 8.24566 110
      vertex 3.69151 7.84485 110
    endloop
  endfacet
  facet normal -0.24869 -0.968583 0
    outer loop
      vertex 1.6246 8.51643 110
      vertex 2.67918 8.24566 125
      vertex 1.6246 8.51643 125
    endloop
  endfacet
  facet normal -0.24869 -0.968583 -0
    outer loop
      vertex 2.67918 8.24566 125
      vertex 1.6246 8.51643 110
      vertex 2.67918 8.24566 110
    endloop
  endfacet
  facet normal -0.587785 -0.809017 0
    outer loop
      vertex 4.64562 7.32032 110
      vertex 5.02714 7.04313 125
      vertex 4.64562 7.32032 125
    endloop
  endfacet
  facet normal -0.587785 -0.809017 -0
    outer loop
      vertex 5.02714 7.04313 125
      vertex 4.64562 7.32032 110
      vertex 5.02714 7.04313 110
    endloop
  endfacet
  facet normal 0.904827 -0.425779 0
    outer loop
      vertex -8.06116 3.19164 125
      vertex -7.59758 4.1768 115
      vertex -7.59758 4.1768 125
    endloop
  endfacet
  facet normal 0.904827 -0.425779 0
    outer loop
      vertex -7.59758 4.1768 115
      vertex -8.06116 3.19164 125
      vertex -8.06116 3.19164 115
    endloop
  endfacet
  facet normal 0.844328 -0.535827 0
    outer loop
      vertex -7.59758 4.1768 125
      vertex -7.01418 5.0961 115
      vertex -7.01418 5.0961 125
    endloop
  endfacet
  facet normal 0.844328 -0.535827 0
    outer loop
      vertex -7.01418 5.0961 115
      vertex -7.59758 4.1768 125
      vertex -7.59758 4.1768 115
    endloop
  endfacet
  facet normal 0.982288 -0.187379 0
    outer loop
      vertex -8.4274 2 125
      vertex -8.39762 2.15614 115
      vertex -8.39762 2.15614 125
    endloop
  endfacet
  facet normal 0.982288 -0.187379 0
    outer loop
      vertex -8.39762 2.15614 115
      vertex -8.4274 2 125
      vertex -8.4274 2 115
    endloop
  endfacet
  facet normal 0.587785 -0.809017 0
    outer loop
      vertex -5.52647 6.68035 115
      vertex -4.64562 7.32032 125
      vertex -5.52647 6.68035 125
    endloop
  endfacet
  facet normal 0.587785 -0.809017 0
    outer loop
      vertex -4.64562 7.32032 125
      vertex -5.52647 6.68035 115
      vertex -4.64562 7.32032 115
    endloop
  endfacet
  facet normal 0.125333 -0.992115 0
    outer loop
      vertex -1.6246 8.51643 115
      vertex -0.544393 8.65289 125
      vertex -1.6246 8.51643 125
    endloop
  endfacet
  facet normal 0.125333 -0.992115 0
    outer loop
      vertex -0.544393 8.65289 125
      vertex -1.6246 8.51643 115
      vertex -0.544393 8.65289 115
    endloop
  endfacet
  facet normal -0.125333 0.992115 0
    outer loop
      vertex 1.6246 -8.51643 110
      vertex 0.544393 -8.65289 125
      vertex 1.6246 -8.51643 125
    endloop
  endfacet
  facet normal -0.125333 0.992115 0
    outer loop
      vertex 0.544393 -8.65289 125
      vertex 1.6246 -8.51643 110
      vertex 0.544393 -8.65289 110
    endloop
  endfacet
  facet normal -0.125333 -0.992115 0
    outer loop
      vertex 0.544393 8.65289 110
      vertex 1.6246 8.51643 125
      vertex 0.544393 8.65289 125
    endloop
  endfacet
  facet normal -0.125333 -0.992115 -0
    outer loop
      vertex 1.6246 8.51643 125
      vertex 0.544393 8.65289 110
      vertex 1.6246 8.51643 110
    endloop
  endfacet
  facet normal -0.481754 -0.876306 0
    outer loop
      vertex 3.69151 7.84485 110
      vertex 4.64562 7.32032 125
      vertex 3.69151 7.84485 125
    endloop
  endfacet
  facet normal -0.481754 -0.876306 -0
    outer loop
      vertex 4.64562 7.32032 125
      vertex 3.69151 7.84485 110
      vertex 4.64562 7.32032 110
    endloop
  endfacet
  facet normal 0.770513 -0.637424 0
    outer loop
      vertex -7.01418 5.0961 125
      vertex -6.32016 5.93502 115
      vertex -6.32016 5.93502 125
    endloop
  endfacet
  facet normal 0.770513 -0.637424 0
    outer loop
      vertex -6.32016 5.93502 115
      vertex -7.01418 5.0961 125
      vertex -7.01418 5.0961 115
    endloop
  endfacet
  facet normal -0.587785 0.809017 0
    outer loop
      vertex 5.02714 -7.04313 110
      vertex 4.64562 -7.32032 125
      vertex 5.02714 -7.04313 125
    endloop
  endfacet
  facet normal -0.587785 0.809017 0
    outer loop
      vertex 4.64562 -7.32032 125
      vertex 5.02714 -7.04313 110
      vertex 4.64562 -7.32032 110
    endloop
  endfacet
  facet normal 0.904827 0.425779 0
    outer loop
      vertex -7.59758 -4.1768 125
      vertex -8.06116 -3.19164 115
      vertex -8.06116 -3.19164 125
    endloop
  endfacet
  facet normal 0.904827 0.425779 0
    outer loop
      vertex -8.06116 -3.19164 115
      vertex -7.59758 -4.1768 125
      vertex -7.59758 -4.1768 115
    endloop
  endfacet
  facet normal 0.951057 0.309017 0
    outer loop
      vertex -8.06116 -3.19164 125
      vertex -8.39762 -2.15614 115
      vertex -8.39762 -2.15614 125
    endloop
  endfacet
  facet normal 0.951057 0.309017 0
    outer loop
      vertex -8.39762 -2.15614 115
      vertex -8.06116 -3.19164 125
      vertex -8.06116 -3.19164 115
    endloop
  endfacet
  facet normal -0.368124 0.929777 0
    outer loop
      vertex 3.69151 -7.84485 110
      vertex 2.67918 -8.24566 125
      vertex 3.69151 -7.84485 125
    endloop
  endfacet
  facet normal -0.368124 0.929777 0
    outer loop
      vertex 2.67918 -8.24566 125
      vertex 3.69151 -7.84485 110
      vertex 2.67918 -8.24566 110
    endloop
  endfacet
  facet normal -0.24869 0.968583 0
    outer loop
      vertex 2.67918 -8.24566 110
      vertex 1.6246 -8.51643 125
      vertex 2.67918 -8.24566 125
    endloop
  endfacet
  facet normal -0.24869 0.968583 0
    outer loop
      vertex 1.6246 -8.51643 125
      vertex 2.67918 -8.24566 110
      vertex 1.6246 -8.51643 110
    endloop
  endfacet
  facet normal 0.951057 -0.309017 0
    outer loop
      vertex -8.39762 2.15614 125
      vertex -8.06116 3.19164 115
      vertex -8.06116 3.19164 125
    endloop
  endfacet
  facet normal 0.951057 -0.309017 0
    outer loop
      vertex -8.06116 3.19164 115
      vertex -8.39762 2.15614 125
      vertex -8.39762 2.15614 115
    endloop
  endfacet
  facet normal 0.481754 -0.876306 0
    outer loop
      vertex -4.64562 7.32032 115
      vertex -3.69151 7.84485 125
      vertex -4.64562 7.32032 125
    endloop
  endfacet
  facet normal 0.481754 -0.876306 0
    outer loop
      vertex -3.69151 7.84485 125
      vertex -4.64562 7.32032 115
      vertex -3.69151 7.84485 115
    endloop
  endfacet
  facet normal 0.24869 -0.968583 0
    outer loop
      vertex -2.67918 8.24566 115
      vertex -1.6246 8.51643 125
      vertex -2.67918 8.24566 125
    endloop
  endfacet
  facet normal 0.24869 -0.968583 0
    outer loop
      vertex -1.6246 8.51643 125
      vertex -2.67918 8.24566 115
      vertex -1.6246 8.51643 115
    endloop
  endfacet
  facet normal 0.125333 0.992115 -0
    outer loop
      vertex -0.544393 -8.65289 115
      vertex -1.6246 -8.51643 125
      vertex -0.544393 -8.65289 125
    endloop
  endfacet
  facet normal 0.125333 0.992115 0
    outer loop
      vertex -1.6246 -8.51643 125
      vertex -0.544393 -8.65289 115
      vertex -1.6246 -8.51643 115
    endloop
  endfacet
  facet normal 0.684547 0.728969 -0
    outer loop
      vertex -5.52647 -6.68035 115
      vertex -6.32016 -5.93502 125
      vertex -5.52647 -6.68035 125
    endloop
  endfacet
  facet normal 0.684547 0.728969 0
    outer loop
      vertex -6.32016 -5.93502 125
      vertex -5.52647 -6.68035 115
      vertex -6.32016 -5.93502 115
    endloop
  endfacet
  facet normal 0.982288 0.187379 0
    outer loop
      vertex -8.39762 -2.15614 125
      vertex -8.4274 -2 115
      vertex -8.4274 -2 125
    endloop
  endfacet
  facet normal 0.982288 0.187379 0
    outer loop
      vertex -8.4274 -2 115
      vertex -8.39762 -2.15614 125
      vertex -8.39762 -2.15614 115
    endloop
  endfacet
  facet normal -0.481754 0.876306 0
    outer loop
      vertex 4.64562 -7.32032 110
      vertex 3.69151 -7.84485 125
      vertex 4.64562 -7.32032 125
    endloop
  endfacet
  facet normal -0.481754 0.876306 0
    outer loop
      vertex 3.69151 -7.84485 125
      vertex 4.64562 -7.32032 110
      vertex 3.69151 -7.84485 110
    endloop
  endfacet
  facet normal 0 1 0
    outer loop
      vertex 0.544393 -8.65289 125
      vertex 0 -8.65289 115
      vertex -0.544393 -8.65289 125
    endloop
  endfacet
  facet normal 0 1 -0
    outer loop
      vertex 0.544393 -8.65289 110
      vertex 0 -8.65289 115
      vertex 0.544393 -8.65289 125
    endloop
  endfacet
  facet normal 0 1 0
    outer loop
      vertex 0 -8.65289 115
      vertex 0.544393 -8.65289 110
      vertex 0 -8.65289 110
    endloop
  endfacet
  facet normal 0 1 0
    outer loop
      vertex -0.544393 -8.65289 125
      vertex 0 -8.65289 115
      vertex -0.544393 -8.65289 115
    endloop
  endfacet
  facet normal 0.368124 0.929777 -0
    outer loop
      vertex -2.67918 -8.24566 115
      vertex -3.69151 -7.84485 125
      vertex -2.67918 -8.24566 125
    endloop
  endfacet
  facet normal 0.368124 0.929777 0
    outer loop
      vertex -3.69151 -7.84485 125
      vertex -2.67918 -8.24566 115
      vertex -3.69151 -7.84485 115
    endloop
  endfacet
  facet normal 0.587785 0.809017 -0
    outer loop
      vertex -4.64562 -7.32032 115
      vertex -5.52647 -6.68035 125
      vertex -4.64562 -7.32032 125
    endloop
  endfacet
  facet normal 0.587785 0.809017 0
    outer loop
      vertex -5.52647 -6.68035 125
      vertex -4.64562 -7.32032 115
      vertex -5.52647 -6.68035 115
    endloop
  endfacet
  facet normal 0.770513 0.637424 0
    outer loop
      vertex -6.32016 -5.93502 125
      vertex -7.01418 -5.0961 115
      vertex -7.01418 -5.0961 125
    endloop
  endfacet
  facet normal 0.770513 0.637424 0
    outer loop
      vertex -7.01418 -5.0961 115
      vertex -6.32016 -5.93502 125
      vertex -6.32016 -5.93502 115
    endloop
  endfacet
  facet normal 0.844328 0.535827 0
    outer loop
      vertex -7.01418 -5.0961 125
      vertex -7.59758 -4.1768 115
      vertex -7.59758 -4.1768 125
    endloop
  endfacet
  facet normal 0.844328 0.535827 0
    outer loop
      vertex -7.59758 -4.1768 115
      vertex -7.01418 -5.0961 125
      vertex -7.01418 -5.0961 115
    endloop
  endfacet
  facet normal 0.24869 0.968583 -0
    outer loop
      vertex -1.6246 -8.51643 115
      vertex -2.67918 -8.24566 125
      vertex -1.6246 -8.51643 125
    endloop
  endfacet
  facet normal 0.24869 0.968583 0
    outer loop
      vertex -2.67918 -8.24566 125
      vertex -1.6246 -8.51643 115
      vertex -2.67918 -8.24566 115
    endloop
  endfacet
  facet normal 0.481754 0.876306 -0
    outer loop
      vertex -3.69151 -7.84485 115
      vertex -4.64562 -7.32032 125
      vertex -3.69151 -7.84485 125
    endloop
  endfacet
  facet normal 0.481754 0.876306 0
    outer loop
      vertex -4.64562 -7.32032 125
      vertex -3.69151 -7.84485 115
      vertex -4.64562 -7.32032 115
    endloop
  endfacet
  facet normal -1 0 0
    outer loop
      vertex 5.02714 -7.04313 110
      vertex 5.02714 7.04313 125
      vertex 5.02714 7.04313 110
    endloop
  endfacet
  facet normal -1 -0 0
    outer loop
      vertex 5.02714 7.04313 125
      vertex 5.02714 -7.04313 110
      vertex 5.02714 -7.04313 125
    endloop
  endfacet
  facet normal 0 -1 0
    outer loop
      vertex -19.7898 2 115
      vertex -8.4274 2 125
      vertex -19.7898 2 125
    endloop
  endfacet
  facet normal 0 -1 -0
    outer loop
      vertex -8.4274 2 125
      vertex -19.7898 2 115
      vertex -8.4274 2 115
    endloop
  endfacet
  facet normal 0 1 -0
    outer loop
      vertex -8.4274 -2 115
      vertex -19.7898 -2 125
      vertex -8.4274 -2 125
    endloop
  endfacet
  facet normal 0 1 0
    outer loop
      vertex -19.7898 -2 125
      vertex -8.4274 -2 115
      vertex -19.7898 -2 115
    endloop
  endfacet
endsolid OpenSCAD_Model
