solid OpenSCAD_Model
  facet normal 0.994522 0.104529 0
    outer loop
      vertex 20 0 -4.33013
      vertex 19.563 4.15823 -5
      vertex 19.563 4.15823 -4.33013
    endloop
  endfacet
  facet normal 0.994522 0.104529 0
    outer loop
      vertex 19.563 4.15823 -5
      vertex 20 0 -4.33013
      vertex 20 0 -5
    endloop
  endfacet
  facet normal 0.994522 0.104529 0
    outer loop
      vertex 20 0 5
      vertex 19.563 4.15823 4.33013
      vertex 19.563 4.15823 5
    endloop
  endfacet
  facet normal 0.994522 0.104529 0
    outer loop
      vertex 19.563 4.15823 4.33013
      vertex 20 0 5
      vertex 20 0 4.33013
    endloop
  endfacet
  facet normal -0.994522 0.104529 0
    outer loop
      vertex -20 0 -5
      vertex -19.563 4.15823 -4.33013
      vertex -19.563 4.15823 -5
    endloop
  endfacet
  facet normal -0.994522 0.104529 0
    outer loop
      vertex -19.563 4.15823 -4.33013
      vertex -20 0 -5
      vertex -20 0 -4.33013
    endloop
  endfacet
  facet normal -0.994522 0.104529 0
    outer loop
      vertex -20 0 4.33013
      vertex -19.563 4.15823 5
      vertex -19.563 4.15823 4.33013
    endloop
  endfacet
  facet normal -0.994522 0.104529 0
    outer loop
      vertex -19.563 4.15823 5
      vertex -20 0 4.33013
      vertex -20 0 5
    endloop
  endfacet
  facet normal 0 1 -0
    outer loop
      vertex 2.09057 19.8904 -5
      vertex -2.09057 19.8904 -4.33013
      vertex 2.09057 19.8904 -4.33013
    endloop
  endfacet
  facet normal 0 1 0
    outer loop
      vertex -2.09057 19.8904 -4.33013
      vertex 2.09057 19.8904 -5
      vertex -2.09057 19.8904 -5
    endloop
  endfacet
  facet normal 0 1 -0
    outer loop
      vertex 2.09057 19.8904 4.33013
      vertex -2.09057 19.8904 5
      vertex 2.09057 19.8904 5
    endloop
  endfacet
  facet normal 0 1 0
    outer loop
      vertex -2.09057 19.8904 5
      vertex 2.09057 19.8904 4.33013
      vertex -2.09057 19.8904 4.33013
    endloop
  endfacet
  facet normal 0 -1 0
    outer loop
      vertex -2.09057 -19.8904 4.33013
      vertex 2.09057 -19.8904 5
      vertex -2.09057 -19.8904 5
    endloop
  endfacet
  facet normal 0 -1 -0
    outer loop
      vertex 2.09057 -19.8904 5
      vertex -2.09057 -19.8904 4.33013
      vertex 2.09057 -19.8904 4.33013
    endloop
  endfacet
  facet normal 0 -1 0
    outer loop
      vertex -2.09057 -19.8904 -5
      vertex 2.09057 -19.8904 -4.33013
      vertex -2.09057 -19.8904 -4.33013
    endloop
  endfacet
  facet normal 0 -1 -0
    outer loop
      vertex 2.09057 -19.8904 -4.33013
      vertex -2.09057 -19.8904 -5
      vertex 2.09057 -19.8904 -5
    endloop
  endfacet
  facet normal 0.587785 0.809017 -0
    outer loop
      vertex 13.3826 14.8629 -5
      vertex 10 17.3205 -4.33013
      vertex 13.3826 14.8629 -4.33013
    endloop
  endfacet
  facet normal 0.587785 0.809017 0
    outer loop
      vertex 10 17.3205 -4.33013
      vertex 13.3826 14.8629 -5
      vertex 10 17.3205 -5
    endloop
  endfacet
  facet normal 0.587785 0.809017 -0
    outer loop
      vertex 13.3826 14.8629 4.33013
      vertex 10 17.3205 5
      vertex 13.3826 14.8629 5
    endloop
  endfacet
  facet normal 0.587785 0.809017 0
    outer loop
      vertex 10 17.3205 5
      vertex 13.3826 14.8629 4.33013
      vertex 10 17.3205 4.33013
    endloop
  endfacet
  facet normal 0.406737 0.913545 -0
    outer loop
      vertex 10 17.3205 -5
      vertex 6.18034 19.0211 -4.33013
      vertex 10 17.3205 -4.33013
    endloop
  endfacet
  facet normal 0.406737 0.913545 0
    outer loop
      vertex 6.18034 19.0211 -4.33013
      vertex 10 17.3205 -5
      vertex 6.18034 19.0211 -5
    endloop
  endfacet
  facet normal 0.406737 0.913545 -0
    outer loop
      vertex 10 17.3205 4.33013
      vertex 6.18034 19.0211 5
      vertex 10 17.3205 5
    endloop
  endfacet
  facet normal 0.406737 0.913545 0
    outer loop
      vertex 6.18034 19.0211 5
      vertex 10 17.3205 4.33013
      vertex 6.18034 19.0211 4.33013
    endloop
  endfacet
  facet normal -0.743145 0.669131 0
    outer loop
      vertex -16.1803 11.7557 4.33013
      vertex -13.3826 14.8629 5
      vertex -13.3826 14.8629 4.33013
    endloop
  endfacet
  facet normal -0.743145 0.669131 0
    outer loop
      vertex -13.3826 14.8629 5
      vertex -16.1803 11.7557 4.33013
      vertex -16.1803 11.7557 5
    endloop
  endfacet
  facet normal -0.743145 0.669131 0
    outer loop
      vertex -16.1803 11.7557 -5
      vertex -13.3826 14.8629 -4.33013
      vertex -13.3826 14.8629 -5
    endloop
  endfacet
  facet normal -0.743145 0.669131 0
    outer loop
      vertex -13.3826 14.8629 -4.33013
      vertex -16.1803 11.7557 -5
      vertex -16.1803 11.7557 -4.33013
    endloop
  endfacet
  facet normal -0.866026 0.5 0
    outer loop
      vertex -18.2709 8.13473 4.33013
      vertex -16.1803 11.7557 5
      vertex -16.1803 11.7557 4.33013
    endloop
  endfacet
  facet normal -0.866026 0.5 0
    outer loop
      vertex -16.1803 11.7557 5
      vertex -18.2709 8.13473 4.33013
      vertex -18.2709 8.13473 5
    endloop
  endfacet
  facet normal -0.866026 0.5 0
    outer loop
      vertex -18.2709 8.13473 -5
      vertex -16.1803 11.7557 -4.33013
      vertex -16.1803 11.7557 -5
    endloop
  endfacet
  facet normal -0.866026 0.5 0
    outer loop
      vertex -16.1803 11.7557 -4.33013
      vertex -18.2709 8.13473 -5
      vertex -18.2709 8.13473 -4.33013
    endloop
  endfacet
  facet normal -0.406737 0.913545 0
    outer loop
      vertex -6.18034 19.0211 -5
      vertex -10 17.3205 -4.33013
      vertex -6.18034 19.0211 -4.33013
    endloop
  endfacet
  facet normal -0.406737 0.913545 0
    outer loop
      vertex -10 17.3205 -4.33013
      vertex -6.18034 19.0211 -5
      vertex -10 17.3205 -5
    endloop
  endfacet
  facet normal -0.406737 0.913545 0
    outer loop
      vertex -6.18034 19.0211 4.33013
      vertex -10 17.3205 5
      vertex -6.18034 19.0211 5
    endloop
  endfacet
  facet normal -0.406737 0.913545 0
    outer loop
      vertex -10 17.3205 5
      vertex -6.18034 19.0211 4.33013
      vertex -10 17.3205 4.33013
    endloop
  endfacet
  facet normal 0.951057 -0.309017 0
    outer loop
      vertex 18.2709 -8.13473 5
      vertex 19.563 -4.15823 4.33013
      vertex 19.563 -4.15823 5
    endloop
  endfacet
  facet normal 0.951057 -0.309017 0
    outer loop
      vertex 19.563 -4.15823 4.33013
      vertex 18.2709 -8.13473 5
      vertex 18.2709 -8.13473 4.33013
    endloop
  endfacet
  facet normal 0.951057 -0.309017 0
    outer loop
      vertex 18.2709 -8.13473 -4.33013
      vertex 19.563 -4.15823 -5
      vertex 19.563 -4.15823 -4.33013
    endloop
  endfacet
  facet normal 0.951057 -0.309017 0
    outer loop
      vertex 19.563 -4.15823 -5
      vertex 18.2709 -8.13473 -4.33013
      vertex 18.2709 -8.13473 -5
    endloop
  endfacet
  facet normal 0.866026 0.5 0
    outer loop
      vertex 18.2709 8.13473 -4.33013
      vertex 16.1803 11.7557 -5
      vertex 16.1803 11.7557 -4.33013
    endloop
  endfacet
  facet normal 0.866026 0.5 0
    outer loop
      vertex 16.1803 11.7557 -5
      vertex 18.2709 8.13473 -4.33013
      vertex 18.2709 8.13473 -5
    endloop
  endfacet
  facet normal 0.866026 0.5 0
    outer loop
      vertex 18.2709 8.13473 5
      vertex 16.1803 11.7557 4.33013
      vertex 16.1803 11.7557 5
    endloop
  endfacet
  facet normal 0.866026 0.5 0
    outer loop
      vertex 16.1803 11.7557 4.33013
      vertex 18.2709 8.13473 5
      vertex 18.2709 8.13473 4.33013
    endloop
  endfacet
  facet normal 0.951057 0.309017 0
    outer loop
      vertex 19.563 4.15823 -4.33013
      vertex 18.2709 8.13473 -5
      vertex 18.2709 8.13473 -4.33013
    endloop
  endfacet
  facet normal 0.951057 0.309017 0
    outer loop
      vertex 18.2709 8.13473 -5
      vertex 19.563 4.15823 -4.33013
      vertex 19.563 4.15823 -5
    endloop
  endfacet
  facet normal 0.951057 0.309017 0
    outer loop
      vertex 19.563 4.15823 5
      vertex 18.2709 8.13473 4.33013
      vertex 18.2709 8.13473 5
    endloop
  endfacet
  facet normal 0.951057 0.309017 0
    outer loop
      vertex 18.2709 8.13473 4.33013
      vertex 19.563 4.15823 5
      vertex 19.563 4.15823 4.33013
    endloop
  endfacet
  facet normal 0.743145 0.669131 0
    outer loop
      vertex 16.1803 11.7557 -4.33013
      vertex 13.3826 14.8629 -5
      vertex 13.3826 14.8629 -4.33013
    endloop
  endfacet
  facet normal 0.743145 0.669131 0
    outer loop
      vertex 13.3826 14.8629 -5
      vertex 16.1803 11.7557 -4.33013
      vertex 16.1803 11.7557 -5
    endloop
  endfacet
  facet normal 0.743145 0.669131 0
    outer loop
      vertex 16.1803 11.7557 5
      vertex 13.3826 14.8629 4.33013
      vertex 13.3826 14.8629 5
    endloop
  endfacet
  facet normal 0.743145 0.669131 0
    outer loop
      vertex 13.3826 14.8629 4.33013
      vertex 16.1803 11.7557 5
      vertex 16.1803 11.7557 4.33013
    endloop
  endfacet
  facet normal 0.207912 0.978148 -0
    outer loop
      vertex 6.18034 19.0211 -5
      vertex 2.09057 19.8904 -4.33013
      vertex 6.18034 19.0211 -4.33013
    endloop
  endfacet
  facet normal 0.207912 0.978148 0
    outer loop
      vertex 2.09057 19.8904 -4.33013
      vertex 6.18034 19.0211 -5
      vertex 2.09057 19.8904 -5
    endloop
  endfacet
  facet normal 0.207912 0.978148 -0
    outer loop
      vertex 6.18034 19.0211 4.33013
      vertex 2.09057 19.8904 5
      vertex 6.18034 19.0211 5
    endloop
  endfacet
  facet normal 0.207912 0.978148 0
    outer loop
      vertex 2.09057 19.8904 5
      vertex 6.18034 19.0211 4.33013
      vertex 2.09057 19.8904 4.33013
    endloop
  endfacet
  facet normal -0.951057 0.309017 0
    outer loop
      vertex -19.563 4.15823 -5
      vertex -18.2709 8.13473 -4.33013
      vertex -18.2709 8.13473 -5
    endloop
  endfacet
  facet normal -0.951057 0.309017 0
    outer loop
      vertex -18.2709 8.13473 -4.33013
      vertex -19.563 4.15823 -5
      vertex -19.563 4.15823 -4.33013
    endloop
  endfacet
  facet normal -0.951057 0.309017 0
    outer loop
      vertex -19.563 4.15823 4.33013
      vertex -18.2709 8.13473 5
      vertex -18.2709 8.13473 4.33013
    endloop
  endfacet
  facet normal -0.951057 0.309017 0
    outer loop
      vertex -18.2709 8.13473 5
      vertex -19.563 4.15823 4.33013
      vertex -19.563 4.15823 5
    endloop
  endfacet
  facet normal 0 0 1
    outer loop
      vertex 3 0 5
      vertex 20 0 5
      vertex 19.563 4.15823 5
    endloop
  endfacet
  facet normal 0 0 1
    outer loop
      vertex 2.93444 0.623734 5
      vertex 19.563 4.15823 5
      vertex 18.2709 8.13473 5
    endloop
  endfacet
  facet normal 0 0 1
    outer loop
      vertex 20 0 5
      vertex 3 0 5
      vertex 19.563 -4.15823 5
    endloop
  endfacet
  facet normal 0 0 1
    outer loop
      vertex 2.74064 1.22021 5
      vertex 18.2709 8.13473 5
      vertex 16.1803 11.7557 5
    endloop
  endfacet
  facet normal -0 0 1
    outer loop
      vertex 2.93444 -0.623734 5
      vertex 19.563 -4.15823 5
      vertex 3 0 5
    endloop
  endfacet
  facet normal 0 0 1
    outer loop
      vertex 2.42705 1.76336 5
      vertex 16.1803 11.7557 5
      vertex 13.3826 14.8629 5
    endloop
  endfacet
  facet normal 0 0 1
    outer loop
      vertex 19.563 -4.15823 5
      vertex 2.93444 -0.623734 5
      vertex 18.2709 -8.13473 5
    endloop
  endfacet
  facet normal 0 0 1
    outer loop
      vertex 2.00739 2.22943 5
      vertex 13.3826 14.8629 5
      vertex 10 17.3205 5
    endloop
  endfacet
  facet normal -0 0 1
    outer loop
      vertex 2.74064 -1.22021 5
      vertex 18.2709 -8.13473 5
      vertex 2.93444 -0.623734 5
    endloop
  endfacet
  facet normal 0 0 1
    outer loop
      vertex 1.5 2.59808 5
      vertex 10 17.3205 5
      vertex 6.18034 19.0211 5
    endloop
  endfacet
  facet normal 0 0 1
    outer loop
      vertex 18.2709 -8.13473 5
      vertex 2.74064 -1.22021 5
      vertex 16.1803 -11.7557 5
    endloop
  endfacet
  facet normal -0 0 1
    outer loop
      vertex 2.42705 -1.76336 5
      vertex 16.1803 -11.7557 5
      vertex 2.74064 -1.22021 5
    endloop
  endfacet
  facet normal 0 0 1
    outer loop
      vertex 19.563 4.15823 5
      vertex 2.93444 0.623734 5
      vertex 3 0 5
    endloop
  endfacet
  facet normal 0 0 1
    outer loop
      vertex 18.2709 8.13473 5
      vertex 2.74064 1.22021 5
      vertex 2.93444 0.623734 5
    endloop
  endfacet
  facet normal 0 0 1
    outer loop
      vertex 16.1803 11.7557 5
      vertex 2.42705 1.76336 5
      vertex 2.74064 1.22021 5
    endloop
  endfacet
  facet normal 0 0 1
    outer loop
      vertex 0.927051 2.85317 5
      vertex 6.18034 19.0211 5
      vertex 2.09057 19.8904 5
    endloop
  endfacet
  facet normal 0 0 1
    outer loop
      vertex 13.3826 14.8629 5
      vertex 2.00739 2.22943 5
      vertex 2.42705 1.76336 5
    endloop
  endfacet
  facet normal 0 0 1
    outer loop
      vertex 10 17.3205 5
      vertex 1.5 2.59808 5
      vertex 2.00739 2.22943 5
    endloop
  endfacet
  facet normal 0 0 1
    outer loop
      vertex 6.18034 19.0211 5
      vertex 0.927051 2.85317 5
      vertex 1.5 2.59808 5
    endloop
  endfacet
  facet normal 0 0 1
    outer loop
      vertex 2.09057 19.8904 5
      vertex 0.313585 2.98357 5
      vertex 0.927051 2.85317 5
    endloop
  endfacet
  facet normal 0 0 1
    outer loop
      vertex 2.09057 19.8904 5
      vertex -0.313585 2.98357 5
      vertex 0.313585 2.98357 5
    endloop
  endfacet
  facet normal -0 0 1
    outer loop
      vertex -2.09057 19.8904 5
      vertex -0.313585 2.98357 5
      vertex 2.09057 19.8904 5
    endloop
  endfacet
  facet normal 0 0 1
    outer loop
      vertex -0.313585 2.98357 5
      vertex -2.09057 19.8904 5
      vertex -0.927051 2.85317 5
    endloop
  endfacet
  facet normal -0 0 1
    outer loop
      vertex -6.18034 19.0211 5
      vertex -0.927051 2.85317 5
      vertex -2.09057 19.8904 5
    endloop
  endfacet
  facet normal 0 0 1
    outer loop
      vertex -0.927051 2.85317 5
      vertex -6.18034 19.0211 5
      vertex -1.5 2.59808 5
    endloop
  endfacet
  facet normal -0 0 1
    outer loop
      vertex -10 17.3205 5
      vertex -1.5 2.59808 5
      vertex -6.18034 19.0211 5
    endloop
  endfacet
  facet normal 0 0 1
    outer loop
      vertex -1.5 2.59808 5
      vertex -10 17.3205 5
      vertex -2.00739 2.22943 5
    endloop
  endfacet
  facet normal -0 0 1
    outer loop
      vertex -13.3826 14.8629 5
      vertex -2.00739 2.22943 5
      vertex -10 17.3205 5
    endloop
  endfacet
  facet normal 0 0 1
    outer loop
      vertex -2.00739 2.22943 5
      vertex -13.3826 14.8629 5
      vertex -2.42705 1.76336 5
    endloop
  endfacet
  facet normal -0 0 1
    outer loop
      vertex -16.1803 11.7557 5
      vertex -2.42705 1.76336 5
      vertex -13.3826 14.8629 5
    endloop
  endfacet
  facet normal 0 0 1
    outer loop
      vertex 16.1803 -11.7557 5
      vertex 2.42705 -1.76336 5
      vertex 13.3826 -14.8629 5
    endloop
  endfacet
  facet normal -0 0 1
    outer loop
      vertex 2.00739 -2.22943 5
      vertex 13.3826 -14.8629 5
      vertex 2.42705 -1.76336 5
    endloop
  endfacet
  facet normal 0 0 1
    outer loop
      vertex 13.3826 -14.8629 5
      vertex 2.00739 -2.22943 5
      vertex 10 -17.3205 5
    endloop
  endfacet
  facet normal -0 0 1
    outer loop
      vertex 1.5 -2.59808 5
      vertex 10 -17.3205 5
      vertex 2.00739 -2.22943 5
    endloop
  endfacet
  facet normal 0 0 1
    outer loop
      vertex 10 -17.3205 5
      vertex 1.5 -2.59808 5
      vertex 6.18034 -19.0211 5
    endloop
  endfacet
  facet normal -0 0 1
    outer loop
      vertex 0.927051 -2.85317 5
      vertex 6.18034 -19.0211 5
      vertex 1.5 -2.59808 5
    endloop
  endfacet
  facet normal 0 0 1
    outer loop
      vertex 6.18034 -19.0211 5
      vertex 0.927051 -2.85317 5
      vertex 2.09057 -19.8904 5
    endloop
  endfacet
  facet normal -0 0 1
    outer loop
      vertex 0.313585 -2.98357 5
      vertex 2.09057 -19.8904 5
      vertex 0.927051 -2.85317 5
    endloop
  endfacet
  facet normal -0 0 1
    outer loop
      vertex -0.313585 -2.98357 5
      vertex 2.09057 -19.8904 5
      vertex 0.313585 -2.98357 5
    endloop
  endfacet
  facet normal 0 0 1
    outer loop
      vertex -2.09057 -19.8904 5
      vertex -0.313585 -2.98357 5
      vertex -0.927051 -2.85317 5
    endloop
  endfacet
  facet normal 0 0 1
    outer loop
      vertex -6.18034 -19.0211 5
      vertex -0.927051 -2.85317 5
      vertex -1.5 -2.59808 5
    endloop
  endfacet
  facet normal 0 0 1
    outer loop
      vertex -10 -17.3205 5
      vertex -1.5 -2.59808 5
      vertex -2.00739 -2.22943 5
    endloop
  endfacet
  facet normal 0 0 1
    outer loop
      vertex -0.313585 -2.98357 5
      vertex -2.09057 -19.8904 5
      vertex 2.09057 -19.8904 5
    endloop
  endfacet
  facet normal 0 0 1
    outer loop
      vertex -13.3826 -14.8629 5
      vertex -2.00739 -2.22943 5
      vertex -2.42705 -1.76336 5
    endloop
  endfacet
  facet normal 0 0 1
    outer loop
      vertex -16.1803 -11.7557 5
      vertex -2.42705 -1.76336 5
      vertex -2.74064 -1.22021 5
    endloop
  endfacet
  facet normal 0 0 1
    outer loop
      vertex -18.2709 -8.13473 5
      vertex -2.74064 -1.22021 5
      vertex -2.93444 -0.623734 5
    endloop
  endfacet
  facet normal 0 0 1
    outer loop
      vertex -19.563 -4.15823 5
      vertex -2.93444 -0.623734 5
      vertex -3 0 5
    endloop
  endfacet
  facet normal 0 0 1
    outer loop
      vertex -2.42705 1.76336 5
      vertex -16.1803 11.7557 5
      vertex -2.74064 1.22021 5
    endloop
  endfacet
  facet normal 0 0 1
    outer loop
      vertex -0.927051 -2.85317 5
      vertex -6.18034 -19.0211 5
      vertex -2.09057 -19.8904 5
    endloop
  endfacet
  facet normal -0 0 1
    outer loop
      vertex -18.2709 8.13473 5
      vertex -2.74064 1.22021 5
      vertex -16.1803 11.7557 5
    endloop
  endfacet
  facet normal 0 0 1
    outer loop
      vertex -1.5 -2.59808 5
      vertex -10 -17.3205 5
      vertex -6.18034 -19.0211 5
    endloop
  endfacet
  facet normal 0 0 1
    outer loop
      vertex -2.74064 1.22021 5
      vertex -18.2709 8.13473 5
      vertex -2.93444 0.623734 5
    endloop
  endfacet
  facet normal 0 0 1
    outer loop
      vertex -2.00739 -2.22943 5
      vertex -13.3826 -14.8629 5
      vertex -10 -17.3205 5
    endloop
  endfacet
  facet normal -0 0 1
    outer loop
      vertex -19.563 4.15823 5
      vertex -2.93444 0.623734 5
      vertex -18.2709 8.13473 5
    endloop
  endfacet
  facet normal 0 0 1
    outer loop
      vertex -2.42705 -1.76336 5
      vertex -16.1803 -11.7557 5
      vertex -13.3826 -14.8629 5
    endloop
  endfacet
  facet normal 0 0 1
    outer loop
      vertex -2.93444 0.623734 5
      vertex -19.563 4.15823 5
      vertex -3 0 5
    endloop
  endfacet
  facet normal 0 0 1
    outer loop
      vertex -2.74064 -1.22021 5
      vertex -18.2709 -8.13473 5
      vertex -16.1803 -11.7557 5
    endloop
  endfacet
  facet normal 0 0 1
    outer loop
      vertex -20 0 5
      vertex -3 0 5
      vertex -19.563 4.15823 5
    endloop
  endfacet
  facet normal 0 0 1
    outer loop
      vertex -2.93444 -0.623734 5
      vertex -19.563 -4.15823 5
      vertex -18.2709 -8.13473 5
    endloop
  endfacet
  facet normal 0 0 1
    outer loop
      vertex -3 0 5
      vertex -20 0 5
      vertex -19.563 -4.15823 5
    endloop
  endfacet
  facet normal -0.587785 0.809017 0
    outer loop
      vertex -10 17.3205 -5
      vertex -13.3826 14.8629 -4.33013
      vertex -10 17.3205 -4.33013
    endloop
  endfacet
  facet normal -0.587785 0.809017 0
    outer loop
      vertex -13.3826 14.8629 -4.33013
      vertex -10 17.3205 -5
      vertex -13.3826 14.8629 -5
    endloop
  endfacet
  facet normal -0.587785 0.809017 0
    outer loop
      vertex -10 17.3205 4.33013
      vertex -13.3826 14.8629 5
      vertex -10 17.3205 5
    endloop
  endfacet
  facet normal -0.587785 0.809017 0
    outer loop
      vertex -13.3826 14.8629 5
      vertex -10 17.3205 4.33013
      vertex -13.3826 14.8629 4.33013
    endloop
  endfacet
  facet normal -0.207912 0.978148 0
    outer loop
      vertex -2.09057 19.8904 -5
      vertex -6.18034 19.0211 -4.33013
      vertex -2.09057 19.8904 -4.33013
    endloop
  endfacet
  facet normal -0.207912 0.978148 0
    outer loop
      vertex -6.18034 19.0211 -4.33013
      vertex -2.09057 19.8904 -5
      vertex -6.18034 19.0211 -5
    endloop
  endfacet
  facet normal -0.207912 0.978148 0
    outer loop
      vertex -2.09057 19.8904 4.33013
      vertex -6.18034 19.0211 5
      vertex -2.09057 19.8904 5
    endloop
  endfacet
  facet normal -0.207912 0.978148 0
    outer loop
      vertex -6.18034 19.0211 5
      vertex -2.09057 19.8904 4.33013
      vertex -6.18034 19.0211 4.33013
    endloop
  endfacet
  facet normal 0.994522 -0.104529 0
    outer loop
      vertex 19.563 -4.15823 5
      vertex 20 0 4.33013
      vertex 20 0 5
    endloop
  endfacet
  facet normal 0.994522 -0.104529 0
    outer loop
      vertex 20 0 4.33013
      vertex 19.563 -4.15823 5
      vertex 19.563 -4.15823 4.33013
    endloop
  endfacet
  facet normal 0.994522 -0.104529 0
    outer loop
      vertex 19.563 -4.15823 -4.33013
      vertex 20 0 -5
      vertex 20 0 -4.33013
    endloop
  endfacet
  facet normal 0.994522 -0.104529 0
    outer loop
      vertex 20 0 -5
      vertex 19.563 -4.15823 -4.33013
      vertex 19.563 -4.15823 -5
    endloop
  endfacet
  facet normal 0 0 -1
    outer loop
      vertex 3 0 -5
      vertex 20 0 -5
      vertex 19.563 -4.15823 -5
    endloop
  endfacet
  facet normal 0 0 -1
    outer loop
      vertex 2.93444 -0.623734 -5
      vertex 19.563 -4.15823 -5
      vertex 18.2709 -8.13473 -5
    endloop
  endfacet
  facet normal 0 0 -1
    outer loop
      vertex 20 0 -5
      vertex 3 0 -5
      vertex 19.563 4.15823 -5
    endloop
  endfacet
  facet normal 0 0 -1
    outer loop
      vertex 2.74064 -1.22021 -5
      vertex 18.2709 -8.13473 -5
      vertex 16.1803 -11.7557 -5
    endloop
  endfacet
  facet normal 0 0 -1
    outer loop
      vertex 2.93444 0.623734 -5
      vertex 19.563 4.15823 -5
      vertex 3 0 -5
    endloop
  endfacet
  facet normal 0 0 -1
    outer loop
      vertex 2.42705 -1.76336 -5
      vertex 16.1803 -11.7557 -5
      vertex 13.3826 -14.8629 -5
    endloop
  endfacet
  facet normal -0 0 -1
    outer loop
      vertex 19.563 4.15823 -5
      vertex 2.93444 0.623734 -5
      vertex 18.2709 8.13473 -5
    endloop
  endfacet
  facet normal 0 0 -1
    outer loop
      vertex 2.00739 -2.22943 -5
      vertex 13.3826 -14.8629 -5
      vertex 10 -17.3205 -5
    endloop
  endfacet
  facet normal 0 0 -1
    outer loop
      vertex 2.74064 1.22021 -5
      vertex 18.2709 8.13473 -5
      vertex 2.93444 0.623734 -5
    endloop
  endfacet
  facet normal 0 0 -1
    outer loop
      vertex 1.5 -2.59808 -5
      vertex 10 -17.3205 -5
      vertex 6.18034 -19.0211 -5
    endloop
  endfacet
  facet normal -0 0 -1
    outer loop
      vertex 18.2709 8.13473 -5
      vertex 2.74064 1.22021 -5
      vertex 16.1803 11.7557 -5
    endloop
  endfacet
  facet normal 0 0 -1
    outer loop
      vertex 2.42705 1.76336 -5
      vertex 16.1803 11.7557 -5
      vertex 2.74064 1.22021 -5
    endloop
  endfacet
  facet normal 0 0 -1
    outer loop
      vertex 19.563 -4.15823 -5
      vertex 2.93444 -0.623734 -5
      vertex 3 0 -5
    endloop
  endfacet
  facet normal 0 0 -1
    outer loop
      vertex 18.2709 -8.13473 -5
      vertex 2.74064 -1.22021 -5
      vertex 2.93444 -0.623734 -5
    endloop
  endfacet
  facet normal 0 0 -1
    outer loop
      vertex 16.1803 -11.7557 -5
      vertex 2.42705 -1.76336 -5
      vertex 2.74064 -1.22021 -5
    endloop
  endfacet
  facet normal 0 0 -1
    outer loop
      vertex 0.927051 -2.85317 -5
      vertex 6.18034 -19.0211 -5
      vertex 2.09057 -19.8904 -5
    endloop
  endfacet
  facet normal 0 0 -1
    outer loop
      vertex 13.3826 -14.8629 -5
      vertex 2.00739 -2.22943 -5
      vertex 2.42705 -1.76336 -5
    endloop
  endfacet
  facet normal 0 0 -1
    outer loop
      vertex 10 -17.3205 -5
      vertex 1.5 -2.59808 -5
      vertex 2.00739 -2.22943 -5
    endloop
  endfacet
  facet normal 0 0 -1
    outer loop
      vertex 6.18034 -19.0211 -5
      vertex 0.927051 -2.85317 -5
      vertex 1.5 -2.59808 -5
    endloop
  endfacet
  facet normal 0 0 -1
    outer loop
      vertex 2.09057 -19.8904 -5
      vertex 0.313585 -2.98357 -5
      vertex 0.927051 -2.85317 -5
    endloop
  endfacet
  facet normal 0 0 -1
    outer loop
      vertex 2.09057 -19.8904 -5
      vertex -0.313585 -2.98357 -5
      vertex 0.313585 -2.98357 -5
    endloop
  endfacet
  facet normal 0 0 -1
    outer loop
      vertex -2.09057 -19.8904 -5
      vertex -0.313585 -2.98357 -5
      vertex 2.09057 -19.8904 -5
    endloop
  endfacet
  facet normal -0 0 -1
    outer loop
      vertex -0.313585 -2.98357 -5
      vertex -2.09057 -19.8904 -5
      vertex -0.927051 -2.85317 -5
    endloop
  endfacet
  facet normal 0 0 -1
    outer loop
      vertex -6.18034 -19.0211 -5
      vertex -0.927051 -2.85317 -5
      vertex -2.09057 -19.8904 -5
    endloop
  endfacet
  facet normal -0 0 -1
    outer loop
      vertex -0.927051 -2.85317 -5
      vertex -6.18034 -19.0211 -5
      vertex -1.5 -2.59808 -5
    endloop
  endfacet
  facet normal 0 0 -1
    outer loop
      vertex -10 -17.3205 -5
      vertex -1.5 -2.59808 -5
      vertex -6.18034 -19.0211 -5
    endloop
  endfacet
  facet normal -0 0 -1
    outer loop
      vertex -1.5 -2.59808 -5
      vertex -10 -17.3205 -5
      vertex -2.00739 -2.22943 -5
    endloop
  endfacet
  facet normal 0 0 -1
    outer loop
      vertex -13.3826 -14.8629 -5
      vertex -2.00739 -2.22943 -5
      vertex -10 -17.3205 -5
    endloop
  endfacet
  facet normal -0 0 -1
    outer loop
      vertex -2.00739 -2.22943 -5
      vertex -13.3826 -14.8629 -5
      vertex -2.42705 -1.76336 -5
    endloop
  endfacet
  facet normal 0 0 -1
    outer loop
      vertex -16.1803 -11.7557 -5
      vertex -2.42705 -1.76336 -5
      vertex -13.3826 -14.8629 -5
    endloop
  endfacet
  facet normal -0 0 -1
    outer loop
      vertex 16.1803 11.7557 -5
      vertex 2.42705 1.76336 -5
      vertex 13.3826 14.8629 -5
    endloop
  endfacet
  facet normal 0 0 -1
    outer loop
      vertex 2.00739 2.22943 -5
      vertex 13.3826 14.8629 -5
      vertex 2.42705 1.76336 -5
    endloop
  endfacet
  facet normal -0 0 -1
    outer loop
      vertex 13.3826 14.8629 -5
      vertex 2.00739 2.22943 -5
      vertex 10 17.3205 -5
    endloop
  endfacet
  facet normal 0 0 -1
    outer loop
      vertex 1.5 2.59808 -5
      vertex 10 17.3205 -5
      vertex 2.00739 2.22943 -5
    endloop
  endfacet
  facet normal -0 0 -1
    outer loop
      vertex 10 17.3205 -5
      vertex 1.5 2.59808 -5
      vertex 6.18034 19.0211 -5
    endloop
  endfacet
  facet normal 0 0 -1
    outer loop
      vertex 0.927051 2.85317 -5
      vertex 6.18034 19.0211 -5
      vertex 1.5 2.59808 -5
    endloop
  endfacet
  facet normal -0 0 -1
    outer loop
      vertex 6.18034 19.0211 -5
      vertex 0.927051 2.85317 -5
      vertex 2.09057 19.8904 -5
    endloop
  endfacet
  facet normal 0 0 -1
    outer loop
      vertex 0.313585 2.98357 -5
      vertex 2.09057 19.8904 -5
      vertex 0.927051 2.85317 -5
    endloop
  endfacet
  facet normal 0 0 -1
    outer loop
      vertex -0.313585 2.98357 -5
      vertex 2.09057 19.8904 -5
      vertex 0.313585 2.98357 -5
    endloop
  endfacet
  facet normal 0 0 -1
    outer loop
      vertex -2.09057 19.8904 -5
      vertex -0.313585 2.98357 -5
      vertex -0.927051 2.85317 -5
    endloop
  endfacet
  facet normal 0 0 -1
    outer loop
      vertex -6.18034 19.0211 -5
      vertex -0.927051 2.85317 -5
      vertex -1.5 2.59808 -5
    endloop
  endfacet
  facet normal 0 0 -1
    outer loop
      vertex -10 17.3205 -5
      vertex -1.5 2.59808 -5
      vertex -2.00739 2.22943 -5
    endloop
  endfacet
  facet normal 0 0 -1
    outer loop
      vertex -0.313585 2.98357 -5
      vertex -2.09057 19.8904 -5
      vertex 2.09057 19.8904 -5
    endloop
  endfacet
  facet normal 0 0 -1
    outer loop
      vertex -13.3826 14.8629 -5
      vertex -2.00739 2.22943 -5
      vertex -2.42705 1.76336 -5
    endloop
  endfacet
  facet normal 0 0 -1
    outer loop
      vertex -16.1803 11.7557 -5
      vertex -2.42705 1.76336 -5
      vertex -2.74064 1.22021 -5
    endloop
  endfacet
  facet normal 0 0 -1
    outer loop
      vertex -18.2709 8.13473 -5
      vertex -2.74064 1.22021 -5
      vertex -2.93444 0.623734 -5
    endloop
  endfacet
  facet normal 0 0 -1
    outer loop
      vertex -19.563 4.15823 -5
      vertex -2.93444 0.623734 -5
      vertex -3 0 -5
    endloop
  endfacet
  facet normal -0 0 -1
    outer loop
      vertex -2.42705 -1.76336 -5
      vertex -16.1803 -11.7557 -5
      vertex -2.74064 -1.22021 -5
    endloop
  endfacet
  facet normal 0 0 -1
    outer loop
      vertex -0.927051 2.85317 -5
      vertex -6.18034 19.0211 -5
      vertex -2.09057 19.8904 -5
    endloop
  endfacet
  facet normal 0 0 -1
    outer loop
      vertex -1.5 2.59808 -5
      vertex -10 17.3205 -5
      vertex -6.18034 19.0211 -5
    endloop
  endfacet
  facet normal 0 0 -1
    outer loop
      vertex -18.2709 -8.13473 -5
      vertex -2.74064 -1.22021 -5
      vertex -16.1803 -11.7557 -5
    endloop
  endfacet
  facet normal -0 0 -1
    outer loop
      vertex -2.74064 -1.22021 -5
      vertex -18.2709 -8.13473 -5
      vertex -2.93444 -0.623734 -5
    endloop
  endfacet
  facet normal 0 0 -1
    outer loop
      vertex -2.00739 2.22943 -5
      vertex -13.3826 14.8629 -5
      vertex -10 17.3205 -5
    endloop
  endfacet
  facet normal 0 0 -1
    outer loop
      vertex -19.563 -4.15823 -5
      vertex -2.93444 -0.623734 -5
      vertex -18.2709 -8.13473 -5
    endloop
  endfacet
  facet normal 0 0 -1
    outer loop
      vertex -2.42705 1.76336 -5
      vertex -16.1803 11.7557 -5
      vertex -13.3826 14.8629 -5
    endloop
  endfacet
  facet normal -0 0 -1
    outer loop
      vertex -2.93444 -0.623734 -5
      vertex -19.563 -4.15823 -5
      vertex -3 0 -5
    endloop
  endfacet
  facet normal 0 0 -1
    outer loop
      vertex -2.74064 1.22021 -5
      vertex -18.2709 8.13473 -5
      vertex -16.1803 11.7557 -5
    endloop
  endfacet
  facet normal 0 0 -1
    outer loop
      vertex -20 0 -5
      vertex -3 0 -5
      vertex -19.563 -4.15823 -5
    endloop
  endfacet
  facet normal 0 0 -1
    outer loop
      vertex -2.93444 0.623734 -5
      vertex -19.563 4.15823 -5
      vertex -18.2709 8.13473 -5
    endloop
  endfacet
  facet normal 0 0 -1
    outer loop
      vertex -3 0 -5
      vertex -20 0 -5
      vertex -19.563 4.15823 -5
    endloop
  endfacet
  facet normal 0.207912 -0.978148 0
    outer loop
      vertex 2.09057 -19.8904 -5
      vertex 6.18034 -19.0211 -4.33013
      vertex 2.09057 -19.8904 -4.33013
    endloop
  endfacet
  facet normal 0.207912 -0.978148 0
    outer loop
      vertex 6.18034 -19.0211 -4.33013
      vertex 2.09057 -19.8904 -5
      vertex 6.18034 -19.0211 -5
    endloop
  endfacet
  facet normal 0.207912 -0.978148 0
    outer loop
      vertex 2.09057 -19.8904 4.33013
      vertex 6.18034 -19.0211 5
      vertex 2.09057 -19.8904 5
    endloop
  endfacet
  facet normal 0.207912 -0.978148 0
    outer loop
      vertex 6.18034 -19.0211 5
      vertex 2.09057 -19.8904 4.33013
      vertex 6.18034 -19.0211 4.33013
    endloop
  endfacet
  facet normal 0.866026 -0.5 0
    outer loop
      vertex 16.1803 -11.7557 -4.33013
      vertex 18.2709 -8.13473 -5
      vertex 18.2709 -8.13473 -4.33013
    endloop
  endfacet
  facet normal 0.866026 -0.5 0
    outer loop
      vertex 18.2709 -8.13473 -5
      vertex 16.1803 -11.7557 -4.33013
      vertex 16.1803 -11.7557 -5
    endloop
  endfacet
  facet normal 0.866026 -0.5 0
    outer loop
      vertex 16.1803 -11.7557 5
      vertex 18.2709 -8.13473 4.33013
      vertex 18.2709 -8.13473 5
    endloop
  endfacet
  facet normal 0.866026 -0.5 0
    outer loop
      vertex 18.2709 -8.13473 4.33013
      vertex 16.1803 -11.7557 5
      vertex 16.1803 -11.7557 4.33013
    endloop
  endfacet
  facet normal -0.866026 -0.5 0
    outer loop
      vertex -16.1803 -11.7557 4.33013
      vertex -18.2709 -8.13473 5
      vertex -18.2709 -8.13473 4.33013
    endloop
  endfacet
  facet normal -0.866026 -0.5 0
    outer loop
      vertex -18.2709 -8.13473 5
      vertex -16.1803 -11.7557 4.33013
      vertex -16.1803 -11.7557 5
    endloop
  endfacet
  facet normal -0.866026 -0.5 0
    outer loop
      vertex -16.1803 -11.7557 -5
      vertex -18.2709 -8.13473 -4.33013
      vertex -18.2709 -8.13473 -5
    endloop
  endfacet
  facet normal -0.866026 -0.5 0
    outer loop
      vertex -18.2709 -8.13473 -4.33013
      vertex -16.1803 -11.7557 -5
      vertex -16.1803 -11.7557 -4.33013
    endloop
  endfacet
  facet normal 0.587785 -0.809017 0
    outer loop
      vertex 10 -17.3205 4.33013
      vertex 13.3826 -14.8629 5
      vertex 10 -17.3205 5
    endloop
  endfacet
  facet normal 0.587785 -0.809017 0
    outer loop
      vertex 13.3826 -14.8629 5
      vertex 10 -17.3205 4.33013
      vertex 13.3826 -14.8629 4.33013
    endloop
  endfacet
  facet normal 0.587785 -0.809017 0
    outer loop
      vertex 10 -17.3205 -5
      vertex 13.3826 -14.8629 -4.33013
      vertex 10 -17.3205 -4.33013
    endloop
  endfacet
  facet normal 0.587785 -0.809017 0
    outer loop
      vertex 13.3826 -14.8629 -4.33013
      vertex 10 -17.3205 -5
      vertex 13.3826 -14.8629 -5
    endloop
  endfacet
  facet normal 0.406737 -0.913545 0
    outer loop
      vertex 6.18034 -19.0211 4.33013
      vertex 10 -17.3205 5
      vertex 6.18034 -19.0211 5
    endloop
  endfacet
  facet normal 0.406737 -0.913545 0
    outer loop
      vertex 10 -17.3205 5
      vertex 6.18034 -19.0211 4.33013
      vertex 10 -17.3205 4.33013
    endloop
  endfacet
  facet normal 0.406737 -0.913545 0
    outer loop
      vertex 6.18034 -19.0211 -5
      vertex 10 -17.3205 -4.33013
      vertex 6.18034 -19.0211 -4.33013
    endloop
  endfacet
  facet normal 0.406737 -0.913545 0
    outer loop
      vertex 10 -17.3205 -4.33013
      vertex 6.18034 -19.0211 -5
      vertex 10 -17.3205 -5
    endloop
  endfacet
  facet normal -0.207912 -0.978148 0
    outer loop
      vertex -6.18034 -19.0211 4.33013
      vertex -2.09057 -19.8904 5
      vertex -6.18034 -19.0211 5
    endloop
  endfacet
  facet normal -0.207912 -0.978148 -0
    outer loop
      vertex -2.09057 -19.8904 5
      vertex -6.18034 -19.0211 4.33013
      vertex -2.09057 -19.8904 4.33013
    endloop
  endfacet
  facet normal -0.207912 -0.978148 0
    outer loop
      vertex -6.18034 -19.0211 -5
      vertex -2.09057 -19.8904 -4.33013
      vertex -6.18034 -19.0211 -4.33013
    endloop
  endfacet
  facet normal -0.207912 -0.978148 -0
    outer loop
      vertex -2.09057 -19.8904 -4.33013
      vertex -6.18034 -19.0211 -5
      vertex -2.09057 -19.8904 -5
    endloop
  endfacet
  facet normal -0.743145 -0.669131 0
    outer loop
      vertex -13.3826 -14.8629 -5
      vertex -16.1803 -11.7557 -4.33013
      vertex -16.1803 -11.7557 -5
    endloop
  endfacet
  facet normal -0.743145 -0.669131 0
    outer loop
      vertex -16.1803 -11.7557 -4.33013
      vertex -13.3826 -14.8629 -5
      vertex -13.3826 -14.8629 -4.33013
    endloop
  endfacet
  facet normal -0.743145 -0.669131 0
    outer loop
      vertex -13.3826 -14.8629 4.33013
      vertex -16.1803 -11.7557 5
      vertex -16.1803 -11.7557 4.33013
    endloop
  endfacet
  facet normal -0.743145 -0.669131 0
    outer loop
      vertex -16.1803 -11.7557 5
      vertex -13.3826 -14.8629 4.33013
      vertex -13.3826 -14.8629 5
    endloop
  endfacet
  facet normal -0.951057 -0.309017 0
    outer loop
      vertex -18.2709 -8.13473 -5
      vertex -19.563 -4.15823 -4.33013
      vertex -19.563 -4.15823 -5
    endloop
  endfacet
  facet normal -0.951057 -0.309017 0
    outer loop
      vertex -19.563 -4.15823 -4.33013
      vertex -18.2709 -8.13473 -5
      vertex -18.2709 -8.13473 -4.33013
    endloop
  endfacet
  facet normal -0.951057 -0.309017 0
    outer loop
      vertex -18.2709 -8.13473 4.33013
      vertex -19.563 -4.15823 5
      vertex -19.563 -4.15823 4.33013
    endloop
  endfacet
  facet normal -0.951057 -0.309017 0
    outer loop
      vertex -19.563 -4.15823 5
      vertex -18.2709 -8.13473 4.33013
      vertex -18.2709 -8.13473 5
    endloop
  endfacet
  facet normal -0.994522 -0.104529 0
    outer loop
      vertex -19.563 -4.15823 -5
      vertex -20 0 -4.33013
      vertex -20 0 -5
    endloop
  endfacet
  facet normal -0.994522 -0.104529 0
    outer loop
      vertex -20 0 -4.33013
      vertex -19.563 -4.15823 -5
      vertex -19.563 -4.15823 -4.33013
    endloop
  endfacet
  facet normal -0.994522 -0.104529 0
    outer loop
      vertex -19.563 -4.15823 4.33013
      vertex -20 0 5
      vertex -20 0 4.33013
    endloop
  endfacet
  facet normal -0.994522 -0.104529 0
    outer loop
      vertex -20 0 5
      vertex -19.563 -4.15823 4.33013
      vertex -19.563 -4.15823 5
    endloop
  endfacet
  facet normal 0.743145 -0.669131 0
    outer loop
      vertex 13.3826 -14.8629 -4.33013
      vertex 16.1803 -11.7557 -5
      vertex 16.1803 -11.7557 -4.33013
    endloop
  endfacet
  facet normal 0.743145 -0.669131 0
    outer loop
      vertex 16.1803 -11.7557 -5
      vertex 13.3826 -14.8629 -4.33013
      vertex 13.3826 -14.8629 -5
    endloop
  endfacet
  facet normal 0.743145 -0.669131 0
    outer loop
      vertex 13.3826 -14.8629 5
      vertex 16.1803 -11.7557 4.33013
      vertex 16.1803 -11.7557 5
    endloop
  endfacet
  facet normal 0.743145 -0.669131 0
    outer loop
      vertex 16.1803 -11.7557 4.33013
      vertex 13.3826 -14.8629 5
      vertex 13.3826 -14.8629 4.33013
    endloop
  endfacet
  facet normal -0.406737 -0.913545 0
    outer loop
      vertex -10 -17.3205 4.33013
      vertex -6.18034 -19.0211 5
      vertex -10 -17.3205 5
    endloop
  endfacet
  facet normal -0.406737 -0.913545 -0
    outer loop
      vertex -6.18034 -19.0211 5
      vertex -10 -17.3205 4.33013
      vertex -6.18034 -19.0211 4.33013
    endloop
  endfacet
  facet normal -0.406737 -0.913545 0
    outer loop
      vertex -10 -17.3205 -5
      vertex -6.18034 -19.0211 -4.33013
      vertex -10 -17.3205 -4.33013
    endloop
  endfacet
  facet normal -0.406737 -0.913545 -0
    outer loop
      vertex -6.18034 -19.0211 -4.33013
      vertex -10 -17.3205 -5
      vertex -6.18034 -19.0211 -5
    endloop
  endfacet
  facet normal -0.587785 -0.809017 0
    outer loop
      vertex -13.3826 -14.8629 -5
      vertex -10 -17.3205 -4.33013
      vertex -13.3826 -14.8629 -4.33013
    endloop
  endfacet
  facet normal -0.587785 -0.809017 -0
    outer loop
      vertex -10 -17.3205 -4.33013
      vertex -13.3826 -14.8629 -5
      vertex -10 -17.3205 -5
    endloop
  endfacet
  facet normal -0.587785 -0.809017 0
    outer loop
      vertex -13.3826 -14.8629 4.33013
      vertex -10 -17.3205 5
      vertex -13.3826 -14.8629 5
    endloop
  endfacet
  facet normal -0.587785 -0.809017 -0
    outer loop
      vertex -10 -17.3205 5
      vertex -13.3826 -14.8629 4.33013
      vertex -10 -17.3205 4.33013
    endloop
  endfacet
  facet normal -0.86246 0.0906483 -0.497942
    outer loop
      vertex -15 0 0
      vertex -17.5 0 4.33013
      vertex -14.6722 3.11868 0
    endloop
  endfacet
  facet normal -0.86246 0.0906484 -0.497941
    outer loop
      vertex -14.6722 3.11868 0
      vertex -17.5 0 4.33013
      vertex -17.1176 3.63845 4.33013
    endloop
  endfacet
  facet normal -0.86246 0.0906484 0.497942
    outer loop
      vertex -17.1176 3.63845 -4.33013
      vertex -17.5 0 -4.33013
      vertex -15 0 0
    endloop
  endfacet
  facet normal -0.86246 0.0906483 0.497941
    outer loop
      vertex -14.6722 3.11868 0
      vertex -17.1176 3.63845 -4.33013
      vertex -15 0 0
    endloop
  endfacet
  facet normal -0.824766 0.267983 -0.497941
    outer loop
      vertex -14.6722 3.11868 0
      vertex -17.1176 3.63845 4.33013
      vertex -13.7032 6.10105 0
    endloop
  endfacet
  facet normal -0.824766 0.267983 -0.497942
    outer loop
      vertex -13.7032 6.10105 0
      vertex -17.1176 3.63845 4.33013
      vertex -15.987 7.11789 4.33013
    endloop
  endfacet
  facet normal -0.824766 0.267983 0.497941
    outer loop
      vertex -15.987 7.11789 -4.33013
      vertex -17.1176 3.63845 -4.33013
      vertex -14.6722 3.11868 0
    endloop
  endfacet
  facet normal -0.824766 0.267983 0.497942
    outer loop
      vertex -13.7032 6.10105 0
      vertex -15.987 7.11789 -4.33013
      vertex -14.6722 3.11868 0
    endloop
  endfacet
  facet normal -0.751026 0.433605 -0.497942
    outer loop
      vertex -13.7032 6.10105 0
      vertex -15.987 7.11789 4.33013
      vertex -12.1353 8.81678 0
    endloop
  endfacet
  facet normal -0.751026 0.433605 -0.497941
    outer loop
      vertex -12.1353 8.81678 0
      vertex -15.987 7.11789 4.33013
      vertex -14.1578 10.2862 4.33013
    endloop
  endfacet
  facet normal -0.751026 0.433605 0.497942
    outer loop
      vertex -14.1578 10.2862 -4.33013
      vertex -15.987 7.11789 -4.33013
      vertex -13.7032 6.10105 0
    endloop
  endfacet
  facet normal -0.751026 0.433605 0.497941
    outer loop
      vertex -12.1353 8.81678 0
      vertex -14.1578 10.2862 -4.33013
      vertex -13.7032 6.10105 0
    endloop
  endfacet
  facet normal -0.644463 0.580277 -0.497941
    outer loop
      vertex -12.1353 8.81678 0
      vertex -14.1578 10.2862 4.33013
      vertex -10.037 11.1472 0
    endloop
  endfacet
  facet normal -0.644463 0.580277 -0.497941
    outer loop
      vertex -10.037 11.1472 0
      vertex -14.1578 10.2862 4.33013
      vertex -11.7098 13.005 4.33013
    endloop
  endfacet
  facet normal -0.644463 0.580277 0.497941
    outer loop
      vertex -11.7098 13.005 -4.33013
      vertex -14.1578 10.2862 -4.33013
      vertex -12.1353 8.81678 0
    endloop
  endfacet
  facet normal -0.644463 0.580277 0.497941
    outer loop
      vertex -11.7098 13.005 -4.33013
      vertex -12.1353 8.81678 0
      vertex -10.037 11.1472 0
    endloop
  endfacet
  facet normal -0.509733 0.701588 -0.497941
    outer loop
      vertex -10.037 11.1472 0
      vertex -11.7098 13.005 4.33013
      vertex -7.5 12.9904 0
    endloop
  endfacet
  facet normal -0.509734 0.701588 -0.497942
    outer loop
      vertex -7.5 12.9904 0
      vertex -11.7098 13.005 4.33013
      vertex -8.75 15.1554 4.33013
    endloop
  endfacet
  facet normal -0.509734 0.701588 0.497941
    outer loop
      vertex -8.75 15.1554 -4.33013
      vertex -11.7098 13.005 -4.33013
      vertex -10.037 11.1472 0
    endloop
  endfacet
  facet normal -0.509733 0.701588 0.497942
    outer loop
      vertex -8.75 15.1554 -4.33013
      vertex -10.037 11.1472 0
      vertex -7.5 12.9904 0
    endloop
  endfacet
  facet normal -0.352726 0.792236 -0.497942
    outer loop
      vertex -7.5 12.9904 0
      vertex -8.75 15.1554 4.33013
      vertex -4.63525 14.2658 0
    endloop
  endfacet
  facet normal -0.352727 0.792236 -0.497942
    outer loop
      vertex -4.63525 14.2658 0
      vertex -8.75 15.1554 4.33013
      vertex -5.4078 16.6435 4.33013
    endloop
  endfacet
  facet normal -0.352727 0.792236 0.497942
    outer loop
      vertex -5.4078 16.6435 -4.33013
      vertex -8.75 15.1554 -4.33013
      vertex -7.5 12.9904 0
    endloop
  endfacet
  facet normal -0.352726 0.792236 0.497942
    outer loop
      vertex -5.4078 16.6435 -4.33013
      vertex -7.5 12.9904 0
      vertex -4.63525 14.2658 0
    endloop
  endfacet
  facet normal -0.180303 0.84826 -0.497942
    outer loop
      vertex -4.63525 14.2658 0
      vertex -5.4078 16.6435 4.33013
      vertex -1.56793 14.9178 0
    endloop
  endfacet
  facet normal -0.180303 0.84826 -0.497942
    outer loop
      vertex -1.56793 14.9178 0
      vertex -5.4078 16.6435 4.33013
      vertex -1.82925 17.4041 4.33013
    endloop
  endfacet
  facet normal -0.180303 0.84826 0.497942
    outer loop
      vertex -1.82925 17.4041 -4.33013
      vertex -5.4078 16.6435 -4.33013
      vertex -4.63525 14.2658 0
    endloop
  endfacet
  facet normal -0.180303 0.84826 0.497942
    outer loop
      vertex -1.82925 17.4041 -4.33013
      vertex -4.63525 14.2658 0
      vertex -1.56793 14.9178 0
    endloop
  endfacet
  facet normal 0 0.867211 -0.497942
    outer loop
      vertex 1.56793 14.9178 0
      vertex -1.82925 17.4041 4.33013
      vertex 1.82925 17.4041 4.33013
    endloop
  endfacet
  facet normal 0 0.867211 -0.497942
    outer loop
      vertex -1.82925 17.4041 4.33013
      vertex 1.56793 14.9178 0
      vertex -1.56793 14.9178 0
    endloop
  endfacet
  facet normal 0 0.867211 0.497942
    outer loop
      vertex 1.82925 17.4041 -4.33013
      vertex -1.56793 14.9178 0
      vertex 1.56793 14.9178 0
    endloop
  endfacet
  facet normal 0 0.867211 0.497942
    outer loop
      vertex -1.56793 14.9178 0
      vertex 1.82925 17.4041 -4.33013
      vertex -1.82925 17.4041 -4.33013
    endloop
  endfacet
  facet normal 0.180303 0.84826 -0.497942
    outer loop
      vertex 4.63525 14.2658 0
      vertex 1.56793 14.9178 0
      vertex 1.82925 17.4041 4.33013
    endloop
  endfacet
  facet normal 0.180303 0.84826 -0.497942
    outer loop
      vertex 4.63525 14.2658 0
      vertex 1.82925 17.4041 4.33013
      vertex 5.4078 16.6435 4.33013
    endloop
  endfacet
  facet normal 0.180303 0.84826 0.497942
    outer loop
      vertex 1.82925 17.4041 -4.33013
      vertex 1.56793 14.9178 0
      vertex 5.4078 16.6435 -4.33013
    endloop
  endfacet
  facet normal 0.180303 0.84826 0.497942
    outer loop
      vertex 5.4078 16.6435 -4.33013
      vertex 1.56793 14.9178 0
      vertex 4.63525 14.2658 0
    endloop
  endfacet
  facet normal 0.352726 0.792236 -0.497942
    outer loop
      vertex 7.5 12.9904 0
      vertex 4.63525 14.2658 0
      vertex 5.4078 16.6435 4.33013
    endloop
  endfacet
  facet normal 0.352727 0.792236 -0.497942
    outer loop
      vertex 7.5 12.9904 0
      vertex 5.4078 16.6435 4.33013
      vertex 8.75 15.1554 4.33013
    endloop
  endfacet
  facet normal 0.352727 0.792236 0.497942
    outer loop
      vertex 5.4078 16.6435 -4.33013
      vertex 4.63525 14.2658 0
      vertex 8.75 15.1554 -4.33013
    endloop
  endfacet
  facet normal 0.352726 0.792236 0.497942
    outer loop
      vertex 8.75 15.1554 -4.33013
      vertex 4.63525 14.2658 0
      vertex 7.5 12.9904 0
    endloop
  endfacet
  facet normal 0.509733 0.701588 -0.497942
    outer loop
      vertex 10.037 11.1472 0
      vertex 7.5 12.9904 0
      vertex 8.75 15.1554 4.33013
    endloop
  endfacet
  facet normal 0.509734 0.701588 -0.497941
    outer loop
      vertex 10.037 11.1472 0
      vertex 8.75 15.1554 4.33013
      vertex 11.7098 13.005 4.33013
    endloop
  endfacet
  facet normal 0.509734 0.701588 0.497942
    outer loop
      vertex 8.75 15.1554 -4.33013
      vertex 7.5 12.9904 0
      vertex 11.7098 13.005 -4.33013
    endloop
  endfacet
  facet normal 0.509733 0.701588 0.497941
    outer loop
      vertex 11.7098 13.005 -4.33013
      vertex 7.5 12.9904 0
      vertex 10.037 11.1472 0
    endloop
  endfacet
  facet normal 0.644463 0.580277 -0.497941
    outer loop
      vertex 12.1353 8.81678 0
      vertex 10.037 11.1472 0
      vertex 11.7098 13.005 4.33013
    endloop
  endfacet
  facet normal 0.644463 0.580277 -0.497941
    outer loop
      vertex 12.1353 8.81678 0
      vertex 11.7098 13.005 4.33013
      vertex 14.1578 10.2862 4.33013
    endloop
  endfacet
  facet normal 0.644463 0.580277 0.497941
    outer loop
      vertex 11.7098 13.005 -4.33013
      vertex 10.037 11.1472 0
      vertex 14.1578 10.2862 -4.33013
    endloop
  endfacet
  facet normal 0.644463 0.580277 0.497941
    outer loop
      vertex 14.1578 10.2862 -4.33013
      vertex 10.037 11.1472 0
      vertex 12.1353 8.81678 0
    endloop
  endfacet
  facet normal 0.751026 0.433605 -0.497941
    outer loop
      vertex 13.7032 6.10105 0
      vertex 12.1353 8.81678 0
      vertex 14.1578 10.2862 4.33013
    endloop
  endfacet
  facet normal 0.751026 0.433605 -0.497942
    outer loop
      vertex 15.987 7.11789 4.33013
      vertex 13.7032 6.10105 0
      vertex 14.1578 10.2862 4.33013
    endloop
  endfacet
  facet normal 0.751026 0.433605 0.497941
    outer loop
      vertex 14.1578 10.2862 -4.33013
      vertex 12.1353 8.81678 0
      vertex 15.987 7.11789 -4.33013
    endloop
  endfacet
  facet normal 0.751026 0.433605 0.497942
    outer loop
      vertex 15.987 7.11789 -4.33013
      vertex 12.1353 8.81678 0
      vertex 13.7032 6.10105 0
    endloop
  endfacet
  facet normal 0.824766 0.267983 -0.497942
    outer loop
      vertex 14.6722 3.11868 0
      vertex 13.7032 6.10105 0
      vertex 15.987 7.11789 4.33013
    endloop
  endfacet
  facet normal 0.824766 0.267983 -0.497941
    outer loop
      vertex 17.1176 3.63845 4.33013
      vertex 14.6722 3.11868 0
      vertex 15.987 7.11789 4.33013
    endloop
  endfacet
  facet normal 0.824766 0.267983 0.497942
    outer loop
      vertex 15.987 7.11789 -4.33013
      vertex 13.7032 6.10105 0
      vertex 17.1176 3.63845 -4.33013
    endloop
  endfacet
  facet normal 0.824766 0.267983 0.497941
    outer loop
      vertex 17.1176 3.63845 -4.33013
      vertex 13.7032 6.10105 0
      vertex 14.6722 3.11868 0
    endloop
  endfacet
  facet normal 0.86246 0.0906483 -0.497941
    outer loop
      vertex 15 0 0
      vertex 14.6722 3.11868 0
      vertex 17.1176 3.63845 4.33013
    endloop
  endfacet
  facet normal 0.86246 0.0906484 -0.497942
    outer loop
      vertex 17.5 0 4.33013
      vertex 15 0 0
      vertex 17.1176 3.63845 4.33013
    endloop
  endfacet
  facet normal 0.86246 0.0906484 0.497941
    outer loop
      vertex 17.1176 3.63845 -4.33013
      vertex 14.6722 3.11868 0
      vertex 17.5 0 -4.33013
    endloop
  endfacet
  facet normal 0.86246 0.0906483 0.497942
    outer loop
      vertex 17.5 0 -4.33013
      vertex 14.6722 3.11868 0
      vertex 15 0 0
    endloop
  endfacet
  facet normal 0.86246 -0.0906483 -0.497942
    outer loop
      vertex 17.5 0 4.33013
      vertex 14.6722 -3.11868 0
      vertex 15 0 0
    endloop
  endfacet
  facet normal 0.86246 -0.0906484 -0.497941
    outer loop
      vertex 17.1176 -3.63845 4.33013
      vertex 14.6722 -3.11868 0
      vertex 17.5 0 4.33013
    endloop
  endfacet
  facet normal 0.86246 -0.0906484 0.497942
    outer loop
      vertex 17.5 0 -4.33013
      vertex 15 0 0
      vertex 17.1176 -3.63845 -4.33013
    endloop
  endfacet
  facet normal 0.86246 -0.0906483 0.497941
    outer loop
      vertex 15 0 0
      vertex 14.6722 -3.11868 0
      vertex 17.1176 -3.63845 -4.33013
    endloop
  endfacet
  facet normal 0.824766 -0.267983 -0.497941
    outer loop
      vertex 17.1176 -3.63845 4.33013
      vertex 13.7032 -6.10105 0
      vertex 14.6722 -3.11868 0
    endloop
  endfacet
  facet normal 0.824766 -0.267983 -0.497942
    outer loop
      vertex 15.987 -7.11789 4.33013
      vertex 13.7032 -6.10105 0
      vertex 17.1176 -3.63845 4.33013
    endloop
  endfacet
  facet normal 0.824766 -0.267983 0.497941
    outer loop
      vertex 17.1176 -3.63845 -4.33013
      vertex 14.6722 -3.11868 0
      vertex 15.987 -7.11789 -4.33013
    endloop
  endfacet
  facet normal 0.824766 -0.267983 0.497942
    outer loop
      vertex 14.6722 -3.11868 0
      vertex 13.7032 -6.10105 0
      vertex 15.987 -7.11789 -4.33013
    endloop
  endfacet
  facet normal 0.751026 -0.433605 -0.497942
    outer loop
      vertex 15.987 -7.11789 4.33013
      vertex 12.1353 -8.81678 0
      vertex 13.7032 -6.10105 0
    endloop
  endfacet
  facet normal 0.751026 -0.433605 -0.497941
    outer loop
      vertex 14.1578 -10.2862 4.33013
      vertex 12.1353 -8.81678 0
      vertex 15.987 -7.11789 4.33013
    endloop
  endfacet
  facet normal 0.751026 -0.433605 0.497942
    outer loop
      vertex 15.987 -7.11789 -4.33013
      vertex 13.7032 -6.10105 0
      vertex 14.1578 -10.2862 -4.33013
    endloop
  endfacet
  facet normal 0.751026 -0.433605 0.497941
    outer loop
      vertex 13.7032 -6.10105 0
      vertex 12.1353 -8.81678 0
      vertex 14.1578 -10.2862 -4.33013
    endloop
  endfacet
  facet normal 0.644463 -0.580277 -0.497941
    outer loop
      vertex 14.1578 -10.2862 4.33013
      vertex 10.037 -11.1472 0
      vertex 12.1353 -8.81678 0
    endloop
  endfacet
  facet normal 0.644463 -0.580277 -0.497941
    outer loop
      vertex 11.7098 -13.005 4.33013
      vertex 10.037 -11.1472 0
      vertex 14.1578 -10.2862 4.33013
    endloop
  endfacet
  facet normal 0.644463 -0.580277 0.497941
    outer loop
      vertex 12.1353 -8.81678 0
      vertex 11.7098 -13.005 -4.33013
      vertex 14.1578 -10.2862 -4.33013
    endloop
  endfacet
  facet normal 0.644463 -0.580277 0.497941
    outer loop
      vertex 12.1353 -8.81678 0
      vertex 10.037 -11.1472 0
      vertex 11.7098 -13.005 -4.33013
    endloop
  endfacet
  facet normal 0.509733 -0.701588 -0.497941
    outer loop
      vertex 11.7098 -13.005 4.33013
      vertex 7.5 -12.9904 0
      vertex 10.037 -11.1472 0
    endloop
  endfacet
  facet normal 0.509734 -0.701588 -0.497942
    outer loop
      vertex 8.75 -15.1554 4.33013
      vertex 7.5 -12.9904 0
      vertex 11.7098 -13.005 4.33013
    endloop
  endfacet
  facet normal 0.509734 -0.701588 0.497941
    outer loop
      vertex 10.037 -11.1472 0
      vertex 8.75 -15.1554 -4.33013
      vertex 11.7098 -13.005 -4.33013
    endloop
  endfacet
  facet normal 0.509733 -0.701588 0.497942
    outer loop
      vertex 10.037 -11.1472 0
      vertex 7.5 -12.9904 0
      vertex 8.75 -15.1554 -4.33013
    endloop
  endfacet
  facet normal 0.352726 -0.792236 -0.497942
    outer loop
      vertex 8.75 -15.1554 4.33013
      vertex 4.63525 -14.2658 0
      vertex 7.5 -12.9904 0
    endloop
  endfacet
  facet normal 0.352727 -0.792236 -0.497942
    outer loop
      vertex 5.4078 -16.6435 4.33013
      vertex 4.63525 -14.2658 0
      vertex 8.75 -15.1554 4.33013
    endloop
  endfacet
  facet normal 0.352727 -0.792236 0.497942
    outer loop
      vertex 7.5 -12.9904 0
      vertex 5.4078 -16.6435 -4.33013
      vertex 8.75 -15.1554 -4.33013
    endloop
  endfacet
  facet normal 0.352726 -0.792236 0.497942
    outer loop
      vertex 7.5 -12.9904 0
      vertex 4.63525 -14.2658 0
      vertex 5.4078 -16.6435 -4.33013
    endloop
  endfacet
  facet normal 0.180303 -0.84826 -0.497942
    outer loop
      vertex 5.4078 -16.6435 4.33013
      vertex 1.56793 -14.9178 0
      vertex 4.63525 -14.2658 0
    endloop
  endfacet
  facet normal 0.180303 -0.84826 -0.497942
    outer loop
      vertex 1.82925 -17.4041 4.33013
      vertex 1.56793 -14.9178 0
      vertex 5.4078 -16.6435 4.33013
    endloop
  endfacet
  facet normal 0.180303 -0.84826 0.497942
    outer loop
      vertex 4.63525 -14.2658 0
      vertex 1.82925 -17.4041 -4.33013
      vertex 5.4078 -16.6435 -4.33013
    endloop
  endfacet
  facet normal 0.180303 -0.84826 0.497942
    outer loop
      vertex 4.63525 -14.2658 0
      vertex 1.56793 -14.9178 0
      vertex 1.82925 -17.4041 -4.33013
    endloop
  endfacet
  facet normal 0 -0.867211 -0.497942
    outer loop
      vertex -1.56793 -14.9178 0
      vertex 1.82925 -17.4041 4.33013
      vertex -1.82925 -17.4041 4.33013
    endloop
  endfacet
  facet normal 0 -0.867211 -0.497942
    outer loop
      vertex 1.82925 -17.4041 4.33013
      vertex -1.56793 -14.9178 0
      vertex 1.56793 -14.9178 0
    endloop
  endfacet
  facet normal 0 -0.867211 0.497942
    outer loop
      vertex -1.82925 -17.4041 -4.33013
      vertex 1.56793 -14.9178 0
      vertex -1.56793 -14.9178 0
    endloop
  endfacet
  facet normal 0 -0.867211 0.497942
    outer loop
      vertex 1.56793 -14.9178 0
      vertex -1.82925 -17.4041 -4.33013
      vertex 1.82925 -17.4041 -4.33013
    endloop
  endfacet
  facet normal -0.180303 -0.84826 -0.497942
    outer loop
      vertex -1.82925 -17.4041 4.33013
      vertex -4.63525 -14.2658 0
      vertex -1.56793 -14.9178 0
    endloop
  endfacet
  facet normal -0.180303 -0.84826 -0.497942
    outer loop
      vertex -1.82925 -17.4041 4.33013
      vertex -5.4078 -16.6435 4.33013
      vertex -4.63525 -14.2658 0
    endloop
  endfacet
  facet normal -0.180303 -0.84826 0.497942
    outer loop
      vertex -1.56793 -14.9178 0
      vertex -5.4078 -16.6435 -4.33013
      vertex -1.82925 -17.4041 -4.33013
    endloop
  endfacet
  facet normal -0.180303 -0.84826 0.497942
    outer loop
      vertex -4.63525 -14.2658 0
      vertex -5.4078 -16.6435 -4.33013
      vertex -1.56793 -14.9178 0
    endloop
  endfacet
  facet normal -0.352726 -0.792236 -0.497942
    outer loop
      vertex -5.4078 -16.6435 4.33013
      vertex -7.5 -12.9904 0
      vertex -4.63525 -14.2658 0
    endloop
  endfacet
  facet normal -0.352727 -0.792236 -0.497942
    outer loop
      vertex -5.4078 -16.6435 4.33013
      vertex -8.75 -15.1554 4.33013
      vertex -7.5 -12.9904 0
    endloop
  endfacet
  facet normal -0.352727 -0.792236 0.497942
    outer loop
      vertex -4.63525 -14.2658 0
      vertex -8.75 -15.1554 -4.33013
      vertex -5.4078 -16.6435 -4.33013
    endloop
  endfacet
  facet normal -0.352726 -0.792236 0.497942
    outer loop
      vertex -7.5 -12.9904 0
      vertex -8.75 -15.1554 -4.33013
      vertex -4.63525 -14.2658 0
    endloop
  endfacet
  facet normal -0.509733 -0.701588 -0.497942
    outer loop
      vertex -8.75 -15.1554 4.33013
      vertex -10.037 -11.1472 0
      vertex -7.5 -12.9904 0
    endloop
  endfacet
  facet normal -0.509734 -0.701588 -0.497941
    outer loop
      vertex -8.75 -15.1554 4.33013
      vertex -11.7098 -13.005 4.33013
      vertex -10.037 -11.1472 0
    endloop
  endfacet
  facet normal -0.509734 -0.701588 0.497942
    outer loop
      vertex -7.5 -12.9904 0
      vertex -11.7098 -13.005 -4.33013
      vertex -8.75 -15.1554 -4.33013
    endloop
  endfacet
  facet normal -0.509733 -0.701588 0.497941
    outer loop
      vertex -10.037 -11.1472 0
      vertex -11.7098 -13.005 -4.33013
      vertex -7.5 -12.9904 0
    endloop
  endfacet
  facet normal -0.644463 -0.580277 -0.497941
    outer loop
      vertex -11.7098 -13.005 4.33013
      vertex -12.1353 -8.81678 0
      vertex -10.037 -11.1472 0
    endloop
  endfacet
  facet normal -0.644463 -0.580277 -0.497941
    outer loop
      vertex -11.7098 -13.005 4.33013
      vertex -14.1578 -10.2862 4.33013
      vertex -12.1353 -8.81678 0
    endloop
  endfacet
  facet normal -0.644463 -0.580277 0.497941
    outer loop
      vertex -10.037 -11.1472 0
      vertex -14.1578 -10.2862 -4.33013
      vertex -11.7098 -13.005 -4.33013
    endloop
  endfacet
  facet normal -0.644463 -0.580277 0.497941
    outer loop
      vertex -12.1353 -8.81678 0
      vertex -14.1578 -10.2862 -4.33013
      vertex -10.037 -11.1472 0
    endloop
  endfacet
  facet normal -0.751026 -0.433605 -0.497941
    outer loop
      vertex -12.1353 -8.81678 0
      vertex -14.1578 -10.2862 4.33013
      vertex -13.7032 -6.10105 0
    endloop
  endfacet
  facet normal -0.751026 -0.433605 -0.497942
    outer loop
      vertex -14.1578 -10.2862 4.33013
      vertex -15.987 -7.11789 4.33013
      vertex -13.7032 -6.10105 0
    endloop
  endfacet
  facet normal -0.751026 -0.433605 0.497941
    outer loop
      vertex -12.1353 -8.81678 0
      vertex -15.987 -7.11789 -4.33013
      vertex -14.1578 -10.2862 -4.33013
    endloop
  endfacet
  facet normal -0.751026 -0.433605 0.497942
    outer loop
      vertex -13.7032 -6.10105 0
      vertex -15.987 -7.11789 -4.33013
      vertex -12.1353 -8.81678 0
    endloop
  endfacet
  facet normal -0.824766 -0.267983 -0.497942
    outer loop
      vertex -13.7032 -6.10105 0
      vertex -15.987 -7.11789 4.33013
      vertex -14.6722 -3.11868 0
    endloop
  endfacet
  facet normal -0.824766 -0.267983 -0.497941
    outer loop
      vertex -15.987 -7.11789 4.33013
      vertex -17.1176 -3.63845 4.33013
      vertex -14.6722 -3.11868 0
    endloop
  endfacet
  facet normal -0.824766 -0.267983 0.497942
    outer loop
      vertex -13.7032 -6.10105 0
      vertex -17.1176 -3.63845 -4.33013
      vertex -15.987 -7.11789 -4.33013
    endloop
  endfacet
  facet normal -0.824766 -0.267983 0.497941
    outer loop
      vertex -14.6722 -3.11868 0
      vertex -17.1176 -3.63845 -4.33013
      vertex -13.7032 -6.10105 0
    endloop
  endfacet
  facet normal 0 0 -1
    outer loop
      vertex 17.5 0 4.33013
      vertex 20 0 4.33013
      vertex 19.563 -4.15823 4.33013
    endloop
  endfacet
  facet normal 0 0 -1
    outer loop
      vertex 17.1176 -3.63845 4.33013
      vertex 19.563 -4.15823 4.33013
      vertex 18.2709 -8.13473 4.33013
    endloop
  endfacet
  facet normal 0 0 -1
    outer loop
      vertex 20 0 4.33013
      vertex 17.5 0 4.33013
      vertex 19.563 4.15823 4.33013
    endloop
  endfacet
  facet normal 0 0 -1
    outer loop
      vertex 17.1176 3.63845 4.33013
      vertex 19.563 4.15823 4.33013
      vertex 17.5 0 4.33013
    endloop
  endfacet
  facet normal 0 0 -1
    outer loop
      vertex 19.563 -4.15823 4.33013
      vertex 17.1176 -3.63845 4.33013
      vertex 17.5 0 4.33013
    endloop
  endfacet
  facet normal 0 0 -1
    outer loop
      vertex 15.987 -7.11789 4.33013
      vertex 18.2709 -8.13473 4.33013
      vertex 16.1803 -11.7557 4.33013
    endloop
  endfacet
  facet normal 0 0 -1
    outer loop
      vertex 18.2709 -8.13473 4.33013
      vertex 15.987 -7.11789 4.33013
      vertex 17.1176 -3.63845 4.33013
    endloop
  endfacet
  facet normal 0 0 -1
    outer loop
      vertex 16.1803 -11.7557 4.33013
      vertex 14.1578 -10.2862 4.33013
      vertex 15.987 -7.11789 4.33013
    endloop
  endfacet
  facet normal 0 0 -1
    outer loop
      vertex 13.3826 -14.8629 4.33013
      vertex 14.1578 -10.2862 4.33013
      vertex 16.1803 -11.7557 4.33013
    endloop
  endfacet
  facet normal 0 0 -1
    outer loop
      vertex 13.3826 -14.8629 4.33013
      vertex 11.7098 -13.005 4.33013
      vertex 14.1578 -10.2862 4.33013
    endloop
  endfacet
  facet normal 0 0 -1
    outer loop
      vertex 10 -17.3205 4.33013
      vertex 11.7098 -13.005 4.33013
      vertex 13.3826 -14.8629 4.33013
    endloop
  endfacet
  facet normal 0 0 -1
    outer loop
      vertex 10 -17.3205 4.33013
      vertex 8.75 -15.1554 4.33013
      vertex 11.7098 -13.005 4.33013
    endloop
  endfacet
  facet normal 0 0 -1
    outer loop
      vertex 6.18034 -19.0211 4.33013
      vertex 8.75 -15.1554 4.33013
      vertex 10 -17.3205 4.33013
    endloop
  endfacet
  facet normal 0 0 -1
    outer loop
      vertex 6.18034 -19.0211 4.33013
      vertex 5.4078 -16.6435 4.33013
      vertex 8.75 -15.1554 4.33013
    endloop
  endfacet
  facet normal 0 0 -1
    outer loop
      vertex 2.09057 -19.8904 4.33013
      vertex 5.4078 -16.6435 4.33013
      vertex 6.18034 -19.0211 4.33013
    endloop
  endfacet
  facet normal 0 0 -1
    outer loop
      vertex 2.09057 -19.8904 4.33013
      vertex 1.82925 -17.4041 4.33013
      vertex 5.4078 -16.6435 4.33013
    endloop
  endfacet
  facet normal 0 0 -1
    outer loop
      vertex 2.09057 -19.8904 4.33013
      vertex -1.82925 -17.4041 4.33013
      vertex 1.82925 -17.4041 4.33013
    endloop
  endfacet
  facet normal 0 0 -1
    outer loop
      vertex -2.09057 -19.8904 4.33013
      vertex -1.82925 -17.4041 4.33013
      vertex 2.09057 -19.8904 4.33013
    endloop
  endfacet
  facet normal 0 0 -1
    outer loop
      vertex -2.09057 -19.8904 4.33013
      vertex -5.4078 -16.6435 4.33013
      vertex -1.82925 -17.4041 4.33013
    endloop
  endfacet
  facet normal 0 0 -1
    outer loop
      vertex -6.18034 -19.0211 4.33013
      vertex -5.4078 -16.6435 4.33013
      vertex -2.09057 -19.8904 4.33013
    endloop
  endfacet
  facet normal 0 0 -1
    outer loop
      vertex -6.18034 -19.0211 4.33013
      vertex -8.75 -15.1554 4.33013
      vertex -5.4078 -16.6435 4.33013
    endloop
  endfacet
  facet normal 0 0 -1
    outer loop
      vertex -10 -17.3205 4.33013
      vertex -8.75 -15.1554 4.33013
      vertex -6.18034 -19.0211 4.33013
    endloop
  endfacet
  facet normal 0 0 -1
    outer loop
      vertex -10 -17.3205 4.33013
      vertex -11.7098 -13.005 4.33013
      vertex -8.75 -15.1554 4.33013
    endloop
  endfacet
  facet normal 0 0 -1
    outer loop
      vertex -13.3826 -14.8629 4.33013
      vertex -11.7098 -13.005 4.33013
      vertex -10 -17.3205 4.33013
    endloop
  endfacet
  facet normal 0 0 -1
    outer loop
      vertex -13.3826 -14.8629 4.33013
      vertex -14.1578 -10.2862 4.33013
      vertex -11.7098 -13.005 4.33013
    endloop
  endfacet
  facet normal 0 0 -1
    outer loop
      vertex -16.1803 -11.7557 4.33013
      vertex -14.1578 -10.2862 4.33013
      vertex -13.3826 -14.8629 4.33013
    endloop
  endfacet
  facet normal -0 0 -1
    outer loop
      vertex -14.1578 -10.2862 4.33013
      vertex -16.1803 -11.7557 4.33013
      vertex -15.987 -7.11789 4.33013
    endloop
  endfacet
  facet normal 0 0 -1
    outer loop
      vertex -18.2709 -8.13473 4.33013
      vertex -15.987 -7.11789 4.33013
      vertex -16.1803 -11.7557 4.33013
    endloop
  endfacet
  facet normal 0 0 -1
    outer loop
      vertex -19.563 -4.15823 4.33013
      vertex -17.1176 -3.63845 4.33013
      vertex -18.2709 -8.13473 4.33013
    endloop
  endfacet
  facet normal -0 0 -1
    outer loop
      vertex -15.987 -7.11789 4.33013
      vertex -18.2709 -8.13473 4.33013
      vertex -17.1176 -3.63845 4.33013
    endloop
  endfacet
  facet normal -0 0 -1
    outer loop
      vertex 19.563 4.15823 4.33013
      vertex 17.1176 3.63845 4.33013
      vertex 18.2709 8.13473 4.33013
    endloop
  endfacet
  facet normal 0 0 -1
    outer loop
      vertex 15.987 7.11789 4.33013
      vertex 18.2709 8.13473 4.33013
      vertex 17.1176 3.63845 4.33013
    endloop
  endfacet
  facet normal -0 0 -1
    outer loop
      vertex 18.2709 8.13473 4.33013
      vertex 15.987 7.11789 4.33013
      vertex 16.1803 11.7557 4.33013
    endloop
  endfacet
  facet normal 0 0 -1
    outer loop
      vertex 14.1578 10.2862 4.33013
      vertex 16.1803 11.7557 4.33013
      vertex 15.987 7.11789 4.33013
    endloop
  endfacet
  facet normal 0 0 -1
    outer loop
      vertex 14.1578 10.2862 4.33013
      vertex 13.3826 14.8629 4.33013
      vertex 16.1803 11.7557 4.33013
    endloop
  endfacet
  facet normal 0 0 -1
    outer loop
      vertex 11.7098 13.005 4.33013
      vertex 13.3826 14.8629 4.33013
      vertex 14.1578 10.2862 4.33013
    endloop
  endfacet
  facet normal 0 0 -1
    outer loop
      vertex 11.7098 13.005 4.33013
      vertex 10 17.3205 4.33013
      vertex 13.3826 14.8629 4.33013
    endloop
  endfacet
  facet normal 0 0 -1
    outer loop
      vertex 8.75 15.1554 4.33013
      vertex 10 17.3205 4.33013
      vertex 11.7098 13.005 4.33013
    endloop
  endfacet
  facet normal 0 0 -1
    outer loop
      vertex 8.75 15.1554 4.33013
      vertex 6.18034 19.0211 4.33013
      vertex 10 17.3205 4.33013
    endloop
  endfacet
  facet normal 0 0 -1
    outer loop
      vertex 5.4078 16.6435 4.33013
      vertex 6.18034 19.0211 4.33013
      vertex 8.75 15.1554 4.33013
    endloop
  endfacet
  facet normal 0 0 -1
    outer loop
      vertex 5.4078 16.6435 4.33013
      vertex 2.09057 19.8904 4.33013
      vertex 6.18034 19.0211 4.33013
    endloop
  endfacet
  facet normal 0 0 -1
    outer loop
      vertex 1.82925 17.4041 4.33013
      vertex 2.09057 19.8904 4.33013
      vertex 5.4078 16.6435 4.33013
    endloop
  endfacet
  facet normal 0 0 -1
    outer loop
      vertex -1.82925 17.4041 4.33013
      vertex 2.09057 19.8904 4.33013
      vertex 1.82925 17.4041 4.33013
    endloop
  endfacet
  facet normal 0 0 -1
    outer loop
      vertex -1.82925 17.4041 4.33013
      vertex -2.09057 19.8904 4.33013
      vertex 2.09057 19.8904 4.33013
    endloop
  endfacet
  facet normal 0 0 -1
    outer loop
      vertex -5.4078 16.6435 4.33013
      vertex -2.09057 19.8904 4.33013
      vertex -1.82925 17.4041 4.33013
    endloop
  endfacet
  facet normal 0 0 -1
    outer loop
      vertex -5.4078 16.6435 4.33013
      vertex -6.18034 19.0211 4.33013
      vertex -2.09057 19.8904 4.33013
    endloop
  endfacet
  facet normal 0 0 -1
    outer loop
      vertex -8.75 15.1554 4.33013
      vertex -6.18034 19.0211 4.33013
      vertex -5.4078 16.6435 4.33013
    endloop
  endfacet
  facet normal 0 0 -1
    outer loop
      vertex -8.75 15.1554 4.33013
      vertex -10 17.3205 4.33013
      vertex -6.18034 19.0211 4.33013
    endloop
  endfacet
  facet normal 0 0 -1
    outer loop
      vertex -11.7098 13.005 4.33013
      vertex -10 17.3205 4.33013
      vertex -8.75 15.1554 4.33013
    endloop
  endfacet
  facet normal 0 0 -1
    outer loop
      vertex -11.7098 13.005 4.33013
      vertex -13.3826 14.8629 4.33013
      vertex -10 17.3205 4.33013
    endloop
  endfacet
  facet normal 0 0 -1
    outer loop
      vertex -14.1578 10.2862 4.33013
      vertex -13.3826 14.8629 4.33013
      vertex -11.7098 13.005 4.33013
    endloop
  endfacet
  facet normal 0 0 -1
    outer loop
      vertex -16.1803 11.7557 4.33013
      vertex -14.1578 10.2862 4.33013
      vertex -15.987 7.11789 4.33013
    endloop
  endfacet
  facet normal 0 0 -1
    outer loop
      vertex -14.1578 10.2862 4.33013
      vertex -16.1803 11.7557 4.33013
      vertex -13.3826 14.8629 4.33013
    endloop
  endfacet
  facet normal 0 0 -1
    outer loop
      vertex -18.2709 8.13473 4.33013
      vertex -15.987 7.11789 4.33013
      vertex -17.1176 3.63845 4.33013
    endloop
  endfacet
  facet normal 0 0 -1
    outer loop
      vertex -15.987 7.11789 4.33013
      vertex -18.2709 8.13473 4.33013
      vertex -16.1803 11.7557 4.33013
    endloop
  endfacet
  facet normal 0 0 -1
    outer loop
      vertex -19.563 4.15823 4.33013
      vertex -17.1176 3.63845 4.33013
      vertex -17.5 0 4.33013
    endloop
  endfacet
  facet normal -0 0 -1
    outer loop
      vertex -17.1176 -3.63845 4.33013
      vertex -19.563 -4.15823 4.33013
      vertex -17.5 0 4.33013
    endloop
  endfacet
  facet normal 0 0 -1
    outer loop
      vertex -20 0 4.33013
      vertex -17.5 0 4.33013
      vertex -19.563 -4.15823 4.33013
    endloop
  endfacet
  facet normal 0 0 -1
    outer loop
      vertex -17.1176 3.63845 4.33013
      vertex -19.563 4.15823 4.33013
      vertex -18.2709 8.13473 4.33013
    endloop
  endfacet
  facet normal 0 0 -1
    outer loop
      vertex -17.5 0 4.33013
      vertex -20 0 4.33013
      vertex -19.563 4.15823 4.33013
    endloop
  endfacet
  facet normal -0.86246 -0.0906483 -0.497941
    outer loop
      vertex -14.6722 -3.11868 0
      vertex -17.1176 -3.63845 4.33013
      vertex -15 0 0
    endloop
  endfacet
  facet normal -0.86246 -0.0906484 -0.497942
    outer loop
      vertex -17.1176 -3.63845 4.33013
      vertex -17.5 0 4.33013
      vertex -15 0 0
    endloop
  endfacet
  facet normal -0.86246 -0.0906484 0.497941
    outer loop
      vertex -14.6722 -3.11868 0
      vertex -17.5 0 -4.33013
      vertex -17.1176 -3.63845 -4.33013
    endloop
  endfacet
  facet normal -0.86246 -0.0906483 0.497942
    outer loop
      vertex -15 0 0
      vertex -17.5 0 -4.33013
      vertex -14.6722 -3.11868 0
    endloop
  endfacet
  facet normal 0 0 1
    outer loop
      vertex 17.5 0 -4.33013
      vertex 20 0 -4.33013
      vertex 19.563 4.15823 -4.33013
    endloop
  endfacet
  facet normal 0 0 1
    outer loop
      vertex 17.1176 3.63845 -4.33013
      vertex 19.563 4.15823 -4.33013
      vertex 18.2709 8.13473 -4.33013
    endloop
  endfacet
  facet normal 0 0 1
    outer loop
      vertex 20 0 -4.33013
      vertex 17.5 0 -4.33013
      vertex 19.563 -4.15823 -4.33013
    endloop
  endfacet
  facet normal -0 0 1
    outer loop
      vertex 17.1176 -3.63845 -4.33013
      vertex 19.563 -4.15823 -4.33013
      vertex 17.5 0 -4.33013
    endloop
  endfacet
  facet normal 0 0 1
    outer loop
      vertex 19.563 4.15823 -4.33013
      vertex 17.1176 3.63845 -4.33013
      vertex 17.5 0 -4.33013
    endloop
  endfacet
  facet normal 0 0 1
    outer loop
      vertex 15.987 7.11789 -4.33013
      vertex 18.2709 8.13473 -4.33013
      vertex 16.1803 11.7557 -4.33013
    endloop
  endfacet
  facet normal 0 0 1
    outer loop
      vertex 18.2709 8.13473 -4.33013
      vertex 15.987 7.11789 -4.33013
      vertex 17.1176 3.63845 -4.33013
    endloop
  endfacet
  facet normal 0 0 1
    outer loop
      vertex 16.1803 11.7557 -4.33013
      vertex 14.1578 10.2862 -4.33013
      vertex 15.987 7.11789 -4.33013
    endloop
  endfacet
  facet normal 0 0 1
    outer loop
      vertex 13.3826 14.8629 -4.33013
      vertex 14.1578 10.2862 -4.33013
      vertex 16.1803 11.7557 -4.33013
    endloop
  endfacet
  facet normal 0 0 1
    outer loop
      vertex 13.3826 14.8629 -4.33013
      vertex 11.7098 13.005 -4.33013
      vertex 14.1578 10.2862 -4.33013
    endloop
  endfacet
  facet normal 0 0 1
    outer loop
      vertex 10 17.3205 -4.33013
      vertex 11.7098 13.005 -4.33013
      vertex 13.3826 14.8629 -4.33013
    endloop
  endfacet
  facet normal 0 0 1
    outer loop
      vertex 10 17.3205 -4.33013
      vertex 8.75 15.1554 -4.33013
      vertex 11.7098 13.005 -4.33013
    endloop
  endfacet
  facet normal 0 0 1
    outer loop
      vertex 6.18034 19.0211 -4.33013
      vertex 8.75 15.1554 -4.33013
      vertex 10 17.3205 -4.33013
    endloop
  endfacet
  facet normal 0 0 1
    outer loop
      vertex 6.18034 19.0211 -4.33013
      vertex 5.4078 16.6435 -4.33013
      vertex 8.75 15.1554 -4.33013
    endloop
  endfacet
  facet normal 0 0 1
    outer loop
      vertex 2.09057 19.8904 -4.33013
      vertex 5.4078 16.6435 -4.33013
      vertex 6.18034 19.0211 -4.33013
    endloop
  endfacet
  facet normal 0 0 1
    outer loop
      vertex 2.09057 19.8904 -4.33013
      vertex 1.82925 17.4041 -4.33013
      vertex 5.4078 16.6435 -4.33013
    endloop
  endfacet
  facet normal 0 0 1
    outer loop
      vertex 2.09057 19.8904 -4.33013
      vertex -1.82925 17.4041 -4.33013
      vertex 1.82925 17.4041 -4.33013
    endloop
  endfacet
  facet normal -0 0 1
    outer loop
      vertex -2.09057 19.8904 -4.33013
      vertex -1.82925 17.4041 -4.33013
      vertex 2.09057 19.8904 -4.33013
    endloop
  endfacet
  facet normal 0 0 1
    outer loop
      vertex -2.09057 19.8904 -4.33013
      vertex -5.4078 16.6435 -4.33013
      vertex -1.82925 17.4041 -4.33013
    endloop
  endfacet
  facet normal -0 0 1
    outer loop
      vertex -6.18034 19.0211 -4.33013
      vertex -5.4078 16.6435 -4.33013
      vertex -2.09057 19.8904 -4.33013
    endloop
  endfacet
  facet normal 0 0 1
    outer loop
      vertex -6.18034 19.0211 -4.33013
      vertex -8.75 15.1554 -4.33013
      vertex -5.4078 16.6435 -4.33013
    endloop
  endfacet
  facet normal -0 0 1
    outer loop
      vertex -10 17.3205 -4.33013
      vertex -8.75 15.1554 -4.33013
      vertex -6.18034 19.0211 -4.33013
    endloop
  endfacet
  facet normal 0 0 1
    outer loop
      vertex -10 17.3205 -4.33013
      vertex -11.7098 13.005 -4.33013
      vertex -8.75 15.1554 -4.33013
    endloop
  endfacet
  facet normal -0 0 1
    outer loop
      vertex -13.3826 14.8629 -4.33013
      vertex -11.7098 13.005 -4.33013
      vertex -10 17.3205 -4.33013
    endloop
  endfacet
  facet normal 0 0 1
    outer loop
      vertex -13.3826 14.8629 -4.33013
      vertex -14.1578 10.2862 -4.33013
      vertex -11.7098 13.005 -4.33013
    endloop
  endfacet
  facet normal -0 0 1
    outer loop
      vertex -16.1803 11.7557 -4.33013
      vertex -14.1578 10.2862 -4.33013
      vertex -13.3826 14.8629 -4.33013
    endloop
  endfacet
  facet normal 0 0 1
    outer loop
      vertex -14.1578 10.2862 -4.33013
      vertex -16.1803 11.7557 -4.33013
      vertex -15.987 7.11789 -4.33013
    endloop
  endfacet
  facet normal -0 0 1
    outer loop
      vertex -18.2709 8.13473 -4.33013
      vertex -15.987 7.11789 -4.33013
      vertex -16.1803 11.7557 -4.33013
    endloop
  endfacet
  facet normal -0 0 1
    outer loop
      vertex -19.563 4.15823 -4.33013
      vertex -17.1176 3.63845 -4.33013
      vertex -18.2709 8.13473 -4.33013
    endloop
  endfacet
  facet normal 0 0 1
    outer loop
      vertex -15.987 7.11789 -4.33013
      vertex -18.2709 8.13473 -4.33013
      vertex -17.1176 3.63845 -4.33013
    endloop
  endfacet
  facet normal 0 0 1
    outer loop
      vertex 19.563 -4.15823 -4.33013
      vertex 17.1176 -3.63845 -4.33013
      vertex 18.2709 -8.13473 -4.33013
    endloop
  endfacet
  facet normal -0 0 1
    outer loop
      vertex 15.987 -7.11789 -4.33013
      vertex 18.2709 -8.13473 -4.33013
      vertex 17.1176 -3.63845 -4.33013
    endloop
  endfacet
  facet normal 0 0 1
    outer loop
      vertex 18.2709 -8.13473 -4.33013
      vertex 15.987 -7.11789 -4.33013
      vertex 16.1803 -11.7557 -4.33013
    endloop
  endfacet
  facet normal -0 0 1
    outer loop
      vertex 14.1578 -10.2862 -4.33013
      vertex 16.1803 -11.7557 -4.33013
      vertex 15.987 -7.11789 -4.33013
    endloop
  endfacet
  facet normal 0 0 1
    outer loop
      vertex 14.1578 -10.2862 -4.33013
      vertex 13.3826 -14.8629 -4.33013
      vertex 16.1803 -11.7557 -4.33013
    endloop
  endfacet
  facet normal -0 0 1
    outer loop
      vertex 11.7098 -13.005 -4.33013
      vertex 13.3826 -14.8629 -4.33013
      vertex 14.1578 -10.2862 -4.33013
    endloop
  endfacet
  facet normal 0 0 1
    outer loop
      vertex 11.7098 -13.005 -4.33013
      vertex 10 -17.3205 -4.33013
      vertex 13.3826 -14.8629 -4.33013
    endloop
  endfacet
  facet normal -0 0 1
    outer loop
      vertex 8.75 -15.1554 -4.33013
      vertex 10 -17.3205 -4.33013
      vertex 11.7098 -13.005 -4.33013
    endloop
  endfacet
  facet normal 0 0 1
    outer loop
      vertex 8.75 -15.1554 -4.33013
      vertex 6.18034 -19.0211 -4.33013
      vertex 10 -17.3205 -4.33013
    endloop
  endfacet
  facet normal -0 0 1
    outer loop
      vertex 5.4078 -16.6435 -4.33013
      vertex 6.18034 -19.0211 -4.33013
      vertex 8.75 -15.1554 -4.33013
    endloop
  endfacet
  facet normal 0 0 1
    outer loop
      vertex 5.4078 -16.6435 -4.33013
      vertex 2.09057 -19.8904 -4.33013
      vertex 6.18034 -19.0211 -4.33013
    endloop
  endfacet
  facet normal -0 0 1
    outer loop
      vertex 1.82925 -17.4041 -4.33013
      vertex 2.09057 -19.8904 -4.33013
      vertex 5.4078 -16.6435 -4.33013
    endloop
  endfacet
  facet normal -0 0 1
    outer loop
      vertex -1.82925 -17.4041 -4.33013
      vertex 2.09057 -19.8904 -4.33013
      vertex 1.82925 -17.4041 -4.33013
    endloop
  endfacet
  facet normal 0 0 1
    outer loop
      vertex -1.82925 -17.4041 -4.33013
      vertex -2.09057 -19.8904 -4.33013
      vertex 2.09057 -19.8904 -4.33013
    endloop
  endfacet
  facet normal 0 0 1
    outer loop
      vertex -5.4078 -16.6435 -4.33013
      vertex -2.09057 -19.8904 -4.33013
      vertex -1.82925 -17.4041 -4.33013
    endloop
  endfacet
  facet normal 0 0 1
    outer loop
      vertex -5.4078 -16.6435 -4.33013
      vertex -6.18034 -19.0211 -4.33013
      vertex -2.09057 -19.8904 -4.33013
    endloop
  endfacet
  facet normal 0 0 1
    outer loop
      vertex -8.75 -15.1554 -4.33013
      vertex -6.18034 -19.0211 -4.33013
      vertex -5.4078 -16.6435 -4.33013
    endloop
  endfacet
  facet normal 0 0 1
    outer loop
      vertex -8.75 -15.1554 -4.33013
      vertex -10 -17.3205 -4.33013
      vertex -6.18034 -19.0211 -4.33013
    endloop
  endfacet
  facet normal 0 0 1
    outer loop
      vertex -11.7098 -13.005 -4.33013
      vertex -10 -17.3205 -4.33013
      vertex -8.75 -15.1554 -4.33013
    endloop
  endfacet
  facet normal 0 0 1
    outer loop
      vertex -11.7098 -13.005 -4.33013
      vertex -13.3826 -14.8629 -4.33013
      vertex -10 -17.3205 -4.33013
    endloop
  endfacet
  facet normal 0 0 1
    outer loop
      vertex -14.1578 -10.2862 -4.33013
      vertex -13.3826 -14.8629 -4.33013
      vertex -11.7098 -13.005 -4.33013
    endloop
  endfacet
  facet normal 0 0 1
    outer loop
      vertex -16.1803 -11.7557 -4.33013
      vertex -14.1578 -10.2862 -4.33013
      vertex -15.987 -7.11789 -4.33013
    endloop
  endfacet
  facet normal 0 0 1
    outer loop
      vertex -14.1578 -10.2862 -4.33013
      vertex -16.1803 -11.7557 -4.33013
      vertex -13.3826 -14.8629 -4.33013
    endloop
  endfacet
  facet normal 0 0 1
    outer loop
      vertex -18.2709 -8.13473 -4.33013
      vertex -15.987 -7.11789 -4.33013
      vertex -17.1176 -3.63845 -4.33013
    endloop
  endfacet
  facet normal 0 0 1
    outer loop
      vertex -15.987 -7.11789 -4.33013
      vertex -18.2709 -8.13473 -4.33013
      vertex -16.1803 -11.7557 -4.33013
    endloop
  endfacet
  facet normal 0 0 1
    outer loop
      vertex -19.563 -4.15823 -4.33013
      vertex -17.1176 -3.63845 -4.33013
      vertex -17.5 0 -4.33013
    endloop
  endfacet
  facet normal 0 0 1
    outer loop
      vertex -17.1176 3.63845 -4.33013
      vertex -19.563 4.15823 -4.33013
      vertex -17.5 0 -4.33013
    endloop
  endfacet
  facet normal 0 0 1
    outer loop
      vertex -20 0 -4.33013
      vertex -17.5 0 -4.33013
      vertex -19.563 4.15823 -4.33013
    endloop
  endfacet
  facet normal 0 0 1
    outer loop
      vertex -17.1176 -3.63845 -4.33013
      vertex -19.563 -4.15823 -4.33013
      vertex -18.2709 -8.13473 -4.33013
    endloop
  endfacet
  facet normal 0 0 1
    outer loop
      vertex -17.5 0 -4.33013
      vertex -20 0 -4.33013
      vertex -19.563 -4.15823 -4.33013
    endloop
  endfacet
  facet normal -0.866026 -0.5 0
    outer loop
      vertex 2.74064 1.22021 -5
      vertex 2.42705 1.76336 5
      vertex 2.42705 1.76336 -5
    endloop
  endfacet
  facet normal -0.866026 -0.5 0
    outer loop
      vertex 2.42705 1.76336 5
      vertex 2.74064 1.22021 -5
      vertex 2.74064 1.22021 5
    endloop
  endfacet
  facet normal 0.994522 -0.104529 0
    outer loop
      vertex -3 0 5
      vertex -2.93444 0.623734 -5
      vertex -2.93444 0.623734 5
    endloop
  endfacet
  facet normal 0.994522 -0.104529 0
    outer loop
      vertex -2.93444 0.623734 -5
      vertex -3 0 5
      vertex -3 0 -5
    endloop
  endfacet
  facet normal -0.743144 -0.669131 0
    outer loop
      vertex 2.42705 1.76336 -5
      vertex 2.00739 2.22943 5
      vertex 2.00739 2.22943 -5
    endloop
  endfacet
  facet normal -0.743144 -0.669131 0
    outer loop
      vertex 2.00739 2.22943 5
      vertex 2.42705 1.76336 -5
      vertex 2.42705 1.76336 5
    endloop
  endfacet
  facet normal -0.207911 -0.978148 0
    outer loop
      vertex 0.313585 2.98357 -5
      vertex 0.927051 2.85317 5
      vertex 0.313585 2.98357 5
    endloop
  endfacet
  facet normal -0.207911 -0.978148 -0
    outer loop
      vertex 0.927051 2.85317 5
      vertex 0.313585 2.98357 -5
      vertex 0.927051 2.85317 -5
    endloop
  endfacet
  facet normal 0.406737 -0.913545 0
    outer loop
      vertex -1.5 2.59808 -5
      vertex -0.927051 2.85317 5
      vertex -1.5 2.59808 5
    endloop
  endfacet
  facet normal 0.406737 -0.913545 0
    outer loop
      vertex -0.927051 2.85317 5
      vertex -1.5 2.59808 -5
      vertex -0.927051 2.85317 -5
    endloop
  endfacet
  facet normal 0.951056 -0.309017 0
    outer loop
      vertex -2.93444 0.623734 5
      vertex -2.74064 1.22021 -5
      vertex -2.74064 1.22021 5
    endloop
  endfacet
  facet normal 0.951056 -0.309017 0
    outer loop
      vertex -2.74064 1.22021 -5
      vertex -2.93444 0.623734 5
      vertex -2.93444 0.623734 -5
    endloop
  endfacet
  facet normal -0.994522 0.104529 0
    outer loop
      vertex 2.93444 -0.623734 -5
      vertex 3 0 5
      vertex 3 0 -5
    endloop
  endfacet
  facet normal -0.994522 0.104529 0
    outer loop
      vertex 3 0 5
      vertex 2.93444 -0.623734 -5
      vertex 2.93444 -0.623734 5
    endloop
  endfacet
  facet normal -0.951056 -0.309017 0
    outer loop
      vertex 2.93444 0.623734 -5
      vertex 2.74064 1.22021 5
      vertex 2.74064 1.22021 -5
    endloop
  endfacet
  facet normal -0.951056 -0.309017 0
    outer loop
      vertex 2.74064 1.22021 5
      vertex 2.93444 0.623734 -5
      vertex 2.93444 0.623734 5
    endloop
  endfacet
  facet normal -0.587786 -0.809016 0
    outer loop
      vertex 1.5 2.59808 -5
      vertex 2.00739 2.22943 5
      vertex 1.5 2.59808 5
    endloop
  endfacet
  facet normal -0.587786 -0.809016 -0
    outer loop
      vertex 2.00739 2.22943 5
      vertex 1.5 2.59808 -5
      vertex 2.00739 2.22943 -5
    endloop
  endfacet
  facet normal 0 -1 0
    outer loop
      vertex -0.313585 2.98357 -5
      vertex 0.313585 2.98357 5
      vertex -0.313585 2.98357 5
    endloop
  endfacet
  facet normal 0 -1 -0
    outer loop
      vertex 0.313585 2.98357 5
      vertex -0.313585 2.98357 -5
      vertex 0.313585 2.98357 -5
    endloop
  endfacet
  facet normal -0.406737 -0.913545 0
    outer loop
      vertex 0.927051 2.85317 -5
      vertex 1.5 2.59808 5
      vertex 0.927051 2.85317 5
    endloop
  endfacet
  facet normal -0.406737 -0.913545 -0
    outer loop
      vertex 1.5 2.59808 5
      vertex 0.927051 2.85317 -5
      vertex 1.5 2.59808 -5
    endloop
  endfacet
  facet normal 0.866026 -0.5 0
    outer loop
      vertex -2.74064 1.22021 5
      vertex -2.42705 1.76336 -5
      vertex -2.42705 1.76336 5
    endloop
  endfacet
  facet normal 0.866026 -0.5 0
    outer loop
      vertex -2.42705 1.76336 -5
      vertex -2.74064 1.22021 5
      vertex -2.74064 1.22021 -5
    endloop
  endfacet
  facet normal 0.587785 -0.809017 0
    outer loop
      vertex -2.00739 2.22943 -5
      vertex -1.5 2.59808 5
      vertex -2.00739 2.22943 5
    endloop
  endfacet
  facet normal 0.587785 -0.809017 0
    outer loop
      vertex -1.5 2.59808 5
      vertex -2.00739 2.22943 -5
      vertex -1.5 2.59808 -5
    endloop
  endfacet
  facet normal 0.207911 -0.978148 0
    outer loop
      vertex -0.927051 2.85317 -5
      vertex -0.313585 2.98357 5
      vertex -0.927051 2.85317 5
    endloop
  endfacet
  facet normal 0.207911 -0.978148 0
    outer loop
      vertex -0.313585 2.98357 5
      vertex -0.927051 2.85317 -5
      vertex -0.313585 2.98357 -5
    endloop
  endfacet
  facet normal 0.743144 -0.669131 0
    outer loop
      vertex -2.42705 1.76336 5
      vertex -2.00739 2.22943 -5
      vertex -2.00739 2.22943 5
    endloop
  endfacet
  facet normal 0.743144 -0.669131 0
    outer loop
      vertex -2.00739 2.22943 -5
      vertex -2.42705 1.76336 5
      vertex -2.42705 1.76336 -5
    endloop
  endfacet
  facet normal -0.994522 -0.104529 0
    outer loop
      vertex 3 0 -5
      vertex 2.93444 0.623734 5
      vertex 2.93444 0.623734 -5
    endloop
  endfacet
  facet normal -0.994522 -0.104529 0
    outer loop
      vertex 2.93444 0.623734 5
      vertex 3 0 -5
      vertex 3 0 5
    endloop
  endfacet
  facet normal 0.994522 0.104529 0
    outer loop
      vertex -2.93444 -0.623734 5
      vertex -3 0 -5
      vertex -3 0 5
    endloop
  endfacet
  facet normal 0.994522 0.104529 0
    outer loop
      vertex -3 0 -5
      vertex -2.93444 -0.623734 5
      vertex -2.93444 -0.623734 -5
    endloop
  endfacet
  facet normal -0.587786 0.809016 0
    outer loop
      vertex 2.00739 -2.22943 -5
      vertex 1.5 -2.59808 5
      vertex 2.00739 -2.22943 5
    endloop
  endfacet
  facet normal -0.587786 0.809016 0
    outer loop
      vertex 1.5 -2.59808 5
      vertex 2.00739 -2.22943 -5
      vertex 1.5 -2.59808 -5
    endloop
  endfacet
  facet normal -0.866026 0.5 0
    outer loop
      vertex 2.42705 -1.76336 -5
      vertex 2.74064 -1.22021 5
      vertex 2.74064 -1.22021 -5
    endloop
  endfacet
  facet normal -0.866026 0.5 0
    outer loop
      vertex 2.74064 -1.22021 5
      vertex 2.42705 -1.76336 -5
      vertex 2.42705 -1.76336 5
    endloop
  endfacet
  facet normal 0 1 -0
    outer loop
      vertex 0.313585 -2.98357 -5
      vertex -0.313585 -2.98357 5
      vertex 0.313585 -2.98357 5
    endloop
  endfacet
  facet normal 0 1 0
    outer loop
      vertex -0.313585 -2.98357 5
      vertex 0.313585 -2.98357 -5
      vertex -0.313585 -2.98357 -5
    endloop
  endfacet
  facet normal -0.207911 0.978148 0
    outer loop
      vertex 0.927051 -2.85317 -5
      vertex 0.313585 -2.98357 5
      vertex 0.927051 -2.85317 5
    endloop
  endfacet
  facet normal -0.207911 0.978148 0
    outer loop
      vertex 0.313585 -2.98357 5
      vertex 0.927051 -2.85317 -5
      vertex 0.313585 -2.98357 -5
    endloop
  endfacet
  facet normal -0.406737 0.913545 0
    outer loop
      vertex 1.5 -2.59808 -5
      vertex 0.927051 -2.85317 5
      vertex 1.5 -2.59808 5
    endloop
  endfacet
  facet normal -0.406737 0.913545 0
    outer loop
      vertex 0.927051 -2.85317 5
      vertex 1.5 -2.59808 -5
      vertex 0.927051 -2.85317 -5
    endloop
  endfacet
  facet normal -0.951056 0.309017 0
    outer loop
      vertex 2.74064 -1.22021 -5
      vertex 2.93444 -0.623734 5
      vertex 2.93444 -0.623734 -5
    endloop
  endfacet
  facet normal -0.951056 0.309017 0
    outer loop
      vertex 2.93444 -0.623734 5
      vertex 2.74064 -1.22021 -5
      vertex 2.74064 -1.22021 5
    endloop
  endfacet
  facet normal 0.866026 0.5 0
    outer loop
      vertex -2.42705 -1.76336 5
      vertex -2.74064 -1.22021 -5
      vertex -2.74064 -1.22021 5
    endloop
  endfacet
  facet normal 0.866026 0.5 0
    outer loop
      vertex -2.74064 -1.22021 -5
      vertex -2.42705 -1.76336 5
      vertex -2.42705 -1.76336 -5
    endloop
  endfacet
  facet normal 0.951056 0.309017 0
    outer loop
      vertex -2.74064 -1.22021 5
      vertex -2.93444 -0.623734 -5
      vertex -2.93444 -0.623734 5
    endloop
  endfacet
  facet normal 0.951056 0.309017 0
    outer loop
      vertex -2.93444 -0.623734 -5
      vertex -2.74064 -1.22021 5
      vertex -2.74064 -1.22021 -5
    endloop
  endfacet
  facet normal 0.743144 0.669131 0
    outer loop
      vertex -2.00739 -2.22943 5
      vertex -2.42705 -1.76336 -5
      vertex -2.42705 -1.76336 5
    endloop
  endfacet
  facet normal 0.743144 0.669131 0
    outer loop
      vertex -2.42705 -1.76336 -5
      vertex -2.00739 -2.22943 5
      vertex -2.00739 -2.22943 -5
    endloop
  endfacet
  facet normal 0.207911 0.978148 -0
    outer loop
      vertex -0.313585 -2.98357 -5
      vertex -0.927051 -2.85317 5
      vertex -0.313585 -2.98357 5
    endloop
  endfacet
  facet normal 0.207911 0.978148 0
    outer loop
      vertex -0.927051 -2.85317 5
      vertex -0.313585 -2.98357 -5
      vertex -0.927051 -2.85317 -5
    endloop
  endfacet
  facet normal -0.743144 0.669131 0
    outer loop
      vertex 2.00739 -2.22943 -5
      vertex 2.42705 -1.76336 5
      vertex 2.42705 -1.76336 -5
    endloop
  endfacet
  facet normal -0.743144 0.669131 0
    outer loop
      vertex 2.42705 -1.76336 5
      vertex 2.00739 -2.22943 -5
      vertex 2.00739 -2.22943 5
    endloop
  endfacet
  facet normal 0.406737 0.913545 -0
    outer loop
      vertex -0.927051 -2.85317 -5
      vertex -1.5 -2.59808 5
      vertex -0.927051 -2.85317 5
    endloop
  endfacet
  facet normal 0.406737 0.913545 0
    outer loop
      vertex -1.5 -2.59808 5
      vertex -0.927051 -2.85317 -5
      vertex -1.5 -2.59808 -5
    endloop
  endfacet
  facet normal 0.587786 0.809016 -0
    outer loop
      vertex -1.5 -2.59808 -5
      vertex -2.00739 -2.22943 5
      vertex -1.5 -2.59808 5
    endloop
  endfacet
  facet normal 0.587786 0.809016 0
    outer loop
      vertex -2.00739 -2.22943 5
      vertex -1.5 -2.59808 -5
      vertex -2.00739 -2.22943 -5
    endloop
  endfacet
endsolid OpenSCAD_Model
