solid OpenSCAD_Model
  facet normal -1 0 0
    outer loop
      vertex -7 53 -53
      vertex -7 -6.5 -3
      vertex -7 53 7
    endloop
  endfacet
  facet normal -1 0 0
    outer loop
      vertex -7 -7 -53
      vertex -7 -6.5 -3
      vertex -7 53 -53
    endloop
  endfacet
  facet normal -1 -0 0
    outer loop
      vertex -7 -6.5 -3
      vertex -7 -7 -53
      vertex -7 -7 -3
    endloop
  endfacet
  facet normal -1 -0 0
    outer loop
      vertex -7 53 7
      vertex -7 -6.5 -3
      vertex -7 -6.5 7
    endloop
  endfacet
  facet normal 0 0 1
    outer loop
      vertex -11.4193 -23.9158 7
      vertex -15.7722 -15.9222 7
      vertex -12.2268 -26.4011 7
    endloop
  endfacet
  facet normal 0 0 1
    outer loop
      vertex -12.5 -29 7
      vertex -13.6472 -42.6472 7
      vertex -13.0778 -43.6334 7
    endloop
  endfacet
  facet normal 0 0 1
    outer loop
      vertex -16.7584 -15.3528 7
      vertex -12.2268 -26.4011 7
      vertex -15.7722 -15.9222 7
    endloop
  endfacet
  facet normal 0 0 1
    outer loop
      vertex -12.5 -29 7
      vertex -14.6334 -42.0778 7
      vertex -13.6472 -42.6472 7
    endloop
  endfacet
  facet normal 0 0 1
    outer loop
      vertex -12.2268 -26.4011 7
      vertex -16.7584 -15.3528 7
      vertex -12.5 -29 7
    endloop
  endfacet
  facet normal 0 0 1
    outer loop
      vertex -12.5 -29 7
      vertex -15.7722 -42.0778 7
      vertex -14.6334 -42.0778 7
    endloop
  endfacet
  facet normal 0 0 1
    outer loop
      vertex -16.7584 -42.6472 7
      vertex -12.5 -29 7
      vertex -16.7584 -15.3528 7
    endloop
  endfacet
  facet normal 0 0 1
    outer loop
      vertex -12.5 -29 7
      vertex -16.7584 -42.6472 7
      vertex -15.7722 -42.0778 7
    endloop
  endfacet
  facet normal 0 0 1
    outer loop
      vertex -17.3278 -14.3666 7
      vertex -16.7584 -42.6472 7
      vertex -16.7584 -15.3528 7
    endloop
  endfacet
  facet normal 0 0 1
    outer loop
      vertex -16.7584 -42.6472 7
      vertex -17.3278 -14.3666 7
      vertex -17.3278 -43.6334 7
    endloop
  endfacet
  facet normal -0 0 1
    outer loop
      vertex 16.7584 -15.3528 7
      vertex 17.3278 -43.6334 7
      vertex 17.3278 -14.3666 7
    endloop
  endfacet
  facet normal 0 0 1
    outer loop
      vertex 16.7584 -15.3528 7
      vertex 16.7584 -42.6472 7
      vertex 17.3278 -43.6334 7
    endloop
  endfacet
  facet normal 0 0 1
    outer loop
      vertex 12.2268 -26.4011 7
      vertex 16.7584 -15.3528 7
      vertex 15.7722 -15.9222 7
    endloop
  endfacet
  facet normal 0 0 1
    outer loop
      vertex 16.7584 -15.3528 7
      vertex 12.5 -29 7
      vertex 16.7584 -42.6472 7
    endloop
  endfacet
  facet normal 0 0 1
    outer loop
      vertex 11.4193 -23.9158 7
      vertex 15.7722 -15.9222 7
      vertex 14.6334 -15.9222 7
    endloop
  endfacet
  facet normal -0 0 1
    outer loop
      vertex 12.2268 -31.5989 7
      vertex 16.7584 -42.6472 7
      vertex 12.5 -29 7
    endloop
  endfacet
  facet normal 0 0 1
    outer loop
      vertex 10.1127 -21.6527 7
      vertex 14.6334 -15.9222 7
      vertex 13.6472 -15.3528 7
    endloop
  endfacet
  facet normal 0 0 1
    outer loop
      vertex 16.7584 -42.6472 7
      vertex 12.2268 -31.5989 7
      vertex 15.7722 -42.0778 7
    endloop
  endfacet
  facet normal 0 0 1
    outer loop
      vertex 8.36413 -19.7107 7
      vertex 13.6472 -15.3528 7
      vertex 13.0778 -14.3666 7
    endloop
  endfacet
  facet normal -0 0 1
    outer loop
      vertex 11.4193 -34.0842 7
      vertex 15.7722 -42.0778 7
      vertex 12.2268 -31.5989 7
    endloop
  endfacet
  facet normal 0 0 1
    outer loop
      vertex 53 53 7
      vertex 21.5 -7 7
      vertex 53 -7 7
    endloop
  endfacet
  facet normal 0 0 1
    outer loop
      vertex 17.3278 -14.3666 7
      vertex 21.5 -7 7
      vertex 17.3278 -13.2278 7
    endloop
  endfacet
  facet normal -0 0 1
    outer loop
      vertex -7 53 7
      vertex 21.5 -7 7
      vertex 53 53 7
    endloop
  endfacet
  facet normal 0 0 1
    outer loop
      vertex 21.5 -7 7
      vertex 16.7584 -12.2416 7
      vertex 17.3278 -13.2278 7
    endloop
  endfacet
  facet normal 0 0 1
    outer loop
      vertex 21.5 -7 7
      vertex 15.7722 -11.6722 7
      vertex 16.7584 -12.2416 7
    endloop
  endfacet
  facet normal -0 0 1
    outer loop
      vertex -7 -6.5 7
      vertex 21.5 -7 7
      vertex -7 53 7
    endloop
  endfacet
  facet normal 0 0 1
    outer loop
      vertex 21.5 -7 7
      vertex 14.6334 -11.6722 7
      vertex 15.7722 -11.6722 7
    endloop
  endfacet
  facet normal 0 0 1
    outer loop
      vertex 6.25 -18.1747 7
      vertex 13.0778 -14.3666 7
      vertex 13.0778 -13.2278 7
    endloop
  endfacet
  facet normal 0 0 1
    outer loop
      vertex 15.7722 -42.0778 7
      vertex 11.4193 -34.0842 7
      vertex 14.6334 -42.0778 7
    endloop
  endfacet
  facet normal -0 0 1
    outer loop
      vertex 10.1127 -36.3473 7
      vertex 14.6334 -42.0778 7
      vertex 11.4193 -34.0842 7
    endloop
  endfacet
  facet normal 0 0 1
    outer loop
      vertex 16.7584 -15.3528 7
      vertex 12.2268 -26.4011 7
      vertex 12.5 -29 7
    endloop
  endfacet
  facet normal 0 0 1
    outer loop
      vertex 15.7722 -15.9222 7
      vertex 11.4193 -23.9158 7
      vertex 12.2268 -26.4011 7
    endloop
  endfacet
  facet normal 0 0 1
    outer loop
      vertex 14.6334 -15.9222 7
      vertex 10.1127 -21.6527 7
      vertex 11.4193 -23.9158 7
    endloop
  endfacet
  facet normal 0 0 1
    outer loop
      vertex 13.6472 -15.3528 7
      vertex 8.36413 -19.7107 7
      vertex 10.1127 -21.6527 7
    endloop
  endfacet
  facet normal 0 0 1
    outer loop
      vertex 3.86271 -17.1118 7
      vertex 13.0778 -13.2278 7
      vertex 13.6472 -12.2416 7
    endloop
  endfacet
  facet normal 0 0 1
    outer loop
      vertex 21.5 -7 7
      vertex -7 -6.5 7
      vertex 14.6334 -11.6722 7
    endloop
  endfacet
  facet normal 0 0 1
    outer loop
      vertex 13.0778 -14.3666 7
      vertex 6.25 -18.1747 7
      vertex 8.36413 -19.7107 7
    endloop
  endfacet
  facet normal 0 -0 1
    outer loop
      vertex 1.30661 -16.5685 7
      vertex 13.6472 -12.2416 7
      vertex -7 -6.5 7
    endloop
  endfacet
  facet normal 0 0 1
    outer loop
      vertex 13.0778 -13.2278 7
      vertex 3.86271 -17.1118 7
      vertex 6.25 -18.1747 7
    endloop
  endfacet
  facet normal 0 0 1
    outer loop
      vertex 13.6472 -12.2416 7
      vertex 1.30661 -16.5685 7
      vertex 3.86271 -17.1118 7
    endloop
  endfacet
  facet normal 0 0 1
    outer loop
      vertex 1.30661 -16.5685 7
      vertex -7 -6.5 7
      vertex -1.30661 -16.5685 7
    endloop
  endfacet
  facet normal 0 0 1
    outer loop
      vertex -1.30661 -16.5685 7
      vertex -7 -6.5 7
      vertex -3.86271 -17.1118 7
    endloop
  endfacet
  facet normal 0 0 1
    outer loop
      vertex 14.6334 -11.6722 7
      vertex -7 -6.5 7
      vertex 13.6472 -12.2416 7
    endloop
  endfacet
  facet normal -0 0 1
    outer loop
      vertex -13.0778 -13.2278 7
      vertex -3.86271 -17.1118 7
      vertex -7 -6.5 7
    endloop
  endfacet
  facet normal 0 0 1
    outer loop
      vertex -3.86271 -17.1118 7
      vertex -13.0778 -13.2278 7
      vertex -6.25 -18.1747 7
    endloop
  endfacet
  facet normal -0 0 1
    outer loop
      vertex -13.0778 -14.3666 7
      vertex -6.25 -18.1747 7
      vertex -13.0778 -13.2278 7
    endloop
  endfacet
  facet normal -0 0 1
    outer loop
      vertex -13.6472 -15.3528 7
      vertex -8.36413 -19.7107 7
      vertex -13.0778 -14.3666 7
    endloop
  endfacet
  facet normal 0 0 1
    outer loop
      vertex -8.36413 -19.7107 7
      vertex -13.6472 -15.3528 7
      vertex -10.1127 -21.6527 7
    endloop
  endfacet
  facet normal -0 0 1
    outer loop
      vertex -14.6334 -15.9222 7
      vertex -10.1127 -21.6527 7
      vertex -13.6472 -15.3528 7
    endloop
  endfacet
  facet normal 0 0 1
    outer loop
      vertex -6.25 -18.1747 7
      vertex -13.0778 -14.3666 7
      vertex -8.36413 -19.7107 7
    endloop
  endfacet
  facet normal 0 0 1
    outer loop
      vertex -7 -6.5 7
      vertex -13.6472 -12.2416 7
      vertex -13.0778 -13.2278 7
    endloop
  endfacet
  facet normal 0 0 1
    outer loop
      vertex -7 -6.5 7
      vertex -14.6334 -11.6722 7
      vertex -13.6472 -12.2416 7
    endloop
  endfacet
  facet normal -0 0 1
    outer loop
      vertex -21.5 -6.5 7
      vertex -14.6334 -11.6722 7
      vertex -7 -6.5 7
    endloop
  endfacet
  facet normal 0 0 1
    outer loop
      vertex -14.6334 -11.6722 7
      vertex -21.5 -6.5 7
      vertex -15.7722 -11.6722 7
    endloop
  endfacet
  facet normal 0 0 1
    outer loop
      vertex -21.5 -6.5 7
      vertex -17.3278 -14.3666 7
      vertex -17.3278 -13.2278 7
    endloop
  endfacet
  facet normal 0 0 1
    outer loop
      vertex -17.3278 -14.3666 7
      vertex -21.5 -6.5 7
      vertex -17.3278 -43.6334 7
    endloop
  endfacet
  facet normal 0 0 1
    outer loop
      vertex -21.5 -51.5 7
      vertex -17.3278 -43.6334 7
      vertex -21.5 -6.5 7
    endloop
  endfacet
  facet normal 0 0 1
    outer loop
      vertex -16.7584 -12.2416 7
      vertex -21.5 -6.5 7
      vertex -17.3278 -13.2278 7
    endloop
  endfacet
  facet normal 0 0 1
    outer loop
      vertex -15.7722 -11.6722 7
      vertex -21.5 -6.5 7
      vertex -16.7584 -12.2416 7
    endloop
  endfacet
  facet normal 0 0 1
    outer loop
      vertex 17.3278 -43.6334 7
      vertex 21.5 -7 7
      vertex 17.3278 -14.3666 7
    endloop
  endfacet
  facet normal 0 0 1
    outer loop
      vertex 21.5 -7 7
      vertex 17.3278 -43.6334 7
      vertex 21.5 -51.5 7
    endloop
  endfacet
  facet normal -0 0 1
    outer loop
      vertex 17.3278 -44.7722 7
      vertex 21.5 -51.5 7
      vertex 17.3278 -43.6334 7
    endloop
  endfacet
  facet normal -0 0 1
    outer loop
      vertex 16.7584 -45.7584 7
      vertex 21.5 -51.5 7
      vertex 17.3278 -44.7722 7
    endloop
  endfacet
  facet normal -0 0 1
    outer loop
      vertex 15.7722 -46.3278 7
      vertex 21.5 -51.5 7
      vertex 16.7584 -45.7584 7
    endloop
  endfacet
  facet normal -0 0 1
    outer loop
      vertex 14.6334 -46.3278 7
      vertex 21.5 -51.5 7
      vertex 15.7722 -46.3278 7
    endloop
  endfacet
  facet normal 0 0 1
    outer loop
      vertex -14.6334 -46.3278 7
      vertex 14.6334 -46.3278 7
      vertex 13.6472 -45.7584 7
    endloop
  endfacet
  facet normal 0 0 1
    outer loop
      vertex 14.6334 -42.0778 7
      vertex 10.1127 -36.3473 7
      vertex 13.6472 -42.6472 7
    endloop
  endfacet
  facet normal -0 0 1
    outer loop
      vertex 8.36413 -38.2893 7
      vertex 13.6472 -42.6472 7
      vertex 10.1127 -36.3473 7
    endloop
  endfacet
  facet normal 0 0 1
    outer loop
      vertex 13.6472 -42.6472 7
      vertex 8.36413 -38.2893 7
      vertex 13.0778 -43.6334 7
    endloop
  endfacet
  facet normal -0 0 1
    outer loop
      vertex 6.25 -39.8253 7
      vertex 13.0778 -43.6334 7
      vertex 8.36413 -38.2893 7
    endloop
  endfacet
  facet normal 0 0 1
    outer loop
      vertex 13.0778 -43.6334 7
      vertex 6.25 -39.8253 7
      vertex 13.0778 -44.7722 7
    endloop
  endfacet
  facet normal -0 0 1
    outer loop
      vertex 3.86271 -40.8882 7
      vertex 13.0778 -44.7722 7
      vertex 6.25 -39.8253 7
    endloop
  endfacet
  facet normal 0 0 1
    outer loop
      vertex 13.0778 -44.7722 7
      vertex 3.86271 -40.8882 7
      vertex 13.6472 -45.7584 7
    endloop
  endfacet
  facet normal -0 0 1
    outer loop
      vertex 1.30661 -41.4315 7
      vertex 13.6472 -45.7584 7
      vertex 3.86271 -40.8882 7
    endloop
  endfacet
  facet normal 0 0 1
    outer loop
      vertex -13.6472 -45.7584 7
      vertex 13.6472 -45.7584 7
      vertex 1.30661 -41.4315 7
    endloop
  endfacet
  facet normal 0 0 1
    outer loop
      vertex -13.6472 -45.7584 7
      vertex 1.30661 -41.4315 7
      vertex -1.30661 -41.4315 7
    endloop
  endfacet
  facet normal 0 0 1
    outer loop
      vertex -13.6472 -45.7584 7
      vertex -1.30661 -41.4315 7
      vertex -3.86271 -40.8882 7
    endloop
  endfacet
  facet normal 0 0 1
    outer loop
      vertex -10.1127 -21.6527 7
      vertex -14.6334 -15.9222 7
      vertex -11.4193 -23.9158 7
    endloop
  endfacet
  facet normal -0 0 1
    outer loop
      vertex -15.7722 -15.9222 7
      vertex -11.4193 -23.9158 7
      vertex -14.6334 -15.9222 7
    endloop
  endfacet
  facet normal 0 0 1
    outer loop
      vertex -13.0778 -43.6334 7
      vertex -12.2268 -31.5989 7
      vertex -12.5 -29 7
    endloop
  endfacet
  facet normal 0 0 1
    outer loop
      vertex -13.0778 -43.6334 7
      vertex -11.4193 -34.0842 7
      vertex -12.2268 -31.5989 7
    endloop
  endfacet
  facet normal 0 0 1
    outer loop
      vertex -13.0778 -43.6334 7
      vertex -10.1127 -36.3473 7
      vertex -11.4193 -34.0842 7
    endloop
  endfacet
  facet normal 0 0 1
    outer loop
      vertex -13.0778 -43.6334 7
      vertex -8.36413 -38.2893 7
      vertex -10.1127 -36.3473 7
    endloop
  endfacet
  facet normal 0 0 1
    outer loop
      vertex -13.0778 -43.6334 7
      vertex -6.25 -39.8253 7
      vertex -8.36413 -38.2893 7
    endloop
  endfacet
  facet normal 0 0 1
    outer loop
      vertex -13.0778 -44.7722 7
      vertex -6.25 -39.8253 7
      vertex -13.0778 -43.6334 7
    endloop
  endfacet
  facet normal 0 0 1
    outer loop
      vertex -6.25 -39.8253 7
      vertex -13.0778 -44.7722 7
      vertex -3.86271 -40.8882 7
    endloop
  endfacet
  facet normal 0 0 1
    outer loop
      vertex -13.6472 -45.7584 7
      vertex -3.86271 -40.8882 7
      vertex -13.0778 -44.7722 7
    endloop
  endfacet
  facet normal 0 0 1
    outer loop
      vertex -14.6334 -46.3278 7
      vertex 13.6472 -45.7584 7
      vertex -13.6472 -45.7584 7
    endloop
  endfacet
  facet normal 0 0 1
    outer loop
      vertex 14.6334 -46.3278 7
      vertex -14.6334 -46.3278 7
      vertex 21.5 -51.5 7
    endloop
  endfacet
  facet normal 0 0 1
    outer loop
      vertex -21.5 -51.5 7
      vertex -14.6334 -46.3278 7
      vertex -15.7722 -46.3278 7
    endloop
  endfacet
  facet normal 0 0 1
    outer loop
      vertex -14.6334 -46.3278 7
      vertex -21.5 -51.5 7
      vertex 21.5 -51.5 7
    endloop
  endfacet
  facet normal 0 0 1
    outer loop
      vertex -16.7584 -45.7584 7
      vertex -21.5 -51.5 7
      vertex -15.7722 -46.3278 7
    endloop
  endfacet
  facet normal 0 0 1
    outer loop
      vertex -17.3278 -44.7722 7
      vertex -21.5 -51.5 7
      vertex -16.7584 -45.7584 7
    endloop
  endfacet
  facet normal 0 0 1
    outer loop
      vertex -17.3278 -43.6334 7
      vertex -21.5 -51.5 7
      vertex -17.3278 -44.7722 7
    endloop
  endfacet
  facet normal 1 0 0
    outer loop
      vertex 53 53 7
      vertex 53 0 0
      vertex 53 53 0
    endloop
  endfacet
  facet normal 1 -0 0
    outer loop
      vertex 53 -7 7
      vertex 53 0 0
      vertex 53 53 7
    endloop
  endfacet
  facet normal 1 0 0
    outer loop
      vertex 53 -7 -53
      vertex 53 0 0
      vertex 53 -7 7
    endloop
  endfacet
  facet normal 1 0 0
    outer loop
      vertex 53 0 0
      vertex 53 -7 -53
      vertex 53 0 -53
    endloop
  endfacet
  facet normal 0 1 0
    outer loop
      vertex 0 53 0
      vertex 53 53 7
      vertex 53 53 0
    endloop
  endfacet
  facet normal 0 1 0
    outer loop
      vertex 53 53 7
      vertex 0 53 0
      vertex -7 53 7
    endloop
  endfacet
  facet normal 0 1 0
    outer loop
      vertex -7 53 -53
      vertex 0 53 0
      vertex 0 53 -53
    endloop
  endfacet
  facet normal 0 1 0
    outer loop
      vertex 0 53 0
      vertex -7 53 -53
      vertex -7 53 7
    endloop
  endfacet
  facet normal 0 0 -1
    outer loop
      vertex 53 -7 -53
      vertex 0 0 -53
      vertex 53 0 -53
    endloop
  endfacet
  facet normal 0 0 -1
    outer loop
      vertex -7 -7 -53
      vertex 0 0 -53
      vertex 53 -7 -53
    endloop
  endfacet
  facet normal 0 0 -1
    outer loop
      vertex -7 53 -53
      vertex 0 0 -53
      vertex -7 -7 -53
    endloop
  endfacet
  facet normal 0 0 -1
    outer loop
      vertex 0 0 -53
      vertex -7 53 -53
      vertex 0 53 -53
    endloop
  endfacet
  facet normal 0 -1 0
    outer loop
      vertex -7 -7 -53
      vertex 21.5 -7 -3
      vertex -7 -7 -3
    endloop
  endfacet
  facet normal 0 -1 0
    outer loop
      vertex 53 -7 -53
      vertex 31.4525 -7 -5
      vertex -7 -7 -53
    endloop
  endfacet
  facet normal 0 -1 -0
    outer loop
      vertex 21.5 -7 -3
      vertex -7 -7 -53
      vertex 31.4525 -7 -5
    endloop
  endfacet
  facet normal 0 -1 0
    outer loop
      vertex 21.5 -7 7
      vertex 31.4525 -7 5
      vertex 53 -7 7
    endloop
  endfacet
  facet normal 0 -1 0
    outer loop
      vertex 21.5 -7 -3
      vertex 31.4525 -7 5
      vertex 21.5 -7 7
    endloop
  endfacet
  facet normal 0 -1 -0
    outer loop
      vertex 31.4525 -7 5
      vertex 21.5 -7 -3
      vertex 31.4525 -7 -5
    endloop
  endfacet
  facet normal 0 -1 0
    outer loop
      vertex 48.5475 -7 5
      vertex 53 -7 7
      vertex 31.4525 -7 5
    endloop
  endfacet
  facet normal 0 -1 0
    outer loop
      vertex 48.5475 -7 -5
      vertex 53 -7 7
      vertex 48.5475 -7 5
    endloop
  endfacet
  facet normal 0 -1 0
    outer loop
      vertex 48.5475 -7 -5
      vertex 53 -7 -53
      vertex 53 -7 7
    endloop
  endfacet
  facet normal 0 -1 0
    outer loop
      vertex 31.4525 -7 -5
      vertex 53 -7 -53
      vertex 48.5475 -7 -5
    endloop
  endfacet
  facet normal 1 -0 0
    outer loop
      vertex 0 0 0
      vertex 0 53 -53
      vertex 0 53 0
    endloop
  endfacet
  facet normal 1 0 0
    outer loop
      vertex 0 53 -53
      vertex 0 0 0
      vertex 0 0 -53
    endloop
  endfacet
  facet normal 0 0 -1
    outer loop
      vertex 45.5 11.5 0
      vertex 53 0 0
      vertex 45.5 5.5 0
    endloop
  endfacet
  facet normal 0 0 -1
    outer loop
      vertex 53 0 0
      vertex 12.3571 5.5 0
      vertex 45.5 5.5 0
    endloop
  endfacet
  facet normal 0 0 -1
    outer loop
      vertex 0 53 0
      vertex 5.5 12.3571 0
      vertex 0 0 0
    endloop
  endfacet
  facet normal -0 0 -1
    outer loop
      vertex 12.3571 5.5 0
      vertex 0 0 0
      vertex 5.5 12.3571 0
    endloop
  endfacet
  facet normal 0 0 -1
    outer loop
      vertex 0 0 0
      vertex 12.3571 5.5 0
      vertex 53 0 0
    endloop
  endfacet
  facet normal 0 0 -1
    outer loop
      vertex 53 0 0
      vertex 45.5 11.5 0
      vertex 53 53 0
    endloop
  endfacet
  facet normal 0 0 -1
    outer loop
      vertex 11.5 45.5 0
      vertex 45.5 11.5 0
      vertex 11.5 11.5 0
    endloop
  endfacet
  facet normal 0 0 -1
    outer loop
      vertex 45.5 11.5 0
      vertex 11.5 45.5 0
      vertex 53 53 0
    endloop
  endfacet
  facet normal 0 0 -1
    outer loop
      vertex 0 53 0
      vertex 11.5 45.5 0
      vertex 5.5 45.5 0
    endloop
  endfacet
  facet normal 0 0 -1
    outer loop
      vertex 11.5 45.5 0
      vertex 0 53 0
      vertex 53 53 0
    endloop
  endfacet
  facet normal 0 0 -1
    outer loop
      vertex 5.5 12.3571 0
      vertex 0 53 0
      vertex 5.5 45.5 0
    endloop
  endfacet
  facet normal 0 1 -0
    outer loop
      vertex 53 0 -53
      vertex 0 0 0
      vertex 53 0 0
    endloop
  endfacet
  facet normal 0 1 0
    outer loop
      vertex 0 0 0
      vertex 53 0 -53
      vertex 0 0 -53
    endloop
  endfacet
  facet normal -1 0 0
    outer loop
      vertex 5.5 12.3571 -40
      vertex 5.5 45.5 0
      vertex 5.5 45.5 -40
    endloop
  endfacet
  facet normal -1 -0 0
    outer loop
      vertex 5.5 45.5 0
      vertex 5.5 12.3571 -40
      vertex 5.5 12.3571 0
    endloop
  endfacet
  facet normal 1 -0 0
    outer loop
      vertex 45.5 5.5 0
      vertex 45.5 11.5 -40
      vertex 45.5 11.5 0
    endloop
  endfacet
  facet normal 1 0 0
    outer loop
      vertex 45.5 11.5 -40
      vertex 45.5 5.5 0
      vertex 45.5 5.5 -40
    endloop
  endfacet
  facet normal 0 0 -1
    outer loop
      vertex 12.3571 5.5 -40
      vertex 45.5 11.5 -40
      vertex 45.5 5.5 -40
    endloop
  endfacet
  facet normal 0 0 -1
    outer loop
      vertex 12.3571 5.5 -40
      vertex 11.5 11.5 -40
      vertex 45.5 11.5 -40
    endloop
  endfacet
  facet normal 0 0 -1
    outer loop
      vertex 5.5 12.3571 -40
      vertex 11.5 11.5 -40
      vertex 12.3571 5.5 -40
    endloop
  endfacet
  facet normal 0 0 -1
    outer loop
      vertex 5.5 12.3571 -40
      vertex 11.5 45.5 -40
      vertex 11.5 11.5 -40
    endloop
  endfacet
  facet normal -0 0 -1
    outer loop
      vertex 11.5 45.5 -40
      vertex 5.5 12.3571 -40
      vertex 5.5 45.5 -40
    endloop
  endfacet
  facet normal 0 -1 0
    outer loop
      vertex 12.3571 5.5 -40
      vertex 45.5 5.5 0
      vertex 12.3571 5.5 0
    endloop
  endfacet
  facet normal 0 -1 -0
    outer loop
      vertex 45.5 5.5 0
      vertex 12.3571 5.5 -40
      vertex 45.5 5.5 -40
    endloop
  endfacet
  facet normal 0 1 -0
    outer loop
      vertex 11.5 45.5 -40
      vertex 5.5 45.5 0
      vertex 11.5 45.5 0
    endloop
  endfacet
  facet normal 0 1 0
    outer loop
      vertex 5.5 45.5 0
      vertex 11.5 45.5 -40
      vertex 5.5 45.5 -40
    endloop
  endfacet
  facet normal 1 -0 0
    outer loop
      vertex 11.5 11.5 0
      vertex 11.5 45.5 -40
      vertex 11.5 45.5 0
    endloop
  endfacet
  facet normal 1 0 0
    outer loop
      vertex 11.5 45.5 -40
      vertex 11.5 11.5 0
      vertex 11.5 11.5 -40
    endloop
  endfacet
  facet normal 0 1 -0
    outer loop
      vertex 45.5 11.5 -40
      vertex 11.5 11.5 0
      vertex 45.5 11.5 0
    endloop
  endfacet
  facet normal 0 1 0
    outer loop
      vertex 11.5 11.5 0
      vertex 45.5 11.5 -40
      vertex 11.5 11.5 -40
    endloop
  endfacet
  facet normal -0.707107 -0.707107 0
    outer loop
      vertex 12.3571 5.5 -40
      vertex 5.5 12.3571 0
      vertex 5.5 12.3571 -40
    endloop
  endfacet
  facet normal -0.707107 -0.707107 0
    outer loop
      vertex 5.5 12.3571 0
      vertex 12.3571 5.5 -40
      vertex 12.3571 5.5 0
    endloop
  endfacet
  facet normal -0.5 -0.866026 0
    outer loop
      vertex 15.7722 -11.6722 -3
      vertex 16.7584 -12.2416 7
      vertex 15.7722 -11.6722 7
    endloop
  endfacet
  facet normal -0.5 -0.866026 -0
    outer loop
      vertex 16.7584 -12.2416 7
      vertex 15.7722 -11.6722 -3
      vertex 16.7584 -12.2416 -3
    endloop
  endfacet
  facet normal 0.866026 -0.5 0
    outer loop
      vertex 13.0778 -13.2278 7
      vertex 13.6472 -12.2416 -3
      vertex 13.6472 -12.2416 7
    endloop
  endfacet
  facet normal 0.866026 -0.5 0
    outer loop
      vertex 13.6472 -12.2416 -3
      vertex 13.0778 -13.2278 7
      vertex 13.0778 -13.2278 -3
    endloop
  endfacet
  facet normal 0.5 -0.866025 0
    outer loop
      vertex 13.6472 -12.2416 -3
      vertex 14.6334 -11.6722 7
      vertex 13.6472 -12.2416 7
    endloop
  endfacet
  facet normal 0.5 -0.866025 0
    outer loop
      vertex 14.6334 -11.6722 7
      vertex 13.6472 -12.2416 -3
      vertex 14.6334 -11.6722 -3
    endloop
  endfacet
  facet normal 0 -1 0
    outer loop
      vertex 14.6334 -11.6722 -3
      vertex 15.7722 -11.6722 7
      vertex 14.6334 -11.6722 7
    endloop
  endfacet
  facet normal 0 -1 -0
    outer loop
      vertex 15.7722 -11.6722 7
      vertex 14.6334 -11.6722 -3
      vertex 15.7722 -11.6722 -3
    endloop
  endfacet
  facet normal 1 -0 0
    outer loop
      vertex 13.0778 -14.3666 7
      vertex 13.0778 -13.2278 -3
      vertex 13.0778 -13.2278 7
    endloop
  endfacet
  facet normal 1 0 0
    outer loop
      vertex 13.0778 -13.2278 -3
      vertex 13.0778 -14.3666 7
      vertex 13.0778 -14.3666 -3
    endloop
  endfacet
  facet normal 0.5 0.866025 -0
    outer loop
      vertex 14.6334 -15.9222 -3
      vertex 13.6472 -15.3528 7
      vertex 14.6334 -15.9222 7
    endloop
  endfacet
  facet normal 0.5 0.866025 0
    outer loop
      vertex 13.6472 -15.3528 7
      vertex 14.6334 -15.9222 -3
      vertex 13.6472 -15.3528 -3
    endloop
  endfacet
  facet normal 0.866025 0.5 0
    outer loop
      vertex 13.6472 -15.3528 7
      vertex 13.0778 -14.3666 -3
      vertex 13.0778 -14.3666 7
    endloop
  endfacet
  facet normal 0.866025 0.5 0
    outer loop
      vertex 13.0778 -14.3666 -3
      vertex 13.6472 -15.3528 7
      vertex 13.6472 -15.3528 -3
    endloop
  endfacet
  facet normal -0.866026 -0.499999 0
    outer loop
      vertex 17.3278 -13.2278 -3
      vertex 16.7584 -12.2416 7
      vertex 16.7584 -12.2416 -3
    endloop
  endfacet
  facet normal -0.866026 -0.499999 0
    outer loop
      vertex 16.7584 -12.2416 7
      vertex 17.3278 -13.2278 -3
      vertex 17.3278 -13.2278 7
    endloop
  endfacet
  facet normal 0 1 -0
    outer loop
      vertex 15.7722 -15.9222 -3
      vertex 14.6334 -15.9222 7
      vertex 15.7722 -15.9222 7
    endloop
  endfacet
  facet normal 0 1 0
    outer loop
      vertex 14.6334 -15.9222 7
      vertex 15.7722 -15.9222 -3
      vertex 14.6334 -15.9222 -3
    endloop
  endfacet
  facet normal -0.866026 0.499999 0
    outer loop
      vertex 16.7584 -15.3528 -3
      vertex 17.3278 -14.3666 7
      vertex 17.3278 -14.3666 -3
    endloop
  endfacet
  facet normal -0.866026 0.499999 0
    outer loop
      vertex 17.3278 -14.3666 7
      vertex 16.7584 -15.3528 -3
      vertex 16.7584 -15.3528 7
    endloop
  endfacet
  facet normal -1 0 0
    outer loop
      vertex 17.3278 -14.3666 -3
      vertex 17.3278 -13.2278 7
      vertex 17.3278 -13.2278 -3
    endloop
  endfacet
  facet normal -1 -0 0
    outer loop
      vertex 17.3278 -13.2278 7
      vertex 17.3278 -14.3666 -3
      vertex 17.3278 -14.3666 7
    endloop
  endfacet
  facet normal -0.5 0.866026 0
    outer loop
      vertex 16.7584 -15.3528 -3
      vertex 15.7722 -15.9222 7
      vertex 16.7584 -15.3528 7
    endloop
  endfacet
  facet normal -0.5 0.866026 0
    outer loop
      vertex 15.7722 -15.9222 7
      vertex 16.7584 -15.3528 -3
      vertex 15.7722 -15.9222 -3
    endloop
  endfacet
  facet normal 0.866026 -0.499999 0
    outer loop
      vertex -17.3278 -13.2278 7
      vertex -16.7584 -12.2416 -3
      vertex -16.7584 -12.2416 7
    endloop
  endfacet
  facet normal 0.866026 -0.499999 0
    outer loop
      vertex -16.7584 -12.2416 -3
      vertex -17.3278 -13.2278 7
      vertex -17.3278 -13.2278 -3
    endloop
  endfacet
  facet normal 1 -0 0
    outer loop
      vertex -17.3278 -14.3666 7
      vertex -17.3278 -13.2278 -3
      vertex -17.3278 -13.2278 7
    endloop
  endfacet
  facet normal 1 0 0
    outer loop
      vertex -17.3278 -13.2278 -3
      vertex -17.3278 -14.3666 7
      vertex -17.3278 -14.3666 -3
    endloop
  endfacet
  facet normal 0.5 0.866026 -0
    outer loop
      vertex -15.7722 -15.9222 -3
      vertex -16.7584 -15.3528 7
      vertex -15.7722 -15.9222 7
    endloop
  endfacet
  facet normal 0.5 0.866026 0
    outer loop
      vertex -16.7584 -15.3528 7
      vertex -15.7722 -15.9222 -3
      vertex -16.7584 -15.3528 -3
    endloop
  endfacet
  facet normal 0 1 -0
    outer loop
      vertex -14.6334 -15.9222 -3
      vertex -15.7722 -15.9222 7
      vertex -14.6334 -15.9222 7
    endloop
  endfacet
  facet normal 0 1 0
    outer loop
      vertex -15.7722 -15.9222 7
      vertex -14.6334 -15.9222 -3
      vertex -15.7722 -15.9222 -3
    endloop
  endfacet
  facet normal -0.866025 0.5 0
    outer loop
      vertex -13.6472 -15.3528 -3
      vertex -13.0778 -14.3666 7
      vertex -13.0778 -14.3666 -3
    endloop
  endfacet
  facet normal -0.866025 0.5 0
    outer loop
      vertex -13.0778 -14.3666 7
      vertex -13.6472 -15.3528 -3
      vertex -13.6472 -15.3528 7
    endloop
  endfacet
  facet normal 0.5 -0.866026 0
    outer loop
      vertex -16.7584 -12.2416 -3
      vertex -15.7722 -11.6722 7
      vertex -16.7584 -12.2416 7
    endloop
  endfacet
  facet normal 0.5 -0.866026 0
    outer loop
      vertex -15.7722 -11.6722 7
      vertex -16.7584 -12.2416 -3
      vertex -15.7722 -11.6722 -3
    endloop
  endfacet
  facet normal -1 0 0
    outer loop
      vertex -13.0778 -14.3666 -3
      vertex -13.0778 -13.2278 7
      vertex -13.0778 -13.2278 -3
    endloop
  endfacet
  facet normal -1 -0 0
    outer loop
      vertex -13.0778 -13.2278 7
      vertex -13.0778 -14.3666 -3
      vertex -13.0778 -14.3666 7
    endloop
  endfacet
  facet normal -0.5 -0.866025 0
    outer loop
      vertex -14.6334 -11.6722 -3
      vertex -13.6472 -12.2416 7
      vertex -14.6334 -11.6722 7
    endloop
  endfacet
  facet normal -0.5 -0.866025 -0
    outer loop
      vertex -13.6472 -12.2416 7
      vertex -14.6334 -11.6722 -3
      vertex -13.6472 -12.2416 -3
    endloop
  endfacet
  facet normal 0.866026 0.499999 0
    outer loop
      vertex -16.7584 -15.3528 7
      vertex -17.3278 -14.3666 -3
      vertex -17.3278 -14.3666 7
    endloop
  endfacet
  facet normal 0.866026 0.499999 0
    outer loop
      vertex -17.3278 -14.3666 -3
      vertex -16.7584 -15.3528 7
      vertex -16.7584 -15.3528 -3
    endloop
  endfacet
  facet normal -0.5 0.866025 0
    outer loop
      vertex -13.6472 -15.3528 -3
      vertex -14.6334 -15.9222 7
      vertex -13.6472 -15.3528 7
    endloop
  endfacet
  facet normal -0.5 0.866025 0
    outer loop
      vertex -14.6334 -15.9222 7
      vertex -13.6472 -15.3528 -3
      vertex -14.6334 -15.9222 -3
    endloop
  endfacet
  facet normal -0.866026 -0.5 0
    outer loop
      vertex -13.0778 -13.2278 -3
      vertex -13.6472 -12.2416 7
      vertex -13.6472 -12.2416 -3
    endloop
  endfacet
  facet normal -0.866026 -0.5 0
    outer loop
      vertex -13.6472 -12.2416 7
      vertex -13.0778 -13.2278 -3
      vertex -13.0778 -13.2278 7
    endloop
  endfacet
  facet normal 0 -1 0
    outer loop
      vertex -15.7722 -11.6722 -3
      vertex -14.6334 -11.6722 7
      vertex -15.7722 -11.6722 7
    endloop
  endfacet
  facet normal 0 -1 -0
    outer loop
      vertex -14.6334 -11.6722 7
      vertex -15.7722 -11.6722 -3
      vertex -14.6334 -11.6722 -3
    endloop
  endfacet
  facet normal 0.499999 0.866026 -0
    outer loop
      vertex -15.7722 -46.3278 -3
      vertex -16.7584 -45.7584 7
      vertex -15.7722 -46.3278 7
    endloop
  endfacet
  facet normal 0.499999 0.866026 0
    outer loop
      vertex -16.7584 -45.7584 7
      vertex -15.7722 -46.3278 -3
      vertex -16.7584 -45.7584 -3
    endloop
  endfacet
  facet normal -0.499999 -0.866026 0
    outer loop
      vertex -14.6334 -42.0778 -3
      vertex -13.6472 -42.6472 7
      vertex -14.6334 -42.0778 7
    endloop
  endfacet
  facet normal -0.499999 -0.866026 -0
    outer loop
      vertex -13.6472 -42.6472 7
      vertex -14.6334 -42.0778 -3
      vertex -13.6472 -42.6472 -3
    endloop
  endfacet
  facet normal 0 -1 0
    outer loop
      vertex -15.7722 -42.0778 -3
      vertex -14.6334 -42.0778 7
      vertex -15.7722 -42.0778 7
    endloop
  endfacet
  facet normal 0 -1 -0
    outer loop
      vertex -14.6334 -42.0778 7
      vertex -15.7722 -42.0778 -3
      vertex -14.6334 -42.0778 -3
    endloop
  endfacet
  facet normal 0.866026 0.499999 0
    outer loop
      vertex -16.7584 -45.7584 7
      vertex -17.3278 -44.7722 -3
      vertex -17.3278 -44.7722 7
    endloop
  endfacet
  facet normal 0.866026 0.499999 0
    outer loop
      vertex -17.3278 -44.7722 -3
      vertex -16.7584 -45.7584 7
      vertex -16.7584 -45.7584 -3
    endloop
  endfacet
  facet normal 0 1 -0
    outer loop
      vertex -14.6334 -46.3278 -3
      vertex -15.7722 -46.3278 7
      vertex -14.6334 -46.3278 7
    endloop
  endfacet
  facet normal 0 1 0
    outer loop
      vertex -15.7722 -46.3278 7
      vertex -14.6334 -46.3278 -3
      vertex -15.7722 -46.3278 -3
    endloop
  endfacet
  facet normal -0.866025 0.5 0
    outer loop
      vertex -13.6472 -45.7584 -3
      vertex -13.0778 -44.7722 7
      vertex -13.0778 -44.7722 -3
    endloop
  endfacet
  facet normal -0.866025 0.5 0
    outer loop
      vertex -13.0778 -44.7722 7
      vertex -13.6472 -45.7584 -3
      vertex -13.6472 -45.7584 7
    endloop
  endfacet
  facet normal -1 0 0
    outer loop
      vertex -13.0778 -44.7722 -3
      vertex -13.0778 -43.6334 7
      vertex -13.0778 -43.6334 -3
    endloop
  endfacet
  facet normal -1 -0 0
    outer loop
      vertex -13.0778 -43.6334 7
      vertex -13.0778 -44.7722 -3
      vertex -13.0778 -44.7722 7
    endloop
  endfacet
  facet normal -0.866025 -0.5 0
    outer loop
      vertex -13.0778 -43.6334 -3
      vertex -13.6472 -42.6472 7
      vertex -13.6472 -42.6472 -3
    endloop
  endfacet
  facet normal -0.866025 -0.5 0
    outer loop
      vertex -13.6472 -42.6472 7
      vertex -13.0778 -43.6334 -3
      vertex -13.0778 -43.6334 7
    endloop
  endfacet
  facet normal 0.866026 -0.499999 0
    outer loop
      vertex -17.3278 -43.6334 7
      vertex -16.7584 -42.6472 -3
      vertex -16.7584 -42.6472 7
    endloop
  endfacet
  facet normal 0.866026 -0.499999 0
    outer loop
      vertex -16.7584 -42.6472 -3
      vertex -17.3278 -43.6334 7
      vertex -17.3278 -43.6334 -3
    endloop
  endfacet
  facet normal -0.499999 0.866026 0
    outer loop
      vertex -13.6472 -45.7584 -3
      vertex -14.6334 -46.3278 7
      vertex -13.6472 -45.7584 7
    endloop
  endfacet
  facet normal -0.499999 0.866026 0
    outer loop
      vertex -14.6334 -46.3278 7
      vertex -13.6472 -45.7584 -3
      vertex -14.6334 -46.3278 -3
    endloop
  endfacet
  facet normal 0.499999 -0.866026 0
    outer loop
      vertex -16.7584 -42.6472 -3
      vertex -15.7722 -42.0778 7
      vertex -16.7584 -42.6472 7
    endloop
  endfacet
  facet normal 0.499999 -0.866026 0
    outer loop
      vertex -15.7722 -42.0778 7
      vertex -16.7584 -42.6472 -3
      vertex -15.7722 -42.0778 -3
    endloop
  endfacet
  facet normal 1 -0 0
    outer loop
      vertex -17.3278 -44.7722 7
      vertex -17.3278 -43.6334 -3
      vertex -17.3278 -43.6334 7
    endloop
  endfacet
  facet normal 1 0 0
    outer loop
      vertex -17.3278 -43.6334 -3
      vertex -17.3278 -44.7722 7
      vertex -17.3278 -44.7722 -3
    endloop
  endfacet
  facet normal -0.866026 0.499999 0
    outer loop
      vertex 16.7584 -45.7584 -3
      vertex 17.3278 -44.7722 7
      vertex 17.3278 -44.7722 -3
    endloop
  endfacet
  facet normal -0.866026 0.499999 0
    outer loop
      vertex 17.3278 -44.7722 7
      vertex 16.7584 -45.7584 -3
      vertex 16.7584 -45.7584 7
    endloop
  endfacet
  facet normal 0.866025 -0.5 0
    outer loop
      vertex 13.0778 -43.6334 7
      vertex 13.6472 -42.6472 -3
      vertex 13.6472 -42.6472 7
    endloop
  endfacet
  facet normal 0.866025 -0.5 0
    outer loop
      vertex 13.6472 -42.6472 -3
      vertex 13.0778 -43.6334 7
      vertex 13.0778 -43.6334 -3
    endloop
  endfacet
  facet normal -0.499999 -0.866026 0
    outer loop
      vertex 15.7722 -42.0778 -3
      vertex 16.7584 -42.6472 7
      vertex 15.7722 -42.0778 7
    endloop
  endfacet
  facet normal -0.499999 -0.866026 -0
    outer loop
      vertex 16.7584 -42.6472 7
      vertex 15.7722 -42.0778 -3
      vertex 16.7584 -42.6472 -3
    endloop
  endfacet
  facet normal 1 -0 0
    outer loop
      vertex 13.0778 -44.7722 7
      vertex 13.0778 -43.6334 -3
      vertex 13.0778 -43.6334 7
    endloop
  endfacet
  facet normal 1 0 0
    outer loop
      vertex 13.0778 -43.6334 -3
      vertex 13.0778 -44.7722 7
      vertex 13.0778 -44.7722 -3
    endloop
  endfacet
  facet normal -0.499999 0.866026 0
    outer loop
      vertex 16.7584 -45.7584 -3
      vertex 15.7722 -46.3278 7
      vertex 16.7584 -45.7584 7
    endloop
  endfacet
  facet normal -0.499999 0.866026 0
    outer loop
      vertex 15.7722 -46.3278 7
      vertex 16.7584 -45.7584 -3
      vertex 15.7722 -46.3278 -3
    endloop
  endfacet
  facet normal -0.866026 -0.499999 0
    outer loop
      vertex 17.3278 -43.6334 -3
      vertex 16.7584 -42.6472 7
      vertex 16.7584 -42.6472 -3
    endloop
  endfacet
  facet normal -0.866026 -0.499999 0
    outer loop
      vertex 16.7584 -42.6472 7
      vertex 17.3278 -43.6334 -3
      vertex 17.3278 -43.6334 7
    endloop
  endfacet
  facet normal -1 0 0
    outer loop
      vertex 17.3278 -44.7722 -3
      vertex 17.3278 -43.6334 7
      vertex 17.3278 -43.6334 -3
    endloop
  endfacet
  facet normal -1 -0 0
    outer loop
      vertex 17.3278 -43.6334 7
      vertex 17.3278 -44.7722 -3
      vertex 17.3278 -44.7722 7
    endloop
  endfacet
  facet normal 0 -1 0
    outer loop
      vertex 14.6334 -42.0778 -3
      vertex 15.7722 -42.0778 7
      vertex 14.6334 -42.0778 7
    endloop
  endfacet
  facet normal 0 -1 -0
    outer loop
      vertex 15.7722 -42.0778 7
      vertex 14.6334 -42.0778 -3
      vertex 15.7722 -42.0778 -3
    endloop
  endfacet
  facet normal 0.499999 -0.866026 0
    outer loop
      vertex 13.6472 -42.6472 -3
      vertex 14.6334 -42.0778 7
      vertex 13.6472 -42.6472 7
    endloop
  endfacet
  facet normal 0.499999 -0.866026 0
    outer loop
      vertex 14.6334 -42.0778 7
      vertex 13.6472 -42.6472 -3
      vertex 14.6334 -42.0778 -3
    endloop
  endfacet
  facet normal 0.499999 0.866026 -0
    outer loop
      vertex 14.6334 -46.3278 -3
      vertex 13.6472 -45.7584 7
      vertex 14.6334 -46.3278 7
    endloop
  endfacet
  facet normal 0.499999 0.866026 0
    outer loop
      vertex 13.6472 -45.7584 7
      vertex 14.6334 -46.3278 -3
      vertex 13.6472 -45.7584 -3
    endloop
  endfacet
  facet normal 0 1 -0
    outer loop
      vertex 15.7722 -46.3278 -3
      vertex 14.6334 -46.3278 7
      vertex 15.7722 -46.3278 7
    endloop
  endfacet
  facet normal 0 1 0
    outer loop
      vertex 14.6334 -46.3278 7
      vertex 15.7722 -46.3278 -3
      vertex 14.6334 -46.3278 -3
    endloop
  endfacet
  facet normal 0.866025 0.5 0
    outer loop
      vertex 13.6472 -45.7584 7
      vertex 13.0778 -44.7722 -3
      vertex 13.0778 -44.7722 7
    endloop
  endfacet
  facet normal 0.866025 0.5 0
    outer loop
      vertex 13.0778 -44.7722 -3
      vertex 13.6472 -45.7584 7
      vertex 13.6472 -45.7584 -3
    endloop
  endfacet
  facet normal -1 0 0
    outer loop
      vertex -21.5 -51.5 -3
      vertex -21.5 -6.5 7
      vertex -21.5 -6.5 -3
    endloop
  endfacet
  facet normal -1 -0 0
    outer loop
      vertex -21.5 -6.5 7
      vertex -21.5 -51.5 -3
      vertex -21.5 -51.5 7
    endloop
  endfacet
  facet normal 1 -0 0
    outer loop
      vertex 21.5 -51.5 7
      vertex 21.5 -7 -3
      vertex 21.5 -7 7
    endloop
  endfacet
  facet normal 1 0 0
    outer loop
      vertex 21.5 -7 -3
      vertex 21.5 -51.5 7
      vertex 21.5 -51.5 -3
    endloop
  endfacet
  facet normal -0 0 -1
    outer loop
      vertex -11.4193 -34.0842 -3
      vertex -15.7722 -42.0778 -3
      vertex -12.2268 -31.5989 -3
    endloop
  endfacet
  facet normal 0 0 -1
    outer loop
      vertex -12.5 -29 -3
      vertex -13.6472 -15.3528 -3
      vertex -13.0778 -14.3666 -3
    endloop
  endfacet
  facet normal 0 0 -1
    outer loop
      vertex -16.7584 -42.6472 -3
      vertex -12.2268 -31.5989 -3
      vertex -15.7722 -42.0778 -3
    endloop
  endfacet
  facet normal 0 0 -1
    outer loop
      vertex -12.5 -29 -3
      vertex -14.6334 -15.9222 -3
      vertex -13.6472 -15.3528 -3
    endloop
  endfacet
  facet normal -0 0 -1
    outer loop
      vertex -12.2268 -31.5989 -3
      vertex -16.7584 -42.6472 -3
      vertex -12.5 -29 -3
    endloop
  endfacet
  facet normal 0 0 -1
    outer loop
      vertex -12.5 -29 -3
      vertex -15.7722 -15.9222 -3
      vertex -14.6334 -15.9222 -3
    endloop
  endfacet
  facet normal 0 0 -1
    outer loop
      vertex -16.7584 -15.3528 -3
      vertex -12.5 -29 -3
      vertex -16.7584 -42.6472 -3
    endloop
  endfacet
  facet normal 0 0 -1
    outer loop
      vertex -12.5 -29 -3
      vertex -16.7584 -15.3528 -3
      vertex -15.7722 -15.9222 -3
    endloop
  endfacet
  facet normal 0 0 -1
    outer loop
      vertex -17.3278 -43.6334 -3
      vertex -16.7584 -15.3528 -3
      vertex -16.7584 -42.6472 -3
    endloop
  endfacet
  facet normal -0 0 -1
    outer loop
      vertex -16.7584 -15.3528 -3
      vertex -17.3278 -43.6334 -3
      vertex -17.3278 -14.3666 -3
    endloop
  endfacet
  facet normal 0 0 -1
    outer loop
      vertex 16.7584 -42.6472 -3
      vertex 17.3278 -14.3666 -3
      vertex 17.3278 -43.6334 -3
    endloop
  endfacet
  facet normal 0 0 -1
    outer loop
      vertex 16.7584 -42.6472 -3
      vertex 16.7584 -15.3528 -3
      vertex 17.3278 -14.3666 -3
    endloop
  endfacet
  facet normal 0 0 -1
    outer loop
      vertex 12.2268 -31.5989 -3
      vertex 16.7584 -42.6472 -3
      vertex 15.7722 -42.0778 -3
    endloop
  endfacet
  facet normal 0 0 -1
    outer loop
      vertex 16.7584 -42.6472 -3
      vertex 12.5 -29 -3
      vertex 16.7584 -15.3528 -3
    endloop
  endfacet
  facet normal 0 0 -1
    outer loop
      vertex 11.4193 -34.0842 -3
      vertex 15.7722 -42.0778 -3
      vertex 14.6334 -42.0778 -3
    endloop
  endfacet
  facet normal 0 0 -1
    outer loop
      vertex 12.2268 -26.4011 -3
      vertex 16.7584 -15.3528 -3
      vertex 12.5 -29 -3
    endloop
  endfacet
  facet normal 0 0 -1
    outer loop
      vertex 10.1127 -36.3473 -3
      vertex 14.6334 -42.0778 -3
      vertex 13.6472 -42.6472 -3
    endloop
  endfacet
  facet normal 0 0 -1
    outer loop
      vertex 16.7584 -15.3528 -3
      vertex 12.2268 -26.4011 -3
      vertex 15.7722 -15.9222 -3
    endloop
  endfacet
  facet normal 0 0 -1
    outer loop
      vertex 8.36413 -38.2893 -3
      vertex 13.6472 -42.6472 -3
      vertex 13.0778 -43.6334 -3
    endloop
  endfacet
  facet normal 0 0 -1
    outer loop
      vertex 11.4193 -23.9158 -3
      vertex 15.7722 -15.9222 -3
      vertex 12.2268 -26.4011 -3
    endloop
  endfacet
  facet normal 0 0 -1
    outer loop
      vertex 17.3278 -43.6334 -3
      vertex 21.5 -51.5 -3
      vertex 17.3278 -44.7722 -3
    endloop
  endfacet
  facet normal 0 0 -1
    outer loop
      vertex 21.5 -51.5 -3
      vertex 16.7584 -45.7584 -3
      vertex 17.3278 -44.7722 -3
    endloop
  endfacet
  facet normal 0 0 -1
    outer loop
      vertex 21.5 -51.5 -3
      vertex 15.7722 -46.3278 -3
      vertex 16.7584 -45.7584 -3
    endloop
  endfacet
  facet normal 0 0 -1
    outer loop
      vertex 21.5 -51.5 -3
      vertex 14.6334 -46.3278 -3
      vertex 15.7722 -46.3278 -3
    endloop
  endfacet
  facet normal 0 0 -1
    outer loop
      vertex -14.6334 -46.3278 -3
      vertex 14.6334 -46.3278 -3
      vertex 21.5 -51.5 -3
    endloop
  endfacet
  facet normal 0 0 -1
    outer loop
      vertex 6.25 -39.8253 -3
      vertex 13.0778 -43.6334 -3
      vertex 13.0778 -44.7722 -3
    endloop
  endfacet
  facet normal -0 0 -1
    outer loop
      vertex 15.7722 -15.9222 -3
      vertex 11.4193 -23.9158 -3
      vertex 14.6334 -15.9222 -3
    endloop
  endfacet
  facet normal 0 0 -1
    outer loop
      vertex 10.1127 -21.6527 -3
      vertex 14.6334 -15.9222 -3
      vertex 11.4193 -23.9158 -3
    endloop
  endfacet
  facet normal 0 0 -1
    outer loop
      vertex 16.7584 -42.6472 -3
      vertex 12.2268 -31.5989 -3
      vertex 12.5 -29 -3
    endloop
  endfacet
  facet normal 0 0 -1
    outer loop
      vertex 15.7722 -42.0778 -3
      vertex 11.4193 -34.0842 -3
      vertex 12.2268 -31.5989 -3
    endloop
  endfacet
  facet normal 0 0 -1
    outer loop
      vertex 14.6334 -42.0778 -3
      vertex 10.1127 -36.3473 -3
      vertex 11.4193 -34.0842 -3
    endloop
  endfacet
  facet normal 0 0 -1
    outer loop
      vertex 13.6472 -42.6472 -3
      vertex 8.36413 -38.2893 -3
      vertex 10.1127 -36.3473 -3
    endloop
  endfacet
  facet normal 0 0 -1
    outer loop
      vertex 3.86271 -40.8882 -3
      vertex 13.0778 -44.7722 -3
      vertex 13.6472 -45.7584 -3
    endloop
  endfacet
  facet normal 0 0 -1
    outer loop
      vertex 13.0778 -43.6334 -3
      vertex 6.25 -39.8253 -3
      vertex 8.36413 -38.2893 -3
    endloop
  endfacet
  facet normal 0 0 -1
    outer loop
      vertex 13.0778 -44.7722 -3
      vertex 3.86271 -40.8882 -3
      vertex 6.25 -39.8253 -3
    endloop
  endfacet
  facet normal 0 0 -1
    outer loop
      vertex 14.6334 -46.3278 -3
      vertex -14.6334 -46.3278 -3
      vertex 13.6472 -45.7584 -3
    endloop
  endfacet
  facet normal 0 0 -1
    outer loop
      vertex 13.6472 -45.7584 -3
      vertex 1.30661 -41.4315 -3
      vertex 3.86271 -40.8882 -3
    endloop
  endfacet
  facet normal 0 0 -1
    outer loop
      vertex 13.6472 -45.7584 -3
      vertex -13.6472 -45.7584 -3
      vertex 1.30661 -41.4315 -3
    endloop
  endfacet
  facet normal -0 0 -1
    outer loop
      vertex 1.30661 -41.4315 -3
      vertex -13.6472 -45.7584 -3
      vertex -1.30661 -41.4315 -3
    endloop
  endfacet
  facet normal 0 0 -1
    outer loop
      vertex -14.6334 -42.0778 -3
      vertex -10.1127 -36.3473 -3
      vertex -13.6472 -42.6472 -3
    endloop
  endfacet
  facet normal -0 0 -1
    outer loop
      vertex -8.36413 -38.2893 -3
      vertex -13.6472 -42.6472 -3
      vertex -10.1127 -36.3473 -3
    endloop
  endfacet
  facet normal 0 0 -1
    outer loop
      vertex -13.6472 -42.6472 -3
      vertex -8.36413 -38.2893 -3
      vertex -13.0778 -43.6334 -3
    endloop
  endfacet
  facet normal -0 0 -1
    outer loop
      vertex -6.25 -39.8253 -3
      vertex -13.0778 -43.6334 -3
      vertex -8.36413 -38.2893 -3
    endloop
  endfacet
  facet normal 0 0 -1
    outer loop
      vertex -13.0778 -43.6334 -3
      vertex -6.25 -39.8253 -3
      vertex -13.0778 -44.7722 -3
    endloop
  endfacet
  facet normal -0 0 -1
    outer loop
      vertex -3.86271 -40.8882 -3
      vertex -13.0778 -44.7722 -3
      vertex -6.25 -39.8253 -3
    endloop
  endfacet
  facet normal -0 0 -1
    outer loop
      vertex -1.30661 -41.4315 -3
      vertex -13.6472 -45.7584 -3
      vertex -3.86271 -40.8882 -3
    endloop
  endfacet
  facet normal 0 0 -1
    outer loop
      vertex -3.86271 -40.8882 -3
      vertex -13.6472 -45.7584 -3
      vertex -13.0778 -44.7722 -3
    endloop
  endfacet
  facet normal -0 0 -1
    outer loop
      vertex 13.6472 -45.7584 -3
      vertex -14.6334 -46.3278 -3
      vertex -13.6472 -45.7584 -3
    endloop
  endfacet
  facet normal 0 0 -1
    outer loop
      vertex -21.5 -51.5 -3
      vertex -14.6334 -46.3278 -3
      vertex 21.5 -51.5 -3
    endloop
  endfacet
  facet normal 0 0 -1
    outer loop
      vertex -21.5 -51.5 -3
      vertex -17.3278 -43.6334 -3
      vertex -17.3278 -44.7722 -3
    endloop
  endfacet
  facet normal -0 0 -1
    outer loop
      vertex -17.3278 -43.6334 -3
      vertex -21.5 -51.5 -3
      vertex -17.3278 -14.3666 -3
    endloop
  endfacet
  facet normal 0 0 -1
    outer loop
      vertex -21.5 -6.5 -3
      vertex -17.3278 -14.3666 -3
      vertex -21.5 -51.5 -3
    endloop
  endfacet
  facet normal -0 0 -1
    outer loop
      vertex -16.7584 -45.7584 -3
      vertex -21.5 -51.5 -3
      vertex -17.3278 -44.7722 -3
    endloop
  endfacet
  facet normal -0 0 -1
    outer loop
      vertex -15.7722 -46.3278 -3
      vertex -21.5 -51.5 -3
      vertex -16.7584 -45.7584 -3
    endloop
  endfacet
  facet normal -0 0 -1
    outer loop
      vertex -14.6334 -46.3278 -3
      vertex -21.5 -51.5 -3
      vertex -15.7722 -46.3278 -3
    endloop
  endfacet
  facet normal 0 0 -1
    outer loop
      vertex 21.5 -51.5 -3
      vertex 17.3278 -43.6334 -3
      vertex 21.5 -7 -3
    endloop
  endfacet
  facet normal 0 0 -1
    outer loop
      vertex 17.3278 -14.3666 -3
      vertex 21.5 -7 -3
      vertex 17.3278 -43.6334 -3
    endloop
  endfacet
  facet normal 0 0 -1
    outer loop
      vertex 17.3278 -13.2278 -3
      vertex 21.5 -7 -3
      vertex 17.3278 -14.3666 -3
    endloop
  endfacet
  facet normal 0 0 -1
    outer loop
      vertex 16.7584 -12.2416 -3
      vertex 21.5 -7 -3
      vertex 17.3278 -13.2278 -3
    endloop
  endfacet
  facet normal 0 0 -1
    outer loop
      vertex 15.7722 -11.6722 -3
      vertex 21.5 -7 -3
      vertex 16.7584 -12.2416 -3
    endloop
  endfacet
  facet normal 0 0 -1
    outer loop
      vertex 14.6334 -11.6722 -3
      vertex 21.5 -7 -3
      vertex 15.7722 -11.6722 -3
    endloop
  endfacet
  facet normal 0 0 -1
    outer loop
      vertex -7 -7 -3
      vertex 14.6334 -11.6722 -3
      vertex 13.6472 -12.2416 -3
    endloop
  endfacet
  facet normal -0 0 -1
    outer loop
      vertex 14.6334 -15.9222 -3
      vertex 10.1127 -21.6527 -3
      vertex 13.6472 -15.3528 -3
    endloop
  endfacet
  facet normal 0 0 -1
    outer loop
      vertex 8.36413 -19.7107 -3
      vertex 13.6472 -15.3528 -3
      vertex 10.1127 -21.6527 -3
    endloop
  endfacet
  facet normal -0 0 -1
    outer loop
      vertex 13.6472 -15.3528 -3
      vertex 8.36413 -19.7107 -3
      vertex 13.0778 -14.3666 -3
    endloop
  endfacet
  facet normal 0 0 -1
    outer loop
      vertex 6.25 -18.1747 -3
      vertex 13.0778 -14.3666 -3
      vertex 8.36413 -19.7107 -3
    endloop
  endfacet
  facet normal -0 0 -1
    outer loop
      vertex 13.0778 -14.3666 -3
      vertex 6.25 -18.1747 -3
      vertex 13.0778 -13.2278 -3
    endloop
  endfacet
  facet normal 0 0 -1
    outer loop
      vertex 3.86271 -17.1118 -3
      vertex 13.0778 -13.2278 -3
      vertex 6.25 -18.1747 -3
    endloop
  endfacet
  facet normal -0 0 -1
    outer loop
      vertex 13.0778 -13.2278 -3
      vertex 3.86271 -17.1118 -3
      vertex 13.6472 -12.2416 -3
    endloop
  endfacet
  facet normal 0 0 -1
    outer loop
      vertex 1.30661 -16.5685 -3
      vertex 13.6472 -12.2416 -3
      vertex 3.86271 -17.1118 -3
    endloop
  endfacet
  facet normal -0 0 -1
    outer loop
      vertex 13.6472 -12.2416 -3
      vertex 1.30661 -16.5685 -3
      vertex -7 -7 -3
    endloop
  endfacet
  facet normal 0 0 -1
    outer loop
      vertex -7 -7 -3
      vertex 1.30661 -16.5685 -3
      vertex -1.30661 -16.5685 -3
    endloop
  endfacet
  facet normal 0 0 -1
    outer loop
      vertex -7 -7 -3
      vertex -1.30661 -16.5685 -3
      vertex -3.86271 -17.1118 -3
    endloop
  endfacet
  facet normal 0 0 -1
    outer loop
      vertex 14.6334 -11.6722 -3
      vertex -7 -7 -3
      vertex 21.5 -7 -3
    endloop
  endfacet
  facet normal 0 0 -1
    outer loop
      vertex -6.25 -18.1747 -3
      vertex -7 -7 -3
      vertex -3.86271 -17.1118 -3
    endloop
  endfacet
  facet normal 0 0 -1
    outer loop
      vertex -13.0778 -14.3666 -3
      vertex -6.25 -18.1747 -3
      vertex -8.36413 -19.7107 -3
    endloop
  endfacet
  facet normal 0 0 -1
    outer loop
      vertex -6.25 -18.1747 -3
      vertex -13.0778 -13.2278 -3
      vertex -7 -7 -3
    endloop
  endfacet
  facet normal 0 0 -1
    outer loop
      vertex -13.0778 -14.3666 -3
      vertex -8.36413 -19.7107 -3
      vertex -10.1127 -21.6527 -3
    endloop
  endfacet
  facet normal 0 0 -1
    outer loop
      vertex -13.0778 -14.3666 -3
      vertex -10.1127 -21.6527 -3
      vertex -11.4193 -23.9158 -3
    endloop
  endfacet
  facet normal 0 0 -1
    outer loop
      vertex -13.0778 -14.3666 -3
      vertex -11.4193 -23.9158 -3
      vertex -12.2268 -26.4011 -3
    endloop
  endfacet
  facet normal -0 0 -1
    outer loop
      vertex -10.1127 -36.3473 -3
      vertex -14.6334 -42.0778 -3
      vertex -11.4193 -34.0842 -3
    endloop
  endfacet
  facet normal 0 0 -1
    outer loop
      vertex -15.7722 -42.0778 -3
      vertex -11.4193 -34.0842 -3
      vertex -14.6334 -42.0778 -3
    endloop
  endfacet
  facet normal 0 0 -1
    outer loop
      vertex -13.0778 -14.3666 -3
      vertex -12.2268 -26.4011 -3
      vertex -12.5 -29 -3
    endloop
  endfacet
  facet normal 0 0 -1
    outer loop
      vertex -6.25 -18.1747 -3
      vertex -13.0778 -14.3666 -3
      vertex -13.0778 -13.2278 -3
    endloop
  endfacet
  facet normal 0 0 -1
    outer loop
      vertex -13.6472 -12.2416 -3
      vertex -7 -7 -3
      vertex -13.0778 -13.2278 -3
    endloop
  endfacet
  facet normal 0 0 -1
    outer loop
      vertex -14.6334 -11.6722 -3
      vertex -7 -7 -3
      vertex -13.6472 -12.2416 -3
    endloop
  endfacet
  facet normal -0 0 -1
    outer loop
      vertex -7 -7 -3
      vertex -14.6334 -11.6722 -3
      vertex -7 -6.5 -3
    endloop
  endfacet
  facet normal 0 0 -1
    outer loop
      vertex -21.5 -6.5 -3
      vertex -14.6334 -11.6722 -3
      vertex -15.7722 -11.6722 -3
    endloop
  endfacet
  facet normal 0 0 -1
    outer loop
      vertex -21.5 -6.5 -3
      vertex -15.7722 -11.6722 -3
      vertex -16.7584 -12.2416 -3
    endloop
  endfacet
  facet normal 0 0 -1
    outer loop
      vertex -14.6334 -11.6722 -3
      vertex -21.5 -6.5 -3
      vertex -7 -6.5 -3
    endloop
  endfacet
  facet normal 0 0 -1
    outer loop
      vertex -17.3278 -13.2278 -3
      vertex -21.5 -6.5 -3
      vertex -16.7584 -12.2416 -3
    endloop
  endfacet
  facet normal 0 0 -1
    outer loop
      vertex -17.3278 -14.3666 -3
      vertex -21.5 -6.5 -3
      vertex -17.3278 -13.2278 -3
    endloop
  endfacet
  facet normal 0 -1 0
    outer loop
      vertex -21.5 -51.5 -3
      vertex 21.5 -51.5 7
      vertex -21.5 -51.5 7
    endloop
  endfacet
  facet normal 0 -1 -0
    outer loop
      vertex 21.5 -51.5 7
      vertex -21.5 -51.5 -3
      vertex 21.5 -51.5 -3
    endloop
  endfacet
  facet normal 0 1 -0
    outer loop
      vertex -7 -6.5 -3
      vertex -21.5 -6.5 7
      vertex -7 -6.5 7
    endloop
  endfacet
  facet normal 0 1 0
    outer loop
      vertex -21.5 -6.5 7
      vertex -7 -6.5 -3
      vertex -21.5 -6.5 -3
    endloop
  endfacet
  facet normal -0.866025 -0.5 0
    outer loop
      vertex 11.4193 -23.9158 -3
      vertex 10.1127 -21.6527 7
      vertex 10.1127 -21.6527 -3
    endloop
  endfacet
  facet normal -0.866025 -0.5 0
    outer loop
      vertex 10.1127 -21.6527 7
      vertex 11.4193 -23.9158 -3
      vertex 11.4193 -23.9158 7
    endloop
  endfacet
  facet normal 0 -1 0
    outer loop
      vertex -1.30661 -16.5685 -3
      vertex 1.30661 -16.5685 7
      vertex -1.30661 -16.5685 7
    endloop
  endfacet
  facet normal 0 -1 -0
    outer loop
      vertex 1.30661 -16.5685 7
      vertex -1.30661 -16.5685 -3
      vertex 1.30661 -16.5685 -3
    endloop
  endfacet
  facet normal 0.951057 -0.309017 0
    outer loop
      vertex -12.2268 -26.4011 7
      vertex -11.4193 -23.9158 -3
      vertex -11.4193 -23.9158 7
    endloop
  endfacet
  facet normal 0.951057 -0.309017 0
    outer loop
      vertex -11.4193 -23.9158 -3
      vertex -12.2268 -26.4011 7
      vertex -12.2268 -26.4011 -3
    endloop
  endfacet
  facet normal -0.743145 -0.66913 0
    outer loop
      vertex 10.1127 -21.6527 -3
      vertex 8.36413 -19.7107 7
      vertex 8.36413 -19.7107 -3
    endloop
  endfacet
  facet normal -0.743145 -0.66913 0
    outer loop
      vertex 8.36413 -19.7107 7
      vertex 10.1127 -21.6527 -3
      vertex 10.1127 -21.6527 7
    endloop
  endfacet
  facet normal -0.207911 -0.978148 0
    outer loop
      vertex 1.30661 -16.5685 -3
      vertex 3.86271 -17.1118 7
      vertex 1.30661 -16.5685 7
    endloop
  endfacet
  facet normal -0.207911 -0.978148 -0
    outer loop
      vertex 3.86271 -17.1118 7
      vertex 1.30661 -16.5685 -3
      vertex 3.86271 -17.1118 -3
    endloop
  endfacet
  facet normal 0.406737 -0.913545 0
    outer loop
      vertex -6.25 -18.1747 -3
      vertex -3.86271 -17.1118 7
      vertex -6.25 -18.1747 7
    endloop
  endfacet
  facet normal 0.406737 -0.913545 0
    outer loop
      vertex -3.86271 -17.1118 7
      vertex -6.25 -18.1747 -3
      vertex -3.86271 -17.1118 -3
    endloop
  endfacet
  facet normal 0.866025 -0.5 0
    outer loop
      vertex -11.4193 -23.9158 7
      vertex -10.1127 -21.6527 -3
      vertex -10.1127 -21.6527 7
    endloop
  endfacet
  facet normal 0.866025 -0.5 0
    outer loop
      vertex -10.1127 -21.6527 -3
      vertex -11.4193 -23.9158 7
      vertex -11.4193 -23.9158 -3
    endloop
  endfacet
  facet normal -0.994522 0.104529 0
    outer loop
      vertex 12.2268 -31.5989 -3
      vertex 12.5 -29 7
      vertex 12.5 -29 -3
    endloop
  endfacet
  facet normal -0.994522 0.104529 0
    outer loop
      vertex 12.5 -29 7
      vertex 12.2268 -31.5989 -3
      vertex 12.2268 -31.5989 7
    endloop
  endfacet
  facet normal -0.207911 0.978148 0
    outer loop
      vertex 3.86271 -40.8882 -3
      vertex 1.30661 -41.4315 7
      vertex 3.86271 -40.8882 7
    endloop
  endfacet
  facet normal -0.207911 0.978148 0
    outer loop
      vertex 1.30661 -41.4315 7
      vertex 3.86271 -40.8882 -3
      vertex 1.30661 -41.4315 -3
    endloop
  endfacet
  facet normal -0.951057 -0.309017 0
    outer loop
      vertex 12.2268 -26.4011 -3
      vertex 11.4193 -23.9158 7
      vertex 11.4193 -23.9158 -3
    endloop
  endfacet
  facet normal -0.951057 -0.309017 0
    outer loop
      vertex 11.4193 -23.9158 7
      vertex 12.2268 -26.4011 -3
      vertex 12.2268 -26.4011 7
    endloop
  endfacet
  facet normal -0.587785 -0.809017 0
    outer loop
      vertex 6.25 -18.1747 -3
      vertex 8.36413 -19.7107 7
      vertex 6.25 -18.1747 7
    endloop
  endfacet
  facet normal -0.587785 -0.809017 -0
    outer loop
      vertex 8.36413 -19.7107 7
      vertex 6.25 -18.1747 -3
      vertex 8.36413 -19.7107 -3
    endloop
  endfacet
  facet normal -0.406737 -0.913545 0
    outer loop
      vertex 3.86271 -17.1118 -3
      vertex 6.25 -18.1747 7
      vertex 3.86271 -17.1118 7
    endloop
  endfacet
  facet normal -0.406737 -0.913545 -0
    outer loop
      vertex 6.25 -18.1747 7
      vertex 3.86271 -17.1118 -3
      vertex 6.25 -18.1747 -3
    endloop
  endfacet
  facet normal 0.994522 -0.104529 0
    outer loop
      vertex -12.5 -29 7
      vertex -12.2268 -26.4011 -3
      vertex -12.2268 -26.4011 7
    endloop
  endfacet
  facet normal 0.994522 -0.104529 0
    outer loop
      vertex -12.2268 -26.4011 -3
      vertex -12.5 -29 7
      vertex -12.5 -29 -3
    endloop
  endfacet
  facet normal 0.587785 -0.809017 0
    outer loop
      vertex -8.36413 -19.7107 -3
      vertex -6.25 -18.1747 7
      vertex -8.36413 -19.7107 7
    endloop
  endfacet
  facet normal 0.587785 -0.809017 0
    outer loop
      vertex -6.25 -18.1747 7
      vertex -8.36413 -19.7107 -3
      vertex -6.25 -18.1747 -3
    endloop
  endfacet
  facet normal 0.207911 -0.978148 0
    outer loop
      vertex -3.86271 -17.1118 -3
      vertex -1.30661 -16.5685 7
      vertex -3.86271 -17.1118 7
    endloop
  endfacet
  facet normal 0.207911 -0.978148 0
    outer loop
      vertex -1.30661 -16.5685 7
      vertex -3.86271 -17.1118 -3
      vertex -1.30661 -16.5685 -3
    endloop
  endfacet
  facet normal 0.743145 -0.66913 0
    outer loop
      vertex -10.1127 -21.6527 7
      vertex -8.36413 -19.7107 -3
      vertex -8.36413 -19.7107 7
    endloop
  endfacet
  facet normal 0.743145 -0.66913 0
    outer loop
      vertex -8.36413 -19.7107 -3
      vertex -10.1127 -21.6527 7
      vertex -10.1127 -21.6527 -3
    endloop
  endfacet
  facet normal -0.994522 -0.104529 0
    outer loop
      vertex 12.5 -29 -3
      vertex 12.2268 -26.4011 7
      vertex 12.2268 -26.4011 -3
    endloop
  endfacet
  facet normal -0.994522 -0.104529 0
    outer loop
      vertex 12.2268 -26.4011 7
      vertex 12.5 -29 -3
      vertex 12.5 -29 7
    endloop
  endfacet
  facet normal -0.951056 0.309017 0
    outer loop
      vertex 11.4193 -34.0842 -3
      vertex 12.2268 -31.5989 7
      vertex 12.2268 -31.5989 -3
    endloop
  endfacet
  facet normal -0.951056 0.309017 0
    outer loop
      vertex 12.2268 -31.5989 7
      vertex 11.4193 -34.0842 -3
      vertex 11.4193 -34.0842 7
    endloop
  endfacet
  facet normal 0.866025 0.5 0
    outer loop
      vertex -10.1127 -36.3473 7
      vertex -11.4193 -34.0842 -3
      vertex -11.4193 -34.0842 7
    endloop
  endfacet
  facet normal 0.866025 0.5 0
    outer loop
      vertex -11.4193 -34.0842 -3
      vertex -10.1127 -36.3473 7
      vertex -10.1127 -36.3473 -3
    endloop
  endfacet
  facet normal -0.587785 0.809017 0
    outer loop
      vertex 8.36413 -38.2893 -3
      vertex 6.25 -39.8253 7
      vertex 8.36413 -38.2893 7
    endloop
  endfacet
  facet normal -0.587785 0.809017 0
    outer loop
      vertex 6.25 -39.8253 7
      vertex 8.36413 -38.2893 -3
      vertex 6.25 -39.8253 -3
    endloop
  endfacet
  facet normal -0.866025 0.5 0
    outer loop
      vertex 10.1127 -36.3473 -3
      vertex 11.4193 -34.0842 7
      vertex 11.4193 -34.0842 -3
    endloop
  endfacet
  facet normal -0.866025 0.5 0
    outer loop
      vertex 11.4193 -34.0842 7
      vertex 10.1127 -36.3473 -3
      vertex 10.1127 -36.3473 7
    endloop
  endfacet
  facet normal 0.207911 0.978148 -0
    outer loop
      vertex -1.30661 -41.4315 -3
      vertex -3.86271 -40.8882 7
      vertex -1.30661 -41.4315 7
    endloop
  endfacet
  facet normal 0.207911 0.978148 0
    outer loop
      vertex -3.86271 -40.8882 7
      vertex -1.30661 -41.4315 -3
      vertex -3.86271 -40.8882 -3
    endloop
  endfacet
  facet normal 0.994522 0.104529 0
    outer loop
      vertex -12.2268 -31.5989 7
      vertex -12.5 -29 -3
      vertex -12.5 -29 7
    endloop
  endfacet
  facet normal 0.994522 0.104529 0
    outer loop
      vertex -12.5 -29 -3
      vertex -12.2268 -31.5989 7
      vertex -12.2268 -31.5989 -3
    endloop
  endfacet
  facet normal -0.406737 0.913545 0
    outer loop
      vertex 6.25 -39.8253 -3
      vertex 3.86271 -40.8882 7
      vertex 6.25 -39.8253 7
    endloop
  endfacet
  facet normal -0.406737 0.913545 0
    outer loop
      vertex 3.86271 -40.8882 7
      vertex 6.25 -39.8253 -3
      vertex 3.86271 -40.8882 -3
    endloop
  endfacet
  facet normal 0 1 -0
    outer loop
      vertex 1.30661 -41.4315 -3
      vertex -1.30661 -41.4315 7
      vertex 1.30661 -41.4315 7
    endloop
  endfacet
  facet normal 0 1 0
    outer loop
      vertex -1.30661 -41.4315 7
      vertex 1.30661 -41.4315 -3
      vertex -1.30661 -41.4315 -3
    endloop
  endfacet
  facet normal 0.951056 0.309017 0
    outer loop
      vertex -11.4193 -34.0842 7
      vertex -12.2268 -31.5989 -3
      vertex -12.2268 -31.5989 7
    endloop
  endfacet
  facet normal 0.951056 0.309017 0
    outer loop
      vertex -12.2268 -31.5989 -3
      vertex -11.4193 -34.0842 7
      vertex -11.4193 -34.0842 -3
    endloop
  endfacet
  facet normal 0.743145 0.66913 0
    outer loop
      vertex -8.36413 -38.2893 7
      vertex -10.1127 -36.3473 -3
      vertex -10.1127 -36.3473 7
    endloop
  endfacet
  facet normal 0.743145 0.66913 0
    outer loop
      vertex -10.1127 -36.3473 -3
      vertex -8.36413 -38.2893 7
      vertex -8.36413 -38.2893 -3
    endloop
  endfacet
  facet normal -0.743145 0.66913 0
    outer loop
      vertex 8.36413 -38.2893 -3
      vertex 10.1127 -36.3473 7
      vertex 10.1127 -36.3473 -3
    endloop
  endfacet
  facet normal -0.743145 0.66913 0
    outer loop
      vertex 10.1127 -36.3473 7
      vertex 8.36413 -38.2893 -3
      vertex 8.36413 -38.2893 7
    endloop
  endfacet
  facet normal 0.406737 0.913545 -0
    outer loop
      vertex -3.86271 -40.8882 -3
      vertex -6.25 -39.8253 7
      vertex -3.86271 -40.8882 7
    endloop
  endfacet
  facet normal 0.406737 0.913545 0
    outer loop
      vertex -6.25 -39.8253 7
      vertex -3.86271 -40.8882 -3
      vertex -6.25 -39.8253 -3
    endloop
  endfacet
  facet normal 0.587785 0.809017 -0
    outer loop
      vertex -6.25 -39.8253 -3
      vertex -8.36413 -38.2893 7
      vertex -6.25 -39.8253 7
    endloop
  endfacet
  facet normal 0.587785 0.809017 0
    outer loop
      vertex -8.36413 -38.2893 7
      vertex -6.25 -39.8253 -3
      vertex -8.36413 -38.2893 -3
    endloop
  endfacet
  facet normal 0.994522 0.104529 0
    outer loop
      vertex 54 -18 5
      vertex 53.6941 -15.0892 -5
      vertex 53.6941 -15.0892 5
    endloop
  endfacet
  facet normal 0.994522 0.104529 0
    outer loop
      vertex 53.6941 -15.0892 -5
      vertex 54 -18 5
      vertex 54 -18 -5
    endloop
  endfacet
  facet normal -0.994522 0.104529 0
    outer loop
      vertex 26 -18 -5
      vertex 26.3059 -15.0892 5
      vertex 26.3059 -15.0892 -5
    endloop
  endfacet
  facet normal -0.994522 0.104529 0
    outer loop
      vertex 26.3059 -15.0892 5
      vertex 26 -18 -5
      vertex 26 -18 5
    endloop
  endfacet
  facet normal 0 -1 0
    outer loop
      vertex 38.5366 -31.9233 -5
      vertex 41.4634 -31.9233 5
      vertex 38.5366 -31.9233 5
    endloop
  endfacet
  facet normal 0 -1 -0
    outer loop
      vertex 41.4634 -31.9233 5
      vertex 38.5366 -31.9233 -5
      vertex 41.4634 -31.9233 -5
    endloop
  endfacet
  facet normal 0.587786 0.809017 -0
    outer loop
      vertex 49.3678 -7.59597 -5
      vertex 48.5475 -7 5
      vertex 49.3678 -7.59597 5
    endloop
  endfacet
  facet normal 0.587786 0.809017 0
    outer loop
      vertex 48.5475 -7 5
      vertex 49.3678 -7.59597 -5
      vertex 48.5475 -7 -5
    endloop
  endfacet
  facet normal -0.743145 0.66913 0
    outer loop
      vertex 28.6738 -9.77101 -5
      vertex 30.6322 -7.59597 5
      vertex 30.6322 -7.59597 -5
    endloop
  endfacet
  facet normal -0.743145 0.66913 0
    outer loop
      vertex 30.6322 -7.59597 5
      vertex 28.6738 -9.77101 -5
      vertex 28.6738 -9.77101 5
    endloop
  endfacet
  facet normal 0 0 1
    outer loop
      vertex 51 -18 5
      vertex 54 -18 5
      vertex 53.6941 -15.0892 5
    endloop
  endfacet
  facet normal 0 0 1
    outer loop
      vertex 50.7596 -15.713 5
      vertex 53.6941 -15.0892 5
      vertex 52.7896 -12.3057 5
    endloop
  endfacet
  facet normal 0 0 1
    outer loop
      vertex 54 -18 5
      vertex 51 -18 5
      vertex 53.6941 -20.9108 5
    endloop
  endfacet
  facet normal 0 0 1
    outer loop
      vertex 50.049 -13.5259 5
      vertex 52.7896 -12.3057 5
      vertex 51.3262 -9.77101 5
    endloop
  endfacet
  facet normal -0 0 1
    outer loop
      vertex 50.7596 -20.287 5
      vertex 53.6941 -20.9108 5
      vertex 51 -18 5
    endloop
  endfacet
  facet normal 0 0 1
    outer loop
      vertex 53.6941 -20.9108 5
      vertex 50.7596 -20.287 5
      vertex 52.7896 -23.6943 5
    endloop
  endfacet
  facet normal 0 0 1
    outer loop
      vertex 53.6941 -15.0892 5
      vertex 50.7596 -15.713 5
      vertex 51 -18 5
    endloop
  endfacet
  facet normal 0 0 1
    outer loop
      vertex 52.7896 -12.3057 5
      vertex 50.049 -13.5259 5
      vertex 50.7596 -15.713 5
    endloop
  endfacet
  facet normal 0 0 1
    outer loop
      vertex 48.8992 -11.5344 5
      vertex 51.3262 -9.77101 5
      vertex 49.3678 -7.59597 5
    endloop
  endfacet
  facet normal 0 0 1
    outer loop
      vertex 51.3262 -9.77101 5
      vertex 48.8992 -11.5344 5
      vertex 50.049 -13.5259 5
    endloop
  endfacet
  facet normal 0 0 1
    outer loop
      vertex 47.3604 -9.82541 5
      vertex 49.3678 -7.59597 5
      vertex 48.5475 -7 5
    endloop
  endfacet
  facet normal 0 0 1
    outer loop
      vertex 49.3678 -7.59597 5
      vertex 47.3604 -9.82541 5
      vertex 48.8992 -11.5344 5
    endloop
  endfacet
  facet normal 0 0 1
    outer loop
      vertex 48.5475 -7 5
      vertex 45.5 -8.47372 5
      vertex 47.3604 -9.82541 5
    endloop
  endfacet
  facet normal 0 0 1
    outer loop
      vertex 48.5475 -7 5
      vertex 43.3992 -7.53838 5
      vertex 45.5 -8.47372 5
    endloop
  endfacet
  facet normal 0 0 1
    outer loop
      vertex 48.5475 -7 5
      vertex 41.1498 -7.06026 5
      vertex 43.3992 -7.53838 5
    endloop
  endfacet
  facet normal 0 0 1
    outer loop
      vertex 48.5475 -7 5
      vertex 38.8502 -7.06026 5
      vertex 41.1498 -7.06026 5
    endloop
  endfacet
  facet normal -0 0 1
    outer loop
      vertex 31.4525 -7 5
      vertex 38.8502 -7.06026 5
      vertex 48.5475 -7 5
    endloop
  endfacet
  facet normal 0 0 1
    outer loop
      vertex 31.4525 -7 5
      vertex 36.6008 -7.53838 5
      vertex 38.8502 -7.06026 5
    endloop
  endfacet
  facet normal 0 0 1
    outer loop
      vertex 31.4525 -7 5
      vertex 34.5 -8.47372 5
      vertex 36.6008 -7.53838 5
    endloop
  endfacet
  facet normal 0 0 1
    outer loop
      vertex 31.4525 -7 5
      vertex 32.6396 -9.82541 5
      vertex 34.5 -8.47372 5
    endloop
  endfacet
  facet normal -0 0 1
    outer loop
      vertex 30.6322 -7.59597 5
      vertex 32.6396 -9.82541 5
      vertex 31.4525 -7 5
    endloop
  endfacet
  facet normal 0 0 1
    outer loop
      vertex 32.6396 -9.82541 5
      vertex 30.6322 -7.59597 5
      vertex 31.1008 -11.5344 5
    endloop
  endfacet
  facet normal -0 0 1
    outer loop
      vertex 28.6738 -9.77101 5
      vertex 31.1008 -11.5344 5
      vertex 30.6322 -7.59597 5
    endloop
  endfacet
  facet normal 0 0 1
    outer loop
      vertex 31.1008 -11.5344 5
      vertex 28.6738 -9.77101 5
      vertex 29.951 -13.5259 5
    endloop
  endfacet
  facet normal 0 0 1
    outer loop
      vertex 29.951 -13.5259 5
      vertex 27.2104 -12.3057 5
      vertex 29.2404 -15.713 5
    endloop
  endfacet
  facet normal -0 0 1
    outer loop
      vertex 27.2104 -12.3057 5
      vertex 29.951 -13.5259 5
      vertex 28.6738 -9.77101 5
    endloop
  endfacet
  facet normal -0 0 1
    outer loop
      vertex 50.049 -22.4741 5
      vertex 52.7896 -23.6943 5
      vertex 50.7596 -20.287 5
    endloop
  endfacet
  facet normal 0 0 1
    outer loop
      vertex 52.7896 -23.6943 5
      vertex 50.049 -22.4741 5
      vertex 51.3262 -26.229 5
    endloop
  endfacet
  facet normal -0 0 1
    outer loop
      vertex 48.8992 -24.4656 5
      vertex 51.3262 -26.229 5
      vertex 50.049 -22.4741 5
    endloop
  endfacet
  facet normal 0 0 1
    outer loop
      vertex 51.3262 -26.229 5
      vertex 48.8992 -24.4656 5
      vertex 49.3678 -28.404 5
    endloop
  endfacet
  facet normal -0 0 1
    outer loop
      vertex 47.3604 -26.1746 5
      vertex 49.3678 -28.404 5
      vertex 48.8992 -24.4656 5
    endloop
  endfacet
  facet normal 0 0 1
    outer loop
      vertex 47.3604 -26.1746 5
      vertex 47 -30.1244 5
      vertex 49.3678 -28.404 5
    endloop
  endfacet
  facet normal -0 0 1
    outer loop
      vertex 45.5 -27.5263 5
      vertex 47 -30.1244 5
      vertex 47.3604 -26.1746 5
    endloop
  endfacet
  facet normal 0 0 1
    outer loop
      vertex 45.5 -27.5263 5
      vertex 44.3262 -31.3148 5
      vertex 47 -30.1244 5
    endloop
  endfacet
  facet normal -0 0 1
    outer loop
      vertex 43.3992 -28.4616 5
      vertex 44.3262 -31.3148 5
      vertex 45.5 -27.5263 5
    endloop
  endfacet
  facet normal 0 0 1
    outer loop
      vertex 43.3992 -28.4616 5
      vertex 41.4634 -31.9233 5
      vertex 44.3262 -31.3148 5
    endloop
  endfacet
  facet normal -0 0 1
    outer loop
      vertex 41.1498 -28.9397 5
      vertex 41.4634 -31.9233 5
      vertex 43.3992 -28.4616 5
    endloop
  endfacet
  facet normal -0 0 1
    outer loop
      vertex 38.8502 -28.9397 5
      vertex 41.4634 -31.9233 5
      vertex 41.1498 -28.9397 5
    endloop
  endfacet
  facet normal 0 0 1
    outer loop
      vertex 38.8502 -28.9397 5
      vertex 38.5366 -31.9233 5
      vertex 41.4634 -31.9233 5
    endloop
  endfacet
  facet normal 0 0 1
    outer loop
      vertex 36.6008 -28.4616 5
      vertex 38.5366 -31.9233 5
      vertex 38.8502 -28.9397 5
    endloop
  endfacet
  facet normal 0 0 1
    outer loop
      vertex 36.6008 -28.4616 5
      vertex 35.6738 -31.3148 5
      vertex 38.5366 -31.9233 5
    endloop
  endfacet
  facet normal 0 0 1
    outer loop
      vertex 34.5 -27.5263 5
      vertex 35.6738 -31.3148 5
      vertex 36.6008 -28.4616 5
    endloop
  endfacet
  facet normal 0 0 1
    outer loop
      vertex 34.5 -27.5263 5
      vertex 33 -30.1244 5
      vertex 35.6738 -31.3148 5
    endloop
  endfacet
  facet normal 0 0 1
    outer loop
      vertex 32.6396 -26.1746 5
      vertex 33 -30.1244 5
      vertex 34.5 -27.5263 5
    endloop
  endfacet
  facet normal 0 0 1
    outer loop
      vertex 30.6322 -28.404 5
      vertex 32.6396 -26.1746 5
      vertex 31.1008 -24.4656 5
    endloop
  endfacet
  facet normal 0 0 1
    outer loop
      vertex 32.6396 -26.1746 5
      vertex 30.6322 -28.404 5
      vertex 33 -30.1244 5
    endloop
  endfacet
  facet normal 0 0 1
    outer loop
      vertex 28.6738 -26.229 5
      vertex 31.1008 -24.4656 5
      vertex 29.951 -22.4741 5
    endloop
  endfacet
  facet normal 0 0 1
    outer loop
      vertex 27.2104 -23.6943 5
      vertex 29.951 -22.4741 5
      vertex 29.2404 -20.287 5
    endloop
  endfacet
  facet normal 0 0 1
    outer loop
      vertex 31.1008 -24.4656 5
      vertex 28.6738 -26.229 5
      vertex 30.6322 -28.404 5
    endloop
  endfacet
  facet normal 0 0 1
    outer loop
      vertex 26.3059 -20.9108 5
      vertex 29.2404 -20.287 5
      vertex 29 -18 5
    endloop
  endfacet
  facet normal -0 0 1
    outer loop
      vertex 26.3059 -15.0892 5
      vertex 29.2404 -15.713 5
      vertex 27.2104 -12.3057 5
    endloop
  endfacet
  facet normal 0 0 1
    outer loop
      vertex 29.2404 -15.713 5
      vertex 26.3059 -15.0892 5
      vertex 29 -18 5
    endloop
  endfacet
  facet normal 0 0 1
    outer loop
      vertex 29.951 -22.4741 5
      vertex 27.2104 -23.6943 5
      vertex 28.6738 -26.229 5
    endloop
  endfacet
  facet normal 0 0 1
    outer loop
      vertex 26 -18 5
      vertex 29 -18 5
      vertex 26.3059 -15.0892 5
    endloop
  endfacet
  facet normal 0 0 1
    outer loop
      vertex 29.2404 -20.287 5
      vertex 26.3059 -20.9108 5
      vertex 27.2104 -23.6943 5
    endloop
  endfacet
  facet normal 0 0 1
    outer loop
      vertex 29 -18 5
      vertex 26 -18 5
      vertex 26.3059 -20.9108 5
    endloop
  endfacet
  facet normal 0.866026 0.5 0
    outer loop
      vertex 52.7896 -12.3057 5
      vertex 51.3262 -9.77101 -5
      vertex 51.3262 -9.77101 5
    endloop
  endfacet
  facet normal 0.866026 0.5 0
    outer loop
      vertex 51.3262 -9.77101 -5
      vertex 52.7896 -12.3057 5
      vertex 52.7896 -12.3057 -5
    endloop
  endfacet
  facet normal 0.951056 0.309017 0
    outer loop
      vertex 53.6941 -15.0892 5
      vertex 52.7896 -12.3057 -5
      vertex 52.7896 -12.3057 5
    endloop
  endfacet
  facet normal 0.951056 0.309017 0
    outer loop
      vertex 52.7896 -12.3057 -5
      vertex 53.6941 -15.0892 5
      vertex 53.6941 -15.0892 -5
    endloop
  endfacet
  facet normal 0.743145 0.66913 0
    outer loop
      vertex 51.3262 -9.77101 5
      vertex 49.3678 -7.59597 -5
      vertex 49.3678 -7.59597 5
    endloop
  endfacet
  facet normal 0.743145 0.66913 0
    outer loop
      vertex 49.3678 -7.59597 -5
      vertex 51.3262 -9.77101 5
      vertex 51.3262 -9.77101 -5
    endloop
  endfacet
  facet normal -0.866026 0.5 0
    outer loop
      vertex 27.2104 -12.3057 -5
      vertex 28.6738 -9.77101 5
      vertex 28.6738 -9.77101 -5
    endloop
  endfacet
  facet normal -0.866026 0.5 0
    outer loop
      vertex 28.6738 -9.77101 5
      vertex 27.2104 -12.3057 -5
      vertex 27.2104 -12.3057 5
    endloop
  endfacet
  facet normal -0.951056 0.309017 0
    outer loop
      vertex 26.3059 -15.0892 -5
      vertex 27.2104 -12.3057 5
      vertex 27.2104 -12.3057 -5
    endloop
  endfacet
  facet normal -0.951056 0.309017 0
    outer loop
      vertex 27.2104 -12.3057 5
      vertex 26.3059 -15.0892 -5
      vertex 26.3059 -15.0892 5
    endloop
  endfacet
  facet normal -0.587786 0.809017 0
    outer loop
      vertex 31.4525 -7 -5
      vertex 30.6322 -7.59597 5
      vertex 31.4525 -7 5
    endloop
  endfacet
  facet normal -0.587786 0.809017 0
    outer loop
      vertex 30.6322 -7.59597 5
      vertex 31.4525 -7 -5
      vertex 30.6322 -7.59597 -5
    endloop
  endfacet
  facet normal 0.994522 -0.104529 0
    outer loop
      vertex 53.6941 -20.9108 5
      vertex 54 -18 -5
      vertex 54 -18 5
    endloop
  endfacet
  facet normal 0.994522 -0.104529 0
    outer loop
      vertex 54 -18 -5
      vertex 53.6941 -20.9108 5
      vertex 53.6941 -20.9108 -5
    endloop
  endfacet
  facet normal 0.743145 -0.66913 0
    outer loop
      vertex 49.3678 -28.404 5
      vertex 51.3262 -26.229 -5
      vertex 51.3262 -26.229 5
    endloop
  endfacet
  facet normal 0.743145 -0.66913 0
    outer loop
      vertex 51.3262 -26.229 -5
      vertex 49.3678 -28.404 5
      vertex 49.3678 -28.404 -5
    endloop
  endfacet
  facet normal 0.951057 -0.309017 0
    outer loop
      vertex 52.7896 -23.6943 5
      vertex 53.6941 -20.9108 -5
      vertex 53.6941 -20.9108 5
    endloop
  endfacet
  facet normal 0.951057 -0.309017 0
    outer loop
      vertex 53.6941 -20.9108 -5
      vertex 52.7896 -23.6943 5
      vertex 52.7896 -23.6943 -5
    endloop
  endfacet
  facet normal 0.866025 -0.5 0
    outer loop
      vertex 51.3262 -26.229 5
      vertex 52.7896 -23.6943 -5
      vertex 52.7896 -23.6943 5
    endloop
  endfacet
  facet normal 0.866025 -0.5 0
    outer loop
      vertex 52.7896 -23.6943 -5
      vertex 51.3262 -26.229 5
      vertex 51.3262 -26.229 -5
    endloop
  endfacet
  facet normal -0.866025 -0.5 0
    outer loop
      vertex 28.6738 -26.229 -5
      vertex 27.2104 -23.6943 5
      vertex 27.2104 -23.6943 -5
    endloop
  endfacet
  facet normal -0.866025 -0.5 0
    outer loop
      vertex 27.2104 -23.6943 5
      vertex 28.6738 -26.229 -5
      vertex 28.6738 -26.229 5
    endloop
  endfacet
  facet normal 0 0 -1
    outer loop
      vertex 51 -18 -5
      vertex 54 -18 -5
      vertex 53.6941 -20.9108 -5
    endloop
  endfacet
  facet normal 0 0 -1
    outer loop
      vertex 50.7596 -20.287 -5
      vertex 53.6941 -20.9108 -5
      vertex 52.7896 -23.6943 -5
    endloop
  endfacet
  facet normal 0 0 -1
    outer loop
      vertex 54 -18 -5
      vertex 51 -18 -5
      vertex 53.6941 -15.0892 -5
    endloop
  endfacet
  facet normal 0 0 -1
    outer loop
      vertex 50.049 -22.4741 -5
      vertex 52.7896 -23.6943 -5
      vertex 51.3262 -26.229 -5
    endloop
  endfacet
  facet normal 0 0 -1
    outer loop
      vertex 50.7596 -15.713 -5
      vertex 53.6941 -15.0892 -5
      vertex 51 -18 -5
    endloop
  endfacet
  facet normal -0 0 -1
    outer loop
      vertex 53.6941 -15.0892 -5
      vertex 50.7596 -15.713 -5
      vertex 52.7896 -12.3057 -5
    endloop
  endfacet
  facet normal 0 0 -1
    outer loop
      vertex 53.6941 -20.9108 -5
      vertex 50.7596 -20.287 -5
      vertex 51 -18 -5
    endloop
  endfacet
  facet normal 0 0 -1
    outer loop
      vertex 52.7896 -23.6943 -5
      vertex 50.049 -22.4741 -5
      vertex 50.7596 -20.287 -5
    endloop
  endfacet
  facet normal 0 0 -1
    outer loop
      vertex 48.8992 -24.4656 -5
      vertex 51.3262 -26.229 -5
      vertex 49.3678 -28.404 -5
    endloop
  endfacet
  facet normal 0 0 -1
    outer loop
      vertex 51.3262 -26.229 -5
      vertex 48.8992 -24.4656 -5
      vertex 50.049 -22.4741 -5
    endloop
  endfacet
  facet normal 0 0 -1
    outer loop
      vertex 49.3678 -28.404 -5
      vertex 47.3604 -26.1746 -5
      vertex 48.8992 -24.4656 -5
    endloop
  endfacet
  facet normal 0 0 -1
    outer loop
      vertex 47 -30.1244 -5
      vertex 47.3604 -26.1746 -5
      vertex 49.3678 -28.404 -5
    endloop
  endfacet
  facet normal 0 0 -1
    outer loop
      vertex 47 -30.1244 -5
      vertex 45.5 -27.5263 -5
      vertex 47.3604 -26.1746 -5
    endloop
  endfacet
  facet normal 0 0 -1
    outer loop
      vertex 44.3262 -31.3148 -5
      vertex 45.5 -27.5263 -5
      vertex 47 -30.1244 -5
    endloop
  endfacet
  facet normal 0 0 -1
    outer loop
      vertex 44.3262 -31.3148 -5
      vertex 43.3992 -28.4616 -5
      vertex 45.5 -27.5263 -5
    endloop
  endfacet
  facet normal 0 0 -1
    outer loop
      vertex 41.4634 -31.9233 -5
      vertex 43.3992 -28.4616 -5
      vertex 44.3262 -31.3148 -5
    endloop
  endfacet
  facet normal 0 0 -1
    outer loop
      vertex 41.4634 -31.9233 -5
      vertex 41.1498 -28.9397 -5
      vertex 43.3992 -28.4616 -5
    endloop
  endfacet
  facet normal 0 0 -1
    outer loop
      vertex 41.4634 -31.9233 -5
      vertex 38.8502 -28.9397 -5
      vertex 41.1498 -28.9397 -5
    endloop
  endfacet
  facet normal 0 0 -1
    outer loop
      vertex 38.5366 -31.9233 -5
      vertex 38.8502 -28.9397 -5
      vertex 41.4634 -31.9233 -5
    endloop
  endfacet
  facet normal 0 0 -1
    outer loop
      vertex 38.5366 -31.9233 -5
      vertex 36.6008 -28.4616 -5
      vertex 38.8502 -28.9397 -5
    endloop
  endfacet
  facet normal 0 0 -1
    outer loop
      vertex 35.6738 -31.3148 -5
      vertex 36.6008 -28.4616 -5
      vertex 38.5366 -31.9233 -5
    endloop
  endfacet
  facet normal 0 0 -1
    outer loop
      vertex 35.6738 -31.3148 -5
      vertex 34.5 -27.5263 -5
      vertex 36.6008 -28.4616 -5
    endloop
  endfacet
  facet normal 0 0 -1
    outer loop
      vertex 33 -30.1244 -5
      vertex 34.5 -27.5263 -5
      vertex 35.6738 -31.3148 -5
    endloop
  endfacet
  facet normal 0 0 -1
    outer loop
      vertex 33 -30.1244 -5
      vertex 32.6396 -26.1746 -5
      vertex 34.5 -27.5263 -5
    endloop
  endfacet
  facet normal 0 0 -1
    outer loop
      vertex 30.6322 -28.404 -5
      vertex 32.6396 -26.1746 -5
      vertex 33 -30.1244 -5
    endloop
  endfacet
  facet normal -0 0 -1
    outer loop
      vertex 32.6396 -26.1746 -5
      vertex 30.6322 -28.404 -5
      vertex 31.1008 -24.4656 -5
    endloop
  endfacet
  facet normal 0 0 -1
    outer loop
      vertex 28.6738 -26.229 -5
      vertex 31.1008 -24.4656 -5
      vertex 30.6322 -28.404 -5
    endloop
  endfacet
  facet normal -0 0 -1
    outer loop
      vertex 31.1008 -24.4656 -5
      vertex 28.6738 -26.229 -5
      vertex 29.951 -22.4741 -5
    endloop
  endfacet
  facet normal -0 0 -1
    outer loop
      vertex 29.951 -22.4741 -5
      vertex 27.2104 -23.6943 -5
      vertex 29.2404 -20.287 -5
    endloop
  endfacet
  facet normal 0 0 -1
    outer loop
      vertex 27.2104 -23.6943 -5
      vertex 29.951 -22.4741 -5
      vertex 28.6738 -26.229 -5
    endloop
  endfacet
  facet normal 0 0 -1
    outer loop
      vertex 50.049 -13.5259 -5
      vertex 52.7896 -12.3057 -5
      vertex 50.7596 -15.713 -5
    endloop
  endfacet
  facet normal -0 0 -1
    outer loop
      vertex 52.7896 -12.3057 -5
      vertex 50.049 -13.5259 -5
      vertex 51.3262 -9.77101 -5
    endloop
  endfacet
  facet normal 0 0 -1
    outer loop
      vertex 48.8992 -11.5344 -5
      vertex 51.3262 -9.77101 -5
      vertex 50.049 -13.5259 -5
    endloop
  endfacet
  facet normal -0 0 -1
    outer loop
      vertex 51.3262 -9.77101 -5
      vertex 48.8992 -11.5344 -5
      vertex 49.3678 -7.59597 -5
    endloop
  endfacet
  facet normal 0 0 -1
    outer loop
      vertex 47.3604 -9.82541 -5
      vertex 49.3678 -7.59597 -5
      vertex 48.8992 -11.5344 -5
    endloop
  endfacet
  facet normal -0 0 -1
    outer loop
      vertex 49.3678 -7.59597 -5
      vertex 47.3604 -9.82541 -5
      vertex 48.5475 -7 -5
    endloop
  endfacet
  facet normal 0 0 -1
    outer loop
      vertex 45.5 -8.47372 -5
      vertex 48.5475 -7 -5
      vertex 47.3604 -9.82541 -5
    endloop
  endfacet
  facet normal 0 0 -1
    outer loop
      vertex 43.3992 -7.53838 -5
      vertex 48.5475 -7 -5
      vertex 45.5 -8.47372 -5
    endloop
  endfacet
  facet normal 0 0 -1
    outer loop
      vertex 41.1498 -7.06026 -5
      vertex 48.5475 -7 -5
      vertex 43.3992 -7.53838 -5
    endloop
  endfacet
  facet normal 0 0 -1
    outer loop
      vertex 38.8502 -7.06026 -5
      vertex 48.5475 -7 -5
      vertex 41.1498 -7.06026 -5
    endloop
  endfacet
  facet normal 0 0 -1
    outer loop
      vertex 38.8502 -7.06026 -5
      vertex 31.4525 -7 -5
      vertex 48.5475 -7 -5
    endloop
  endfacet
  facet normal 0 0 -1
    outer loop
      vertex 36.6008 -7.53838 -5
      vertex 31.4525 -7 -5
      vertex 38.8502 -7.06026 -5
    endloop
  endfacet
  facet normal 0 0 -1
    outer loop
      vertex 34.5 -8.47372 -5
      vertex 31.4525 -7 -5
      vertex 36.6008 -7.53838 -5
    endloop
  endfacet
  facet normal 0 0 -1
    outer loop
      vertex 32.6396 -9.82541 -5
      vertex 31.4525 -7 -5
      vertex 34.5 -8.47372 -5
    endloop
  endfacet
  facet normal 0 0 -1
    outer loop
      vertex 30.6322 -7.59597 -5
      vertex 32.6396 -9.82541 -5
      vertex 31.1008 -11.5344 -5
    endloop
  endfacet
  facet normal 0 0 -1
    outer loop
      vertex 32.6396 -9.82541 -5
      vertex 30.6322 -7.59597 -5
      vertex 31.4525 -7 -5
    endloop
  endfacet
  facet normal 0 0 -1
    outer loop
      vertex 28.6738 -9.77101 -5
      vertex 31.1008 -11.5344 -5
      vertex 29.951 -13.5259 -5
    endloop
  endfacet
  facet normal 0 0 -1
    outer loop
      vertex 27.2104 -12.3057 -5
      vertex 29.951 -13.5259 -5
      vertex 29.2404 -15.713 -5
    endloop
  endfacet
  facet normal 0 0 -1
    outer loop
      vertex 31.1008 -11.5344 -5
      vertex 28.6738 -9.77101 -5
      vertex 30.6322 -7.59597 -5
    endloop
  endfacet
  facet normal 0 0 -1
    outer loop
      vertex 26.3059 -15.0892 -5
      vertex 29.2404 -15.713 -5
      vertex 29 -18 -5
    endloop
  endfacet
  facet normal 0 0 -1
    outer loop
      vertex 26.3059 -20.9108 -5
      vertex 29.2404 -20.287 -5
      vertex 27.2104 -23.6943 -5
    endloop
  endfacet
  facet normal -0 0 -1
    outer loop
      vertex 29.2404 -20.287 -5
      vertex 26.3059 -20.9108 -5
      vertex 29 -18 -5
    endloop
  endfacet
  facet normal 0 0 -1
    outer loop
      vertex 29.951 -13.5259 -5
      vertex 27.2104 -12.3057 -5
      vertex 28.6738 -9.77101 -5
    endloop
  endfacet
  facet normal 0 0 -1
    outer loop
      vertex 26 -18 -5
      vertex 29 -18 -5
      vertex 26.3059 -20.9108 -5
    endloop
  endfacet
  facet normal 0 0 -1
    outer loop
      vertex 29.2404 -15.713 -5
      vertex 26.3059 -15.0892 -5
      vertex 27.2104 -12.3057 -5
    endloop
  endfacet
  facet normal 0 0 -1
    outer loop
      vertex 29 -18 -5
      vertex 26 -18 -5
      vertex 26.3059 -15.0892 -5
    endloop
  endfacet
  facet normal 0.587786 -0.809017 0
    outer loop
      vertex 47 -30.1244 -5
      vertex 49.3678 -28.404 5
      vertex 47 -30.1244 5
    endloop
  endfacet
  facet normal 0.587786 -0.809017 0
    outer loop
      vertex 49.3678 -28.404 5
      vertex 47 -30.1244 -5
      vertex 49.3678 -28.404 -5
    endloop
  endfacet
  facet normal -0.207912 -0.978148 0
    outer loop
      vertex 35.6738 -31.3148 -5
      vertex 38.5366 -31.9233 5
      vertex 35.6738 -31.3148 5
    endloop
  endfacet
  facet normal -0.207912 -0.978148 -0
    outer loop
      vertex 38.5366 -31.9233 5
      vertex 35.6738 -31.3148 -5
      vertex 38.5366 -31.9233 -5
    endloop
  endfacet
  facet normal -0.406736 -0.913546 0
    outer loop
      vertex 33 -30.1244 -5
      vertex 35.6738 -31.3148 5
      vertex 33 -30.1244 5
    endloop
  endfacet
  facet normal -0.406736 -0.913546 -0
    outer loop
      vertex 35.6738 -31.3148 5
      vertex 33 -30.1244 -5
      vertex 35.6738 -31.3148 -5
    endloop
  endfacet
  facet normal -0.743145 -0.66913 0
    outer loop
      vertex 30.6322 -28.404 -5
      vertex 28.6738 -26.229 5
      vertex 28.6738 -26.229 -5
    endloop
  endfacet
  facet normal -0.743145 -0.66913 0
    outer loop
      vertex 28.6738 -26.229 5
      vertex 30.6322 -28.404 -5
      vertex 30.6322 -28.404 5
    endloop
  endfacet
  facet normal -0.951057 -0.309017 0
    outer loop
      vertex 27.2104 -23.6943 -5
      vertex 26.3059 -20.9108 5
      vertex 26.3059 -20.9108 -5
    endloop
  endfacet
  facet normal -0.951057 -0.309017 0
    outer loop
      vertex 26.3059 -20.9108 5
      vertex 27.2104 -23.6943 -5
      vertex 27.2104 -23.6943 5
    endloop
  endfacet
  facet normal -0.994522 -0.104529 0
    outer loop
      vertex 26.3059 -20.9108 -5
      vertex 26 -18 5
      vertex 26 -18 -5
    endloop
  endfacet
  facet normal -0.994522 -0.104529 0
    outer loop
      vertex 26 -18 5
      vertex 26.3059 -20.9108 -5
      vertex 26.3059 -20.9108 5
    endloop
  endfacet
  facet normal 0.406736 -0.913546 0
    outer loop
      vertex 44.3262 -31.3148 -5
      vertex 47 -30.1244 5
      vertex 44.3262 -31.3148 5
    endloop
  endfacet
  facet normal 0.406736 -0.913546 0
    outer loop
      vertex 47 -30.1244 5
      vertex 44.3262 -31.3148 -5
      vertex 47 -30.1244 -5
    endloop
  endfacet
  facet normal 0.207912 -0.978148 0
    outer loop
      vertex 41.4634 -31.9233 -5
      vertex 44.3262 -31.3148 5
      vertex 41.4634 -31.9233 5
    endloop
  endfacet
  facet normal 0.207912 -0.978148 0
    outer loop
      vertex 44.3262 -31.3148 5
      vertex 41.4634 -31.9233 -5
      vertex 44.3262 -31.3148 -5
    endloop
  endfacet
  facet normal -0.587786 -0.809017 0
    outer loop
      vertex 30.6322 -28.404 -5
      vertex 33 -30.1244 5
      vertex 30.6322 -28.404 5
    endloop
  endfacet
  facet normal -0.587786 -0.809017 -0
    outer loop
      vertex 33 -30.1244 5
      vertex 30.6322 -28.404 -5
      vertex 33 -30.1244 -5
    endloop
  endfacet
  facet normal -0.866025 -0.500001 0
    outer loop
      vertex 50.049 -13.5259 -5
      vertex 48.8992 -11.5344 5
      vertex 48.8992 -11.5344 -5
    endloop
  endfacet
  facet normal -0.866025 -0.500001 0
    outer loop
      vertex 48.8992 -11.5344 5
      vertex 50.049 -13.5259 -5
      vertex 50.049 -13.5259 5
    endloop
  endfacet
  facet normal -0.951056 -0.309017 0
    outer loop
      vertex 50.7596 -15.713 -5
      vertex 50.049 -13.5259 5
      vertex 50.049 -13.5259 -5
    endloop
  endfacet
  facet normal -0.951056 -0.309017 0
    outer loop
      vertex 50.049 -13.5259 5
      vertex 50.7596 -15.713 -5
      vertex 50.7596 -15.713 5
    endloop
  endfacet
  facet normal -0.207912 -0.978148 0
    outer loop
      vertex 41.1498 -7.06026 -5
      vertex 43.3992 -7.53838 5
      vertex 41.1498 -7.06026 5
    endloop
  endfacet
  facet normal -0.207912 -0.978148 -0
    outer loop
      vertex 43.3992 -7.53838 5
      vertex 41.1498 -7.06026 -5
      vertex 43.3992 -7.53838 -5
    endloop
  endfacet
  facet normal -0.406737 -0.913545 0
    outer loop
      vertex 43.3992 -7.53838 -5
      vertex 45.5 -8.47372 5
      vertex 43.3992 -7.53838 5
    endloop
  endfacet
  facet normal -0.406737 -0.913545 -0
    outer loop
      vertex 45.5 -8.47372 5
      vertex 43.3992 -7.53838 -5
      vertex 45.5 -8.47372 -5
    endloop
  endfacet
  facet normal 0.207912 -0.978148 0
    outer loop
      vertex 36.6008 -7.53838 -5
      vertex 38.8502 -7.06026 5
      vertex 36.6008 -7.53838 5
    endloop
  endfacet
  facet normal 0.207912 -0.978148 0
    outer loop
      vertex 38.8502 -7.06026 5
      vertex 36.6008 -7.53838 -5
      vertex 38.8502 -7.06026 -5
    endloop
  endfacet
  facet normal 0.866025 -0.500001 0
    outer loop
      vertex 29.951 -13.5259 5
      vertex 31.1008 -11.5344 -5
      vertex 31.1008 -11.5344 5
    endloop
  endfacet
  facet normal 0.866025 -0.500001 0
    outer loop
      vertex 31.1008 -11.5344 -5
      vertex 29.951 -13.5259 5
      vertex 29.951 -13.5259 -5
    endloop
  endfacet
  facet normal -0.994522 0.104528 0
    outer loop
      vertex 50.7596 -20.287 -5
      vertex 51 -18 5
      vertex 51 -18 -5
    endloop
  endfacet
  facet normal -0.994522 0.104528 0
    outer loop
      vertex 51 -18 5
      vertex 50.7596 -20.287 -5
      vertex 50.7596 -20.287 5
    endloop
  endfacet
  facet normal -0.743145 -0.66913 0
    outer loop
      vertex 48.8992 -11.5344 -5
      vertex 47.3604 -9.82541 5
      vertex 47.3604 -9.82541 -5
    endloop
  endfacet
  facet normal -0.743145 -0.66913 0
    outer loop
      vertex 47.3604 -9.82541 5
      vertex 48.8992 -11.5344 -5
      vertex 48.8992 -11.5344 5
    endloop
  endfacet
  facet normal 0 -1 0
    outer loop
      vertex 38.8502 -7.06026 -5
      vertex 41.1498 -7.06026 5
      vertex 38.8502 -7.06026 5
    endloop
  endfacet
  facet normal 0 -1 -0
    outer loop
      vertex 41.1498 -7.06026 5
      vertex 38.8502 -7.06026 -5
      vertex 41.1498 -7.06026 -5
    endloop
  endfacet
  facet normal -0.587785 -0.809017 0
    outer loop
      vertex 45.5 -8.47372 -5
      vertex 47.3604 -9.82541 5
      vertex 45.5 -8.47372 5
    endloop
  endfacet
  facet normal -0.587785 -0.809017 -0
    outer loop
      vertex 47.3604 -9.82541 5
      vertex 45.5 -8.47372 -5
      vertex 47.3604 -9.82541 -5
    endloop
  endfacet
  facet normal 0.994522 -0.104528 0
    outer loop
      vertex 29 -18 5
      vertex 29.2404 -15.713 -5
      vertex 29.2404 -15.713 5
    endloop
  endfacet
  facet normal 0.994522 -0.104528 0
    outer loop
      vertex 29.2404 -15.713 -5
      vertex 29 -18 5
      vertex 29 -18 -5
    endloop
  endfacet
  facet normal 0.743145 -0.66913 0
    outer loop
      vertex 31.1008 -11.5344 5
      vertex 32.6396 -9.82541 -5
      vertex 32.6396 -9.82541 5
    endloop
  endfacet
  facet normal 0.743145 -0.66913 0
    outer loop
      vertex 32.6396 -9.82541 -5
      vertex 31.1008 -11.5344 5
      vertex 31.1008 -11.5344 -5
    endloop
  endfacet
  facet normal 0.406737 -0.913545 0
    outer loop
      vertex 34.5 -8.47372 -5
      vertex 36.6008 -7.53838 5
      vertex 34.5 -8.47372 5
    endloop
  endfacet
  facet normal 0.406737 -0.913545 0
    outer loop
      vertex 36.6008 -7.53838 5
      vertex 34.5 -8.47372 -5
      vertex 36.6008 -7.53838 -5
    endloop
  endfacet
  facet normal 0.587785 -0.809017 0
    outer loop
      vertex 32.6396 -9.82541 -5
      vertex 34.5 -8.47372 5
      vertex 32.6396 -9.82541 5
    endloop
  endfacet
  facet normal 0.587785 -0.809017 0
    outer loop
      vertex 34.5 -8.47372 5
      vertex 32.6396 -9.82541 -5
      vertex 34.5 -8.47372 -5
    endloop
  endfacet
  facet normal -0.994522 -0.104528 0
    outer loop
      vertex 51 -18 -5
      vertex 50.7596 -15.713 5
      vertex 50.7596 -15.713 -5
    endloop
  endfacet
  facet normal -0.994522 -0.104528 0
    outer loop
      vertex 50.7596 -15.713 5
      vertex 51 -18 -5
      vertex 51 -18 5
    endloop
  endfacet
  facet normal -0.587786 0.809017 0
    outer loop
      vertex 47.3604 -26.1746 -5
      vertex 45.5 -27.5263 5
      vertex 47.3604 -26.1746 5
    endloop
  endfacet
  facet normal -0.587786 0.809017 0
    outer loop
      vertex 45.5 -27.5263 5
      vertex 47.3604 -26.1746 -5
      vertex 45.5 -27.5263 -5
    endloop
  endfacet
  facet normal -0.951056 0.309018 0
    outer loop
      vertex 50.049 -22.4741 -5
      vertex 50.7596 -20.287 5
      vertex 50.7596 -20.287 -5
    endloop
  endfacet
  facet normal -0.951056 0.309018 0
    outer loop
      vertex 50.7596 -20.287 5
      vertex 50.049 -22.4741 -5
      vertex 50.049 -22.4741 5
    endloop
  endfacet
  facet normal 0.587786 0.809017 -0
    outer loop
      vertex 34.5 -27.5263 -5
      vertex 32.6396 -26.1746 5
      vertex 34.5 -27.5263 5
    endloop
  endfacet
  facet normal 0.587786 0.809017 0
    outer loop
      vertex 32.6396 -26.1746 5
      vertex 34.5 -27.5263 -5
      vertex 32.6396 -26.1746 -5
    endloop
  endfacet
  facet normal 0.866025 0.5 0
    outer loop
      vertex 31.1008 -24.4656 5
      vertex 29.951 -22.4741 -5
      vertex 29.951 -22.4741 5
    endloop
  endfacet
  facet normal 0.866025 0.5 0
    outer loop
      vertex 29.951 -22.4741 -5
      vertex 31.1008 -24.4656 5
      vertex 31.1008 -24.4656 -5
    endloop
  endfacet
  facet normal 0.951056 -0.309017 0
    outer loop
      vertex 29.2404 -15.713 5
      vertex 29.951 -13.5259 -5
      vertex 29.951 -13.5259 5
    endloop
  endfacet
  facet normal 0.951056 -0.309017 0
    outer loop
      vertex 29.951 -13.5259 -5
      vertex 29.2404 -15.713 5
      vertex 29.2404 -15.713 -5
    endloop
  endfacet
  facet normal 0.994522 0.104528 0
    outer loop
      vertex 29.2404 -20.287 5
      vertex 29 -18 -5
      vertex 29 -18 5
    endloop
  endfacet
  facet normal 0.994522 0.104528 0
    outer loop
      vertex 29 -18 -5
      vertex 29.2404 -20.287 5
      vertex 29.2404 -20.287 -5
    endloop
  endfacet
  facet normal 0.743145 0.66913 0
    outer loop
      vertex 32.6396 -26.1746 5
      vertex 31.1008 -24.4656 -5
      vertex 31.1008 -24.4656 5
    endloop
  endfacet
  facet normal 0.743145 0.66913 0
    outer loop
      vertex 31.1008 -24.4656 -5
      vertex 32.6396 -26.1746 5
      vertex 32.6396 -26.1746 -5
    endloop
  endfacet
  facet normal -0.207912 0.978148 0
    outer loop
      vertex 43.3992 -28.4616 -5
      vertex 41.1498 -28.9397 5
      vertex 43.3992 -28.4616 5
    endloop
  endfacet
  facet normal -0.207912 0.978148 0
    outer loop
      vertex 41.1498 -28.9397 5
      vertex 43.3992 -28.4616 -5
      vertex 41.1498 -28.9397 -5
    endloop
  endfacet
  facet normal -0.406736 0.913546 0
    outer loop
      vertex 45.5 -27.5263 -5
      vertex 43.3992 -28.4616 5
      vertex 45.5 -27.5263 5
    endloop
  endfacet
  facet normal -0.406736 0.913546 0
    outer loop
      vertex 43.3992 -28.4616 5
      vertex 45.5 -27.5263 -5
      vertex 43.3992 -28.4616 -5
    endloop
  endfacet
  facet normal -0.743145 0.66913 0
    outer loop
      vertex 47.3604 -26.1746 -5
      vertex 48.8992 -24.4656 5
      vertex 48.8992 -24.4656 -5
    endloop
  endfacet
  facet normal -0.743145 0.66913 0
    outer loop
      vertex 48.8992 -24.4656 5
      vertex 47.3604 -26.1746 -5
      vertex 47.3604 -26.1746 5
    endloop
  endfacet
  facet normal -0.866025 0.5 0
    outer loop
      vertex 48.8992 -24.4656 -5
      vertex 50.049 -22.4741 5
      vertex 50.049 -22.4741 -5
    endloop
  endfacet
  facet normal -0.866025 0.5 0
    outer loop
      vertex 50.049 -22.4741 5
      vertex 48.8992 -24.4656 -5
      vertex 48.8992 -24.4656 5
    endloop
  endfacet
  facet normal 0 1 -0
    outer loop
      vertex 41.1498 -28.9397 -5
      vertex 38.8502 -28.9397 5
      vertex 41.1498 -28.9397 5
    endloop
  endfacet
  facet normal 0 1 0
    outer loop
      vertex 38.8502 -28.9397 5
      vertex 41.1498 -28.9397 -5
      vertex 38.8502 -28.9397 -5
    endloop
  endfacet
  facet normal 0.207912 0.978148 -0
    outer loop
      vertex 38.8502 -28.9397 -5
      vertex 36.6008 -28.4616 5
      vertex 38.8502 -28.9397 5
    endloop
  endfacet
  facet normal 0.207912 0.978148 0
    outer loop
      vertex 36.6008 -28.4616 5
      vertex 38.8502 -28.9397 -5
      vertex 36.6008 -28.4616 -5
    endloop
  endfacet
  facet normal 0.951056 0.309018 0
    outer loop
      vertex 29.951 -22.4741 5
      vertex 29.2404 -20.287 -5
      vertex 29.2404 -20.287 5
    endloop
  endfacet
  facet normal 0.951056 0.309018 0
    outer loop
      vertex 29.2404 -20.287 -5
      vertex 29.951 -22.4741 5
      vertex 29.951 -22.4741 -5
    endloop
  endfacet
  facet normal 0.406736 0.913546 -0
    outer loop
      vertex 36.6008 -28.4616 -5
      vertex 34.5 -27.5263 5
      vertex 36.6008 -28.4616 5
    endloop
  endfacet
  facet normal 0.406736 0.913546 0
    outer loop
      vertex 34.5 -27.5263 5
      vertex 36.6008 -28.4616 -5
      vertex 34.5 -27.5263 -5
    endloop
  endfacet
endsolid OpenSCAD_Model
