solid OpenSCAD_Model
  facet normal 0.997564 0.0697563 0
    outer loop
      vertex 1.4 0 10.5
      vertex 1.38638 0.194842 -10.5
      vertex 1.38638 0.194842 10.5
    endloop
  endfacet
  facet normal 0.997564 0.0697563 0
    outer loop
      vertex 1.38638 0.194842 -10.5
      vertex 1.4 0 10.5
      vertex 1.4 0 -10.5
    endloop
  endfacet
  facet normal 0.978148 0.207911 0
    outer loop
      vertex 1.38638 0.194842 10.5
      vertex 1.34577 0.385892 -10.5
      vertex 1.34577 0.385892 10.5
    endloop
  endfacet
  facet normal 0.978148 0.207911 0
    outer loop
      vertex 1.34577 0.385892 -10.5
      vertex 1.38638 0.194842 10.5
      vertex 1.38638 0.194842 -10.5
    endloop
  endfacet
  facet normal 0.939693 0.34202 0
    outer loop
      vertex 1.34577 0.385892 10.5
      vertex 1.27896 0.569431 -10.5
      vertex 1.27896 0.569431 10.5
    endloop
  endfacet
  facet normal 0.939693 0.34202 0
    outer loop
      vertex 1.27896 0.569431 -10.5
      vertex 1.34577 0.385892 10.5
      vertex 1.34577 0.385892 -10.5
    endloop
  endfacet
  facet normal 0.882947 0.469472 0
    outer loop
      vertex 1.27896 0.569431 10.5
      vertex 1.18727 0.741887 -10.5
      vertex 1.18727 0.741887 10.5
    endloop
  endfacet
  facet normal 0.882947 0.469472 0
    outer loop
      vertex 1.18727 0.741887 -10.5
      vertex 1.27896 0.569431 10.5
      vertex 1.27896 0.569431 -10.5
    endloop
  endfacet
  facet normal 0.809017 0.587785 0
    outer loop
      vertex 1.18727 0.741887 10.5
      vertex 1.07246 0.899903 -10.5
      vertex 1.07246 0.899903 10.5
    endloop
  endfacet
  facet normal 0.809017 0.587785 0
    outer loop
      vertex 1.07246 0.899903 -10.5
      vertex 1.18727 0.741887 10.5
      vertex 1.18727 0.741887 -10.5
    endloop
  endfacet
  facet normal 0.71934 0.694658 0
    outer loop
      vertex 1.07246 0.899903 10.5
      vertex 0.936783 1.0404 -10.5
      vertex 0.936783 1.0404 10.5
    endloop
  endfacet
  facet normal 0.71934 0.694658 0
    outer loop
      vertex 0.936783 1.0404 -10.5
      vertex 1.07246 0.899903 10.5
      vertex 1.07246 0.899903 -10.5
    endloop
  endfacet
  facet normal 0.615662 0.788011 -0
    outer loop
      vertex 0.936783 1.0404 -10.5
      vertex 0.78287 1.16065 10.5
      vertex 0.936783 1.0404 10.5
    endloop
  endfacet
  facet normal 0.615662 0.788011 0
    outer loop
      vertex 0.78287 1.16065 10.5
      vertex 0.936783 1.0404 -10.5
      vertex 0.78287 1.16065 -10.5
    endloop
  endfacet
  facet normal 0.5 0.866026 -0
    outer loop
      vertex 0.78287 1.16065 -10.5
      vertex 0.61372 1.25831 10.5
      vertex 0.78287 1.16065 10.5
    endloop
  endfacet
  facet normal 0.5 0.866026 0
    outer loop
      vertex 0.61372 1.25831 10.5
      vertex 0.78287 1.16065 -10.5
      vertex 0.61372 1.25831 -10.5
    endloop
  endfacet
  facet normal 0.374607 0.927184 -0
    outer loop
      vertex 0.61372 1.25831 -10.5
      vertex 0.432624 1.33148 10.5
      vertex 0.61372 1.25831 10.5
    endloop
  endfacet
  facet normal 0.374607 0.927184 0
    outer loop
      vertex 0.432624 1.33148 10.5
      vertex 0.61372 1.25831 -10.5
      vertex 0.432624 1.33148 -10.5
    endloop
  endfacet
  facet normal 0.241922 0.970296 -0
    outer loop
      vertex 0.432624 1.33148 -10.5
      vertex 0.243107 1.37873 10.5
      vertex 0.432624 1.33148 10.5
    endloop
  endfacet
  facet normal 0.241922 0.970296 0
    outer loop
      vertex 0.243107 1.37873 10.5
      vertex 0.432624 1.33148 -10.5
      vertex 0.243107 1.37873 -10.5
    endloop
  endfacet
  facet normal 0.104528 0.994522 -0
    outer loop
      vertex 0.243107 1.37873 -10.5
      vertex 0.0488593 1.39915 10.5
      vertex 0.243107 1.37873 10.5
    endloop
  endfacet
  facet normal 0.104528 0.994522 0
    outer loop
      vertex 0.0488593 1.39915 10.5
      vertex 0.243107 1.37873 -10.5
      vertex 0.0488593 1.39915 -10.5
    endloop
  endfacet
  facet normal -0.0348995 0.999391 0
    outer loop
      vertex 0.0488593 1.39915 -10.5
      vertex -0.14634 1.39233 10.5
      vertex 0.0488593 1.39915 10.5
    endloop
  endfacet
  facet normal -0.0348995 0.999391 0
    outer loop
      vertex -0.14634 1.39233 10.5
      vertex 0.0488593 1.39915 -10.5
      vertex -0.14634 1.39233 -10.5
    endloop
  endfacet
  facet normal -0.173648 0.984808 0
    outer loop
      vertex -0.14634 1.39233 -10.5
      vertex -0.338691 1.35841 10.5
      vertex -0.14634 1.39233 10.5
    endloop
  endfacet
  facet normal -0.173648 0.984808 0
    outer loop
      vertex -0.338691 1.35841 10.5
      vertex -0.14634 1.39233 -10.5
      vertex -0.338691 1.35841 -10.5
    endloop
  endfacet
  facet normal -0.309017 0.951057 0
    outer loop
      vertex -0.338691 1.35841 -10.5
      vertex -0.524449 1.29806 10.5
      vertex -0.338691 1.35841 10.5
    endloop
  endfacet
  facet normal -0.309017 0.951057 0
    outer loop
      vertex -0.524449 1.29806 10.5
      vertex -0.338691 1.35841 -10.5
      vertex -0.524449 1.29806 -10.5
    endloop
  endfacet
  facet normal -0.438371 0.898794 0
    outer loop
      vertex -0.524449 1.29806 -10.5
      vertex -0.7 1.21244 10.5
      vertex -0.524449 1.29806 10.5
    endloop
  endfacet
  facet normal -0.438371 0.898794 0
    outer loop
      vertex -0.7 1.21244 10.5
      vertex -0.524449 1.29806 -10.5
      vertex -0.7 1.21244 -10.5
    endloop
  endfacet
  facet normal -0.559193 0.829038 0
    outer loop
      vertex -0.7 1.21244 -10.5
      vertex -0.861926 1.10322 10.5
      vertex -0.7 1.21244 10.5
    endloop
  endfacet
  facet normal -0.559193 0.829038 0
    outer loop
      vertex -0.861926 1.10322 10.5
      vertex -0.7 1.21244 -10.5
      vertex -0.861926 1.10322 -10.5
    endloop
  endfacet
  facet normal -0.669131 0.743145 0
    outer loop
      vertex -0.861926 1.10322 -10.5
      vertex -1.00708 0.972522 10.5
      vertex -0.861926 1.10322 10.5
    endloop
  endfacet
  facet normal -0.669131 0.743145 0
    outer loop
      vertex -1.00708 0.972522 10.5
      vertex -0.861926 1.10322 -10.5
      vertex -1.00708 0.972522 -10.5
    endloop
  endfacet
  facet normal -0.766044 0.642788 0
    outer loop
      vertex -1.13262 0.822899 -10.5
      vertex -1.00708 0.972522 10.5
      vertex -1.00708 0.972522 -10.5
    endloop
  endfacet
  facet normal -0.766044 0.642788 0
    outer loop
      vertex -1.00708 0.972522 10.5
      vertex -1.13262 0.822899 -10.5
      vertex -1.13262 0.822899 10.5
    endloop
  endfacet
  facet normal -0.848048 0.529919 0
    outer loop
      vertex -1.23613 0.65726 -10.5
      vertex -1.13262 0.822899 10.5
      vertex -1.13262 0.822899 -10.5
    endloop
  endfacet
  facet normal -0.848048 0.529919 0
    outer loop
      vertex -1.13262 0.822899 10.5
      vertex -1.23613 0.65726 -10.5
      vertex -1.23613 0.65726 10.5
    endloop
  endfacet
  facet normal -0.913546 0.406736 0
    outer loop
      vertex -1.31557 0.478828 -10.5
      vertex -1.23613 0.65726 10.5
      vertex -1.23613 0.65726 -10.5
    endloop
  endfacet
  facet normal -0.913546 0.406736 0
    outer loop
      vertex -1.23613 0.65726 10.5
      vertex -1.31557 0.478828 -10.5
      vertex -1.31557 0.478828 10.5
    endloop
  endfacet
  facet normal -0.961262 0.275638 0
    outer loop
      vertex -1.36941 0.291076 -10.5
      vertex -1.31557 0.478828 10.5
      vertex -1.31557 0.478828 -10.5
    endloop
  endfacet
  facet normal -0.961262 0.275638 0
    outer loop
      vertex -1.31557 0.478828 10.5
      vertex -1.36941 0.291076 -10.5
      vertex -1.36941 0.291076 10.5
    endloop
  endfacet
  facet normal -0.990268 0.139173 0
    outer loop
      vertex -1.39659 0.0976591 -10.5
      vertex -1.36941 0.291076 10.5
      vertex -1.36941 0.291076 -10.5
    endloop
  endfacet
  facet normal -0.990268 0.139173 0
    outer loop
      vertex -1.36941 0.291076 10.5
      vertex -1.39659 0.0976591 -10.5
      vertex -1.39659 0.0976591 10.5
    endloop
  endfacet
  facet normal -1 0 0
    outer loop
      vertex -1.39659 -0.0976591 -10.5
      vertex -1.39659 0.0976591 10.5
      vertex -1.39659 0.0976591 -10.5
    endloop
  endfacet
  facet normal -1 -0 0
    outer loop
      vertex -1.39659 0.0976591 10.5
      vertex -1.39659 -0.0976591 -10.5
      vertex -1.39659 -0.0976591 10.5
    endloop
  endfacet
  facet normal -0.990268 -0.139173 0
    outer loop
      vertex -1.36941 -0.291076 -10.5
      vertex -1.39659 -0.0976591 10.5
      vertex -1.39659 -0.0976591 -10.5
    endloop
  endfacet
  facet normal -0.990268 -0.139173 0
    outer loop
      vertex -1.39659 -0.0976591 10.5
      vertex -1.36941 -0.291076 -10.5
      vertex -1.36941 -0.291076 10.5
    endloop
  endfacet
  facet normal -0.961262 -0.275638 0
    outer loop
      vertex -1.31557 -0.478828 -10.5
      vertex -1.36941 -0.291076 10.5
      vertex -1.36941 -0.291076 -10.5
    endloop
  endfacet
  facet normal -0.961262 -0.275638 0
    outer loop
      vertex -1.36941 -0.291076 10.5
      vertex -1.31557 -0.478828 -10.5
      vertex -1.31557 -0.478828 10.5
    endloop
  endfacet
  facet normal -0.913546 -0.406736 0
    outer loop
      vertex -1.23613 -0.65726 -10.5
      vertex -1.31557 -0.478828 10.5
      vertex -1.31557 -0.478828 -10.5
    endloop
  endfacet
  facet normal -0.913546 -0.406736 0
    outer loop
      vertex -1.31557 -0.478828 10.5
      vertex -1.23613 -0.65726 -10.5
      vertex -1.23613 -0.65726 10.5
    endloop
  endfacet
  facet normal -0.848048 -0.529919 0
    outer loop
      vertex -1.13262 -0.822899 -10.5
      vertex -1.23613 -0.65726 10.5
      vertex -1.23613 -0.65726 -10.5
    endloop
  endfacet
  facet normal -0.848048 -0.529919 0
    outer loop
      vertex -1.23613 -0.65726 10.5
      vertex -1.13262 -0.822899 -10.5
      vertex -1.13262 -0.822899 10.5
    endloop
  endfacet
  facet normal -0.766044 -0.642788 0
    outer loop
      vertex -1.00708 -0.972522 -10.5
      vertex -1.13262 -0.822899 10.5
      vertex -1.13262 -0.822899 -10.5
    endloop
  endfacet
  facet normal -0.766044 -0.642788 0
    outer loop
      vertex -1.13262 -0.822899 10.5
      vertex -1.00708 -0.972522 -10.5
      vertex -1.00708 -0.972522 10.5
    endloop
  endfacet
  facet normal -0.669131 -0.743145 0
    outer loop
      vertex -1.00708 -0.972522 -10.5
      vertex -0.861926 -1.10322 10.5
      vertex -1.00708 -0.972522 10.5
    endloop
  endfacet
  facet normal -0.669131 -0.743145 -0
    outer loop
      vertex -0.861926 -1.10322 10.5
      vertex -1.00708 -0.972522 -10.5
      vertex -0.861926 -1.10322 -10.5
    endloop
  endfacet
  facet normal -0.559193 -0.829038 0
    outer loop
      vertex -0.861926 -1.10322 -10.5
      vertex -0.7 -1.21244 10.5
      vertex -0.861926 -1.10322 10.5
    endloop
  endfacet
  facet normal -0.559193 -0.829038 -0
    outer loop
      vertex -0.7 -1.21244 10.5
      vertex -0.861926 -1.10322 -10.5
      vertex -0.7 -1.21244 -10.5
    endloop
  endfacet
  facet normal -0.438371 -0.898794 0
    outer loop
      vertex -0.7 -1.21244 -10.5
      vertex -0.524449 -1.29806 10.5
      vertex -0.7 -1.21244 10.5
    endloop
  endfacet
  facet normal -0.438371 -0.898794 -0
    outer loop
      vertex -0.524449 -1.29806 10.5
      vertex -0.7 -1.21244 -10.5
      vertex -0.524449 -1.29806 -10.5
    endloop
  endfacet
  facet normal -0.309017 -0.951057 0
    outer loop
      vertex -0.524449 -1.29806 -10.5
      vertex -0.338691 -1.35841 10.5
      vertex -0.524449 -1.29806 10.5
    endloop
  endfacet
  facet normal -0.309017 -0.951057 -0
    outer loop
      vertex -0.338691 -1.35841 10.5
      vertex -0.524449 -1.29806 -10.5
      vertex -0.338691 -1.35841 -10.5
    endloop
  endfacet
  facet normal -0.173648 -0.984808 0
    outer loop
      vertex -0.338691 -1.35841 -10.5
      vertex -0.14634 -1.39233 10.5
      vertex -0.338691 -1.35841 10.5
    endloop
  endfacet
  facet normal -0.173648 -0.984808 -0
    outer loop
      vertex -0.14634 -1.39233 10.5
      vertex -0.338691 -1.35841 -10.5
      vertex -0.14634 -1.39233 -10.5
    endloop
  endfacet
  facet normal -0.0348995 -0.999391 0
    outer loop
      vertex -0.14634 -1.39233 -10.5
      vertex 0.0488593 -1.39915 10.5
      vertex -0.14634 -1.39233 10.5
    endloop
  endfacet
  facet normal -0.0348995 -0.999391 -0
    outer loop
      vertex 0.0488593 -1.39915 10.5
      vertex -0.14634 -1.39233 -10.5
      vertex 0.0488593 -1.39915 -10.5
    endloop
  endfacet
  facet normal 0.104528 -0.994522 0
    outer loop
      vertex 0.0488593 -1.39915 -10.5
      vertex 0.243107 -1.37873 10.5
      vertex 0.0488593 -1.39915 10.5
    endloop
  endfacet
  facet normal 0.104528 -0.994522 0
    outer loop
      vertex 0.243107 -1.37873 10.5
      vertex 0.0488593 -1.39915 -10.5
      vertex 0.243107 -1.37873 -10.5
    endloop
  endfacet
  facet normal 0.241922 -0.970296 0
    outer loop
      vertex 0.243107 -1.37873 -10.5
      vertex 0.432624 -1.33148 10.5
      vertex 0.243107 -1.37873 10.5
    endloop
  endfacet
  facet normal 0.241922 -0.970296 0
    outer loop
      vertex 0.432624 -1.33148 10.5
      vertex 0.243107 -1.37873 -10.5
      vertex 0.432624 -1.33148 -10.5
    endloop
  endfacet
  facet normal 0.374607 -0.927184 0
    outer loop
      vertex 0.432624 -1.33148 -10.5
      vertex 0.61372 -1.25831 10.5
      vertex 0.432624 -1.33148 10.5
    endloop
  endfacet
  facet normal 0.374607 -0.927184 0
    outer loop
      vertex 0.61372 -1.25831 10.5
      vertex 0.432624 -1.33148 -10.5
      vertex 0.61372 -1.25831 -10.5
    endloop
  endfacet
  facet normal 0.5 -0.866026 0
    outer loop
      vertex 0.61372 -1.25831 -10.5
      vertex 0.78287 -1.16065 10.5
      vertex 0.61372 -1.25831 10.5
    endloop
  endfacet
  facet normal 0.5 -0.866026 0
    outer loop
      vertex 0.78287 -1.16065 10.5
      vertex 0.61372 -1.25831 -10.5
      vertex 0.78287 -1.16065 -10.5
    endloop
  endfacet
  facet normal 0.615662 -0.788011 0
    outer loop
      vertex 0.78287 -1.16065 -10.5
      vertex 0.936783 -1.0404 10.5
      vertex 0.78287 -1.16065 10.5
    endloop
  endfacet
  facet normal 0.615662 -0.788011 0
    outer loop
      vertex 0.936783 -1.0404 10.5
      vertex 0.78287 -1.16065 -10.5
      vertex 0.936783 -1.0404 -10.5
    endloop
  endfacet
  facet normal 0.71934 -0.694658 0
    outer loop
      vertex 0.936783 -1.0404 10.5
      vertex 1.07246 -0.899903 -10.5
      vertex 1.07246 -0.899903 10.5
    endloop
  endfacet
  facet normal 0.71934 -0.694658 0
    outer loop
      vertex 1.07246 -0.899903 -10.5
      vertex 0.936783 -1.0404 10.5
      vertex 0.936783 -1.0404 -10.5
    endloop
  endfacet
  facet normal 0.809017 -0.587785 0
    outer loop
      vertex 1.07246 -0.899903 10.5
      vertex 1.18727 -0.741887 -10.5
      vertex 1.18727 -0.741887 10.5
    endloop
  endfacet
  facet normal 0.809017 -0.587785 0
    outer loop
      vertex 1.18727 -0.741887 -10.5
      vertex 1.07246 -0.899903 10.5
      vertex 1.07246 -0.899903 -10.5
    endloop
  endfacet
  facet normal 0.882947 -0.469472 0
    outer loop
      vertex 1.18727 -0.741887 10.5
      vertex 1.27896 -0.569431 -10.5
      vertex 1.27896 -0.569431 10.5
    endloop
  endfacet
  facet normal 0.882947 -0.469472 0
    outer loop
      vertex 1.27896 -0.569431 -10.5
      vertex 1.18727 -0.741887 10.5
      vertex 1.18727 -0.741887 -10.5
    endloop
  endfacet
  facet normal 0.939693 -0.34202 0
    outer loop
      vertex 1.27896 -0.569431 10.5
      vertex 1.34577 -0.385892 -10.5
      vertex 1.34577 -0.385892 10.5
    endloop
  endfacet
  facet normal 0.939693 -0.34202 0
    outer loop
      vertex 1.34577 -0.385892 -10.5
      vertex 1.27896 -0.569431 10.5
      vertex 1.27896 -0.569431 -10.5
    endloop
  endfacet
  facet normal 0.978148 -0.207911 0
    outer loop
      vertex 1.34577 -0.385892 10.5
      vertex 1.38638 -0.194842 -10.5
      vertex 1.38638 -0.194842 10.5
    endloop
  endfacet
  facet normal 0.978148 -0.207911 0
    outer loop
      vertex 1.38638 -0.194842 -10.5
      vertex 1.34577 -0.385892 10.5
      vertex 1.34577 -0.385892 -10.5
    endloop
  endfacet
  facet normal 0.997564 -0.0697563 0
    outer loop
      vertex 1.38638 -0.194842 10.5
      vertex 1.4 0 -10.5
      vertex 1.4 0 10.5
    endloop
  endfacet
  facet normal 0.997564 -0.0697563 0
    outer loop
      vertex 1.4 0 -10.5
      vertex 1.38638 -0.194842 10.5
      vertex 1.38638 -0.194842 -10.5
    endloop
  endfacet
  facet normal 0 0 -1
    outer loop
      vertex 1.38638 -0.194842 -10.5
      vertex 1.38638 0.194842 -10.5
      vertex 1.4 0 -10.5
    endloop
  endfacet
  facet normal 0 0 -1
    outer loop
      vertex 1.34577 -0.385892 -10.5
      vertex 1.38638 0.194842 -10.5
      vertex 1.38638 -0.194842 -10.5
    endloop
  endfacet
  facet normal 0 0 -1
    outer loop
      vertex 1.34577 -0.385892 -10.5
      vertex 1.34577 0.385892 -10.5
      vertex 1.38638 0.194842 -10.5
    endloop
  endfacet
  facet normal 0 0 -1
    outer loop
      vertex 1.27896 -0.569431 -10.5
      vertex 1.34577 0.385892 -10.5
      vertex 1.34577 -0.385892 -10.5
    endloop
  endfacet
  facet normal 0 0 -1
    outer loop
      vertex 1.27896 -0.569431 -10.5
      vertex 1.27896 0.569431 -10.5
      vertex 1.34577 0.385892 -10.5
    endloop
  endfacet
  facet normal 0 0 -1
    outer loop
      vertex 1.18727 -0.741887 -10.5
      vertex 1.27896 0.569431 -10.5
      vertex 1.27896 -0.569431 -10.5
    endloop
  endfacet
  facet normal 0 0 -1
    outer loop
      vertex 1.18727 -0.741887 -10.5
      vertex 1.18727 0.741887 -10.5
      vertex 1.27896 0.569431 -10.5
    endloop
  endfacet
  facet normal 0 0 -1
    outer loop
      vertex 1.07246 -0.899903 -10.5
      vertex 1.18727 0.741887 -10.5
      vertex 1.18727 -0.741887 -10.5
    endloop
  endfacet
  facet normal 0 0 -1
    outer loop
      vertex 1.07246 -0.899903 -10.5
      vertex 1.07246 0.899903 -10.5
      vertex 1.18727 0.741887 -10.5
    endloop
  endfacet
  facet normal 0 0 -1
    outer loop
      vertex 0.936783 -1.0404 -10.5
      vertex 1.07246 0.899903 -10.5
      vertex 1.07246 -0.899903 -10.5
    endloop
  endfacet
  facet normal 0 0 -1
    outer loop
      vertex 0.936783 -1.0404 -10.5
      vertex 0.936783 1.0404 -10.5
      vertex 1.07246 0.899903 -10.5
    endloop
  endfacet
  facet normal 0 0 -1
    outer loop
      vertex 0.78287 -1.16065 -10.5
      vertex 0.936783 1.0404 -10.5
      vertex 0.936783 -1.0404 -10.5
    endloop
  endfacet
  facet normal 0 0 -1
    outer loop
      vertex 0.78287 -1.16065 -10.5
      vertex 0.78287 1.16065 -10.5
      vertex 0.936783 1.0404 -10.5
    endloop
  endfacet
  facet normal 0 0 -1
    outer loop
      vertex 0.61372 -1.25831 -10.5
      vertex 0.78287 1.16065 -10.5
      vertex 0.78287 -1.16065 -10.5
    endloop
  endfacet
  facet normal 0 0 -1
    outer loop
      vertex 0.61372 -1.25831 -10.5
      vertex 0.61372 1.25831 -10.5
      vertex 0.78287 1.16065 -10.5
    endloop
  endfacet
  facet normal 0 0 -1
    outer loop
      vertex 0.432624 -1.33148 -10.5
      vertex 0.61372 1.25831 -10.5
      vertex 0.61372 -1.25831 -10.5
    endloop
  endfacet
  facet normal 0 0 -1
    outer loop
      vertex 0.432624 -1.33148 -10.5
      vertex 0.432624 1.33148 -10.5
      vertex 0.61372 1.25831 -10.5
    endloop
  endfacet
  facet normal 0 0 -1
    outer loop
      vertex 0.243107 -1.37873 -10.5
      vertex 0.432624 1.33148 -10.5
      vertex 0.432624 -1.33148 -10.5
    endloop
  endfacet
  facet normal 0 0 -1
    outer loop
      vertex 0.243107 -1.37873 -10.5
      vertex 0.243107 1.37873 -10.5
      vertex 0.432624 1.33148 -10.5
    endloop
  endfacet
  facet normal 0 0 -1
    outer loop
      vertex 0.0488593 -1.39915 -10.5
      vertex 0.243107 1.37873 -10.5
      vertex 0.243107 -1.37873 -10.5
    endloop
  endfacet
  facet normal 0 0 -1
    outer loop
      vertex 0.0488593 -1.39915 -10.5
      vertex 0.0488593 1.39915 -10.5
      vertex 0.243107 1.37873 -10.5
    endloop
  endfacet
  facet normal 0 0 -1
    outer loop
      vertex -0.14634 -1.39233 -10.5
      vertex 0.0488593 1.39915 -10.5
      vertex 0.0488593 -1.39915 -10.5
    endloop
  endfacet
  facet normal 0 0 -1
    outer loop
      vertex -0.14634 -1.39233 -10.5
      vertex -0.14634 1.39233 -10.5
      vertex 0.0488593 1.39915 -10.5
    endloop
  endfacet
  facet normal 0 0 -1
    outer loop
      vertex -0.338691 -1.35841 -10.5
      vertex -0.14634 1.39233 -10.5
      vertex -0.14634 -1.39233 -10.5
    endloop
  endfacet
  facet normal 0 0 -1
    outer loop
      vertex -0.338691 -1.35841 -10.5
      vertex -0.338691 1.35841 -10.5
      vertex -0.14634 1.39233 -10.5
    endloop
  endfacet
  facet normal 0 0 -1
    outer loop
      vertex -0.524449 -1.29806 -10.5
      vertex -0.338691 1.35841 -10.5
      vertex -0.338691 -1.35841 -10.5
    endloop
  endfacet
  facet normal 0 0 -1
    outer loop
      vertex -0.524449 -1.29806 -10.5
      vertex -0.524449 1.29806 -10.5
      vertex -0.338691 1.35841 -10.5
    endloop
  endfacet
  facet normal 0 0 -1
    outer loop
      vertex -0.7 -1.21244 -10.5
      vertex -0.524449 1.29806 -10.5
      vertex -0.524449 -1.29806 -10.5
    endloop
  endfacet
  facet normal 0 0 -1
    outer loop
      vertex -0.7 -1.21244 -10.5
      vertex -0.7 1.21244 -10.5
      vertex -0.524449 1.29806 -10.5
    endloop
  endfacet
  facet normal 0 0 -1
    outer loop
      vertex -0.861926 -1.10322 -10.5
      vertex -0.7 1.21244 -10.5
      vertex -0.7 -1.21244 -10.5
    endloop
  endfacet
  facet normal 0 0 -1
    outer loop
      vertex -0.861926 -1.10322 -10.5
      vertex -0.861926 1.10322 -10.5
      vertex -0.7 1.21244 -10.5
    endloop
  endfacet
  facet normal 0 0 -1
    outer loop
      vertex -1.00708 -0.972522 -10.5
      vertex -0.861926 1.10322 -10.5
      vertex -0.861926 -1.10322 -10.5
    endloop
  endfacet
  facet normal 0 0 -1
    outer loop
      vertex -1.00708 -0.972522 -10.5
      vertex -1.00708 0.972522 -10.5
      vertex -0.861926 1.10322 -10.5
    endloop
  endfacet
  facet normal 0 0 -1
    outer loop
      vertex -1.13262 -0.822899 -10.5
      vertex -1.00708 0.972522 -10.5
      vertex -1.00708 -0.972522 -10.5
    endloop
  endfacet
  facet normal 0 0 -1
    outer loop
      vertex -1.13262 -0.822899 -10.5
      vertex -1.13262 0.822899 -10.5
      vertex -1.00708 0.972522 -10.5
    endloop
  endfacet
  facet normal 0 0 -1
    outer loop
      vertex -1.23613 -0.65726 -10.5
      vertex -1.13262 0.822899 -10.5
      vertex -1.13262 -0.822899 -10.5
    endloop
  endfacet
  facet normal 0 0 -1
    outer loop
      vertex -1.23613 -0.65726 -10.5
      vertex -1.23613 0.65726 -10.5
      vertex -1.13262 0.822899 -10.5
    endloop
  endfacet
  facet normal 0 0 -1
    outer loop
      vertex -1.31557 -0.478828 -10.5
      vertex -1.23613 0.65726 -10.5
      vertex -1.23613 -0.65726 -10.5
    endloop
  endfacet
  facet normal 0 0 -1
    outer loop
      vertex -1.31557 -0.478828 -10.5
      vertex -1.31557 0.478828 -10.5
      vertex -1.23613 0.65726 -10.5
    endloop
  endfacet
  facet normal 0 0 -1
    outer loop
      vertex -1.36941 -0.291076 -10.5
      vertex -1.31557 0.478828 -10.5
      vertex -1.31557 -0.478828 -10.5
    endloop
  endfacet
  facet normal 0 0 -1
    outer loop
      vertex -1.36941 -0.291076 -10.5
      vertex -1.36941 0.291076 -10.5
      vertex -1.31557 0.478828 -10.5
    endloop
  endfacet
  facet normal 0 0 -1
    outer loop
      vertex -1.39659 -0.0976591 -10.5
      vertex -1.36941 0.291076 -10.5
      vertex -1.36941 -0.291076 -10.5
    endloop
  endfacet
  facet normal 0 0 -1
    outer loop
      vertex -1.36941 0.291076 -10.5
      vertex -1.39659 -0.0976591 -10.5
      vertex -1.39659 0.0976591 -10.5
    endloop
  endfacet
  facet normal 0 0 1
    outer loop
      vertex 1.38638 0.194842 10.5
      vertex 1.38638 -0.194842 10.5
      vertex 1.4 0 10.5
    endloop
  endfacet
  facet normal 0 0 1
    outer loop
      vertex 1.34577 0.385892 10.5
      vertex 1.38638 -0.194842 10.5
      vertex 1.38638 0.194842 10.5
    endloop
  endfacet
  facet normal 0 0 1
    outer loop
      vertex 1.34577 0.385892 10.5
      vertex 1.34577 -0.385892 10.5
      vertex 1.38638 -0.194842 10.5
    endloop
  endfacet
  facet normal 0 0 1
    outer loop
      vertex 1.27896 0.569431 10.5
      vertex 1.34577 -0.385892 10.5
      vertex 1.34577 0.385892 10.5
    endloop
  endfacet
  facet normal 0 0 1
    outer loop
      vertex 1.27896 0.569431 10.5
      vertex 1.27896 -0.569431 10.5
      vertex 1.34577 -0.385892 10.5
    endloop
  endfacet
  facet normal 0 0 1
    outer loop
      vertex 1.18727 0.741887 10.5
      vertex 1.27896 -0.569431 10.5
      vertex 1.27896 0.569431 10.5
    endloop
  endfacet
  facet normal 0 0 1
    outer loop
      vertex 1.18727 0.741887 10.5
      vertex 1.18727 -0.741887 10.5
      vertex 1.27896 -0.569431 10.5
    endloop
  endfacet
  facet normal 0 0 1
    outer loop
      vertex 1.07246 0.899903 10.5
      vertex 1.18727 -0.741887 10.5
      vertex 1.18727 0.741887 10.5
    endloop
  endfacet
  facet normal 0 0 1
    outer loop
      vertex 1.07246 0.899903 10.5
      vertex 1.07246 -0.899903 10.5
      vertex 1.18727 -0.741887 10.5
    endloop
  endfacet
  facet normal 0 0 1
    outer loop
      vertex 0.936783 1.0404 10.5
      vertex 1.07246 -0.899903 10.5
      vertex 1.07246 0.899903 10.5
    endloop
  endfacet
  facet normal 0 0 1
    outer loop
      vertex 0.936783 1.0404 10.5
      vertex 0.936783 -1.0404 10.5
      vertex 1.07246 -0.899903 10.5
    endloop
  endfacet
  facet normal 0 0 1
    outer loop
      vertex 0.78287 1.16065 10.5
      vertex 0.936783 -1.0404 10.5
      vertex 0.936783 1.0404 10.5
    endloop
  endfacet
  facet normal 0 0 1
    outer loop
      vertex 0.78287 1.16065 10.5
      vertex 0.78287 -1.16065 10.5
      vertex 0.936783 -1.0404 10.5
    endloop
  endfacet
  facet normal 0 0 1
    outer loop
      vertex 0.61372 1.25831 10.5
      vertex 0.78287 -1.16065 10.5
      vertex 0.78287 1.16065 10.5
    endloop
  endfacet
  facet normal 0 0 1
    outer loop
      vertex 0.61372 1.25831 10.5
      vertex 0.61372 -1.25831 10.5
      vertex 0.78287 -1.16065 10.5
    endloop
  endfacet
  facet normal 0 0 1
    outer loop
      vertex 0.432624 1.33148 10.5
      vertex 0.61372 -1.25831 10.5
      vertex 0.61372 1.25831 10.5
    endloop
  endfacet
  facet normal 0 0 1
    outer loop
      vertex 0.432624 1.33148 10.5
      vertex 0.432624 -1.33148 10.5
      vertex 0.61372 -1.25831 10.5
    endloop
  endfacet
  facet normal 0 0 1
    outer loop
      vertex 0.243107 1.37873 10.5
      vertex 0.432624 -1.33148 10.5
      vertex 0.432624 1.33148 10.5
    endloop
  endfacet
  facet normal 0 0 1
    outer loop
      vertex 0.243107 1.37873 10.5
      vertex 0.243107 -1.37873 10.5
      vertex 0.432624 -1.33148 10.5
    endloop
  endfacet
  facet normal 0 0 1
    outer loop
      vertex 0.0488593 1.39915 10.5
      vertex 0.243107 -1.37873 10.5
      vertex 0.243107 1.37873 10.5
    endloop
  endfacet
  facet normal 0 0 1
    outer loop
      vertex 0.0488593 1.39915 10.5
      vertex 0.0488593 -1.39915 10.5
      vertex 0.243107 -1.37873 10.5
    endloop
  endfacet
  facet normal -0 0 1
    outer loop
      vertex -0.14634 1.39233 10.5
      vertex 0.0488593 -1.39915 10.5
      vertex 0.0488593 1.39915 10.5
    endloop
  endfacet
  facet normal 0 0 1
    outer loop
      vertex -0.14634 1.39233 10.5
      vertex -0.14634 -1.39233 10.5
      vertex 0.0488593 -1.39915 10.5
    endloop
  endfacet
  facet normal -0 0 1
    outer loop
      vertex -0.338691 1.35841 10.5
      vertex -0.14634 -1.39233 10.5
      vertex -0.14634 1.39233 10.5
    endloop
  endfacet
  facet normal 0 0 1
    outer loop
      vertex -0.338691 1.35841 10.5
      vertex -0.338691 -1.35841 10.5
      vertex -0.14634 -1.39233 10.5
    endloop
  endfacet
  facet normal -0 0 1
    outer loop
      vertex -0.524449 1.29806 10.5
      vertex -0.338691 -1.35841 10.5
      vertex -0.338691 1.35841 10.5
    endloop
  endfacet
  facet normal 0 0 1
    outer loop
      vertex -0.524449 1.29806 10.5
      vertex -0.524449 -1.29806 10.5
      vertex -0.338691 -1.35841 10.5
    endloop
  endfacet
  facet normal -0 0 1
    outer loop
      vertex -0.7 1.21244 10.5
      vertex -0.524449 -1.29806 10.5
      vertex -0.524449 1.29806 10.5
    endloop
  endfacet
  facet normal 0 0 1
    outer loop
      vertex -0.7 1.21244 10.5
      vertex -0.7 -1.21244 10.5
      vertex -0.524449 -1.29806 10.5
    endloop
  endfacet
  facet normal -0 0 1
    outer loop
      vertex -0.861926 1.10322 10.5
      vertex -0.7 -1.21244 10.5
      vertex -0.7 1.21244 10.5
    endloop
  endfacet
  facet normal 0 0 1
    outer loop
      vertex -0.861926 1.10322 10.5
      vertex -0.861926 -1.10322 10.5
      vertex -0.7 -1.21244 10.5
    endloop
  endfacet
  facet normal -0 0 1
    outer loop
      vertex -1.00708 0.972522 10.5
      vertex -0.861926 -1.10322 10.5
      vertex -0.861926 1.10322 10.5
    endloop
  endfacet
  facet normal 0 0 1
    outer loop
      vertex -1.00708 0.972522 10.5
      vertex -1.00708 -0.972522 10.5
      vertex -0.861926 -1.10322 10.5
    endloop
  endfacet
  facet normal -0 0 1
    outer loop
      vertex -1.13262 0.822899 10.5
      vertex -1.00708 -0.972522 10.5
      vertex -1.00708 0.972522 10.5
    endloop
  endfacet
  facet normal 0 0 1
    outer loop
      vertex -1.13262 0.822899 10.5
      vertex -1.13262 -0.822899 10.5
      vertex -1.00708 -0.972522 10.5
    endloop
  endfacet
  facet normal -0 0 1
    outer loop
      vertex -1.23613 0.65726 10.5
      vertex -1.13262 -0.822899 10.5
      vertex -1.13262 0.822899 10.5
    endloop
  endfacet
  facet normal 0 0 1
    outer loop
      vertex -1.23613 0.65726 10.5
      vertex -1.23613 -0.65726 10.5
      vertex -1.13262 -0.822899 10.5
    endloop
  endfacet
  facet normal -0 0 1
    outer loop
      vertex -1.31557 0.478828 10.5
      vertex -1.23613 -0.65726 10.5
      vertex -1.23613 0.65726 10.5
    endloop
  endfacet
  facet normal 0 0 1
    outer loop
      vertex -1.31557 0.478828 10.5
      vertex -1.31557 -0.478828 10.5
      vertex -1.23613 -0.65726 10.5
    endloop
  endfacet
  facet normal -0 0 1
    outer loop
      vertex -1.36941 0.291076 10.5
      vertex -1.31557 -0.478828 10.5
      vertex -1.31557 0.478828 10.5
    endloop
  endfacet
  facet normal 0 0 1
    outer loop
      vertex -1.36941 0.291076 10.5
      vertex -1.36941 -0.291076 10.5
      vertex -1.31557 -0.478828 10.5
    endloop
  endfacet
  facet normal -0 0 1
    outer loop
      vertex -1.39659 0.0976591 10.5
      vertex -1.36941 -0.291076 10.5
      vertex -1.36941 0.291076 10.5
    endloop
  endfacet
  facet normal 0 0 1
    outer loop
      vertex -1.36941 -0.291076 10.5
      vertex -1.39659 0.0976591 10.5
      vertex -1.39659 -0.0976591 10.5
    endloop
  endfacet
endsolid OpenSCAD_Model
